<?xml version="1.0" encoding="UTF-8" standalone="no"?>
<!DOCTYPE svg PUBLIC "-//W3C//DTD SVG 1.1//EN" "http://www.w3.org/Graphics/SVG/1.1/DTD/svg11.dtd">
<!-- Generated by Microsoft Visio, SVG Export adapt_5w_uml1.svg Page-1 -->
<svg xmlns="http://www.w3.org/2000/svg" xmlns:xlink="http://www.w3.org/1999/xlink" xmlns:ev="http://www.w3.org/2001/xml-events"
		width="10.2158in" height="7.50865in" viewBox="0 0 735.539 540.623" xml:space="preserve" color-interpolation-filters="sRGB"
		class="st11">
	<style type="text/css">
	<![CDATA[
		.st1 {fill:#c4dbf2;stroke:#000000;stroke-linecap:round;stroke-linejoin:round;stroke-width:0.24}
		.st2 {fill:#000000;font-family:Arial;font-size:1.00001em}
		.st3 {marker-end:url(#mrkr13-9);stroke:#000000;stroke-linecap:round;stroke-linejoin:round;stroke-width:0.24}
		.st4 {fill:#000000;fill-opacity:1;stroke:#000000;stroke-opacity:1;stroke-width:0.08695652173913}
		.st5 {fill:#ffffff;stroke:none;stroke-linecap:butt;stroke-width:7.2}
		.st6 {fill:#ffffff;stroke:none;stroke-linecap:butt}
		.st7 {fill:#4677bf;fill-opacity:1;stroke:#4677bf;stroke-opacity:1;stroke-width:0.16556291390728}
		.st8 {marker-end:url(#mrkr4-71);stroke:#000000;stroke-linecap:round;stroke-linejoin:round;stroke-width:0.5}
		.st9 {fill:#000000;fill-opacity:1;stroke:#000000;stroke-opacity:1;stroke-width:0.16556291390728}
		.st10 {font-size:1em}
		.st11 {fill:none;fill-rule:evenodd;font-size:12px;overflow:visible;stroke-linecap:square;stroke-miterlimit:3}
	]]>
	</style>

	<defs id="Markers">
		<g id="lend13">
			<path d="M 3 1 L 0 0 L 3 -1 L 3 1 " style="stroke:none"/>
		</g>
		<marker id="mrkr13-9" class="st4" refX="-34.5" orient="auto" markerUnits="strokeWidth" overflow="visible">
			<use xlink:href="#lend13" transform="scale(-11.5,-11.5) "/>
		</marker>
		<g id="lend4">
			<path d="M 2 1 L 0 0 L 2 -1 L 2 1 " style="stroke:none"/>
		</g>
		<marker id="mrkr4-62" class="st7" refX="-12.08" orient="auto" markerUnits="strokeWidth" overflow="visible">
			<use xlink:href="#lend4" transform="scale(-6.04,-6.04) "/>
		</marker>
		<marker id="mrkr4-71" class="st9" refX="-12.08" orient="auto" markerUnits="strokeWidth" overflow="visible">
			<use xlink:href="#lend4" transform="scale(-6.04,-6.04) "/>
		</marker>
	</defs>
	<g>
		<title>Page-1</title>
		<g id="shape227-1" transform="translate(238.365,-513.503)">
			<title>Start/End-point</title>
			<desc>Start</desc>
			<path d="M13.5 540.62 L58.5 540.62 A13.5 13.5 -180 0 0 58.5 513.62 L13.5 513.62 A13.5 13.5 -180 1 0 13.5 540.62 Z"
					class="st1"/>
			<text x="23.33" y="530.72" class="st2">Start</text>		</g>
		<g id="shape228-4" transform="translate(814.988,27.12) rotate(90)">
			<title>Flowline1</title>
			<path d="M0 540.62 L22.72 540.62" class="st3"/>
		</g>
		<g id="shape229-10" transform="translate(238.365,-428.503)">
			<title>Process.245</title>
			<desc>DISABLE</desc>
			<rect x="0" y="486.623" width="72" height="54" class="st1"/>
			<text x="10.65" y="517.22" class="st2">DISABLE</text>		</g>
		<g id="shape230-13" transform="translate(814.988,112.12) rotate(90)">
			<title>Flowline1.230</title>
			<desc>-/init();</desc>
			<path d="M0 540.62 L22.72 540.62" class="st3"/>
			<rect x="-556.79" y="4.80019" width="33.9964" height="14.4001" transform="rotate(-90)" class="st5"/>
			<text x="-556.79" y="15.6" transform="rotate(-90)" class="st2">-/init();</text>		</g>
		<g id="shape231-20" transform="translate(238.365,-343.503)">
			<title>Process.231</title>
			<desc>IDLE</desc>
			<rect x="0" y="486.623" width="72" height="54" class="st1"/>
			<text x="22.66" y="517.22" class="st2">IDLE</text>		</g>
		<g id="shape232-23" transform="translate(251.365,-145.503)">
			<title>Decision.254</title>
			<path d="M0 523.37 L23 506.12 L46 523.37 L23 540.62 L0 523.37 Z" class="st1"/>
		</g>
		<g id="shape233-25" transform="translate(814.988,197.12) rotate(90)">
			<title>Flowline1.233</title>
			<desc>evt==XFER_STARTED_EVT/ser_phy_event_handler(evt);</desc>
			<path d="M0 540.62 L22.72 540.62" class="st3"/>
			<rect x="-695.699" y="4.30019" width="310.815" height="14.4001" transform="rotate(-90)" class="st5"/>
			<text x="-695.7" y="15.1" transform="rotate(-90)" class="st2">evt==XFER_STARTED_EVT/ser_phy_event_handler(evt);</text>		</g>
		<g id="shape234-32" transform="translate(814.988,395.12) rotate(90)">
			<title>Flowline1.234</title>
			<desc>[evt.data==0x00]</desc>
			<path d="M0 540.62 L22.72 540.62" class="st3"/>
			<rect x="-585.994" y="3.30019" width="89.404" height="14.4001" transform="rotate(-90)" class="st5"/>
			<text x="-585.99" y="14.1" transform="rotate(-90)" class="st2">[evt.data==0x00]</text>		</g>
		<g id="shape235-39" transform="translate(238.365,-60.5031)">
			<title>Process.235</title>
			<desc>PASS</desc>
			<rect x="0" y="486.623" width="72" height="54" class="st1"/>
			<text x="19.99" y="517.22" class="st2">PASS</text>		</g>
		<g id="shape236-42" transform="translate(420.365,-60.5031)">
			<title>Process.236</title>
			<desc>ABORT</desc>
			<rect x="0" y="486.623" width="72" height="54" class="st1"/>
			<text x="15.33" y="517.22" class="st2">ABORT</text>		</g>
		<g id="shape237-45" transform="translate(520.365,-258.503)">
			<title>Process.237</title>
			<desc>RESTART</desc>
			<rect x="0" y="486.623" width="72" height="54" class="st1"/>
			<text x="8" y="517.22" class="st2">RESTART</text>		</g>
		<g id="shape243-48" transform="translate(238.365,-258.503)">
			<title>Process.243</title>
			<desc>GUARD</desc>
			<rect x="0" y="486.623" width="72" height="54" class="st1"/>
			<text x="14.33" y="517.22" class="st2">GUARD</text>		</g>
		<g id="shape244-51" transform="translate(814.988,282.12) rotate(90)">
			<title>Flowline1.244</title>
			<desc>evt==FIRST_BYTE_RECEIVED_EVT</desc>
			<path d="M0 540.62 L70.22 540.62" class="st3"/>
			<rect x="-638.661" y="10.8002" width="200.739" height="14.4001" transform="rotate(-90)" class="st6"/>
			<text x="-638.66" y="21.6" transform="rotate(-90)" class="st2">evt==FIRST_BYTE_RECEIVED_EVT</text>		</g>
		<g id="group250-58" transform="translate(225.865,-87.5031)">
			<title>Flowline2</title>
			<desc>evt==XFER_COMPLETED_EVT /ser_phy_event_handler(evt);</desc>
			<g id="shape251-59" transform="translate(12.5,-273.998)">
				<title>Straight Edge.28</title>
				<desc>N</desc>
			</g>
			<g id="shape252-63" transform="translate(30.5036,1072.24) rotate(180)">
				<title>Straight Edge.29</title>
				<desc>N</desc>
			</g>
			<g id="shape250-66">
				<path d="M12.5 540.62 L-125.5 540.62 A18 18 0 0 1 -143.5 522.62 L-143.5 275.62 A18 18 0 0 1 -125.5 257.62 L6.46 257.62"
						class="st8"/>
				<rect x="-220.196" y="478.473" width="173.393" height="28.8001" class="st6"/>
				<text x="-220.2" y="489.27" class="st2">evt==XFER_COMPLETED_EVT <tspan x="-211.55" dy="1.2em" class="st10">/</tspan>ser_phy_event_handler(evt);</text>			</g>
		</g>
		<g id="group254-75" transform="translate(297.365,-162.753)">
			<title>Flowline2.254</title>
			<desc>[evt.data != 0x00]/spi_master_abort();</desc>
			<g id="shape255-76" transform="translate(642.372,588.873) rotate(90)">
				<title>Straight Edge.28</title>
				<desc>N</desc>
			</g>
			<g id="shape256-79" transform="translate(-114.503,57.2515)">
				<title>Straight Edge.29</title>
				<desc>N</desc>
			</g>
			<g id="shape254-82">
				<path d="M0 540.62 L141 540.62 A18 18 0 0 1 159 558.62 L159 582.83" class="st8"/>
				<rect x="40.1138" y="534.673" width="199.773" height="14.4001" class="st5"/>
				<text x="40.11" y="545.47" class="st2">[evt.data != 0x00]/spi_master_abort();</text>			</g>
		</g>
		<g id="group257-89" transform="translate(492.365,-87.5031)">
			<title>Flowline2.257</title>
			<desc>(evt==XFER_COMPLETED_EVT || evt==XFER_ABORTED_EVT) /spi_maste...</desc>
			<g id="shape258-90" transform="translate(-453.578,369.623) rotate(-90)">
				<title>Straight Edge.28</title>
				<desc>N</desc>
			</g>
			<g id="shape259-93" transform="translate(-46.0893,23.0446)">
				<title>Straight Edge.29</title>
				<desc>N</desc>
			</g>
			<g id="shape257-96">
				<path d="M0 540.62 L46 540.62 A18 18 -180 0 0 64 522.62 L64 375.66" class="st8"/>
				<rect x="-115.174" y="406.973" width="351.01" height="28.8001" class="st5"/>
				<text x="-115.17" y="417.77" class="st2">(evt==XFER_COMPLETED_EVT || evt==XFER_ABORTED_EVT) <tspan x="4.98"
							dy="1.2em" class="st10">/</tspan>spi_master_restart();</text>			</g>
		</g>
		<g id="shape263-104" transform="translate(520.365,795.743) rotate(180)">
			<title>Flowline1.263</title>
			<desc>evt==XFER_RESTARTED</desc>
			<path d="M0 540.62 L201.72 540.62" class="st3"/>
			<rect x="-164.357" y="-545.823" width="141.377" height="14.4001" transform="rotate(180)" class="st5"/>
			<text x="-164.36" y="-535.02" transform="rotate(180)" class="st2">evt==XFER_RESTARTED</text>		</g>
	</g>
</svg>
