<?xml version="1.0" encoding="UTF-8" standalone="no"?>
<!DOCTYPE svg PUBLIC "-//W3C//DTD SVG 1.1//EN" "http://www.w3.org/Graphics/SVG/1.1/DTD/svg11.dtd">
<!-- Generated by Microsoft Visio, SVG Export ant_state_indicator_slave_rx_only2.svg Page-1 -->
<svg xmlns="http://www.w3.org/2000/svg" xmlns:xlink="http://www.w3.org/1999/xlink" xmlns:ev="http://www.w3.org/2001/xml-events"
		width="6.97301in" height="5.84058in" viewBox="0 0 502.056 420.522" xml:space="preserve" color-interpolation-filters="sRGB"
		class="st11">
	<style type="text/css">
	<![CDATA[
		.st1 {fill:none;stroke:#000000;stroke-linecap:round;stroke-linejoin:round;stroke-width:0.75}
		.st2 {fill:#c4dbf2;stroke:#000000;stroke-linecap:round;stroke-linejoin:round;stroke-width:0.24}
		.st3 {fill:#000000;font-family:Arial;font-size:1.00001em}
		.st4 {marker-end:url(#mrkr13-25);stroke:#000000;stroke-linecap:round;stroke-linejoin:round;stroke-width:0.24}
		.st5 {fill:#000000;fill-opacity:1;stroke:#000000;stroke-opacity:1;stroke-width:0.08695652173913}
		.st6 {fill:#ffffff;stroke:none;stroke-linecap:butt;stroke-width:7.2}
		.st7 {fill:#4677bf;fill-opacity:1;stroke:#4677bf;stroke-opacity:1;stroke-width:0.16556291390728}
		.st8 {marker-end:url(#mrkr4-60);stroke:#000000;stroke-linecap:round;stroke-linejoin:round;stroke-width:0.5}
		.st9 {fill:#000000;fill-opacity:1;stroke:#000000;stroke-opacity:1;stroke-width:0.16556291390728}
		.st10 {fill:#ffffff;stroke:none;stroke-linecap:round;stroke-linejoin:round;stroke-width:0.75}
		.st11 {fill:none;fill-rule:evenodd;font-size:12px;overflow:visible;stroke-linecap:square;stroke-miterlimit:3}
	]]>
	</style>

	<defs id="Markers">
		<g id="lend13">
			<path d="M 3 1 L 0 0 L 3 -1 L 3 1 " style="stroke:none"/>
		</g>
		<marker id="mrkr13-25" class="st5" refX="-34.5" orient="auto" markerUnits="strokeWidth" overflow="visible">
			<use xlink:href="#lend13" transform="scale(-11.5,-11.5) "/>
		</marker>
		<g id="lend4">
			<path d="M 2 1 L 0 0 L 2 -1 L 2 1 " style="stroke:none"/>
		</g>
		<marker id="mrkr4-51" class="st7" refX="-12.08" orient="auto" markerUnits="strokeWidth" overflow="visible">
			<use xlink:href="#lend4" transform="scale(-6.04,-6.04) "/>
		</marker>
		<marker id="mrkr4-60" class="st9" refX="-12.08" orient="auto" markerUnits="strokeWidth" overflow="visible">
			<use xlink:href="#lend4" transform="scale(-6.04,-6.04) "/>
		</marker>
	</defs>
	<g>
		<title>Page-1</title>
		<g id="shape257-1" transform="translate(300.752,-0.375)">
			<title>Sheet.257</title>
			<rect x="0" y="379.022" width="56" height="41.5" rx="20.75" ry="20.75" class="st1"/>
		</g>
		<g id="shape256-3" transform="translate(120.752,-158.655)">
			<title>Sheet.256</title>
			<rect x="0" y="379.022" width="56" height="41.5" rx="20.75" ry="20.75" class="st1"/>
		</g>
		<g id="shape227-5" transform="translate(202.752,-393.402)">
			<title>Start/End-point</title>
			<desc>Start</desc>
			<path d="M13.5 420.52 L58.5 420.52 A13.5 13.5 -180 0 0 58.5 393.52 L13.5 393.52 A13.5 13.5 -180 1 0 13.5 420.52 Z"
					class="st2"/>
			<text x="23.33" y="410.62" class="st3">Start</text>		</g>
		<g id="shape228-8" transform="translate(175.252,-313.18)">
			<title>Process.245</title>
			<desc>BSP_INDICATE_IDLE</desc>
			<rect x="0" y="366.522" width="127" height="54" class="st2"/>
			<text x="3.48" y="397.12" class="st3">BSP_INDICATE_IDLE</text>		</g>
		<g id="shape229-11" transform="translate(156.752,-219.293)">
			<title>Process.229</title>
			<desc>BSP_INDICATE_SCANNING</desc>
			<rect x="0" y="366.522" width="164" height="54" class="st2"/>
			<text x="3.65" y="397.12" class="st3">BSP_INDICATE_SCANNING</text>		</g>
		<g id="shape230-14" transform="translate(148.752,-125.405)">
			<title>Process.230</title>
			<desc>BSP_INDICATE_CONNECTED</desc>
			<rect x="0" y="366.522" width="180" height="54" class="st2"/>
			<text x="5.32" y="397.12" class="st3">BSP_INDICATE_CONNECTED</text>		</g>
		<g id="shape231-17" transform="translate(148.752,-21.125)">
			<title>Process.231</title>
			<desc>BSP_INDICATE_RCV_ERROR</desc>
			<rect x="0" y="366.522" width="180" height="54" class="st2"/>
			<text x="5.64" y="397.12" class="st3">BSP_INDICATE_RCV_ERROR</text>		</g>
		<g id="shape232-20" transform="translate(659.274,27.12) rotate(90)">
			<title>Flowline1</title>
			<path d="M0 420.52 L17.94 420.52" class="st4"/>
		</g>
		<g id="shape233-26" transform="translate(659.274,107.342) rotate(90)">
			<title>Flowline1.233</title>
			<desc>Channel Opened</desc>
			<path d="M0 420.52 L31.61 420.52" class="st4"/>
			<rect x="-467.56" y="12.8002" width="90.7394" height="14.4001" transform="rotate(-90)" class="st6"/>
			<text x="-467.56" y="23.6" transform="rotate(-90)" class="st3">Channel Opened</text>		</g>
		<g id="shape234-33" transform="translate(659.274,201.229) rotate(90)">
			<title>Flowline1.234</title>
			<desc>EVENT_RX</desc>
			<path d="M0 420.52 L31.61 420.52" class="st4"/>
			<rect x="-453.867" y="7.30019" width="63.3524" height="14.4001" transform="rotate(-90)" class="st6"/>
			<text x="-453.87" y="18.1" transform="rotate(-90)" class="st3">EVENT_RX</text>		</g>
		<g id="shape235-40" transform="translate(659.274,295.117) rotate(90)">
			<title>Flowline1.235</title>
			<desc>EVENT_RX_FAIL</desc>
			<path d="M0 420.52 L42 420.52" class="st4"/>
			<rect x="-469.875" y="12.8002" width="95.3685" height="14.4001" transform="rotate(-90)" class="st6"/>
			<text x="-469.87" y="23.6" transform="rotate(-90)" class="st3">EVENT_RX_FAIL</text>		</g>
		<g id="group239-47" transform="translate(337.252,-48.125)">
			<title>Flowline2.239</title>
			<desc>EVENT_RX_FAIL_GO_TO_SEARCH</desc>
			<g id="shape240-48" transform="translate(-16.5,633.874) rotate(180)">
				<title>Straight Edge.28</title>
				<desc>N</desc>
			</g>
			<g id="shape241-52" transform="translate(-26.5036,9.00182)">
				<title>Straight Edge.29</title>
				<desc>N</desc>
			</g>
			<g id="shape239-55">
				<path d="M-8.5 420.52 L35.77 420.52 A18 18 -180 0 0 53.77 402.52 L53.77 240.35 A18 18 -180 0 0 35.77 222.35 L-10.46
							 222.35" class="st8"/>
				<rect x="-41.5972" y="370.322" width="200.733" height="14.4001" class="st6"/>
				<text x="-41.6" y="381.12" class="st3">EVENT_RX_FAIL_GO_TO_SEARCH</text>			</g>
		</g>
		<g id="group242-63" transform="translate(161.252,-48.125)">
			<title>Flowline2.242</title>
			<desc>EVENT_RX</desc>
			<g id="shape243-64" transform="translate(-12.5,-95.2786)">
				<title>Straight Edge.28</title>
				<desc>N</desc>
			</g>
			<g id="shape244-67" transform="translate(5.50363,832.042) rotate(180)">
				<title>Straight Edge.29</title>
				<desc>N</desc>
			</g>
			<g id="shape242-70">
				<path d="M-12.5 420.52 L-61.09 420.52 A18 18 0 0 1 -79.09 402.52 L-79.09 334.24 A18 18 0 0 1 -61.09 316.24 L-18.54
							 316.24" class="st8"/>
				<rect x="-96.1761" y="380.182" width="63.3524" height="14.4001" class="st6"/>
				<text x="-96.18" y="390.98" class="st3">EVENT_RX</text>			</g>
		</g>
		<g id="group259-77" transform="translate(153.502,-246.293)">
			<title>Flowline2</title>
			<desc>EVENT_RX_SEARCH_TIMEOUT</desc>
			<g id="shape260-78" transform="translate(21.75,-84.8853)">
				<title>Straight Edge.28</title>
				<desc>N</desc>
			</g>
			<g id="shape261-81" transform="translate(21.2536,832.042) rotate(180)">
				<title>Straight Edge.29</title>
				<desc>N</desc>
			</g>
			<g id="shape259-84">
				<path d="M3.25 420.52 L-34.48 420.52 A18 18 0 0 1 -52.48 402.52 L-52.48 344.63 A18 18 0 0 1 -34.48 326.63 L15.71
							 326.63" class="st8"/>
				<rect x="-147.833" y="358.49" width="180.705" height="14.4001" class="st6"/>
				<text x="-147.83" y="369.29" class="st3">EVENT_RX_SEARCH_TIMEOUT</text>			</g>
		</g>
		<g id="shape262-91" transform="translate(328.752,-10.375)">
			<title>Sheet.262</title>
			<desc>EVENT_RX_FAIL</desc>
			<rect x="0" y="409.772" width="104.269" height="10.75" class="st10"/>
			<text x="4.45" y="418.75" class="st3">EVENT_RX_FAIL</text>		</g>
		<g id="shape264-94" transform="translate(66.0214,-174.03)">
			<title>Sheet.264</title>
			<desc>EVENT_RX</desc>
			<rect x="0" y="409.772" width="71.769" height="10.75" class="st10"/>
			<text x="4.21" y="418.75" class="st3">EVENT_RX</text>		</g>
		<g id="shape265-97" transform="translate(581.833,127.747) rotate(75.7557)">
			<title>Flowline1.265</title>
			<path d="M0 420.52 L1.93 420.52" class="st4"/>
		</g>
		<g id="shape266-102" transform="translate(335.591,799.197) rotate(-179.79)">
			<title>Flowline1.266</title>
			<path d="M0 420.52 L0.1 420.52" class="st4"/>
		</g>
	</g>
</svg>
