<?xml version="1.0" encoding="UTF-8" standalone="no"?>
<!DOCTYPE svg PUBLIC "-//W3C//DTD SVG 1.1//EN" "http://www.w3.org/Graphics/SVG/1.1/DTD/svg11.dtd">
<!-- Generated by Microsoft Visio, SVG Export ant_io_two_boards.svg Page-1 -->
<svg xmlns="http://www.w3.org/2000/svg" xmlns:xlink="http://www.w3.org/1999/xlink" xmlns:ev="http://www.w3.org/2001/xml-events"
		width="6.49632in" height="1.27627in" viewBox="0 0 467.735 91.8917" xml:space="preserve" color-interpolation-filters="sRGB"
		class="st7">
	<style type="text/css">
	<![CDATA[
		.st1 {fill:#c4dbf2;fill-opacity:0.85;stroke:#000000;stroke-linecap:round;stroke-linejoin:round;stroke-width:0.72}
		.st2 {fill:#000000;font-family:Arial;font-size:1.00001em}
		.st3 {fill:#000000;stroke:#000000;stroke-width:0.25}
		.st4 {fill:#ffffff;stroke:#000000;stroke-width:0.25}
		.st5 {stroke:#000000;stroke-linecap:round;stroke-linejoin:round;stroke-width:0.24}
		.st6 {fill:none;stroke:none;stroke-linecap:round;stroke-linejoin:round;stroke-width:0.75}
		.st7 {fill:none;fill-rule:evenodd;font-size:12px;overflow:visible;stroke-linecap:square;stroke-miterlimit:3}
	]]>
	</style>

	<g>
		<title>Page-1</title>
		<g id="shape377-1" transform="translate(0.36,-0.36)">
			<title>s.377</title>
			<desc>Node A</desc>
			<rect x="0" y="0.72" width="105" height="91.1717" class="st1"/>
			<text x="32.49" y="49.91" class="st2">Node A</text>		</g>
		<g id="shape378-4" transform="translate(95.36,-35.0921)">
			<title>Sheet.378</title>
			<path d="M10 70.18 A10.0007 10.8545 -180 0 0 0 81.05 A10.0007 10.8545 -180 0 0 10 91.89 L10 70.18 Z" class="st3"/>
		</g>
		<g id="shape380-6" transform="translate(147.86,-0.36)">
			<title>s.380</title>
			<desc>Node B</desc>
			<rect x="0" y="0.72" width="105" height="91.1717" class="st1"/>
			<text x="32.49" y="49.91" class="st2">Node B</text>		</g>
		<g id="shape382-9" transform="translate(157.86,126.984) rotate(180)">
			<title>Sheet.382</title>
			<path d="M10 70.18 A10.0007 10.8545 -180 0 0 0 81.05 A10.0007 10.8545 -180 0 0 10 91.89 L10 70.18 Z" class="st4"/>
		</g>
		<g id="shape383-11" transform="translate(295.36,-27.1667)">
			<title>Sheet.383</title>
			<path d="M10 70.18 A10.0007 10.8545 -180 0 0 -0 81.05 A10.0007 10.8545 -180 0 0 10 91.89 L10 70.18 Z" class="st4"/>
		</g>
		<g id="shape384-13" transform="translate(295.36,-54.1892)">
			<title>Sheet.384</title>
			<path d="M10 70.18 A10.0007 10.8545 -180 0 0 0 81.05 A10.0007 10.8545 -180 0 0 10 91.89 L10 70.18 Z" class="st3"/>
		</g>
		<g id="shape386-15" transform="translate(147.86,137.838) rotate(180)">
			<title>Sheet.386</title>
			<path d="M0 91.89 L42.5 91.89" class="st5"/>
		</g>
		<g id="shape387-18" transform="translate(305.36,-54.1892)">
			<title>Sheet.387</title>
			<desc>Master Endpoint</desc>
			<rect x="0" y="70.1842" width="126" height="21.7076" class="st6"/>
			<text x="4" y="84.64" class="st2">Master Endpoint</text>		</g>
		<g id="shape388-21" transform="translate(305.36,-27.1667)">
			<title>Sheet.388</title>
			<desc>Slave Endpoint</desc>
			<rect x="0" y="70.1842" width="162" height="21.7076" class="st6"/>
			<text x="4" y="84.64" class="st2">Slave Endpoint</text>		</g>
	</g>
</svg>
