<?xml version="1.0" encoding="UTF-8" standalone="no"?>
<!DOCTYPE svg PUBLIC "-//W3C//DTD SVG 1.1//EN" "http://www.w3.org/Graphics/SVG/1.1/DTD/svg11.dtd">
<!-- Generated by Microsoft Visio, SVG Export ant_scan_and_forward2.svg Page-1 -->
<svg xmlns="http://www.w3.org/2000/svg" xmlns:xlink="http://www.w3.org/1999/xlink" xmlns:ev="http://www.w3.org/2001/xml-events"
		width="11.2518in" height="5.85186in" viewBox="0 0 810.131 421.334" xml:space="preserve" color-interpolation-filters="sRGB"
		class="st10">
	<style type="text/css">
	<![CDATA[
		.st1 {fill:#88b7e4;stroke:none;stroke-linecap:round;stroke-linejoin:round;stroke-width:0.24}
		.st2 {fill:#0081b7;stroke:none;stroke-linecap:round;stroke-linejoin:round;stroke-width:0.24}
		.st3 {fill:#c4dbf2;stroke:none;stroke-linecap:round;stroke-linejoin:round;stroke-width:0.24}
		.st4 {fill:#ffffff;stroke:none;stroke-linecap:round;stroke-linejoin:round;stroke-width:0.24}
		.st5 {fill:#c4dbf2;fill-opacity:0.85;stroke:#000000;stroke-linecap:round;stroke-linejoin:round;stroke-width:0.72}
		.st6 {fill:#000000;font-family:Arial;font-size:1.00001em}
		.st7 {fill:#000000;stroke:#000000;stroke-width:0.25}
		.st8 {fill:#7f7f7f;stroke:#000000;stroke-width:0.25}
		.st9 {fill:none;stroke:none;stroke-linecap:round;stroke-linejoin:round;stroke-width:0.75}
		.st10 {fill:none;fill-rule:evenodd;font-size:12px;overflow:visible;stroke-linecap:square;stroke-miterlimit:3}
	]]>
	</style>

	<g>
		<title>Page-1</title>
		<g id="group790-1" transform="translate(40.0529,-107.335)">
			<title>Sheet.790</title>
			<g id="shape791-2" transform="translate(15.0768,-18.6772)">
				<title>Donut</title>
				<path d="M90.46 376.1 A45.2303 45.2303 -180 1 0 0 376.1 A45.2303 45.2303 -180 1 0 90.46 376.1 ZM6.03 376.1 A39.1996
							 39.1996 0 1 0 84.43 376.1 A39.1996 39.1996 0 1 0 6.03 376.1 Z" class="st1"/>
			</g>
			<g id="shape792-4" transform="translate(26.2803,-29.8808)">
				<title>Donut.261</title>
				<path d="M68.05 387.31 A34.0267 34.0267 -180 1 0 0 387.31 A34.0267 34.0267 -180 1 0 68.05 387.31 ZM5.67 387.31 A28.3556
							 28.3556 0 1 0 62.38 387.31 A28.3556 28.3556 0 1 0 5.67 387.31 Z" class="st2"/>
			</g>
			<g id="shape793-6" transform="translate(5.3809,-7.4737)">
				<title>Donut.262</title>
				<path d="M110.71 365.98 A55.3551 55.3551 -180 1 0 0 365.98 A55.3551 55.3551 -180 1 0 110.71 365.98 ZM4.94 365.98
							 A50.4132 50.4132 0 1 0 105.77 365.98 A50.4132 50.4132 0 1 0 4.94 365.98 Z" class="st3"/>
			</g>
			<g id="shape794-8" transform="translate(14.6332,-82.6455)">
				<title>Rectangle.18</title>
				<rect x="0" y="383.979" width="51.3705" height="37.3545" class="st4"/>
			</g>
			<g id="shape795-10" transform="translate(170.375,-8.00441) rotate(15)">
				<title>Rectangle.266</title>
				<rect x="0" y="383.979" width="51.3705" height="37.3545" class="st4"/>
			</g>
			<g id="shape796-12" transform="translate(0,-56.7066)">
				<title>Rectangle.267</title>
				<rect x="0" y="383.979" width="51.3705" height="37.3545" class="st4"/>
			</g>
			<g id="shape797-14" transform="translate(0,-30.1535)">
				<title>Rectangle.268</title>
				<rect x="0" y="383.979" width="51.3705" height="37.3545" class="st4"/>
			</g>
			<g id="shape798-16" transform="translate(8.93654,-7.53838)">
				<title>Rectangle.269</title>
				<rect x="0" y="383.979" width="51.3705" height="37.3545" class="st4"/>
			</g>
			<g id="shape799-18" transform="translate(42.1602,-5.68434E-013)">
				<title>Rectangle.270</title>
				<rect x="0" y="383.979" width="51.3705" height="37.3545" class="st4"/>
			</g>
		</g>
		<g id="shape247-20" transform="translate(0.36,-85.6279)">
			<title>s.247</title>
			<desc>Node A</desc>
			<rect x="0" y="330.162" width="105" height="91.1717" class="st5"/>
			<text x="32.49" y="379.35" class="st6">Node A</text>		</g>
		<g id="shape248-23" transform="translate(95.36,-133.385)">
			<title>Sheet.248</title>
			<path d="M10 399.63 A10.0007 10.8545 -180 0 0 0 410.49 A10.0007 10.8545 -180 0 0 10 421.33 L10 399.63 Z" class="st7"/>
		</g>
		<g id="shape249-25" transform="translate(95.36,-107.335)">
			<title>Sheet.249</title>
			<path d="M10 399.63 A10.0007 10.8545 -180 0 0 -0 410.49 A10.0007 10.8545 -180 0 0 10 421.33 L10 399.63 Z" class="st8"/>
		</g>
		<g id="shape273-27" transform="translate(620.514,-6.84874)">
			<title>Sheet.273</title>
			<path d="M10 399.63 A10.0007 10.8545 -180 0 0 -0 410.49 A10.0007 10.8545 -180 0 0 10 421.33 L10 399.63 Z" class="st8"/>
		</g>
		<g id="shape274-29" transform="translate(620.514,-33.8713)">
			<title>Sheet.274</title>
			<path d="M10 399.63 A10.0007 10.8545 -180 0 0 0 410.49 A10.0007 10.8545 -180 0 0 10 421.33 L10 399.63 Z" class="st7"/>
		</g>
		<g id="shape302-31" transform="translate(630.514,-33.8713)">
			<title>Sheet.302</title>
			<desc>Master Endpoint</desc>
			<rect x="0" y="399.626" width="126" height="21.7076" class="st9"/>
			<text x="4" y="414.08" class="st6">Master Endpoint</text>		</g>
		<g id="shape303-34" transform="translate(630.514,-6.84874)">
			<title>Sheet.303</title>
			<desc>Background Scanning Endpoint</desc>
			<rect x="0" y="399.626" width="179.243" height="21.7076" class="st9"/>
			<text x="4" y="414.08" class="st6">Background Scanning Endpoint</text>		</g>
		<g id="group804-37" transform="translate(250.053,-161.214)">
			<title>Sheet.804</title>
			<g id="shape805-38" transform="translate(15.0768,-18.6772)">
				<title>Donut</title>
				<path d="M90.46 376.1 A45.2303 45.2303 -180 1 0 0 376.1 A45.2303 45.2303 -180 1 0 90.46 376.1 ZM6.03 376.1 A39.1996
							 39.1996 0 1 0 84.43 376.1 A39.1996 39.1996 0 1 0 6.03 376.1 Z" class="st1"/>
			</g>
			<g id="shape806-40" transform="translate(26.2803,-29.8808)">
				<title>Donut.261</title>
				<path d="M68.05 387.31 A34.0267 34.0267 -180 1 0 0 387.31 A34.0267 34.0267 -180 1 0 68.05 387.31 ZM5.67 387.31 A28.3556
							 28.3556 0 1 0 62.38 387.31 A28.3556 28.3556 0 1 0 5.67 387.31 Z" class="st2"/>
			</g>
			<g id="shape807-42" transform="translate(5.3809,-7.4737)">
				<title>Donut.262</title>
				<path d="M110.71 365.98 A55.3551 55.3551 -180 1 0 0 365.98 A55.3551 55.3551 -180 1 0 110.71 365.98 ZM4.94 365.98
							 A50.4132 50.4132 0 1 0 105.77 365.98 A50.4132 50.4132 0 1 0 4.94 365.98 Z" class="st3"/>
			</g>
			<g id="shape808-44" transform="translate(14.6332,-82.6455)">
				<title>Rectangle.18</title>
				<rect x="0" y="383.979" width="51.3705" height="37.3545" class="st4"/>
			</g>
			<g id="shape809-46" transform="translate(170.375,-8.00441) rotate(15)">
				<title>Rectangle.266</title>
				<rect x="0" y="383.979" width="51.3705" height="37.3545" class="st4"/>
			</g>
			<g id="shape810-48" transform="translate(0,-56.7066)">
				<title>Rectangle.267</title>
				<rect x="0" y="383.979" width="51.3705" height="37.3545" class="st4"/>
			</g>
			<g id="shape811-50" transform="translate(0,-30.1535)">
				<title>Rectangle.268</title>
				<rect x="0" y="383.979" width="51.3705" height="37.3545" class="st4"/>
			</g>
			<g id="shape812-52" transform="translate(8.93654,-7.53838)">
				<title>Rectangle.269</title>
				<rect x="0" y="383.979" width="51.3705" height="37.3545" class="st4"/>
			</g>
			<g id="shape813-54" transform="translate(42.1602,-5.68434E-013)">
				<title>Rectangle.270</title>
				<rect x="0" y="383.979" width="51.3705" height="37.3545" class="st4"/>
			</g>
		</g>
		<g id="shape814-56" transform="translate(210.36,-139.506)">
			<title>s.814</title>
			<desc>Node B</desc>
			<rect x="0" y="330.162" width="105" height="91.1717" class="st5"/>
			<text x="32.49" y="379.35" class="st6">Node B</text>		</g>
		<g id="shape815-59" transform="translate(305.36,-187.263)">
			<title>Sheet.815</title>
			<path d="M10 399.63 A10.0007 10.8545 -180 0 0 0 410.49 A10.0007 10.8545 -180 0 0 10 421.33 L10 399.63 Z" class="st7"/>
		</g>
		<g id="shape816-61" transform="translate(305.36,-161.214)">
			<title>Sheet.816</title>
			<path d="M10 399.63 A10.0007 10.8545 -180 0 0 -0 410.49 A10.0007 10.8545 -180 0 0 10 421.33 L10 399.63 Z" class="st8"/>
		</g>
		<g id="group817-63" transform="translate(464.746,-301.214)">
			<title>Sheet.817</title>
			<g id="shape818-64" transform="translate(15.0768,-18.6772)">
				<title>Donut</title>
				<path d="M90.46 376.1 A45.2303 45.2303 -180 1 0 0 376.1 A45.2303 45.2303 -180 1 0 90.46 376.1 ZM6.03 376.1 A39.1996
							 39.1996 0 1 0 84.43 376.1 A39.1996 39.1996 0 1 0 6.03 376.1 Z" class="st1"/>
			</g>
			<g id="shape819-66" transform="translate(26.2803,-29.8808)">
				<title>Donut.261</title>
				<path d="M68.05 387.31 A34.0267 34.0267 -180 1 0 0 387.31 A34.0267 34.0267 -180 1 0 68.05 387.31 ZM5.67 387.31 A28.3556
							 28.3556 0 1 0 62.38 387.31 A28.3556 28.3556 0 1 0 5.67 387.31 Z" class="st2"/>
			</g>
			<g id="shape820-68" transform="translate(5.3809,-7.4737)">
				<title>Donut.262</title>
				<path d="M110.71 365.98 A55.3551 55.3551 -180 1 0 0 365.98 A55.3551 55.3551 -180 1 0 110.71 365.98 ZM4.94 365.98
							 A50.4132 50.4132 0 1 0 105.77 365.98 A50.4132 50.4132 0 1 0 4.94 365.98 Z" class="st3"/>
			</g>
			<g id="shape821-70" transform="translate(14.6332,-82.6455)">
				<title>Rectangle.18</title>
				<rect x="0" y="383.979" width="51.3705" height="37.3545" class="st4"/>
			</g>
			<g id="shape822-72" transform="translate(170.375,-8.00441) rotate(15)">
				<title>Rectangle.266</title>
				<rect x="0" y="383.979" width="51.3705" height="37.3545" class="st4"/>
			</g>
			<g id="shape823-74" transform="translate(0,-56.7066)">
				<title>Rectangle.267</title>
				<rect x="0" y="383.979" width="51.3705" height="37.3545" class="st4"/>
			</g>
			<g id="shape824-76" transform="translate(0,-30.1535)">
				<title>Rectangle.268</title>
				<rect x="0" y="383.979" width="51.3705" height="37.3545" class="st4"/>
			</g>
			<g id="shape825-78" transform="translate(8.93654,-7.53838)">
				<title>Rectangle.269</title>
				<rect x="0" y="383.979" width="51.3705" height="37.3545" class="st4"/>
			</g>
			<g id="shape826-80" transform="translate(42.1602,-5.68434E-013)">
				<title>Rectangle.270</title>
				<rect x="0" y="383.979" width="51.3705" height="37.3545" class="st4"/>
			</g>
		</g>
		<g id="shape827-82" transform="translate(425.053,-279.506)">
			<title>s.827</title>
			<desc>Node C</desc>
			<rect x="0" y="330.162" width="105" height="91.1717" class="st5"/>
			<text x="32.16" y="379.35" class="st6">Node C</text>		</g>
		<g id="shape828-85" transform="translate(520.053,-327.263)">
			<title>Sheet.828</title>
			<path d="M10 399.63 A10.0007 10.8545 -180 0 0 0 410.49 A10.0007 10.8545 -180 0 0 10 421.33 L10 399.63 Z" class="st7"/>
		</g>
		<g id="shape829-87" transform="translate(520.053,-301.214)">
			<title>Sheet.829</title>
			<path d="M10 399.63 A10.0007 10.8545 -180 0 0 -0 410.49 A10.0007 10.8545 -180 0 0 10 421.33 L10 399.63 Z" class="st8"/>
		</g>
		<g id="group830-89" transform="translate(445.124,-22.0676)">
			<title>Sheet.830</title>
			<g id="shape831-90" transform="translate(15.0768,-18.6772)">
				<title>Donut</title>
				<path d="M90.46 376.1 A45.2303 45.2303 -180 1 0 0 376.1 A45.2303 45.2303 -180 1 0 90.46 376.1 ZM6.03 376.1 A39.1996
							 39.1996 0 1 0 84.43 376.1 A39.1996 39.1996 0 1 0 6.03 376.1 Z" class="st1"/>
			</g>
			<g id="shape832-92" transform="translate(26.2803,-29.8808)">
				<title>Donut.261</title>
				<path d="M68.05 387.31 A34.0267 34.0267 -180 1 0 0 387.31 A34.0267 34.0267 -180 1 0 68.05 387.31 ZM5.67 387.31 A28.3556
							 28.3556 0 1 0 62.38 387.31 A28.3556 28.3556 0 1 0 5.67 387.31 Z" class="st2"/>
			</g>
			<g id="shape833-94" transform="translate(5.3809,-7.4737)">
				<title>Donut.262</title>
				<path d="M110.71 365.98 A55.3551 55.3551 -180 1 0 0 365.98 A55.3551 55.3551 -180 1 0 110.71 365.98 ZM4.94 365.98
							 A50.4132 50.4132 0 1 0 105.77 365.98 A50.4132 50.4132 0 1 0 4.94 365.98 Z" class="st3"/>
			</g>
			<g id="shape834-96" transform="translate(14.6332,-82.6455)">
				<title>Rectangle.18</title>
				<rect x="0" y="383.979" width="51.3705" height="37.3545" class="st4"/>
			</g>
			<g id="shape835-98" transform="translate(170.375,-8.00441) rotate(15)">
				<title>Rectangle.266</title>
				<rect x="0" y="383.979" width="51.3705" height="37.3545" class="st4"/>
			</g>
			<g id="shape836-100" transform="translate(0,-56.7066)">
				<title>Rectangle.267</title>
				<rect x="0" y="383.979" width="51.3705" height="37.3545" class="st4"/>
			</g>
			<g id="shape837-102" transform="translate(0,-30.1535)">
				<title>Rectangle.268</title>
				<rect x="0" y="383.979" width="51.3705" height="37.3545" class="st4"/>
			</g>
			<g id="shape838-104" transform="translate(8.93654,-7.53838)">
				<title>Rectangle.269</title>
				<rect x="0" y="383.979" width="51.3705" height="37.3545" class="st4"/>
			</g>
			<g id="shape839-106" transform="translate(42.1602,-5.68434E-013)">
				<title>Rectangle.270</title>
				<rect x="0" y="383.979" width="51.3705" height="37.3545" class="st4"/>
			</g>
		</g>
		<g id="shape840-108" transform="translate(405.432,-0.36)">
			<title>s.840</title>
			<desc>Node D</desc>
			<rect x="0" y="330.162" width="105" height="91.1717" class="st5"/>
			<text x="32.16" y="379.35" class="st6">Node D</text>		</g>
		<g id="shape841-111" transform="translate(500.432,-48.1166)">
			<title>Sheet.841</title>
			<path d="M10 399.63 A10.0007 10.8545 -180 0 0 0 410.49 A10.0007 10.8545 -180 0 0 10 421.33 L10 399.63 Z" class="st7"/>
		</g>
		<g id="shape842-113" transform="translate(500.432,-22.0676)">
			<title>Sheet.842</title>
			<path d="M10 399.63 A10.0007 10.8545 -180 0 0 -0 410.49 A10.0007 10.8545 -180 0 0 10 421.33 L10 399.63 Z" class="st8"/>
		</g>
		<g id="group843-115" transform="translate(679.899,-187.921)">
			<title>Sheet.843</title>
			<g id="shape844-116" transform="translate(15.0768,-18.6772)">
				<title>Donut</title>
				<path d="M90.46 376.1 A45.2303 45.2303 -180 1 0 0 376.1 A45.2303 45.2303 -180 1 0 90.46 376.1 ZM6.03 376.1 A39.1996
							 39.1996 0 1 0 84.43 376.1 A39.1996 39.1996 0 1 0 6.03 376.1 Z" class="st1"/>
			</g>
			<g id="shape845-118" transform="translate(26.2803,-29.8808)">
				<title>Donut.261</title>
				<path d="M68.05 387.31 A34.0267 34.0267 -180 1 0 0 387.31 A34.0267 34.0267 -180 1 0 68.05 387.31 ZM5.67 387.31 A28.3556
							 28.3556 0 1 0 62.38 387.31 A28.3556 28.3556 0 1 0 5.67 387.31 Z" class="st2"/>
			</g>
			<g id="shape846-120" transform="translate(5.3809,-7.4737)">
				<title>Donut.262</title>
				<path d="M110.71 365.98 A55.3551 55.3551 -180 1 0 0 365.98 A55.3551 55.3551 -180 1 0 110.71 365.98 ZM4.94 365.98
							 A50.4132 50.4132 0 1 0 105.77 365.98 A50.4132 50.4132 0 1 0 4.94 365.98 Z" class="st3"/>
			</g>
			<g id="shape847-122" transform="translate(14.6332,-82.6455)">
				<title>Rectangle.18</title>
				<rect x="0" y="383.979" width="51.3705" height="37.3545" class="st4"/>
			</g>
			<g id="shape848-124" transform="translate(170.375,-8.00441) rotate(15)">
				<title>Rectangle.266</title>
				<rect x="0" y="383.979" width="51.3705" height="37.3545" class="st4"/>
			</g>
			<g id="shape849-126" transform="translate(0,-56.7066)">
				<title>Rectangle.267</title>
				<rect x="0" y="383.979" width="51.3705" height="37.3545" class="st4"/>
			</g>
			<g id="shape850-128" transform="translate(0,-30.1535)">
				<title>Rectangle.268</title>
				<rect x="0" y="383.979" width="51.3705" height="37.3545" class="st4"/>
			</g>
			<g id="shape851-130" transform="translate(8.93654,-7.53838)">
				<title>Rectangle.269</title>
				<rect x="0" y="383.979" width="51.3705" height="37.3545" class="st4"/>
			</g>
			<g id="shape852-132" transform="translate(42.1602,-5.68434E-013)">
				<title>Rectangle.270</title>
				<rect x="0" y="383.979" width="51.3705" height="37.3545" class="st4"/>
			</g>
		</g>
		<g id="shape853-134" transform="translate(640.206,-166.214)">
			<title>s.853</title>
			<desc>Node E</desc>
			<rect x="0" y="330.162" width="105" height="91.1717" class="st5"/>
			<text x="32.49" y="379.35" class="st6">Node E</text>		</g>
		<g id="shape854-137" transform="translate(735.206,-213.97)">
			<title>Sheet.854</title>
			<path d="M10 399.63 A10.0007 10.8545 -180 0 0 0 410.49 A10.0007 10.8545 -180 0 0 10 421.33 L10 399.63 Z" class="st7"/>
		</g>
		<g id="shape855-139" transform="translate(735.206,-187.921)">
			<title>Sheet.855</title>
			<path d="M10 399.63 A10.0007 10.8545 -180 0 0 -0 410.49 A10.0007 10.8545 -180 0 0 10 421.33 L10 399.63 Z" class="st8"/>
		</g>
	</g>
</svg>
