<?xml version="1.0" encoding="UTF-8" standalone="no"?>
<!DOCTYPE svg PUBLIC "-//W3C//DTD SVG 1.1//EN" "http://www.w3.org/Graphics/SVG/1.1/DTD/svg11.dtd">
<!-- Generated by Microsoft Visio, SVG Export ant_state_indicator_master.svg Page-1 -->
<svg xmlns="http://www.w3.org/2000/svg" xmlns:xlink="http://www.w3.org/1999/xlink" xmlns:ev="http://www.w3.org/2001/xml-events"
		width="2.50333in" height="2.67334in" viewBox="0 0 180.24 192.48" xml:space="preserve" color-interpolation-filters="sRGB"
		class="st6">
	<style type="text/css">
	<![CDATA[
		.st1 {fill:#c4dbf2;stroke:#000000;stroke-linecap:round;stroke-linejoin:round;stroke-width:0.24}
		.st2 {fill:#000000;font-family:Arial;font-size:1.00001em}
		.st3 {marker-end:url(#mrkr13-12);stroke:#000000;stroke-linecap:round;stroke-linejoin:round;stroke-width:0.24}
		.st4 {fill:#000000;fill-opacity:1;stroke:#000000;stroke-opacity:1;stroke-width:0.08695652173913}
		.st5 {fill:#ffffff;stroke:none;stroke-linecap:butt;stroke-width:7.2}
		.st6 {fill:none;fill-rule:evenodd;font-size:12px;overflow:visible;stroke-linecap:square;stroke-miterlimit:3}
	]]>
	</style>

	<defs id="Markers">
		<g id="lend13">
			<path d="M 3 1 L 0 0 L 3 -1 L 3 1 " style="stroke:none"/>
		</g>
		<marker id="mrkr13-12" class="st4" refX="-34.5" orient="auto" markerUnits="strokeWidth" overflow="visible">
			<use xlink:href="#lend13" transform="scale(-11.5,-11.5) "/>
		</marker>
	</defs>
	<g>
		<title>Page-1</title>
		<g id="shape227-1" transform="translate(54.12,-165.36)">
			<title>Start/End-point</title>
			<desc>Start</desc>
			<path d="M13.5 192.48 L58.5 192.48 A13.5 13.5 -180 0 0 58.5 165.48 L13.5 165.48 A13.5 13.5 -180 1 0 13.5 192.48 Z"
					class="st1"/>
			<text x="23.33" y="182.58" class="st2">Start</text>		</g>
		<g id="shape228-4" transform="translate(0.12,-95.8602)">
			<title>Process.245</title>
			<desc>BSP_INDICATE_IDLE</desc>
			<rect x="0" y="157.74" width="180" height="34.7402" class="st1"/>
			<text x="29.98" y="178.71" class="st2">BSP_INDICATE_IDLE</text>		</g>
		<g id="shape229-7" transform="translate(282.6,27.12) rotate(90)">
			<title>Flowline1</title>
			<path d="M0 192.48 L26.48 192.48" class="st3"/>
		</g>
		<g id="shape230-13" transform="translate(282.6,96.62) rotate(90)">
			<title>Flowline1.230</title>
			<desc>Channel Opened</desc>
			<path d="M0 192.48 L52.72 192.48" class="st3"/>
			<rect x="-239.519" y="17.8002" width="90.7394" height="14.4001" transform="rotate(-90)" class="st5"/>
			<text x="-239.52" y="28.6" transform="rotate(-90)" class="st2">Channel Opened</text>		</g>
		<g id="shape231-20" transform="translate(0.12,-0.12)">
			<title>Process.231</title>
			<desc>BSP_INDICATE_ADVERTISING</desc>
			<rect x="0" y="157.74" width="180" height="34.7402" class="st1"/>
			<text x="2.64" y="178.71" class="st2">BSP_INDICATE_ADVERTISING</text>		</g>
	</g>
</svg>
