<?xml version="1.0" encoding="UTF-8" standalone="no"?>
<!DOCTYPE svg PUBLIC "-//W3C//DTD SVG 1.1//EN" "http://www.w3.org/Graphics/SVG/1.1/DTD/svg11.dtd">
<!-- Generated by Microsoft Visio, SVG Export ant_fs_embedded_client_device_simulator_architecture2.svg Page-1 -->
<svg xmlns="http://www.w3.org/2000/svg" xmlns:xlink="http://www.w3.org/1999/xlink" xmlns:ev="http://www.w3.org/2001/xml-events"
		width="8.80837in" height="3.30653in" viewBox="0 0 634.203 238.07" xml:space="preserve" color-interpolation-filters="sRGB"
		class="st8">
	<style type="text/css">
	<![CDATA[
		.st1 {fill:#c4dbf2;stroke:#000000;stroke-linecap:round;stroke-linejoin:round;stroke-width:0.24}
		.st2 {fill:#000000;font-family:Arial;font-size:1.00001em}
		.st3 {marker-end:url(#mrkr13-30);marker-start:url(#mrkr13-28);stroke:#000000;stroke-linecap:round;stroke-linejoin:round;stroke-width:0.24}
		.st4 {fill:#000000;fill-opacity:1;stroke:#000000;stroke-opacity:1;stroke-width:0.08695652173913}
		.st5 {fill:#ffffff;stroke:none;stroke-linecap:butt;stroke-width:7.2}
		.st6 {marker-end:url(#mrkr13-30);stroke:#000000;stroke-linecap:round;stroke-linejoin:round;stroke-width:0.24}
		.st7 {marker-start:url(#mrkr13-28);stroke:#000000;stroke-linecap:round;stroke-linejoin:round;stroke-width:0.24}
		.st8 {fill:none;fill-rule:evenodd;font-size:12px;overflow:visible;stroke-linecap:square;stroke-miterlimit:3}
	]]>
	</style>

	<defs id="Markers">
		<g id="lend13">
			<path d="M 3 1 L 0 0 L 3 -1 L 3 1 " style="stroke:none"/>
		</g>
		<marker id="mrkr13-28" class="st4" refX="33" orient="auto" markerUnits="strokeWidth" overflow="visible">
			<use xlink:href="#lend13" transform="scale(11.5) "/>
		</marker>
		<marker id="mrkr13-30" class="st4" refX="-34.5" orient="auto" markerUnits="strokeWidth" overflow="visible">
			<use xlink:href="#lend13" transform="scale(-11.5,-11.5) "/>
		</marker>
	</defs>
	<g>
		<title>Page-1</title>
		<g id="shape227-1" transform="translate(0.12,-206.503)">
			<title>Sheet.227</title>
			<desc>bsp</desc>
			<rect x="0" y="206.623" width="52.4113" height="31.4468" class="st1"/>
			<text x="16.53" y="225.95" class="st2">bsp</text>		</g>
		<g id="shape228-4" transform="translate(0.12,-153.797)">
			<title>Sheet.228</title>
			<desc>mem</desc>
			<rect x="0" y="206.623" width="52.4113" height="31.4468" class="st1"/>
			<text x="12.87" y="225.95" class="st2">mem</text>		</g>
		<g id="shape243-7" transform="translate(156.326,-206.503)">
			<title>Sheet.243</title>
			<desc>application</desc>
			<rect x="0" y="206.623" width="396.206" height="31.4468" class="st1"/>
			<text x="169.41" y="225.95" class="st2">application</text>		</g>
		<g id="shape244-10" transform="translate(242.531,-74.333)">
			<title>Sheet.244</title>
			<desc>ANT-FS client</desc>
			<rect x="0" y="175.176" width="220" height="62.8935" class="st1"/>
			<text x="72.66" y="210.22" class="st2">ANT-FS client</text>		</g>
		<g id="shape245-13" transform="translate(567.877,-90.0564)">
			<title>Sheet.245</title>
			<desc>app_timer</desc>
			<rect x="0" y="206.623" width="66.2056" height="31.4468" class="st1"/>
			<text x="6.42" y="225.95" class="st2">app_timer</text>		</g>
		<g id="shape246-16" transform="translate(387.531,-0.12)">
			<title>Sheet.246</title>
			<desc>leddriver</desc>
			<rect x="0" y="206.623" width="75" height="31.4468" class="st1"/>
			<text x="14.49" y="225.95" class="st2">leddriver</text>		</g>
		<g id="shape247-19" transform="translate(111.815,-0.12)">
			<title>Sheet.247</title>
			<desc>ANT stack</desc>
			<rect x="0" y="206.623" width="151.432" height="31.4468" class="st1"/>
			<text x="48.04" y="225.95" class="st2">ANT stack</text>		</g>
		<g id="shape248-22" transform="translate(425.601,31.5668) rotate(90)">
			<title>Sheet.248</title>
			<desc>stack events</desc>
			<path d="M7.92 238.07 L8.28 238.07 L166.66 238.07" class="st3"/>
			<rect x="-268.088" y="133.46" width="66.6988" height="14.4001" transform="rotate(-90)" class="st5"/>
			<text x="-268.09" y="144.26" transform="rotate(-90)" class="st2">stack events</text>		</g>
		<g id="shape249-33" transform="translate(490.601,163.737) rotate(90)">
			<title>Sheet.249</title>
			<path d="M0 238.07 L34.49 238.07" class="st6"/>
		</g>
		<g id="shape250-38" transform="translate(663.101,163.737) rotate(90)">
			<title>Sheet.250</title>
			<desc>status information</desc>
			<path d="M0 238.07 L34.49 238.07" class="st6"/>
			<rect x="-284.595" y="15.6301" width="94.7126" height="14.4001" transform="rotate(-90)" class="st5"/>
			<text x="-284.59" y="26.43" transform="rotate(-90)" class="st2">status information</text>		</g>
		<g id="shape251-45" transform="translate(462.531,-105.78)">
			<title>Sheet.251</title>
			<desc>protocol timers</desc>
			<path d="M7.92 238.07 L8.28 238.07 L97.07 238.07" class="st3"/>
			<rect x="13.985" y="225.147" width="78.6926" height="14.4001" class="st5"/>
			<text x="13.98" y="235.95" class="st2">protocol timers</text>		</g>
		<g id="shape252-54" transform="translate(667.678,31.0437) rotate(89.8741)">
			<title>Sheet.252</title>
			<desc>antfs_event_return_t</desc>
			<path d="M7.92 238.07 L8.28 238.07 L69.28 238.07" class="st7"/>
			<rect x="-291.854" y="38.3233" width="110.076" height="14.4001" transform="rotate(-89.8741)" class="st5"/>
			<text x="-291.85" y="49.12" transform="rotate(-89.8741)" class="st2">antfs_event_return_t</text>		</g>
		<g id="shape253-61" transform="translate(540.601,31.5668) rotate(90)">
			<title>Sheet.253</title>
			<desc>antfs_event_extract_and_process()</desc>
			<path d="M0 238.07 L61 238.07" class="st6"/>
			<rect x="-328.795" y="17.8002" width="188.112" height="14.4001" transform="rotate(-90)" class="st5"/>
			<text x="-328.79" y="28.6" transform="rotate(-90)" class="st2">antfs_event_extract_and_process()</text>		</g>
		<g id="shape254-68" transform="translate(52.5313,-222.226)">
			<title>Sheet.254</title>
			<desc>pairing mode</desc>
			<path d="M7.92 238.07 L8.28 238.07 L95.51 238.07" class="st3"/>
			<rect x="13.6433" y="231.593" width="69.3759" height="14.4001" class="st5"/>
			<text x="13.64" y="242.39" class="st2">pairing mode</text>		</g>
		<g id="shape255-77" transform="translate(52.5313,-169.52)">
			<title>Sheet.255</title>
			<desc>file access</desc>
			<path d="M7.92 238.07 L8.28 238.07 L111.82 238.07 L111.82 201.09" class="st7"/>
			<rect x="38.4316" y="230.868" width="56.0229" height="14.4001" class="st5"/>
			<text x="38.43" y="241.67" class="st2">file access</text>		</g>
	</g>
</svg>
