<?xml version="1.0" encoding="UTF-8" standalone="no"?>
<!DOCTYPE svg PUBLIC "-//W3C//DTD SVG 1.1//EN" "http://www.w3.org/Graphics/SVG/1.1/DTD/svg11.dtd">
<!-- Generated by Microsoft Visio, SVG Export ant_relay2.svg Page-1 -->
<svg xmlns="http://www.w3.org/2000/svg" xmlns:xlink="http://www.w3.org/1999/xlink" xmlns:ev="http://www.w3.org/2001/xml-events"
		width="9.04493in" height="1.9252in" viewBox="0 0 651.235 138.614" xml:space="preserve" color-interpolation-filters="sRGB"
		class="st8">
	<style type="text/css">
	<![CDATA[
		.st1 {fill:#c4dbf2;fill-opacity:0.85;stroke:#000000;stroke-linecap:round;stroke-linejoin:round;stroke-width:0.72}
		.st2 {fill:#000000;font-family:Arial;font-size:1.00001em}
		.st3 {fill:#000000;stroke:#000000;stroke-width:0.25}
		.st4 {fill:#ffffff;stroke:#000000;stroke-width:0.25}
		.st5 {marker-end:url(#mrkr13-23);marker-start:url(#mrkr3-21);stroke:#000000;stroke-linecap:round;stroke-linejoin:round;stroke-width:0.24}
		.st6 {fill:#000000;fill-opacity:1;stroke:#000000;stroke-opacity:1;stroke-width:0.08695652173913}
		.st7 {fill:none;stroke:none;stroke-linecap:round;stroke-linejoin:round;stroke-width:0.75}
		.st8 {fill:none;fill-rule:evenodd;font-size:12px;overflow:visible;stroke-linecap:square;stroke-miterlimit:3}
	]]>
	</style>

	<defs id="Markers">
		<g id="lend3">
			<path d="M 2 1 L 0 0 L 2 -1 " style="stroke-linecap:round;stroke-linejoin:round;fill:none"/>
		</g>
		<marker id="mrkr3-21" class="st6" orient="auto" markerUnits="strokeWidth" overflow="visible">
			<use xlink:href="#lend3" transform="scale(11.5) "/>
		</marker>
		<g id="lend13">
			<path d="M 3 1 L 0 0 L 3 -1 L 3 1 " style="stroke:none"/>
		</g>
		<marker id="mrkr13-23" class="st6" refX="-34.5" orient="auto" markerUnits="strokeWidth" overflow="visible">
			<use xlink:href="#lend13" transform="scale(-11.5,-11.5) "/>
		</marker>
	</defs>
	<g>
		<title>Page-1</title>
		<g id="shape307-1" transform="translate(147.86,-0.36)">
			<title>s.307</title>
			<desc>Node B</desc>
			<rect x="0" y="47.4426" width="105" height="91.1717" class="st1"/>
			<text x="32.49" y="96.63" class="st2">Node B</text>		</g>
		<g id="shape309-4" transform="translate(242.86,-35.0921)">
			<title>Sheet.309</title>
			<path d="M10 116.91 A10.0007 10.8545 -180 0 0 -0 127.77 A10.0007 10.8545 -180 0 0 10 138.61 L10 116.91 Z" class="st3"/>
		</g>
		<g id="shape310-6" transform="translate(295.36,-0.36)">
			<title>s.310</title>
			<desc>Node C</desc>
			<rect x="0" y="47.4426" width="105" height="91.1717" class="st1"/>
			<text x="32.16" y="96.63" class="st2">Node C</text>		</g>
		<g id="shape311-9" transform="translate(305.36,220.429) rotate(180)">
			<title>Sheet.311</title>
			<path d="M10 116.91 A10.0007 10.8545 -180 0 0 0 127.77 A10.0007 10.8545 -180 0 0 10 138.61 L10 116.91 Z" class="st4"/>
		</g>
		<g id="shape313-11" transform="translate(478.86,-27.1667)">
			<title>Sheet.313</title>
			<path d="M10 116.91 A10.0007 10.8545 -180 0 0 -0 127.77 A10.0007 10.8545 -180 0 0 10 138.61 L10 116.91 Z" class="st4"/>
		</g>
		<g id="shape314-13" transform="translate(478.86,-54.1892)">
			<title>Sheet.314</title>
			<path d="M10 116.91 A10.0007 10.8545 -180 0 0 0 127.77 A10.0007 10.8545 -180 0 0 10 138.61 L10 116.91 Z" class="st3"/>
		</g>
		<g id="shape315-15" transform="translate(252.86,-45.9459)">
			<title>Sheet.315</title>
			<path d="M0 138.61 L34.22 138.61" class="st5"/>
		</g>
		<g id="shape317-24" transform="translate(488.86,-54.1892)">
			<title>Sheet.317</title>
			<desc>Master Endpoint</desc>
			<rect x="0" y="116.907" width="126" height="21.7076" class="st7"/>
			<text x="4" y="131.36" class="st2">Master Endpoint</text>		</g>
		<g id="shape318-27" transform="translate(488.86,-27.1667)">
			<title>Sheet.318</title>
			<desc>Slave Endpoint</desc>
			<rect x="0" y="116.907" width="162" height="21.7076" class="st7"/>
			<text x="4" y="131.36" class="st2">Slave Endpoint</text>		</g>
		<g id="shape319-30" transform="translate(0.36,-0.36)">
			<title>s.319</title>
			<desc>Node A</desc>
			<rect x="0" y="47.4426" width="105" height="91.1717" class="st1"/>
			<text x="32.49" y="96.63" class="st2">Node A</text>		</g>
		<g id="shape321-33" transform="translate(95.36,-35.0921)">
			<title>Sheet.321</title>
			<path d="M10 116.91 A10.0007 10.8545 -180 0 0 -0 127.77 A10.0007 10.8545 -180 0 0 10 138.61 L10 116.91 Z" class="st3"/>
		</g>
		<g id="shape322-35" transform="translate(157.86,220.429) rotate(180)">
			<title>Sheet.322</title>
			<path d="M10 116.91 A10.0007 10.8545 -180 0 0 0 127.77 A10.0007 10.8545 -180 0 0 10 138.61 L10 116.91 Z" class="st4"/>
		</g>
		<g id="shape324-37" transform="translate(105.36,-45.9459)">
			<title>Sheet.324</title>
			<path d="M0 138.61 L34.22 138.61" class="st5"/>
		</g>
		<g id="shape326-44" transform="translate(-45.1551,-50.9325) rotate(-45)">
			<title>Sheet.326</title>
			<path d="M0 138.61 L29.62 138.61" class="st5"/>
		</g>
		<g id="shape329-51" transform="translate(220.099,57.0826) rotate(-90)">
			<title>Sheet.329</title>
			<path d="M10 116.91 A10.0007 10.8545 -180 0 0 0 127.77 A10.0007 10.8545 -180 0 0 10 138.61 L10 116.91 Z" class="st3"/>
		</g>
		<g id="shape330-53" transform="translate(72.5995,57.0826) rotate(-90)">
			<title>Sheet.330</title>
			<path d="M10 116.91 A10.0007 10.8545 -180 0 0 0 127.77 A10.0007 10.8545 -180 0 0 10 138.61 L10 116.91 Z" class="st3"/>
		</g>
		<g id="shape331-55" transform="translate(-74.9005,57.0826) rotate(-90)">
			<title>Sheet.331</title>
			<path d="M10 116.91 A10.0007 10.8545 -180 0 0 0 127.77 A10.0007 10.8545 -180 0 0 10 138.61 L10 116.91 Z" class="st3"/>
		</g>
		<g id="shape332-57" transform="translate(159.36,-116.532)">
			<title>Sheet.332</title>
			<desc>To mobile or PC application</desc>
			<rect x="0" y="116.907" width="162" height="21.7076" class="st7"/>
			<text x="7.3" y="131.36" class="st2">To mobile or PC application</text>		</g>
		<g id="shape334-60" transform="translate(400.36,-45.9459)">
			<title>Sheet.334</title>
			<path d="M0 138.61 L31.72 138.61" class="st5"/>
		</g>
		<g id="shape335-67" transform="translate(390.36,-35.0921)">
			<title>Sheet.335</title>
			<path d="M10 116.91 A10.0007 10.8545 -180 0 0 0 127.77 A10.0007 10.8545 -180 0 0 10 138.61 L10 116.91 Z" class="st3"/>
		</g>
		<g id="shape765-69" transform="translate(102.345,-50.9325) rotate(-45)">
			<title>Sheet.765</title>
			<path d="M0 138.61 L29.62 138.61" class="st5"/>
		</g>
		<g id="shape766-76" transform="translate(249.845,-50.9325) rotate(-45)">
			<title>Sheet.766</title>
			<path d="M0 138.61 L29.62 138.61" class="st5"/>
		</g>
	</g>
</svg>
