<?xml version="1.0" encoding="UTF-8" standalone="no"?>
<!DOCTYPE svg PUBLIC "-//W3C//DTD SVG 1.1//EN" "http://www.w3.org/Graphics/SVG/1.1/DTD/svg11.dtd">
<!-- Generated by Microsoft Visio, SVG Export ant_acs_overview.svg Page-1 -->
<svg xmlns="http://www.w3.org/2000/svg" xmlns:xlink="http://www.w3.org/1999/xlink" xmlns:ev="http://www.w3.org/2001/xml-events"
		width="10.7665in" height="5.77563in" viewBox="0 0 775.185 415.845" xml:space="preserve" color-interpolation-filters="sRGB"
		class="st15">
	<style type="text/css">
	<![CDATA[
		.st1 {fill:#c4dbf2;fill-opacity:0.85;stroke:#000000;stroke-linecap:round;stroke-linejoin:round;stroke-width:0.72}
		.st2 {fill:#000000;font-family:Arial;font-size:1.00001em}
		.st3 {marker-end:url(#mrkr13-12);marker-start:url(#mrkr3-10);stroke:#000000;stroke-linecap:round;stroke-linejoin:round;stroke-width:0.24}
		.st4 {fill:#000000;fill-opacity:1;stroke:#000000;stroke-opacity:1;stroke-width:0.08695652173913}
		.st5 {fill:#000000;stroke:#000000;stroke-width:0.25}
		.st6 {fill:#ffffff;stroke:#000000;stroke-width:0.25}
		.st7 {fill:#ffffff;stroke:none;stroke-linecap:butt;stroke-width:7.2}
		.st8 {fill:#000000;font-family:Arial;font-size:0.833336em}
		.st9 {fill:#88b7e4;stroke:#000000;stroke-width:0.25}
		.st10 {fill:none;stroke:#000000;stroke-linecap:round;stroke-linejoin:round;stroke-width:0.72}
		.st11 {font-size:1em}
		.st12 {fill:#6dcff6;stroke:#000000;stroke-width:0.25}
		.st13 {fill:none;stroke:none;stroke-linecap:round;stroke-linejoin:round;stroke-width:0.75}
		.st14 {fill:#009cde;stroke:#000000;stroke-width:0.25}
		.st15 {fill:none;fill-rule:evenodd;font-size:12px;overflow:visible;stroke-linecap:square;stroke-miterlimit:3}
	]]>
	</style>

	<defs id="Markers">
		<g id="lend3">
			<path d="M 2 1 L 0 0 L 2 -1 " style="stroke-linecap:round;stroke-linejoin:round;fill:none"/>
		</g>
		<marker id="mrkr3-10" class="st4" orient="auto" markerUnits="strokeWidth" overflow="visible">
			<use xlink:href="#lend3" transform="scale(11.5) "/>
		</marker>
		<g id="lend13">
			<path d="M 3 1 L 0 0 L 3 -1 L 3 1 " style="stroke:none"/>
		</g>
		<marker id="mrkr13-12" class="st4" refX="-34.5" orient="auto" markerUnits="strokeWidth" overflow="visible">
			<use xlink:href="#lend13" transform="scale(-11.5,-11.5) "/>
		</marker>
	</defs>
	<g>
		<title>Page-1</title>
		<g id="shape428-1" transform="translate(400.36,-231.936)">
			<title>s.428</title>
			<desc>Hub 2</desc>
			<rect x="0" y="324.673" width="105" height="91.1717" class="st1"/>
			<text x="36.49" y="373.86" class="st2">Hub 2</text>		</g>
		<g id="shape431-4" transform="translate(505.36,-277.522)">
			<title>Sheet.431</title>
			<path d="M0 415.85 L249.93 415.85" class="st3"/>
		</g>
		<g id="shape432-13" transform="translate(270.895,-231.54)">
			<title>s.432</title>
			<desc>Hub 1</desc>
			<rect x="0" y="324.673" width="105" height="91.1717" class="st1"/>
			<text x="36.49" y="373.86" class="st2">Hub 1</text>		</g>
		<g id="shape433-16" transform="translate(365.895,-266.272)">
			<title>Sheet.433</title>
			<path d="M10 394.14 A10.0007 10.8545 -180 0 0 -0 405 A10.0007 10.8545 -180 0 0 10 415.85 L10 394.14 Z" class="st5"/>
		</g>
		<g id="shape434-18" transform="translate(410.36,543.314) rotate(180)">
			<title>Sheet.434</title>
			<path d="M10 394.14 A10.0007 10.8545 -180 0 0 0 405 A10.0007 10.8545 -180 0 0 10 415.85 L10 394.14 Z" class="st6"/>
		</g>
		<g id="shape435-20" transform="translate(369.161,-277.072) rotate(-0.927855)">
			<title>Sheet.435</title>
			<path d="M0 415.85 L16.19 415.85" class="st3"/>
		</g>
		<g id="shape436-27" transform="translate(-92.4501,93.1333) rotate(-90)">
			<title>Sheet.436</title>
			<desc>N</desc>
			<path d="M0 415.85 L23.94 415.85" class="st3"/>
			<rect x="422.808" y="-30.9605" width="7.22159" height="12.0001" transform="rotate(90)" class="st7"/>
			<text x="422.81" y="-21.96" transform="rotate(90)" class="st8">N</text>		</g>
		<g id="shape438-36" transform="translate(47.8686,102.737) rotate(-90)">
			<title>Sheet.438</title>
			<path d="M10 394.14 A10.0007 10.8545 -180 0 0 0 405 A10.0007 10.8545 -180 0 0 10 415.85 L10 394.14 Z" class="st5"/>
		</g>
		<g id="shape439-38" transform="translate(-81.5963,103.133) rotate(-90)">
			<title>Sheet.439</title>
			<path d="M10 394.14 A10.0007 10.8545 -180 0 0 0 405 A10.0007 10.8545 -180 0 0 10 415.85 L10 394.14 Z" class="st5"/>
		</g>
		<g id="shape441-40" transform="translate(270.895,554.564) rotate(180)">
			<title>Sheet.441</title>
			<path d="M0 415.85 L251.01 415.85" class="st3"/>
		</g>
		<g id="shape442-47" transform="translate(739.24,184.305) rotate(90)">
			<title>Sheet.442</title>
			<path d="M0 415.85 L24.73 415.85" class="st3"/>
		</g>
		<g id="shape553-54" transform="translate(868.705,183.909) rotate(90)">
			<title>Sheet.553</title>
			<path d="M0 415.85 L24.73 415.85" class="st3"/>
		</g>
		<g id="shape554-61" transform="translate(0.36,-164.247)">
			<title>s.554</title>
			<desc>Peripheral 4</desc>
			<rect x="0" y="324.673" width="105" height="91.1717" class="st1"/>
			<text x="20.15" y="373.86" class="st2">Peripheral 4</text>		</g>
		<g id="shape557-64" transform="translate(123.395,-164.247)">
			<title>s.557</title>
			<desc>Peripheral 3</desc>
			<rect x="0" y="324.673" width="105" height="91.1717" class="st1"/>
			<text x="20.15" y="373.86" class="st2">Peripheral 3</text>		</g>
		<g id="shape566-67" transform="translate(25.8176,-298.834)">
			<title>s.566</title>
			<desc>Peripheral 2</desc>
			<rect x="0" y="324.673" width="105" height="91.1717" class="st1"/>
			<text x="20.15" y="373.86" class="st2">Peripheral 2</text>		</g>
		<g id="shape569-70" transform="translate(148.93,-298.834)">
			<title>s.569</title>
			<desc>Peripheral 1</desc>
			<rect x="0" y="324.673" width="105" height="91.1717" class="st1"/>
			<text x="20.15" y="373.86" class="st2">Peripheral 1</text>		</g>
		<g id="shape588-73" transform="translate(547.86,-164.515)">
			<title>s.588</title>
			<desc>Peripheral 3</desc>
			<rect x="0" y="324.673" width="105" height="91.1717" class="st1"/>
			<text x="20.15" y="373.86" class="st2">Peripheral 3</text>		</g>
		<g id="shape589-76" transform="translate(669.825,-164.515)">
			<title>s.589</title>
			<desc>Peripheral 4</desc>
			<rect x="0" y="324.673" width="105" height="91.1717" class="st1"/>
			<text x="20.15" y="373.86" class="st2">Peripheral 4</text>		</g>
		<g id="shape590-79" transform="translate(522.325,-299.294)">
			<title>s.590</title>
			<desc>Peripheral 1</desc>
			<rect x="0" y="324.673" width="105" height="91.1717" class="st1"/>
			<text x="20.15" y="373.86" class="st2">Peripheral 1</text>		</g>
		<g id="shape591-82" transform="translate(643.932,-299.294)">
			<title>s.591</title>
			<desc>Peripheral 2</desc>
			<rect x="0" y="324.673" width="105" height="91.1717" class="st1"/>
			<text x="20.15" y="373.86" class="st2">Peripheral 2</text>		</g>
		<g id="shape715-85" transform="translate(-229.096,170.427) rotate(-90)">
			<title>Sheet.715</title>
			<path d="M10 394.14 A10.0007 10.8545 -180 0 0 0 405 A10.0007 10.8545 -180 0 0 10 415.85 L10 394.14 Z" class="st9"/>
		</g>
		<g id="shape716-87" transform="translate(-352.131,170.427) rotate(-90)">
			<title>Sheet.716</title>
			<path d="M10 394.14 A10.0007 10.8545 -180 0 0 0 405 A10.0007 10.8545 -180 0 0 10 415.85 L10 394.14 Z" class="st9"/>
		</g>
		<g id="shape717-89" transform="translate(483.309,107.012) rotate(90)">
			<title>Sheet.717</title>
			<path d="M10 394.14 A10.0007 10.8545 -180 0 0 0 405 A10.0007 10.8545 -180 0 0 10 415.85 L10 394.14 Z" class="st9"/>
		</g>
		<g id="shape718-91" transform="translate(606.422,107.012) rotate(90)">
			<title>Sheet.718</title>
			<path d="M10 394.14 A10.0007 10.8545 -180 0 0 0 405 A10.0007 10.8545 -180 0 0 10 415.85 L10 394.14 Z" class="st9"/>
		</g>
		<g id="shape719-93" transform="translate(195.369,170.159) rotate(-90)">
			<title>Sheet.719</title>
			<path d="M10 394.14 A10.0007 10.8545 -180 0 0 0 405 A10.0007 10.8545 -180 0 0 10 415.85 L10 394.14 Z" class="st9"/>
		</g>
		<g id="shape720-95" transform="translate(979.816,106.551) rotate(90)">
			<title>Sheet.720</title>
			<path d="M10 394.14 A10.0007 10.8545 -180 0 0 0 405 A10.0007 10.8545 -180 0 0 10 415.85 L10 394.14 Z" class="st9"/>
		</g>
		<g id="shape721-97" transform="translate(1101.42,106.551) rotate(90)">
			<title>Sheet.721</title>
			<path d="M10 394.14 A10.0007 10.8545 -180 0 0 0 405 A10.0007 10.8545 -180 0 0 10 415.85 L10 394.14 Z" class="st9"/>
		</g>
		<g id="shape722-99" transform="translate(317.333,170.159) rotate(-90)">
			<title>Sheet.722</title>
			<path d="M10 394.14 A10.0007 10.8545 -180 0 0 0 405 A10.0007 10.8545 -180 0 0 10 415.85 L10 394.14 Z" class="st9"/>
		</g>
		<g id="shape723-101" transform="translate(495.477,-177.035) rotate(45)">
			<title>Sheet.723</title>
			<path d="M0 415.85 L22.42 415.85" class="st3"/>
		</g>
		<g id="shape724-108" transform="translate(372.365,-177.035) rotate(45)">
			<title>Sheet.724</title>
			<path d="M0 415.85 L22.42 415.85" class="st3"/>
		</g>
		<g id="shape725-115" transform="translate(-241.187,-133.62) rotate(-45)">
			<title>Sheet.725</title>
			<path d="M0 415.85 L22.42 415.85" class="st3"/>
		</g>
		<g id="shape726-122" transform="translate(-118.152,-133.62) rotate(-45)">
			<title>Sheet.726</title>
			<path d="M0 415.85 L22.42 415.85" class="st3"/>
		</g>
		<g id="shape727-129" transform="translate(306.313,454.206) rotate(-135)">
			<title>Sheet.727</title>
			<path d="M0 415.85 L22.6 415.85" class="st3"/>
		</g>
		<g id="shape729-136" transform="translate(427.699,453.626) rotate(-134.887)">
			<title>Sheet.729</title>
			<path d="M0 415.85 L22.54 415.85" class="st3"/>
		</g>
		<g id="shape730-143" transform="translate(868.872,410.598) rotate(135)">
			<title>Sheet.730</title>
			<path d="M0 415.85 L22.51 415.85" class="st3"/>
		</g>
		<g id="shape731-150" transform="translate(990.479,410.598) rotate(135)">
			<title>Sheet.731</title>
			<path d="M0 415.85 L22.51 415.85" class="st3"/>
		</g>
		<g id="shape733-157" transform="translate(288.753,-354.929)">
			<title>s.733</title>
			<desc>ANT Remote</desc>
			<rect x="0" y="355.685" width="69.2851" height="60.1604" class="st10"/>
			<text x="22.64" y="382.17" class="st2">ANT <tspan x="13.63" dy="1.2em" class="st11">Remote</tspan></text>		</g>
		<g id="shape734-161" transform="translate(418.217,-355.325)">
			<title>s.734</title>
			<desc>ANT Remote</desc>
			<rect x="0" y="355.685" width="69.2851" height="60.1604" class="st10"/>
			<text x="22.64" y="382.17" class="st2">ANT <tspan x="13.63" dy="1.2em" class="st11">Remote</tspan></text>		</g>
		<g id="shape735-165" transform="translate(288.753,-138.371)">
			<title>s.735</title>
			<desc>BLE Remote</desc>
			<rect x="0" y="355.685" width="69.2851" height="60.1604" class="st10"/>
			<text x="23.3" y="382.17" class="st2">BLE <tspan x="13.63" dy="1.2em" class="st11">Remote</tspan></text>		</g>
		<g id="shape736-169" transform="translate(418.217,-138.767)">
			<title>s.736</title>
			<desc>BLE Remote</desc>
			<rect x="0" y="355.685" width="69.2851" height="60.1604" class="st10"/>
			<text x="23.3" y="382.17" class="st2">BLE <tspan x="13.63" dy="1.2em" class="st11">Remote</tspan></text>		</g>
		<g id="shape740-173" transform="translate(535.739,-27.3975)">
			<title>Sheet.740</title>
			<path d="M10 394.14 A10.0007 10.8545 -180 0 0 0 405 A10.0007 10.8545 -180 0 0 10 415.85 L10 394.14 Z" class="st12"/>
		</g>
		<g id="shape741-175" transform="translate(535.739,-81.4425)">
			<title>Sheet.741</title>
			<path d="M10 394.14 A10.0007 10.8545 -180 0 0 -0 405 A10.0007 10.8545 -180 0 0 10 415.85 L10 394.14 Z" class="st6"/>
		</g>
		<g id="shape742-177" transform="translate(535.739,-108.465)">
			<title>Sheet.742</title>
			<path d="M10 394.14 A10.0007 10.8545 -180 0 0 0 405 A10.0007 10.8545 -180 0 0 10 415.85 L10 394.14 Z" class="st5"/>
		</g>
		<g id="shape743-179" transform="translate(545.739,-81.4425)">
			<title>Sheet.743</title>
			<desc>Slave Endpoint</desc>
			<rect x="0" y="394.138" width="179.243" height="21.7076" class="st13"/>
			<text x="4" y="408.59" class="st2">Slave Endpoint</text>		</g>
		<g id="shape744-182" transform="translate(545.739,-108.465)">
			<title>Sheet.744</title>
			<desc>Master Endpoint</desc>
			<rect x="0" y="394.138" width="126" height="21.7076" class="st13"/>
			<text x="4" y="408.59" class="st2">Master Endpoint</text>		</g>
		<g id="shape745-185" transform="translate(545.739,-54.42)">
			<title>Sheet.745</title>
			<desc>Shared Slave Endpoint</desc>
			<rect x="0" y="394.138" width="145" height="21.7076" class="st13"/>
			<text x="4" y="408.59" class="st2">Shared Slave Endpoint</text>		</g>
		<g id="shape750-188" transform="translate(535.739,-54.42)">
			<title>Sheet.750</title>
			<path d="M10 394.14 A10.0007 10.8545 -180 0 0 0 405 A10.0007 10.8545 -180 0 0 10 415.85 L10 394.14 Z" class="st9"/>
		</g>
		<g id="shape786-190" transform="translate(535.739,-0.375)">
			<title>Sheet.786</title>
			<rect x="0" y="394.138" width="10" height="21.7076" class="st14"/>
		</g>
		<g id="shape752-192" transform="translate(545.739,-27.3975)">
			<title>Sheet.752</title>
			<desc>Shared Master Endpoint</desc>
			<rect x="0" y="394.138" width="145" height="21.7076" class="st13"/>
			<text x="4" y="408.59" class="st2">Shared Master Endpoint</text>		</g>
		<g id="shape753-195" transform="translate(545.739,-0.375)">
			<title>Sheet.753</title>
			<desc>BLE Slave Endpoint</desc>
			<rect x="0" y="394.138" width="145" height="21.7076" class="st13"/>
			<text x="4" y="408.59" class="st2">BLE Slave Endpoint</text>		</g>
		<g id="shape759-198" transform="translate(495.36,-266.668)">
			<title>Sheet.759</title>
			<path d="M10 394.14 A10.0007 10.8545 -180 0 0 0 405 A10.0007 10.8545 -180 0 0 10 415.85 L10 394.14 Z" class="st12"/>
		</g>
		<g id="shape761-200" transform="translate(280.895,543.711) rotate(180)">
			<title>Sheet.761</title>
			<path d="M10 394.14 A10.0007 10.8545 -180 0 0 0 405 A10.0007 10.8545 -180 0 0 10 415.85 L10 394.14 Z" class="st12"/>
		</g>
		<g id="shape784-202" transform="translate(728.387,174.305) rotate(90)">
			<title>Sheet.784</title>
			<rect x="0" y="394.138" width="10" height="21.7076" class="st14"/>
		</g>
		<g id="shape785-204" transform="translate(857.851,173.909) rotate(90)">
			<title>Sheet.785</title>
			<rect x="0" y="394.138" width="10" height="21.7076" class="st14"/>
		</g>
		<g id="shape776-206" transform="translate(326.728,-318.524)">
			<title>Sheet.776</title>
			<desc>1</desc>
			<rect x="0" y="395.845" width="11.6116" height="20" class="st13"/>
			<text x="4" y="408.85" class="st8">1</text>		</g>
		<g id="shape777-209" transform="translate(37.0148,92.7371) rotate(-90)">
			<title>Sheet.777</title>
			<desc>N</desc>
			<path d="M0 415.85 L23.94 415.85" class="st3"/>
			<rect x="422.808" y="-30.4605" width="7.22159" height="12.0001" transform="rotate(90)" class="st7"/>
			<text x="422.81" y="-21.46" transform="rotate(90)" class="st8">N</text>		</g>
		<g id="shape778-218" transform="translate(456.056,-318.717)">
			<title>Sheet.778</title>
			<desc>1</desc>
			<rect x="0" y="395.845" width="11.6116" height="20" class="st13"/>
			<text x="4" y="408.85" class="st8">1</text>		</g>
		<g id="shape780-221" transform="translate(323.395,-214.235)">
			<title>Sheet.780</title>
			<desc>1</desc>
			<rect x="0" y="395.845" width="11.6116" height="20" class="st13"/>
			<text x="4" y="408.85" class="st8">1</text>		</g>
		<g id="shape781-224" transform="translate(323.395,-194.519)">
			<title>Sheet.781</title>
			<desc>1</desc>
			<rect x="0" y="395.845" width="11.6116" height="20" class="st13"/>
			<text x="4" y="408.85" class="st8">1</text>		</g>
		<g id="shape782-227" transform="translate(452.86,-214.632)">
			<title>Sheet.782</title>
			<desc>1</desc>
			<rect x="0" y="395.845" width="11.6116" height="20" class="st13"/>
			<text x="4" y="408.85" class="st8">1</text>		</g>
		<g id="shape783-230" transform="translate(452.86,-194.159)">
			<title>Sheet.783</title>
			<desc>1</desc>
			<rect x="0" y="395.845" width="11.6116" height="20" class="st13"/>
			<text x="4" y="408.85" class="st8">1</text>		</g>
	</g>
</svg>
