<?xml version="1.0" encoding="UTF-8" standalone="no"?>
<!DOCTYPE svg PUBLIC "-//W3C//DTD SVG 1.1//EN" "http://www.w3.org/Graphics/SVG/1.1/DTD/svg11.dtd">
<!-- Generated by Microsoft Visio, SVG Export ant_background_scanning2.svg Page-1 -->
<svg xmlns="http://www.w3.org/2000/svg" xmlns:xlink="http://www.w3.org/1999/xlink" xmlns:ev="http://www.w3.org/2001/xml-events"
		width="6.7358in" height="1.27627in" viewBox="0 0 484.978 91.8917" xml:space="preserve" color-interpolation-filters="sRGB"
		class="st8">
	<style type="text/css">
	<![CDATA[
		.st1 {fill:#c4dbf2;fill-opacity:0.85;stroke:#000000;stroke-linecap:round;stroke-linejoin:round;stroke-width:0.72}
		.st2 {fill:#000000;font-family:Arial;font-size:1.00001em}
		.st3 {fill:#000000;stroke:#000000;stroke-width:0.25}
		.st4 {fill:#7f7f7f;stroke:#000000;stroke-width:0.25}
		.st5 {marker-end:url(#mrkr13-24);stroke:#000000;stroke-linecap:round;stroke-linejoin:round;stroke-width:0.24}
		.st6 {fill:#000000;fill-opacity:1;stroke:#000000;stroke-opacity:1;stroke-width:0.08695652173913}
		.st7 {fill:none;stroke:none;stroke-linecap:round;stroke-linejoin:round;stroke-width:0.75}
		.st8 {fill:none;fill-rule:evenodd;font-size:12px;overflow:visible;stroke-linecap:square;stroke-miterlimit:3}
	]]>
	</style>

	<defs id="Markers">
		<g id="lend13">
			<path d="M 3 1 L 0 0 L 3 -1 L 3 1 " style="stroke:none"/>
		</g>
		<marker id="mrkr13-24" class="st6" refX="-34.5" orient="auto" markerUnits="strokeWidth" overflow="visible">
			<use xlink:href="#lend13" transform="scale(-11.5,-11.5) "/>
		</marker>
	</defs>
	<g>
		<title>Page-1</title>
		<g id="shape247-1" transform="translate(0.36,-0.36)">
			<title>s.247</title>
			<desc>Node A</desc>
			<rect x="0" y="0.72" width="105" height="91.1717" class="st1"/>
			<text x="32.49" y="49.91" class="st2">Node A</text>		</g>
		<g id="shape248-4" transform="translate(95.36,-48.1166)">
			<title>Sheet.248</title>
			<path d="M10 70.18 A10.0007 10.8545 -180 0 0 0 81.05 A10.0007 10.8545 -180 0 0 10 91.89 L10 70.18 Z" class="st3"/>
		</g>
		<g id="shape249-6" transform="translate(95.36,-22.0676)">
			<title>Sheet.249</title>
			<path d="M10 70.18 A10.0007 10.8545 -180 0 0 -0 81.05 A10.0007 10.8545 -180 0 0 10 91.89 L10 70.18 Z" class="st4"/>
		</g>
		<g id="shape253-8" transform="translate(147.86,-0.36)">
			<title>s.253</title>
			<desc>Node B</desc>
			<rect x="0" y="0.72" width="105" height="91.1717" class="st1"/>
			<text x="32.49" y="49.91" class="st2">Node B</text>		</g>
		<g id="shape258-11" transform="translate(157.86,140.008) rotate(180)">
			<title>Sheet.258</title>
			<path d="M10 70.18 A10.0007 10.8545 -180 0 0 0 81.05 A10.0007 10.8545 -180 0 0 10 91.89 L10 70.18 Z" class="st3"/>
		</g>
		<g id="shape259-13" transform="translate(157.86,113.959) rotate(180)">
			<title>Sheet.259</title>
			<path d="M10 70.18 A10.0007 10.8545 -180 0 0 0 81.05 A10.0007 10.8545 -180 0 0 10 91.89 L10 70.18 Z" class="st4"/>
		</g>
		<g id="shape273-15" transform="translate(295.36,-27.1667)">
			<title>Sheet.273</title>
			<path d="M10 70.18 A10.0007 10.8545 -180 0 0 -0 81.05 A10.0007 10.8545 -180 0 0 10 91.89 L10 70.18 Z" class="st4"/>
		</g>
		<g id="shape274-17" transform="translate(295.36,-54.1892)">
			<title>Sheet.274</title>
			<path d="M10 70.18 A10.0007 10.8545 -180 0 0 0 81.05 A10.0007 10.8545 -180 0 0 10 91.89 L10 70.18 Z" class="st3"/>
		</g>
		<g id="shape275-19" transform="translate(105.36,-32.9213)">
			<title>Sheet.275</title>
			<path d="M0 91.89 L34.22 91.89" class="st5"/>
		</g>
		<g id="shape276-25" transform="translate(147.86,124.813) rotate(180)">
			<title>Sheet.276</title>
			<path d="M0 91.89 L34.22 91.89" class="st5"/>
		</g>
		<g id="shape302-30" transform="translate(305.36,-54.1892)">
			<title>Sheet.302</title>
			<desc>Master Endpoint</desc>
			<rect x="0" y="70.1842" width="126" height="21.7076" class="st7"/>
			<text x="4" y="84.64" class="st2">Master Endpoint</text>		</g>
		<g id="shape303-33" transform="translate(305.36,-27.1667)">
			<title>Sheet.303</title>
			<desc>Background Scanning Endpoint</desc>
			<rect x="0" y="70.1842" width="179.243" height="21.7076" class="st7"/>
			<text x="4" y="84.64" class="st2">Background Scanning Endpoint</text>		</g>
	</g>
</svg>
