<?xml version="1.0" encoding="UTF-8" standalone="no"?>
<!DOCTYPE svg PUBLIC "-//W3C//DTD SVG 1.1//EN" "http://www.w3.org/Graphics/SVG/1.1/DTD/svg11.dtd">
<!-- Generated by Microsoft Visio, SVG Export ant_cw_mode_1.svg Page-1 -->
<svg xmlns="http://www.w3.org/2000/svg" xmlns:xlink="http://www.w3.org/1999/xlink" xmlns:ev="http://www.w3.org/2001/xml-events"
		width="2.23315in" height="1.97483in" viewBox="0 0 160.787 142.188" xml:space="preserve" color-interpolation-filters="sRGB"
		class="st9">
	<style type="text/css">
	<![CDATA[
		.st1 {fill:#88b7e4;stroke:none;stroke-linecap:round;stroke-linejoin:round;stroke-width:0.24}
		.st2 {fill:#0081b7;stroke:none;stroke-linecap:round;stroke-linejoin:round;stroke-width:0.24}
		.st3 {fill:#c4dbf2;stroke:none;stroke-linecap:round;stroke-linejoin:round;stroke-width:0.24}
		.st4 {fill:#ffffff;stroke:none;stroke-linecap:round;stroke-linejoin:round;stroke-width:0.24}
		.st5 {fill:#c4dbf2;fill-opacity:0.85;stroke:#000000;stroke-linecap:round;stroke-linejoin:round;stroke-width:0.72}
		.st6 {fill:#000000;font-family:Arial;font-size:1.00001em}
		.st7 {fill:#000000;stroke:#000000;stroke-width:0.25}
		.st8 {fill:#7f7f7f;stroke:#000000;stroke-width:0.25}
		.st9 {fill:none;fill-rule:evenodd;font-size:12px;overflow:visible;stroke-linecap:square;stroke-miterlimit:3}
	]]>
	</style>

	<g>
		<title>Page-1</title>
		<g id="group790-1" transform="translate(40.0529,-22.0676)">
			<title>Sheet.790</title>
			<g id="shape791-2" transform="translate(15.0768,-18.6772)">
				<title>Donut</title>
				<path d="M90.46 96.96 A45.2303 45.2303 -180 1 0 0 96.96 A45.2303 45.2303 -180 1 0 90.46 96.96 ZM6.03 96.96 A39.1996
							 39.1996 0 1 0 84.43 96.96 A39.1996 39.1996 0 1 0 6.03 96.96 Z" class="st1"/>
			</g>
			<g id="shape792-4" transform="translate(26.2803,-29.8808)">
				<title>Donut.261</title>
				<path d="M68.05 108.16 A34.0267 34.0267 -180 1 0 0 108.16 A34.0267 34.0267 -180 1 0 68.05 108.16 ZM5.67 108.16 A28.3556
							 28.3556 0 1 0 62.38 108.16 A28.3556 28.3556 0 1 0 5.67 108.16 Z" class="st2"/>
			</g>
			<g id="shape793-6" transform="translate(5.3809,-7.4737)">
				<title>Donut.262</title>
				<path d="M110.71 86.83 A55.3551 55.3551 -180 1 0 0 86.83 A55.3551 55.3551 -180 1 0 110.71 86.83 ZM4.94 86.83 A50.4132
							 50.4132 0 1 0 105.77 86.83 A50.4132 50.4132 0 1 0 4.94 86.83 Z" class="st3"/>
			</g>
			<g id="shape794-8" transform="translate(14.6332,-82.6455)">
				<title>Rectangle.18</title>
				<rect x="0" y="104.833" width="51.3705" height="37.3545" class="st4"/>
			</g>
			<g id="shape795-10" transform="translate(98.1268,-17.5161) rotate(15)">
				<title>Rectangle.266</title>
				<rect x="0" y="104.833" width="51.3705" height="37.3545" class="st4"/>
			</g>
			<g id="shape796-12" transform="translate(0,-56.7066)">
				<title>Rectangle.267</title>
				<rect x="0" y="104.833" width="51.3705" height="37.3545" class="st4"/>
			</g>
			<g id="shape797-14" transform="translate(0,-30.1535)">
				<title>Rectangle.268</title>
				<rect x="0" y="104.833" width="51.3705" height="37.3545" class="st4"/>
			</g>
			<g id="shape798-16" transform="translate(8.93654,-7.53838)">
				<title>Rectangle.269</title>
				<rect x="0" y="104.833" width="51.3705" height="37.3545" class="st4"/>
			</g>
			<g id="shape799-18" transform="translate(42.1602,-5.96856E-013)">
				<title>Rectangle.270</title>
				<rect x="0" y="104.833" width="51.3705" height="37.3545" class="st4"/>
			</g>
		</g>
		<g id="shape247-20" transform="translate(0.36,-0.36)">
			<title>s.247</title>
			<desc>Node A</desc>
			<rect x="0" y="51.0158" width="105" height="91.1717" class="st5"/>
			<text x="32.49" y="100.2" class="st6">Node A</text>		</g>
		<g id="shape248-23" transform="translate(95.36,-48.1166)">
			<title>Sheet.248</title>
			<path d="M10 120.48 A10.0007 10.8545 -180 0 0 0 131.34 A10.0007 10.8545 -180 0 0 10 142.19 L10 120.48 Z" class="st7"/>
		</g>
		<g id="shape249-25" transform="translate(95.36,-22.0676)">
			<title>Sheet.249</title>
			<path d="M10 120.48 A10.0007 10.8545 -180 0 0 -0 131.34 A10.0007 10.8545 -180 0 0 10 142.19 L10 120.48 Z" class="st8"/>
		</g>
	</g>
</svg>
