<?xml version="1.0" encoding="UTF-8" standalone="no"?>
<!DOCTYPE svg PUBLIC "-//W3C//DTD SVG 1.1//EN" "http://www.w3.org/Graphics/SVG/1.1/DTD/svg11.dtd">
<!-- Generated by Microsoft Visio, SVG Export ant_continuous_scanning_controller.svg Page-1 -->
<svg xmlns="http://www.w3.org/2000/svg" xmlns:xlink="http://www.w3.org/1999/xlink" xmlns:ev="http://www.w3.org/2001/xml-events"
		width="11.7411in" height="5.787in" viewBox="0 0 845.356 416.664" xml:space="preserve" color-interpolation-filters="sRGB"
		class="st12">
	<style type="text/css">
	<![CDATA[
		.st1 {fill:#c4dbf2;fill-opacity:0.85;stroke:#000000;stroke-linecap:round;stroke-linejoin:round;stroke-width:0.72}
		.st2 {fill:#000000;font-family:Arial;font-size:1.00001em}
		.st3 {fill:#ffffff;stroke:#000000;stroke-width:0.25}
		.st4 {fill:#7f7f7f;stroke:#000000;stroke-width:0.25}
		.st5 {fill:#000000;stroke:#000000;stroke-width:0.25}
		.st6 {fill:none;stroke:none;stroke-linecap:round;stroke-linejoin:round;stroke-width:0.75}
		.st7 {fill:#88b7e4;stroke:none;stroke-linecap:round;stroke-linejoin:round;stroke-width:0.24}
		.st8 {fill:#0081b7;stroke:none;stroke-linecap:round;stroke-linejoin:round;stroke-width:0.24}
		.st9 {fill:#c4dbf2;stroke:none;stroke-linecap:round;stroke-linejoin:round;stroke-width:0.24}
		.st10 {fill:#ffffff;stroke:none;stroke-linecap:round;stroke-linejoin:round;stroke-width:0.24}
		.st11 {stroke:#000000;stroke-linecap:round;stroke-linejoin:round;stroke-width:0.24}
		.st12 {fill:none;fill-rule:evenodd;font-size:12px;overflow:visible;stroke-linecap:square;stroke-miterlimit:3}
	]]>
	</style>

	<g>
		<title>Page-1</title>
		<g id="shape247-1" transform="translate(327.671,-274.836)">
			<title>s.247</title>
			<desc>Node A</desc>
			<rect x="0" y="325.492" width="105" height="91.1717" class="st1"/>
			<text x="32.49" y="374.68" class="st2">Node A</text>		</g>
		<g id="shape248-4" transform="translate(422.671,-322.593)">
			<title>Sheet.248</title>
			<path d="M10 394.96 A10.0007 10.8545 -180 0 0 0 405.82 A10.0007 10.8545 -180 0 0 10 416.66 L10 394.96 Z" class="st3"/>
		</g>
		<g id="shape249-6" transform="translate(422.671,-296.544)">
			<title>Sheet.249</title>
			<path d="M10 394.96 A10.0007 10.8545 -180 0 0 -0 405.82 A10.0007 10.8545 -180 0 0 10 416.66 L10 394.96 Z" class="st4"/>
		</g>
		<g id="shape273-8" transform="translate(655.739,-27.3975)">
			<title>Sheet.273</title>
			<path d="M10 394.96 A10.0007 10.8545 -180 0 0 -0 405.82 A10.0007 10.8545 -180 0 0 10 416.66 L10 394.96 Z" class="st4"/>
		</g>
		<g id="shape274-10" transform="translate(655.739,-54.42)">
			<title>Sheet.274</title>
			<path d="M10 394.96 A10.0007 10.8545 -180 0 0 0 405.82 A10.0007 10.8545 -180 0 0 10 416.66 L10 394.96 Z" class="st5"/>
		</g>
		<g id="shape302-12" transform="translate(665.739,-54.42)">
			<title>Sheet.302</title>
			<desc>Master Endpoint</desc>
			<rect x="0" y="394.956" width="126" height="21.7076" class="st6"/>
			<text x="4" y="409.41" class="st2">Master Endpoint</text>		</g>
		<g id="shape303-15" transform="translate(665.739,-27.3975)">
			<title>Sheet.303</title>
			<desc>Background Scanning Endpoint</desc>
			<rect x="0" y="394.956" width="179.243" height="21.7076" class="st6"/>
			<text x="4" y="409.41" class="st2">Background Scanning Endpoint</text>		</g>
		<g id="group804-18" transform="translate(40.0529,-79.9589)">
			<title>Sheet.804</title>
			<g id="shape805-19" transform="translate(15.0768,-18.6772)">
				<title>Donut</title>
				<path d="M90.46 371.43 A45.2303 45.2303 -180 1 0 0 371.43 A45.2303 45.2303 -180 1 0 90.46 371.43 ZM6.03 371.43 A39.1996
							 39.1996 0 1 0 84.43 371.43 A39.1996 39.1996 0 1 0 6.03 371.43 Z" class="st7"/>
			</g>
			<g id="shape806-21" transform="translate(26.2803,-29.8808)">
				<title>Donut.261</title>
				<path d="M68.05 382.64 A34.0267 34.0267 -180 1 0 0 382.64 A34.0267 34.0267 -180 1 0 68.05 382.64 ZM5.67 382.64 A28.3556
							 28.3556 0 1 0 62.38 382.64 A28.3556 28.3556 0 1 0 5.67 382.64 Z" class="st8"/>
			</g>
			<g id="shape807-23" transform="translate(5.3809,-7.4737)">
				<title>Donut.262</title>
				<path d="M110.71 361.31 A55.3551 55.3551 -180 1 0 0 361.31 A55.3551 55.3551 -180 1 0 110.71 361.31 ZM4.94 361.31
							 A50.4132 50.4132 0 1 0 105.77 361.31 A50.4132 50.4132 0 1 0 4.94 361.31 Z" class="st9"/>
			</g>
			<g id="shape808-25" transform="translate(14.6332,-82.6455)">
				<title>Rectangle.18</title>
				<rect x="0" y="379.309" width="51.3705" height="37.3545" class="st10"/>
			</g>
			<g id="shape809-27" transform="translate(169.166,-8.16354) rotate(15)">
				<title>Rectangle.266</title>
				<rect x="0" y="379.309" width="51.3705" height="37.3545" class="st10"/>
			</g>
			<g id="shape810-29" transform="translate(0,-56.7066)">
				<title>Rectangle.267</title>
				<rect x="0" y="379.309" width="51.3705" height="37.3545" class="st10"/>
			</g>
			<g id="shape811-31" transform="translate(0,-30.1535)">
				<title>Rectangle.268</title>
				<rect x="0" y="379.309" width="51.3705" height="37.3545" class="st10"/>
			</g>
			<g id="shape812-33" transform="translate(8.93654,-7.53838)">
				<title>Rectangle.269</title>
				<rect x="0" y="379.309" width="51.3705" height="37.3545" class="st10"/>
			</g>
			<g id="shape813-35" transform="translate(42.1602,-5.11591E-013)">
				<title>Rectangle.270</title>
				<rect x="0" y="379.309" width="51.3705" height="37.3545" class="st10"/>
			</g>
		</g>
		<g id="shape814-37" transform="translate(0.36,-58.2513)">
			<title>s.814</title>
			<desc>Node B</desc>
			<rect x="0" y="325.492" width="105" height="91.1717" class="st1"/>
			<text x="32.49" y="374.68" class="st2">Node B</text>		</g>
		<g id="shape815-40" transform="translate(95.36,-106.008)">
			<title>Sheet.815</title>
			<path d="M10 394.96 A10.0007 10.8545 -180 0 0 0 405.82 A10.0007 10.8545 -180 0 0 10 416.66 L10 394.96 Z" class="st5"/>
		</g>
		<g id="shape816-42" transform="translate(95.36,-79.9589)">
			<title>Sheet.816</title>
			<path d="M10 394.96 A10.0007 10.8545 -180 0 0 -0 405.82 A10.0007 10.8545 -180 0 0 10 416.66 L10 394.96 Z" class="st4"/>
		</g>
		<g id="group817-44" transform="translate(239.746,-129.959)">
			<title>Sheet.817</title>
			<g id="shape818-45" transform="translate(15.0768,-18.6772)">
				<title>Donut</title>
				<path d="M90.46 371.43 A45.2303 45.2303 -180 1 0 0 371.43 A45.2303 45.2303 -180 1 0 90.46 371.43 ZM6.03 371.43 A39.1996
							 39.1996 0 1 0 84.43 371.43 A39.1996 39.1996 0 1 0 6.03 371.43 Z" class="st7"/>
			</g>
			<g id="shape819-47" transform="translate(26.2803,-29.8808)">
				<title>Donut.261</title>
				<path d="M68.05 382.64 A34.0267 34.0267 -180 1 0 0 382.64 A34.0267 34.0267 -180 1 0 68.05 382.64 ZM5.67 382.64 A28.3556
							 28.3556 0 1 0 62.38 382.64 A28.3556 28.3556 0 1 0 5.67 382.64 Z" class="st8"/>
			</g>
			<g id="shape820-49" transform="translate(5.3809,-7.4737)">
				<title>Donut.262</title>
				<path d="M110.71 361.31 A55.3551 55.3551 -180 1 0 0 361.31 A55.3551 55.3551 -180 1 0 110.71 361.31 ZM4.94 361.31
							 A50.4132 50.4132 0 1 0 105.77 361.31 A50.4132 50.4132 0 1 0 4.94 361.31 Z" class="st9"/>
			</g>
			<g id="shape821-51" transform="translate(14.6332,-82.6455)">
				<title>Rectangle.18</title>
				<rect x="0" y="379.309" width="51.3705" height="37.3545" class="st10"/>
			</g>
			<g id="shape822-53" transform="translate(169.166,-8.16354) rotate(15)">
				<title>Rectangle.266</title>
				<rect x="0" y="379.309" width="51.3705" height="37.3545" class="st10"/>
			</g>
			<g id="shape823-55" transform="translate(0,-56.7066)">
				<title>Rectangle.267</title>
				<rect x="0" y="379.309" width="51.3705" height="37.3545" class="st10"/>
			</g>
			<g id="shape824-57" transform="translate(0,-30.1535)">
				<title>Rectangle.268</title>
				<rect x="0" y="379.309" width="51.3705" height="37.3545" class="st10"/>
			</g>
			<g id="shape825-59" transform="translate(8.93654,-7.53838)">
				<title>Rectangle.269</title>
				<rect x="0" y="379.309" width="51.3705" height="37.3545" class="st10"/>
			</g>
			<g id="shape826-61" transform="translate(42.1602,-5.11591E-013)">
				<title>Rectangle.270</title>
				<rect x="0" y="379.309" width="51.3705" height="37.3545" class="st10"/>
			</g>
		</g>
		<g id="shape827-63" transform="translate(200.053,-108.251)">
			<title>s.827</title>
			<desc>Node C</desc>
			<rect x="0" y="325.492" width="105" height="91.1717" class="st1"/>
			<text x="32.16" y="374.68" class="st2">Node C</text>		</g>
		<g id="shape828-66" transform="translate(295.053,-156.008)">
			<title>Sheet.828</title>
			<path d="M10 394.96 A10.0007 10.8545 -180 0 0 0 405.82 A10.0007 10.8545 -180 0 0 10 416.66 L10 394.96 Z" class="st5"/>
		</g>
		<g id="shape829-68" transform="translate(295.053,-129.959)">
			<title>Sheet.829</title>
			<path d="M10 394.96 A10.0007 10.8545 -180 0 0 -0 405.82 A10.0007 10.8545 -180 0 0 10 416.66 L10 394.96 Z" class="st4"/>
		</g>
		<g id="group830-70" transform="translate(515.364,-296.544)">
			<title>Sheet.830</title>
			<g id="shape831-71" transform="translate(15.0768,-18.6772)">
				<title>Donut</title>
				<path d="M90.46 371.43 A45.2303 45.2303 -180 1 0 0 371.43 A45.2303 45.2303 -180 1 0 90.46 371.43 ZM6.03 371.43 A39.1996
							 39.1996 0 1 0 84.43 371.43 A39.1996 39.1996 0 1 0 6.03 371.43 Z" class="st7"/>
			</g>
			<g id="shape832-73" transform="translate(26.2803,-29.8808)">
				<title>Donut.261</title>
				<path d="M68.05 382.64 A34.0267 34.0267 -180 1 0 0 382.64 A34.0267 34.0267 -180 1 0 68.05 382.64 ZM5.67 382.64 A28.3556
							 28.3556 0 1 0 62.38 382.64 A28.3556 28.3556 0 1 0 5.67 382.64 Z" class="st8"/>
			</g>
			<g id="shape833-75" transform="translate(5.3809,-7.4737)">
				<title>Donut.262</title>
				<path d="M110.71 361.31 A55.3551 55.3551 -180 1 0 0 361.31 A55.3551 55.3551 -180 1 0 110.71 361.31 ZM4.94 361.31
							 A50.4132 50.4132 0 1 0 105.77 361.31 A50.4132 50.4132 0 1 0 4.94 361.31 Z" class="st9"/>
			</g>
			<g id="shape834-77" transform="translate(14.6332,-82.6455)">
				<title>Rectangle.18</title>
				<rect x="0" y="379.309" width="51.3705" height="37.3545" class="st10"/>
			</g>
			<g id="shape835-79" transform="translate(169.166,-8.16354) rotate(15)">
				<title>Rectangle.266</title>
				<rect x="0" y="379.309" width="51.3705" height="37.3545" class="st10"/>
			</g>
			<g id="shape836-81" transform="translate(0,-56.7066)">
				<title>Rectangle.267</title>
				<rect x="0" y="379.309" width="51.3705" height="37.3545" class="st10"/>
			</g>
			<g id="shape837-83" transform="translate(0,-30.1535)">
				<title>Rectangle.268</title>
				<rect x="0" y="379.309" width="51.3705" height="37.3545" class="st10"/>
			</g>
			<g id="shape838-85" transform="translate(8.93654,-7.53838)">
				<title>Rectangle.269</title>
				<rect x="0" y="379.309" width="51.3705" height="37.3545" class="st10"/>
			</g>
			<g id="shape839-87" transform="translate(42.1602,-5.11591E-013)">
				<title>Rectangle.270</title>
				<rect x="0" y="379.309" width="51.3705" height="37.3545" class="st10"/>
			</g>
		</g>
		<g id="shape840-89" transform="translate(475.671,-274.836)">
			<title>s.840</title>
			<desc>Node D</desc>
			<rect x="0" y="325.492" width="105" height="91.1717" class="st1"/>
			<text x="32.16" y="374.68" class="st2">Node D</text>		</g>
		<g id="shape841-92" transform="translate(485.671,489.027) rotate(180)">
			<title>Sheet.841</title>
			<path d="M10 394.96 A10.0007 10.8545 -180 0 0 0 405.82 A10.0007 10.8545 -180 0 0 10 416.66 L10 394.96 Z" class="st5"/>
		</g>
		<g id="shape842-94" transform="translate(485.671,515.076) rotate(180)">
			<title>Sheet.842</title>
			<path d="M10 394.96 A10.0007 10.8545 -180 0 0 -0 405.82 A10.0007 10.8545 -180 0 0 10 416.66 L10 394.96 Z" class="st4"/>
		</g>
		<g id="group843-96" transform="translate(719.746,-198.251)">
			<title>Sheet.843</title>
			<g id="shape844-97" transform="translate(15.0768,-18.6772)">
				<title>Donut</title>
				<path d="M90.46 371.43 A45.2303 45.2303 -180 1 0 0 371.43 A45.2303 45.2303 -180 1 0 90.46 371.43 ZM6.03 371.43 A39.1996
							 39.1996 0 1 0 84.43 371.43 A39.1996 39.1996 0 1 0 6.03 371.43 Z" class="st7"/>
			</g>
			<g id="shape845-99" transform="translate(26.2803,-29.8808)">
				<title>Donut.261</title>
				<path d="M68.05 382.64 A34.0267 34.0267 -180 1 0 0 382.64 A34.0267 34.0267 -180 1 0 68.05 382.64 ZM5.67 382.64 A28.3556
							 28.3556 0 1 0 62.38 382.64 A28.3556 28.3556 0 1 0 5.67 382.64 Z" class="st8"/>
			</g>
			<g id="shape846-101" transform="translate(5.3809,-7.4737)">
				<title>Donut.262</title>
				<path d="M110.71 361.31 A55.3551 55.3551 -180 1 0 0 361.31 A55.3551 55.3551 -180 1 0 110.71 361.31 ZM4.94 361.31
							 A50.4132 50.4132 0 1 0 105.77 361.31 A50.4132 50.4132 0 1 0 4.94 361.31 Z" class="st9"/>
			</g>
			<g id="shape847-103" transform="translate(14.6332,-82.6455)">
				<title>Rectangle.18</title>
				<rect x="0" y="379.309" width="51.3705" height="37.3545" class="st10"/>
			</g>
			<g id="shape848-105" transform="translate(169.166,-8.16354) rotate(15)">
				<title>Rectangle.266</title>
				<rect x="0" y="379.309" width="51.3705" height="37.3545" class="st10"/>
			</g>
			<g id="shape849-107" transform="translate(0,-56.7066)">
				<title>Rectangle.267</title>
				<rect x="0" y="379.309" width="51.3705" height="37.3545" class="st10"/>
			</g>
			<g id="shape850-109" transform="translate(0,-30.1535)">
				<title>Rectangle.268</title>
				<rect x="0" y="379.309" width="51.3705" height="37.3545" class="st10"/>
			</g>
			<g id="shape851-111" transform="translate(8.93654,-7.53838)">
				<title>Rectangle.269</title>
				<rect x="0" y="379.309" width="51.3705" height="37.3545" class="st10"/>
			</g>
			<g id="shape852-113" transform="translate(42.1602,-5.11591E-013)">
				<title>Rectangle.270</title>
				<rect x="0" y="379.309" width="51.3705" height="37.3545" class="st10"/>
			</g>
		</g>
		<g id="shape853-115" transform="translate(680.053,-176.544)">
			<title>s.853</title>
			<desc>Node F</desc>
			<rect x="0" y="325.492" width="105" height="91.1717" class="st1"/>
			<text x="32.82" y="374.68" class="st2">Node F</text>		</g>
		<g id="shape854-118" transform="translate(775.053,-224.3)">
			<title>Sheet.854</title>
			<path d="M10 394.96 A10.0007 10.8545 -180 0 0 0 405.82 A10.0007 10.8545 -180 0 0 10 416.66 L10 394.96 Z" class="st5"/>
		</g>
		<g id="shape855-120" transform="translate(775.053,-198.251)">
			<title>Sheet.855</title>
			<path d="M10 394.96 A10.0007 10.8545 -180 0 0 -0 405.82 A10.0007 10.8545 -180 0 0 10 416.66 L10 394.96 Z" class="st4"/>
		</g>
		<g id="group856-122" transform="translate(519.746,-28.2513)">
			<title>Sheet.856</title>
			<g id="shape857-123" transform="translate(15.0768,-18.6772)">
				<title>Donut</title>
				<path d="M90.46 371.43 A45.2303 45.2303 -180 1 0 0 371.43 A45.2303 45.2303 -180 1 0 90.46 371.43 ZM6.03 371.43 A39.1996
							 39.1996 0 1 0 84.43 371.43 A39.1996 39.1996 0 1 0 6.03 371.43 Z" class="st7"/>
			</g>
			<g id="shape858-125" transform="translate(26.2803,-29.8808)">
				<title>Donut.261</title>
				<path d="M68.05 382.64 A34.0267 34.0267 -180 1 0 0 382.64 A34.0267 34.0267 -180 1 0 68.05 382.64 ZM5.67 382.64 A28.3556
							 28.3556 0 1 0 62.38 382.64 A28.3556 28.3556 0 1 0 5.67 382.64 Z" class="st8"/>
			</g>
			<g id="shape859-127" transform="translate(5.3809,-7.4737)">
				<title>Donut.262</title>
				<path d="M110.71 361.31 A55.3551 55.3551 -180 1 0 0 361.31 A55.3551 55.3551 -180 1 0 110.71 361.31 ZM4.94 361.31
							 A50.4132 50.4132 0 1 0 105.77 361.31 A50.4132 50.4132 0 1 0 4.94 361.31 Z" class="st9"/>
			</g>
			<g id="shape860-129" transform="translate(14.6332,-82.6455)">
				<title>Rectangle.18</title>
				<rect x="0" y="379.309" width="51.3705" height="37.3545" class="st10"/>
			</g>
			<g id="shape861-131" transform="translate(169.166,-8.16354) rotate(15)">
				<title>Rectangle.266</title>
				<rect x="0" y="379.309" width="51.3705" height="37.3545" class="st10"/>
			</g>
			<g id="shape862-133" transform="translate(0,-56.7066)">
				<title>Rectangle.267</title>
				<rect x="0" y="379.309" width="51.3705" height="37.3545" class="st10"/>
			</g>
			<g id="shape863-135" transform="translate(0,-30.1535)">
				<title>Rectangle.268</title>
				<rect x="0" y="379.309" width="51.3705" height="37.3545" class="st10"/>
			</g>
			<g id="shape864-137" transform="translate(8.93654,-7.53838)">
				<title>Rectangle.269</title>
				<rect x="0" y="379.309" width="51.3705" height="37.3545" class="st10"/>
			</g>
			<g id="shape865-139" transform="translate(42.1602,-5.11591E-013)">
				<title>Rectangle.270</title>
				<rect x="0" y="379.309" width="51.3705" height="37.3545" class="st10"/>
			</g>
		</g>
		<g id="shape866-141" transform="translate(480.053,-6.54374)">
			<title>s.866</title>
			<desc>Node E</desc>
			<rect x="0" y="325.492" width="105" height="91.1717" class="st1"/>
			<text x="32.49" y="374.68" class="st2">Node E</text>		</g>
		<g id="shape867-144" transform="translate(575.053,-54.3004)">
			<title>Sheet.867</title>
			<path d="M10 394.96 A10.0007 10.8545 -180 0 0 0 405.82 A10.0007 10.8545 -180 0 0 10 416.66 L10 394.96 Z" class="st5"/>
		</g>
		<g id="shape868-146" transform="translate(575.053,-28.2513)">
			<title>Sheet.868</title>
			<path d="M10 394.96 A10.0007 10.8545 -180 0 0 -0 405.82 A10.0007 10.8545 -180 0 0 10 416.66 L10 394.96 Z" class="st4"/>
		</g>
		<g id="shape869-148" transform="translate(475.671,499.881) rotate(180)">
			<title>Flowline1</title>
			<path d="M0 416.66 L43 416.66" class="st11"/>
		</g>
		<g id="shape870-151" transform="translate(655.739,-0.375)">
			<title>Sheet.870</title>
			<path d="M10 394.96 A10.0007 10.8545 -180 0 0 -0 405.82 A10.0007 10.8545 -180 0 0 10 416.66 L10 394.96 Z" class="st3"/>
		</g>
		<g id="shape871-153" transform="translate(665.739,-0.375)">
			<title>Sheet.871</title>
			<desc>Slave Endpoint</desc>
			<rect x="0" y="394.956" width="179.243" height="21.7076" class="st6"/>
			<text x="4" y="409.41" class="st2">Slave Endpoint</text>		</g>
	</g>
</svg>
