<?xml version="1.0" encoding="UTF-8" standalone="no"?>
<!DOCTYPE svg PUBLIC "-//W3C//DTD SVG 1.1//EN" "http://www.w3.org/Graphics/SVG/1.1/DTD/svg11.dtd">
<!-- Generated by Microsoft Visio, SVG Export ant_seach_sharing.svg Page-1 -->
<svg xmlns="http://www.w3.org/2000/svg" xmlns:xlink="http://www.w3.org/1999/xlink" xmlns:ev="http://www.w3.org/2001/xml-events"
		width="5.91299in" height="1.27736in" viewBox="0 0 425.735 91.97" xml:space="preserve" color-interpolation-filters="sRGB"
		class="st14">
	<style type="text/css">
	<![CDATA[
		.st1 {fill:#0081b7;fill-opacity:0.85;stroke:#000000;stroke-linecap:round;stroke-linejoin:round;stroke-width:0.72}
		.st2 {fill:#c4dbf2;fill-opacity:0.85;stroke:#000000;stroke-linecap:round;stroke-linejoin:round;stroke-width:0.72}
		.st3 {fill:#000000;font-family:Arial;font-size:1.00001em}
		.st4 {fill:#adafaf;stroke:#c7c8c8;stroke-width:0.25}
		.st5 {visibility:visible}
		.st6 {fill:#5b9bd5;fill-opacity:0.22;filter:url(#filter_2);stroke:#5b9bd5;stroke-opacity:0.22}
		.st7 {fill:#feffff;stroke:#c7c8c8;stroke-width:0.25}
		.st8 {fill:#ffffff;stroke:none;stroke-width:0.999998}
		.st9 {fill:#ffffff;font-family:Arial;font-size:1.00001em}
		.st10 {fill:#ffffff;stroke:#000000;stroke-width:0.25}
		.st11 {fill:#000000;stroke:#000000;stroke-width:0.25}
		.st12 {stroke:#000000;stroke-linecap:round;stroke-linejoin:round;stroke-width:0.24}
		.st13 {fill:none;stroke:none;stroke-linecap:round;stroke-linejoin:round;stroke-width:0.75}
		.st14 {fill:none;fill-rule:evenodd;font-size:12px;overflow:visible;stroke-linecap:square;stroke-miterlimit:3}
	]]>
	</style>

	<defs id="Filters">
		<filter id="filter_2">
			<feGaussianBlur stdDeviation="2"/>
		</filter>
	</defs>
	<g>
		<title>Page-1</title>
		<g id="shape402-1" transform="translate(148.224,-0.36)">
			<title>s.402</title>
			<rect x="0" y="0.798266" width="105" height="91.1717" class="st1"/>
		</g>
		<g id="shape403-3" transform="translate(0.36,-0.438266)">
			<title>s.403</title>
			<desc>Node A</desc>
			<rect x="0" y="0.798266" width="105" height="91.1717" class="st2"/>
			<text x="32.49" y="49.98" class="st3">Node A</text>		</g>
		<g id="shape404-6" transform="translate(190.964,-33.8252)">
			<title>Sheet.404</title>
			<path d="M49.27 46.27 L3.02 46.27 L3.02 77.13 L49.27 77.13 L49.27 46.27 ZM51.76 91.97 L43.98 82.23 L7.77 82.23 L0 91.97
						 L51.76 91.97 ZM29.94 77.13 L21.82 77.13 L21.82 82.23 L29.94 82.23 L29.94 77.13 Z" class="st4"/>
		</g>
		<g id="shape405-8" transform="translate(196.973,-51.4359)">
			<title>Sheet.405</title>
			<g id="shadow405-9" transform="matrix(1,0,0,1,0.345597,1.97279)" class="st5">
				<path d="M40.32 66.94 L0 66.94 L0 91.97 L40.32 91.97 L40.32 66.94 Z" class="st6"/>
			</g>
			<path d="M40.32 66.94 L0 66.94 L0 91.97 L40.32 91.97 L40.32 66.94 Z" class="st7"/>
		</g>
		<g id="shape406-13" transform="translate(198.008,-35.834)">
			<title>Sheet.406</title>
			<path d="M35.34 88.19 L33.04 88.19 L34.32 89.63 L36.81 89.63 L35.34 88.19 ZM32.74 85.66 L30.76 85.66 L32.15 87.2 L34.31
						 87.2 L32.74 85.66 ZM31.79 88.19 L29.5 88.19 L30.51 89.63 L32.98 89.63 L31.79 88.19 ZM29.7 85.66 L27.7 85.66
						 L28.8 87.2 L30.97 87.2 L29.7 85.66 ZM28.27 88.19 L25.96 88.19 L26.71 89.63 L29.18 89.63 L28.27 88.19 ZM26.66
						 85.66 L24.66 85.66 L25.46 87.22 L27.64 87.22 L26.66 85.66 ZM24.72 88.19 L22.43 88.19 L22.88 89.63 L25.37
						 89.63 L24.72 88.19 ZM23.64 85.77 L21.65 85.77 L22.12 87.22 L24.29 87.22 L23.64 85.77 ZM21.19 88.19 L18.88
						 88.19 L19.07 89.63 L21.54 89.63 L21.19 88.19 ZM20.59 85.88 L18.59 85.88 L18.78 87.32 L20.96 87.32 L20.59
						 85.88 ZM17.51 85.88 L15.51 85.88 L15.42 87.32 L17.6 87.32 L17.51 85.88 ZM17.65 88.19 L15.35 88.19 L15.27
						 89.63 L17.74 89.63 L17.65 88.19 ZM14.42 85.88 L12.41 85.88 L12.03 87.32 L14.23 87.32 L14.42 85.88 ZM14.12
						 88.19 L11.81 88.19 L11.44 89.63 L13.93 89.63 L14.12 88.19 ZM26.73 90.54 L10.49 90.54 L10.09 91.97 L27.43
						 91.97 L26.73 90.54 ZM11.34 85.88 L9.33 85.88 L8.67 87.32 L10.86 87.32 L11.34 85.88 ZM10.57 88.19 L8.27 88.19
						 L7.63 89.63 L10.1 89.63 L10.57 88.19 ZM8.23 85.88 L6.23 85.88 L5.32 87.32 L7.5 87.32 L8.23 85.88 ZM7.05
						 88.19 L4.74 88.19 L3.81 89.63 L6.3 89.63 L7.05 88.19 ZM5.14 85.88 L3.13 85.88 L1.93 87.32 L4.13 87.32 L5.14
						 85.88 ZM3.5 88.19 L1.2 88.19 L0 89.63 L2.47 89.63 L3.5 88.19 Z" class="st8"/>
		</g>
		<g id="shape407-15" transform="translate(180.455,-0.36)">
			<title>Terminal.407</title>
			<desc>ANTware</desc>
			<text x="11.38" y="80.35" class="st9">ANTware</text>		</g>
		<g id="shape408-17" transform="translate(95.36,-48.1949)">
			<title>Sheet.408</title>
			<path d="M10 70.26 A10.0007 10.8545 -180 0 0 0 81.13 A10.0007 10.8545 -180 0 0 10 91.97 L10 70.26 Z" class="st10"/>
		</g>
		<g id="shape409-19" transform="translate(95.36,-22.1458)">
			<title>Sheet.409</title>
			<path d="M10 70.26 A10.0007 10.8545 -180 0 0 -0 81.13 A10.0007 10.8545 -180 0 0 10 91.97 L10 70.26 Z" class="st10"/>
		</g>
		<g id="shape410-21" transform="translate(158.224,140.165) rotate(180)">
			<title>Sheet.410</title>
			<path d="M10 70.26 A10.0007 10.8545 -180 0 0 0 81.13 A10.0007 10.8545 -180 0 0 10 91.97 L10 70.26 Z" class="st11"/>
		</g>
		<g id="shape411-23" transform="translate(158.224,114.116) rotate(180)">
			<title>Sheet.411</title>
			<path d="M10 70.26 A10.0007 10.8545 -180 0 0 0 81.13 A10.0007 10.8545 -180 0 0 10 91.97 L10 70.26 Z" class="st11"/>
		</g>
		<g id="shape412-25" transform="translate(105.528,-59.0485) rotate(0.104617)">
			<title>Sheet.412</title>
			<path d="M0 91.97 L42.86 91.97" class="st12"/>
		</g>
		<g id="shape413-28" transform="translate(148.056,151.019) rotate(-179.895)">
			<title>Sheet.413</title>
			<path d="M0 91.97 L42.86 91.97" class="st12"/>
		</g>
		<g id="shape415-31" transform="translate(289.36,-26.61)">
			<title>Sheet.415</title>
			<path d="M10 70.26 A10.0007 10.8545 -180 0 0 -0 81.13 A10.0007 10.8545 -180 0 0 10 91.97 L10 70.26 Z" class="st10"/>
		</g>
		<g id="shape416-33" transform="translate(289.36,-53.6325)">
			<title>Sheet.416</title>
			<path d="M10 70.26 A10.0007 10.8545 -180 0 0 0 81.13 A10.0007 10.8545 -180 0 0 10 91.97 L10 70.26 Z" class="st11"/>
		</g>
		<g id="shape418-35" transform="translate(299.36,-53.6325)">
			<title>Sheet.418</title>
			<desc>Master Endpoint</desc>
			<rect x="0" y="70.2624" width="126" height="21.7076" class="st13"/>
			<text x="4" y="84.72" class="st3">Master Endpoint</text>		</g>
		<g id="shape420-38" transform="translate(299.36,-26.61)">
			<title>Sheet.420</title>
			<desc>Slave Endpoint</desc>
			<rect x="0" y="70.2624" width="126" height="21.7076" class="st13"/>
			<text x="4" y="84.72" class="st3">Slave Endpoint</text>		</g>
	</g>
</svg>
