<?xml version="1.0" encoding="UTF-8" standalone="no"?>
<!DOCTYPE svg PUBLIC "-//W3C//DTD SVG 1.1//EN" "http://www.w3.org/Graphics/SVG/1.1/DTD/svg11.dtd">
<!-- Generated by Microsoft Visio, SVG Export ant_relay_pairing2.svg Page-1 -->
<svg xmlns="http://www.w3.org/2000/svg" xmlns:xlink="http://www.w3.org/1999/xlink" xmlns:ev="http://www.w3.org/2001/xml-events"
		width="6.99632in" height="1.83759in" viewBox="0 0 503.735 132.307" xml:space="preserve" color-interpolation-filters="sRGB"
		class="st15">
	<style type="text/css">
	<![CDATA[
		.st1 {fill:#c4dbf2;fill-opacity:0.85;stroke:#000000;stroke-linecap:round;stroke-linejoin:round;stroke-width:0.72}
		.st2 {fill:#000000;font-family:Arial;font-size:1.00001em}
		.st3 {fill:#000000;stroke:#000000;stroke-width:0.25}
		.st4 {fill:#dc582a;stroke:#000000;stroke-width:0.25}
		.st5 {marker-end:url(#mrkr13-23);marker-start:url(#mrkr3-21);stroke:#000000;stroke-linecap:round;stroke-linejoin:round;stroke-width:0.24}
		.st6 {fill:#000000;fill-opacity:1;stroke:#000000;stroke-opacity:1;stroke-width:0.08695652173913}
		.st7 {fill:none;stroke:none;stroke-linecap:round;stroke-linejoin:round;stroke-width:0.75}
		.st8 {visibility:visible}
		.st9 {fill:#5b9bd5;fill-opacity:0.22;filter:url(#filter_2);stroke:#5b9bd5;stroke-opacity:0.22}
		.st10 {fill:#ffff00;stroke:#000000;stroke-width:0.249998}
		.st11 {fill:#c49300;stroke:#000000;stroke-width:0.249998}
		.st12 {fill:none;stroke:none;stroke-width:0.249998}
		.st13 {fill:#000000;font-family:Arial;font-size:0.833336em}
		.st14 {fill:#7f7f7f;stroke:#000000;stroke-width:0.249998}
		.st15 {fill:none;fill-rule:evenodd;font-size:12px;overflow:visible;stroke-linecap:square;stroke-miterlimit:3}
	]]>
	</style>

	<defs id="Markers">
		<g id="lend3">
			<path d="M 2 1 L 0 0 L 2 -1 " style="stroke-linecap:round;stroke-linejoin:round;fill:none"/>
		</g>
		<marker id="mrkr3-21" class="st6" orient="auto" markerUnits="strokeWidth" overflow="visible">
			<use xlink:href="#lend3" transform="scale(11.5) "/>
		</marker>
		<g id="lend13">
			<path d="M 3 1 L 0 0 L 3 -1 L 3 1 " style="stroke:none"/>
		</g>
		<marker id="mrkr13-23" class="st6" refX="-34.5" orient="auto" markerUnits="strokeWidth" overflow="visible">
			<use xlink:href="#lend13" transform="scale(-11.5,-11.5) "/>
		</marker>
	</defs>
	<defs id="Filters">
		<filter id="filter_2">
			<feGaussianBlur stdDeviation="2"/>
		</filter>
	</defs>
	<g>
		<title>Page-1</title>
		<g id="shape375-1" transform="translate(0.36,-0.36)">
			<title>s.375</title>
			<desc>Node A</desc>
			<rect x="0" y="41.1348" width="105" height="91.1717" class="st1"/>
			<text x="32.49" y="90.32" class="st2">Node A</text>		</g>
		<g id="shape376-4" transform="translate(95.36,-35.0921)">
			<title>Sheet.376</title>
			<path d="M10 110.6 A10.0007 10.8545 -180 0 0 -0 121.46 A10.0007 10.8545 -180 0 0 10 132.31 L10 110.6 Z" class="st3"/>
		</g>
		<g id="shape377-6" transform="translate(147.86,-0.36)">
			<title>s.377</title>
			<desc>Node B</desc>
			<rect x="0" y="41.1348" width="105" height="91.1717" class="st1"/>
			<text x="32.49" y="90.32" class="st2">Node B</text>		</g>
		<g id="shape378-9" transform="translate(157.86,207.814) rotate(180)">
			<title>Sheet.378</title>
			<path d="M10 110.6 A10.0007 10.8545 -180 0 0 0 121.46 A10.0007 10.8545 -180 0 0 10 132.31 L10 110.6 Z" class="st4"/>
		</g>
		<g id="shape379-11" transform="translate(331.36,-27.1667)">
			<title>Sheet.379</title>
			<path d="M10 110.6 A10.0007 10.8545 -180 0 0 -0 121.46 A10.0007 10.8545 -180 0 0 10 132.31 L10 110.6 Z" class="st4"/>
		</g>
		<g id="shape380-13" transform="translate(331.36,-54.1892)">
			<title>Sheet.380</title>
			<path d="M10 110.6 A10.0007 10.8545 -180 0 0 0 121.46 A10.0007 10.8545 -180 0 0 10 132.31 L10 110.6 Z" class="st3"/>
		</g>
		<g id="shape381-15" transform="translate(105.36,-45.9459)">
			<title>Sheet.381</title>
			<path d="M0 132.31 L34.22 132.31" class="st5"/>
		</g>
		<g id="shape382-24" transform="translate(341.36,-54.1892)">
			<title>Sheet.382</title>
			<desc>Master Endpoint</desc>
			<rect x="0" y="110.599" width="126" height="21.7076" class="st7"/>
			<text x="4" y="125.05" class="st2">Master Endpoint</text>		</g>
		<g id="shape383-27" transform="translate(341.36,-27.1667)">
			<title>Sheet.383</title>
			<desc>Searching Slave Endpoint</desc>
			<rect x="0" y="110.599" width="162" height="21.7076" class="st7"/>
			<text x="4" y="125.05" class="st2">Searching Slave Endpoint</text>		</g>
		<g id="shape387-30" transform="translate(78.9072,50.7748) rotate(-90)">
			<title>Sheet.387</title>
			<path d="M10 110.6 A10.0007 10.8545 -180 0 0 0 121.46 A10.0007 10.8545 -180 0 0 10 132.31 L10 110.6 Z" class="st3"/>
		</g>
		<g id="shape388-32" transform="translate(-68.5928,50.7748) rotate(-90)">
			<title>Sheet.388</title>
			<path d="M10 110.6 A10.0007 10.8545 -180 0 0 0 121.46 A10.0007 10.8545 -180 0 0 10 132.31 L10 110.6 Z" class="st3"/>
		</g>
		<g id="shape389-34" transform="translate(252.86,-45.9459)">
			<title>Sheet.389</title>
			<path d="M0 132.31 L31.72 132.31" class="st5"/>
		</g>
		<g id="shape390-41" transform="translate(242.86,-35.0921)">
			<title>Sheet.390</title>
			<path d="M10 110.6 A10.0007 10.8545 -180 0 0 0 121.46 A10.0007 10.8545 -180 0 0 10 132.31 L10 110.6 Z" class="st3"/>
		</g>
		<g id="shape410-43" transform="translate(189.031,-16.0833)">
			<title>Circle.410</title>
			<g id="shadow410-44" transform="matrix(1,0,0,1,0.345596,1.97277)" class="st8">
				<path d="M-0 129.39 A2.9029 2.76782 0 0 1 5.8 129.39 A2.9029 2.76782 0 1 1 -0 129.39 Z" class="st9"/>
			</g>
			<path d="M-0 129.39 A2.9029 2.76782 0 0 1 5.8 129.39 A2.9029 2.76782 0 1 1 -0 129.39 Z" class="st10"/>
		</g>
		<g id="shape411-48" transform="translate(189.031,-7.22637)">
			<title>Circle.411</title>
			<g id="shadow411-49" transform="matrix(1,0,0,1,0.345596,1.97277)" class="st8">
				<path d="M-0 129.39 A2.9029 2.76782 0 0 1 5.8 129.39 A2.9029 2.76782 0 1 1 -0 129.39 Z" class="st9"/>
			</g>
			<path d="M-0 129.39 A2.9029 2.76782 0 0 1 5.8 129.39 A2.9029 2.76782 0 1 1 -0 129.39 Z" class="st11"/>
		</g>
		<g id="shape412-53" transform="translate(147.86,-15.3074)">
			<title>Sheet.412</title>
			<desc>Led 1</desc>
			<rect x="0" y="124.926" width="39.8667" height="7.38087" class="st12"/>
			<text x="8.08" y="131.62" class="st13">LED 2</text>		</g>
		<g id="shape413-56" transform="translate(147.86,-6.08119)">
			<title>Sheet.413</title>
			<desc>Led 0</desc>
			<rect x="0" y="124.926" width="39.8667" height="7.38087" class="st12"/>
			<text x="8.08" y="131.62" class="st13">LED 1</text>		</g>
		<g id="shape414-59" transform="translate(233.38,-13.8785)">
			<title>Circle.414</title>
			<g id="shadow414-60" transform="matrix(1,0,0,1,0.345596,1.97277)" class="st8">
				<path d="M-0 129.39 A2.9029 2.76782 0 0 1 5.8 129.39 A2.9029 2.76782 0 1 1 -0 129.39 Z" class="st9"/>
			</g>
			<path d="M-0 129.39 A2.9029 2.76782 0 0 1 5.8 129.39 A2.9029 2.76782 0 1 1 -0 129.39 Z" class="st14"/>
		</g>
		<g id="shape415-64" transform="translate(212.479,-13.8785)">
			<title>Circle.415</title>
			<g id="shadow415-65" transform="matrix(1,0,0,1,0.345596,1.97277)" class="st8">
				<path d="M-0 129.39 A2.9029 2.76782 0 0 1 5.8 129.39 A2.9029 2.76782 0 1 1 -0 129.39 Z" class="st9"/>
			</g>
			<path d="M-0 129.39 A2.9029 2.76782 0 0 1 5.8 129.39 A2.9029 2.76782 0 1 1 -0 129.39 Z" class="st14"/>
		</g>
		<g id="shape416-69" transform="translate(201.824,-21.8067)">
			<title>Sheet.416</title>
			<desc>Button</desc>
			<rect x="0" y="124.926" width="45.6724" height="7.38087" class="st12"/>
			<text x="8.38" y="131.62" class="st13">Button</text>		</g>
		<g id="shape417-72" transform="translate(207.209,-5.36)">
			<title>Sheet.417</title>
			<desc>0</desc>
			<rect x="0" y="126.771" width="11.6116" height="5.53566" class="st12"/>
			<text x="3.99" y="132.54" class="st13">1</text>		</g>
		<g id="shape418-75" transform="translate(228.497,-5.36)">
			<title>Sheet.418</title>
			<desc>1</desc>
			<rect x="0" y="126.771" width="11.6116" height="5.53566" class="st12"/>
			<text x="3.99" y="132.54" class="st13">2</text>		</g>
		<g id="shape419-78" transform="translate(41.5313,-16.0833)">
			<title>Circle.419</title>
			<g id="shadow419-79" transform="matrix(1,0,0,1,0.345596,1.97277)" class="st8">
				<path d="M-0 129.39 A2.9029 2.76782 0 0 1 5.8 129.39 A2.9029 2.76782 0 1 1 -0 129.39 Z" class="st9"/>
			</g>
			<path d="M-0 129.39 A2.9029 2.76782 0 0 1 5.8 129.39 A2.9029 2.76782 0 1 1 -0 129.39 Z" class="st11"/>
		</g>
		<g id="shape420-83" transform="translate(41.5313,-7.22637)">
			<title>Circle.420</title>
			<g id="shadow420-84" transform="matrix(1,0,0,1,0.345596,1.97277)" class="st8">
				<path d="M-0 129.39 A2.9029 2.76782 0 0 1 5.8 129.39 A2.9029 2.76782 0 1 1 -0 129.39 Z" class="st9"/>
			</g>
			<path d="M-0 129.39 A2.9029 2.76782 0 0 1 5.8 129.39 A2.9029 2.76782 0 1 1 -0 129.39 Z" class="st11"/>
		</g>
		<g id="shape421-88" transform="translate(0.36,-15.3074)">
			<title>Sheet.421</title>
			<desc>Led 1</desc>
			<rect x="0" y="124.926" width="39.8667" height="7.38087" class="st12"/>
			<text x="8.08" y="131.62" class="st13">LED 2</text>		</g>
		<g id="shape422-91" transform="translate(0.36,-6.08119)">
			<title>Sheet.422</title>
			<desc>Led 0</desc>
			<rect x="0" y="124.926" width="39.8667" height="7.38087" class="st12"/>
			<text x="8.08" y="131.62" class="st13">LED 1</text>		</g>
		<g id="shape423-94" transform="translate(85.8797,-13.8785)">
			<title>Circle.423</title>
			<g id="shadow423-95" transform="matrix(1,0,0,1,0.345596,1.97277)" class="st8">
				<path d="M-0 129.39 A2.9029 2.76782 0 0 1 5.8 129.39 A2.9029 2.76782 0 1 1 -0 129.39 Z" class="st9"/>
			</g>
			<path d="M-0 129.39 A2.9029 2.76782 0 0 1 5.8 129.39 A2.9029 2.76782 0 1 1 -0 129.39 Z" class="st14"/>
		</g>
		<g id="shape424-99" transform="translate(64.9787,-13.8785)">
			<title>Circle.424</title>
			<g id="shadow424-100" transform="matrix(1,0,0,1,0.345596,1.97277)" class="st8">
				<path d="M-0 129.39 A2.9029 2.76782 0 0 1 5.8 129.39 A2.9029 2.76782 0 1 1 -0 129.39 Z" class="st9"/>
			</g>
			<path d="M-0 129.39 A2.9029 2.76782 0 0 1 5.8 129.39 A2.9029 2.76782 0 1 1 -0 129.39 Z" class="st14"/>
		</g>
		<g id="shape425-104" transform="translate(54.324,-21.8067)">
			<title>Sheet.425</title>
			<desc>Button</desc>
			<rect x="0" y="124.926" width="45.6724" height="7.38087" class="st12"/>
			<text x="8.38" y="131.62" class="st13">Button</text>		</g>
		<g id="shape426-107" transform="translate(59.709,-5.36)">
			<title>Sheet.426</title>
			<desc>0</desc>
			<rect x="0" y="126.771" width="11.6116" height="5.53566" class="st12"/>
			<text x="3.99" y="132.54" class="st13">1</text>		</g>
		<g id="shape427-110" transform="translate(80.9972,-5.36)">
			<title>Sheet.427</title>
			<desc>1</desc>
			<rect x="0" y="126.771" width="11.6116" height="5.53566" class="st12"/>
			<text x="3.99" y="132.54" class="st13">2</text>		</g>
		<g id="shape767-113" transform="translate(-40.6949,-52.78) rotate(-45)">
			<title>Sheet.767</title>
			<path d="M0 132.31 L29.62 132.31" class="st5"/>
		</g>
		<g id="shape768-120" transform="translate(106.805,-52.78) rotate(-45)">
			<title>Sheet.768</title>
			<path d="M0 132.31 L29.62 132.31" class="st5"/>
		</g>
	</g>
</svg>
