<?xml version="1.0" encoding="UTF-8" standalone="no"?>
<!DOCTYPE svg PUBLIC "-//W3C//DTD SVG 1.1//EN" "http://www.w3.org/Graphics/SVG/1.1/DTD/svg11.dtd">
<!-- Generated by Microsoft Visio, SVG Export app_gpiote_02.svg Page-1 -->
<svg xmlns="http://www.w3.org/2000/svg" xmlns:xlink="http://www.w3.org/1999/xlink" xmlns:ev="http://www.w3.org/2001/xml-events"
		width="7.61458in" height="1.02431in" viewBox="0 0 548.25 73.75" xml:space="preserve" color-interpolation-filters="sRGB"
		class="st4">
	<style type="text/css">
	<![CDATA[
		.st1 {fill:#c4dbf2;fill-opacity:0.85;stroke:#000000;stroke-linecap:round;stroke-linejoin:round;stroke-width:0.72}
		.st2 {fill:#000000;font-family:Arial;font-size:1.00001em}
		.st3 {fill:none;stroke:none;stroke-linecap:round;stroke-linejoin:round;stroke-width:0.75}
		.st4 {fill:none;fill-rule:evenodd;font-size:12px;overflow:visible;stroke-linecap:square;stroke-miterlimit:3}
	]]>
	</style>

	<g>
		<title>Page-1</title>
		<g id="shape274-1" transform="translate(367.875,-19.375)">
			<title>s.6</title>
			<desc>3</desc>
			<rect x="0" y="38.75" width="45" height="35" class="st1"/>
			<text x="19.16" y="66.15" class="st2">3</text>		</g>
		<g id="shape288-4" transform="translate(412.875,-19.375)">
			<title>s.288</title>
			<desc>2</desc>
			<rect x="0" y="38.75" width="45" height="35" class="st1"/>
			<text x="19.16" y="66.15" class="st2">2</text>		</g>
		<g id="shape289-7" transform="translate(457.875,-19.375)">
			<title>s.289</title>
			<desc>1</desc>
			<rect x="0" y="38.75" width="45" height="35" class="st1"/>
			<text x="19.16" y="66.15" class="st2">1</text>		</g>
		<g id="shape290-10" transform="translate(502.875,-19.375)">
			<title>s.290</title>
			<desc>0</desc>
			<rect x="0" y="38.75" width="45" height="35" class="st1"/>
			<text x="19.16" y="66.15" class="st2">0</text>		</g>
		<g id="shape291-13" transform="translate(145.375,-19.375)">
			<title>s.291</title>
			<desc>...</desc>
			<rect x="0" y="38.75" width="222.5" height="35" class="st1"/>
			<text x="106.25" y="66.15" class="st2">...</text>		</g>
		<g id="shape292-16" transform="translate(100.375,-19.375)">
			<title>s.292</title>
			<desc>31</desc>
			<rect x="0" y="38.75" width="45" height="35" class="st1"/>
			<text x="15.83" y="66.15" class="st2">31</text>		</g>
		<g id="shape293-19" transform="translate(100.375,-54.375)">
			<title>Sheet.293</title>
			<desc>MSB</desc>
			<rect x="0" y="54.75" width="45" height="19" class="st3"/>
			<text x="9.5" y="67.85" class="st2">MSB</text>		</g>
		<g id="shape296-22" transform="translate(502.875,-54.375)">
			<title>Sheet.296</title>
			<desc>LSB</desc>
			<rect x="0" y="54.75" width="45" height="19" class="st3"/>
			<text x="11.16" y="67.85" class="st2">LSB</text>		</g>
		<g id="shape298-25" transform="translate(0.375,-19.375)">
			<title>Sheet.298</title>
			<desc>32-bit bitmask</desc>
			<rect x="0" y="38.75" width="100" height="35" class="st3"/>
			<text x="12.65" y="59.85" class="st2">32-bit bitmask</text>		</g>
		<g id="shape299-28" transform="translate(93.0568,-0.375)">
			<title>Sheet.299</title>
			<desc>GPIO31</desc>
			<rect x="0" y="54.75" width="60" height="19" class="st3"/>
			<text x="8.32" y="67.85" class="st2">GPIO31</text>		</g>
		<g id="shape301-31" transform="translate(367.875,-0.375)">
			<title>Sheet.301</title>
			<desc>GPIO3</desc>
			<rect x="0" y="54.75" width="45" height="19" class="st3"/>
			<text x="4.16" y="67.85" class="st2">GPIO3</text>		</g>
		<g id="shape325-34" transform="translate(412.875,-0.375)">
			<title>Sheet.325</title>
			<desc>GPIO2</desc>
			<rect x="0" y="54.75" width="45" height="19" class="st3"/>
			<text x="4.16" y="67.85" class="st2">GPIO2</text>		</g>
		<g id="shape326-37" transform="translate(457.875,-0.375)">
			<title>Sheet.326</title>
			<desc>GPIO1</desc>
			<rect x="0" y="54.75" width="45" height="19" class="st3"/>
			<text x="4.16" y="67.85" class="st2">GPIO1</text>		</g>
		<g id="shape327-40" transform="translate(502.875,-0.375)">
			<title>Sheet.327</title>
			<desc>GPIO0</desc>
			<rect x="0" y="54.75" width="45" height="19" class="st3"/>
			<text x="4.16" y="67.85" class="st2">GPIO0</text>		</g>
	</g>
</svg>
