<?xml version="1.0" encoding="UTF-8" standalone="no"?>
<!DOCTYPE svg PUBLIC "-//W3C//DTD SVG 1.1//EN" "http://www.w3.org/Graphics/SVG/1.1/DTD/svg11.dtd">
<!-- Generated by Microsoft Visio, SVG Export app_uml1 2.svg Page-1 -->
<svg xmlns="http://www.w3.org/2000/svg" xmlns:xlink="http://www.w3.org/1999/xlink" xmlns:ev="http://www.w3.org/2001/xml-events"
		width="11.8361in" height="10.1631in" viewBox="0 0 852.201 731.74" xml:space="preserve" color-interpolation-filters="sRGB"
		class="st15">
	<style type="text/css">
	<![CDATA[
		.st1 {fill:none;stroke:#000000;stroke-linecap:round;stroke-linejoin:round;stroke-width:0.25}
		.st2 {marker-end:url(#mrkr13-9);stroke:#000000;stroke-linecap:round;stroke-linejoin:round;stroke-width:0.24}
		.st3 {fill:#000000;fill-opacity:1;stroke:#000000;stroke-opacity:1;stroke-width:0.08695652173913}
		.st4 {fill:#c4dbf2;stroke:#000000;stroke-linecap:round;stroke-linejoin:round;stroke-width:0.24}
		.st5 {fill:#000000;font-family:Arial;font-size:0.791656em}
		.st6 {fill:#ffffff;stroke:none;stroke-linecap:butt;stroke-width:7.2}
		.st7 {font-size:1em}
		.st8 {fill:#4677bf;fill-opacity:1;stroke:#4677bf;stroke-opacity:1;stroke-width:0.16556291390728}
		.st9 {marker-end:url(#mrkr13-112);stroke:#000000;stroke-linecap:round;stroke-linejoin:round;stroke-width:0.5}
		.st10 {fill:#000000;fill-opacity:1;stroke:#000000;stroke-opacity:1;stroke-width:0.16556291390728}
		.st11 {marker-end:url(#mrkr4-219);stroke:#000000;stroke-linecap:round;stroke-linejoin:round;stroke-width:0.5}
		.st12 {marker-end:url(#mrkr4-399);stroke:#000000;stroke-linecap:round;stroke-linejoin:round;stroke-width:0.5}
		.st13 {fill:#ffffff;stroke:none;stroke-linecap:round;stroke-linejoin:round;stroke-width:0.75}
		.st14 {fill:none;stroke:none;stroke-linecap:round;stroke-linejoin:round;stroke-width:0.75}
		.st15 {fill:none;fill-rule:evenodd;font-size:12px;overflow:visible;stroke-linecap:square;stroke-miterlimit:3}
	]]>
	</style>

	<defs id="Markers">
		<g id="lend13">
			<path d="M 3 1 L 0 0 L 3 -1 L 3 1 " style="stroke:none"/>
		</g>
		<marker id="mrkr13-9" class="st3" refX="-34.5" orient="auto" markerUnits="strokeWidth" overflow="visible">
			<use xlink:href="#lend13" transform="scale(-11.5,-11.5) "/>
		</marker>
		<marker id="mrkr13-103" class="st8" refX="-18.12" orient="auto" markerUnits="strokeWidth" overflow="visible">
			<use xlink:href="#lend13" transform="scale(-6.04,-6.04) "/>
		</marker>
		<marker id="mrkr13-112" class="st10" refX="-18.12" orient="auto" markerUnits="strokeWidth" overflow="visible">
			<use xlink:href="#lend13" transform="scale(-6.04,-6.04) "/>
		</marker>
		<g id="lend4">
			<path d="M 2 1 L 0 0 L 2 -1 L 2 1 " style="stroke:none"/>
		</g>
		<marker id="mrkr4-210" class="st8" refX="-12.08" orient="auto" markerUnits="strokeWidth" overflow="visible">
			<use xlink:href="#lend4" transform="scale(-6.04,-6.04) "/>
		</marker>
		<marker id="mrkr4-219" class="st10" refX="-12.08" orient="auto" markerUnits="strokeWidth" overflow="visible">
			<use xlink:href="#lend4" transform="scale(-6.04,-6.04) "/>
		</marker>
		<marker id="mrkr4-399" class="st10" refX="-0" orient="auto" markerUnits="strokeWidth" overflow="visible">
			<use xlink:href="#lend4" transform="scale(-6.04,-6.04) "/>
		</marker>
	</defs>
	<g>
		<title>Page-1</title>
		<g id="group440-1" transform="translate(172.308,-194.981)">
			<title>Sheet.440</title>
			<g id="shape441-2">
				<title>Sheet.441</title>
				<rect x="0" y="686.74" width="100" height="45" rx="18" ry="18" class="st1"/>
			</g>
			<g id="shape442-4" transform="translate(38,1418.48) rotate(180)">
				<title>Flowline1.291</title>
				<path d="M0 731.74 L7.98 731.74" class="st2"/>
			</g>
		</g>
		<g id="group292-10" transform="translate(600.753,-376.12)">
			<title>Sheet.292</title>
			<g id="shape287-11">
				<title>Sheet.287</title>
				<rect x="0" y="686.74" width="100" height="45" rx="18" ry="18" class="st1"/>
			</g>
			<g id="shape291-13" transform="translate(38,1418.48) rotate(180)">
				<title>Flowline1.291</title>
				<path d="M0 731.74 L4.85 731.74" class="st2"/>
			</g>
		</g>
		<g id="shape227-18" transform="translate(693.605,-704.62)">
			<title>Start/End-point</title>
			<desc>Start</desc>
			<path d="M9 731.74 L27 731.74 A9 13.5 -180 0 0 27 704.74 L9 704.74 A9 13.5 -180 1 0 9 731.74 Z" class="st4"/>
			<text x="7.97" y="720.61" class="st5">Start</text>		</g>
		<g id="shape228-21" transform="translate(693.605,745.36) rotate(180)">
			<title>Flowline1</title>
			<path d="M0 731.74 L65.83 731.74" class="st2"/>
		</g>
		<g id="shape229-26" transform="translate(547.493,-672.12)">
			<title>Process.245</title>
			<desc>IDLE</desc>
			<rect x="0" y="677.74" width="72" height="54" class="st4"/>
			<text x="25.44" y="707.11" class="st5">IDLE</text>		</g>
		<g id="shape267-29" transform="translate(565.493,-617.898)">
			<title>Decision.254</title>
			<path d="M0 718.24 L18 704.74 L36 718.24 L18 731.74 L0 718.24 Z" class="st4"/>
		</g>
		<g id="shape268-31" transform="translate(541.363,-550.009)">
			<title>Process.268</title>
			<desc>TX_HEADER</desc>
			<rect x="0" y="704.74" width="84.2598" height="27" class="st4"/>
			<text x="13.62" y="720.61" class="st5">TX_HEADER</text>		</g>
		<g id="shape270-34" transform="translate(541.363,-404.509)">
			<title>Process.270</title>
			<desc>TX_PAYLOAD</desc>
			<rect x="0" y="704.74" width="84.2598" height="27" class="st4"/>
			<text x="10.98" y="720.61" class="st5">TX_PAYLOAD</text>		</g>
		<g id="shape274-37" transform="translate(721.753,-550.009)">
			<title>Process.274</title>
			<desc>TXWAIT_FOR_RDY</desc>
			<rect x="0" y="704.74" width="115" height="27" class="st4"/>
			<text x="14.22" y="720.61" class="st5">TXWAIT_FOR_RDY</text>		</g>
		<g id="shape275-40" transform="translate(1315.23,59.62) rotate(90)">
			<title>Flowline1.275</title>
			<desc>API_TX_CALL_EVT</desc>
			<path d="M0 731.74 L18.94 731.74" class="st2"/>
			<rect x="-777.572" y="6.50559" width="85.5406" height="9.7446" transform="rotate(-90)" class="st6"/>
			<text x="-777.57" y="13.88" transform="rotate(-90)" class="st5">API_TX_CALL_EVT</text>		</g>
		<g id="shape276-47" transform="translate(1315.23,113.842) rotate(90)">
			<title>Flowline1.276</title>
			<desc>[RDY]/header_send(tx_buf_len);</desc>
			<path d="M0 731.74 L32.61 731.74" class="st2"/>
			<rect x="-797.924" y="4.78336" width="136.245" height="9.7446" transform="rotate(-90)" class="st6"/>
			<text x="-797.92" y="12.15" transform="rotate(-90)" class="st5">[RDY]/header_send(tx_buf_len);</text>		</g>
		<g id="shape277-54" transform="translate(1342.45,181.731) rotate(90)">
			<title>Flowline1.277</title>
			<desc>RDY_EVT [waitForRDY]/waitForRDY=false; frame_send();</desc>
			<path d="M0 731.74 L110.22 731.74" class="st2"/>
			<rect x="-751.309" y="37.3946" width="138.574" height="28.7444" transform="rotate(-90)" class="st6"/>
			<text x="-751.31" y="44.76" transform="rotate(-90)" class="st5">RDY_EVT  <tspan x="-751.31" dy="1em" class="st7">[</tspan>waitForRDY]/waitForRDY=false;<tspan
						x="-751.31" dy="1em" class="st7">frame</tspan>_send();</text>		</g>
		<g id="shape278-63" transform="translate(1291.1,181.731) rotate(90)">
			<title>Flowline1.278</title>
			<desc>XFER_DONE_EVT</desc>
			<path d="M0 731.74 L40.22 731.74" class="st2"/>
			<rect x="-773.974" y="15.0056" width="81.8251" height="9.7446" transform="rotate(-90)" class="st6"/>
			<text x="-773.97" y="22.38" transform="rotate(-90)" class="st5">XFER_DONE_EVT</text>		</g>
		<g id="shape279-70" transform="translate(1291.1,257.231) rotate(90)">
			<title>Flowline1.279</title>
			<desc>[RDY]/frame_send();</desc>
			<path d="M0 731.74 L34.72 731.74" class="st2"/>
			<rect x="-794.616" y="12.0056" width="87.1084" height="9.7446" transform="rotate(-90)" class="st6"/>
			<text x="-794.62" y="19.38" transform="rotate(-90)" class="st5">[RDY]/frame_send();</text>		</g>
		<g id="shape280-77" transform="translate(1291.1,327.231) rotate(90)">
			<title>Flowline1.280</title>
			<desc>XFER_DONE_EVT</desc>
			<path d="M0 731.74 L45.16 731.74" class="st2"/>
			<rect x="-776.584" y="26.3945" width="81.8251" height="9.7446" transform="rotate(-90)" class="st6"/>
			<text x="-776.58" y="33.76" transform="rotate(-90)" class="st5">XFER_DONE_EVT</text>		</g>
		<g id="shape281-84" transform="translate(1291.1,407.676) rotate(90)">
			<title>Flowline1.281</title>
			<desc>[TXCompleted] /Tx_buffer=NULL; CallBack_PacketSent();</desc>
			<path d="M0 731.74 L43.22 731.74" class="st2"/>
			<rect x="-769.772" y="11.2001" width="178.201" height="19.2445" transform="rotate(-90)" class="st6"/>
			<text x="-769.77" y="18.57" transform="rotate(-90)" class="st5">[TXCompleted] <tspan x="-769.77" dy="1em" class="st7">/</tspan>Tx_buffer=NULL; CallBack_PacketSent();</text>		</g>
		<g id="shape282-92" transform="translate(541.363,1125.92) rotate(180)">
			<title>Flowline1.282</title>
			<desc>[!TXCompleted]</desc>
			<path d="M0 731.74 L85.33 731.74" class="st2"/>
			<rect x="-73.9307" y="-736.734" width="65.9982" height="9.7446" transform="rotate(180)" class="st6"/>
			<text x="-73.93" y="-729.36" transform="rotate(180)" class="st5">[!TXCompleted]</text>		</g>
		<g id="group293-99" transform="translate(429.753,-351.064)">
			<title>Flowline2</title>
			<desc>[!RDY]/waitForRDY=true;</desc>
			<g id="shape294-100" transform="translate(111.61,-50.4426)">
				<title>Straight Edge.28</title>
				<desc>N</desc>
			</g>
			<g id="shape295-104" transform="translate(-722.738,749.744) rotate(-90)">
				<title>Straight Edge.29</title>
				<desc>N</desc>
			</g>
			<g id="shape293-107">
				<path d="M0 731.74 L0 690.3 A18 18 0 0 1 18 672.3 L102.55 672.3" class="st9"/>
				<rect x="-11.1864" y="667.19" width="106.373" height="9.7446" class="st6"/>
				<text x="-11.19" y="674.56" class="st5">[!RDY]/waitForRDY=true;</text>			</g>
		</g>
		<g id="group296-115" transform="translate(411.753,-337.564)">
			<title>Flowline2.296</title>
			<desc>[RDY]/frame_send();</desc>
			<g id="shape297-116" transform="translate(129.61,-79.1927)">
				<title>Straight Edge.28</title>
				<desc>N</desc>
			</g>
			<g id="shape298-119" transform="translate(28.3665,1449.3) rotate(180)">
				<title>Straight Edge.29</title>
				<desc>N</desc>
			</g>
			<g id="shape296-122">
				<path d="M0 731.74 L-4.55 731.74 A4.55118 4.55118 0 0 1 -9.1 727.19 L-9.1 661.8 A18 18 0 0 1 8.9 643.8 L120.55 643.8"
						class="st9"/>
				<rect x="12.9458" y="638.69" width="87.1084" height="9.7446" class="st6"/>
				<text x="12.95" y="646.06" class="st5">[RDY]/frame_send();</text>			</g>
		</g>
		<g id="group299-129" transform="translate(528.863,-488.009)">
			<title>Flowline2.299</title>
			<desc>[!RDY]/waitForRDY=true;</desc>
			<g id="shape300-130" transform="translate(12.5,-60.2483)">
				<title>Straight Edge.28</title>
				<desc>N</desc>
			</g>
			<g id="shape301-133" transform="translate(30.5036,1454.48) rotate(180)">
				<title>Straight Edge.29</title>
				<desc>N</desc>
			</g>
			<g id="shape299-136">
				<path d="M12.5 731.74 L-32.96 731.74 A18 18 0 0 1 -50.96 713.74 L-50.96 680.74 A18 18 0 0 1 -32.96 662.74 L3.44 662.74"
						class="st9"/>
				<rect x="-105.297" y="706.634" width="106.373" height="9.7446" class="st6"/>
				<text x="-105.3" y="714" class="st5">[!RDY]/waitForRDY=true;</text>			</g>
		</g>
		<g id="shape302-143" transform="translate(430.753,-556.824)">
			<title>Start/End-point.302</title>
			<desc>T1</desc>
			<path d="M9 731.74 L27 731.74 A9 13.5 -180 0 0 27 704.74 L9 704.74 A9 13.5 -180 1 0 9 731.74 Z" class="st4"/>
			<text x="12.46" y="720.61" class="st5">T1</text>		</g>
		<g id="shape303-146" transform="translate(467.389,-570.323) rotate(0.0497735)">
			<title>Flowline1.303</title>
			<path d="M0 731.74 L66.33 731.74" class="st2"/>
		</g>
		<g id="shape304-151" transform="translate(721.753,899.971) rotate(180)">
			<title>Flowline1.304</title>
			<path d="M0 731.74 L87.85 731.74" class="st2"/>
		</g>
		<g id="shape305-156" transform="translate(47.5129,202.991) rotate(-90)">
			<title>Flowline1.305</title>
			<path d="M0 731.74 L12.98 731.74" class="st2"/>
		</g>
		<g id="shape306-161" transform="translate(761.253,-501.749)">
			<title>Start/End-point.306</title>
			<desc>T2</desc>
			<path d="M9 731.74 L27 731.74 A9 13.5 -180 0 0 27 704.74 L9 704.74 A9 13.5 -180 0 0 9 731.74 Z" class="st4"/>
			<text x="12.46" y="720.61" class="st5">T2</text>		</g>
		<g id="group307-164" transform="translate(601.493,-631.398)">
			<title>Flowline2.307</title>
			<desc>[!RDY]</desc>
			<g id="shape308-165" transform="translate(845.493,786.129) rotate(90)">
				<title>Straight Edge.28</title>
				<desc>N</desc>
			</g>
			<g id="shape309-168" transform="translate(-128.013,64.0065)">
				<title>Straight Edge.29</title>
				<desc>N</desc>
			</g>
			<g id="shape307-171">
				<path d="M0 731.74 L159.76 731.74 A18 18 0 0 1 177.76 749.74 L177.76 777.07" class="st9"/>
				<rect x="102.087" y="726.746" width="27.9756" height="9.7446" class="st6"/>
				<text x="102.09" y="734.12" class="st5">[!RDY]</text>			</g>
		</g>
		<g id="group310-178" transform="translate(577.363,-259.064)">
			<title>Flowline2.310</title>
			<desc>[!REQ]</desc>
			<g id="shape311-179" transform="translate(42.1299,1014.67) rotate(180)">
				<title>Straight Edge.28</title>
				<desc>N</desc>
			</g>
			<g id="shape312-182" transform="translate(-17.5035,8.75174)">
				<title>Straight Edge.29</title>
				<desc>N</desc>
			</g>
			<g id="shape310-185">
				<path d="M0 731.74 L247.29 731.74 A18 18 -180 0 0 265.29 713.74 L265.29 309.68 A18 18 -180 0 0 247.29 291.68 L51.19
							 291.68" class="st9"/>
				<rect x="70.1374" y="727.69" width="28.5046" height="9.7446" class="st6"/>
				<text x="70.14" y="735.06" class="st5">[!REQ]</text>			</g>
		</g>
		<g id="group313-192" transform="translate(541.363,-259.064)">
			<title>Flowline2.313</title>
			<desc>[REQ]</desc>
			<g id="shape314-193" transform="translate(-892.598,291.684) rotate(-90)">
				<title>Straight Edge.28</title>
				<desc>N</desc>
			</g>
			<g id="shape315-196" transform="translate(17.5035,1454.73) rotate(180)">
				<title>Straight Edge.29</title>
				<desc>N</desc>
			</g>
			<g id="shape313-199">
				<path d="M0 731.74 L-151.61 731.74 A18 18 0 0 1 -169.61 713.74 L-169.61 300.74" class="st9"/>
				<rect x="-182.543" y="591.523" width="25.8651" height="9.7446" class="st6"/>
				<text x="-182.54" y="598.89" class="st5">[REQ]</text>			</g>
		</g>
		<g id="group316-206" transform="translate(547.493,-701.245)">
			<title>Flowline2.316</title>
			<desc>REQ_EVT</desc>
			<g id="shape317-207" transform="translate(326.998,754.615) rotate(90)">
				<title>Straight Edge.28</title>
				<desc>N</desc>
			</g>
			<g id="shape318-211" transform="translate(17.5035,1456.85) rotate(180)">
				<title>Straight Edge.29</title>
				<desc>N</desc>
			</g>
			<g id="shape316-214">
				<path d="M0 733.87 L-385.37 733.87 A10.375 10.375 -180 0 0 -395.74 744.24 L-395.74 748.57" class="st11"/>
				<rect x="-57.9128" y="728.871" width="44.3452" height="9.7446" class="st6"/>
				<text x="-57.91" y="736.24" class="st5">REQ_EVT</text>			</g>
		</g>
		<g id="shape320-222" transform="translate(883.493,80.37) rotate(90)">
			<title>Flowline1.320</title>
			<desc>[RDY]/header_send(0);</desc>
			<path d="M0 731.74 L32.47 731.74" class="st2"/>
			<rect x="-781.906" y="15.0056" width="97.6888" height="9.7446" transform="rotate(-90)" class="st6"/>
			<text x="-781.91" y="22.38" transform="rotate(-90)" class="st5">[RDY]/header_send(0);</text>		</g>
		<g id="shape321-229" transform="translate(109.623,-583.62)">
			<title>Process.321</title>
			<desc>TX_0_HEADER</desc>
			<rect x="0" y="704.74" width="84.2598" height="27" class="st4"/>
			<text x="8.34" y="720.61" class="st5">TX_0_HEADER</text>		</g>
		<g id="shape322-232" transform="translate(263.643,-583.62)">
			<title>Process.322</title>
			<desc>RXWAIT_FOR_RDY</desc>
			<rect x="0" y="704.74" width="92.5" height="27" class="st4"/>
			<text x="2.44" y="720.61" class="st5">RXWAIT_FOR_RDY</text>		</g>
		<g id="group323-235" transform="translate(169.753,-664.87)">
			<title>Flowline2.323</title>
			<desc>[!RDY]</desc>
			<g id="shape324-236" transform="translate(821.419,785.99) rotate(90)">
				<title>Straight Edge.28</title>
				<desc>N</desc>
			</g>
			<g id="shape325-239" transform="translate(-100.921,50.4605)">
				<title>Straight Edge.29</title>
				<desc>N</desc>
			</g>
			<g id="shape323-242">
				<path d="M0 731.74 L122.14 731.74 A18 18 0 0 1 140.14 749.74 L140.14 779.95" class="st11"/>
				<rect x="83.2071" y="726.746" width="27.9756" height="9.7446" class="st6"/>
				<text x="83.21" y="734.12" class="st5">[!RDY]</text>			</g>
		</g>
		<g id="shape326-249" transform="translate(263.643,866.36) rotate(180)">
			<title>Flowline1.326</title>
			<path d="M0 731.74 L61.48 731.74" class="st2"/>
		</g>
		<g id="shape328-254" transform="translate(911.58,148.12) rotate(90)">
			<title>Flowline1.328</title>
			<desc>RDY_EVT [waitForRDY]/ header_get(); waitForRDY=false;</desc>
			<path d="M0 731.74 L95.22 731.74" class="st2"/>
			<rect x="-756.592" y="29.8504" width="200.889" height="22.7994" transform="rotate(-90)" class="st6"/>
			<text x="-756.59" y="38.4" transform="rotate(-90)" class="st5">RDY_EVT <tspan x="-756.59" dy="1.2em" class="st7">[</tspan>waitForRDY]/ header_get(); waitForRDY=false;</text>		</g>
		<g id="shape329-262" transform="translate(859.363,215.87) rotate(90)">
			<title>Flowline1.329</title>
			<desc>[RDY]/header_get();</desc>
			<path d="M0 731.74 L27.47 731.74" class="st2"/>
			<rect x="-775.567" y="8.00559" width="85.0117" height="9.7446" transform="rotate(-90)" class="st6"/>
			<text x="-775.57" y="15.38" transform="rotate(-90)" class="st5">[RDY]/header_get();</text>		</g>
		<g id="shape330-269" transform="translate(859.363,148.12) rotate(90)">
			<title>Flowline1.330</title>
			<desc>XFER_DONE_EVT</desc>
			<path d="M0 731.74 L32.47 731.74" class="st2"/>
			<rect x="-775.157" y="6.25559" width="81.8251" height="9.7446" transform="rotate(-90)" class="st6"/>
			<text x="-775.16" y="13.63" transform="rotate(-90)" class="st5">XFER_DONE_EVT</text>		</g>
		<g id="group331-276" transform="translate(97.123,-529.37)">
			<title>Flowline2.331</title>
			<desc>[!RDY]/waitForRDY=true;</desc>
			<g id="shape332-277" transform="translate(12.5,-58.7482)">
				<title>Straight Edge.28</title>
				<desc>N</desc>
			</g>
			<g id="shape333-280" transform="translate(30.5036,1454.48) rotate(180)">
				<title>Straight Edge.29</title>
				<desc>N</desc>
			</g>
			<g id="shape331-283">
				<path d="M12.5 731.74 L-22.37 731.74 A18 18 0 0 1 -40.37 713.74 L-40.37 681.99 A18 18 0 0 1 -22.37 663.99 L6.46 663.99"
						class="st11"/>
				<rect x="-83.5564" y="702.996" width="106.373" height="9.7446" class="st6"/>
				<text x="-83.56" y="710.37" class="st5">[!RDY]/waitForRDY=true;</text>			</g>
		</g>
		<g id="shape334-290" transform="translate(109.623,-453.12)">
			<title>Process.334</title>
			<desc>RX_HEADER</desc>
			<rect x="0" y="704.74" width="84.2598" height="27" class="st4"/>
			<text x="13.09" y="720.61" class="st5">RX_HEADER</text>		</g>
		<g id="shape335-293" transform="translate(883.493,278.62) rotate(90)">
			<title>Flowline1.335</title>
			<desc>XFER_DONE_EVT /CallBack_MemReq(payloadLength)</desc>
			<path d="M0 731.74 L41.72 731.74" class="st2"/>
			<rect x="-809.364" y="9.55038" width="152.604" height="20.8996" transform="rotate(-90)" class="st6"/>
			<text x="-809.36" y="18.1" transform="rotate(-90)" class="st5">XFER_DONE_EVT <tspan x="-809.36" dy="1.05em" class="st7">/</tspan>CallBack_MemReq(payloadLength)</text>		</g>
		<g id="shape336-301" transform="translate(109.623,-376.12)">
			<title>Process.336</title>
			<desc>MEM_REQUEST</desc>
			<rect x="0" y="704.74" width="84.2598" height="27" class="st4"/>
			<text x="5.45" y="720.61" class="st5">MEM_REQUEST</text>		</g>
		<g id="shape345-304" transform="translate(911.58,355.62) rotate(90)">
			<title>Flowline1.345</title>
			<desc>RDY_EVT [waitForRDY]/waitForRDY=false;frame_get();</desc>
			<path d="M0 731.74 L110.72 731.74" class="st2"/>
			<rect x="-751.304" y="37.5504" width="190.313" height="20.8996" transform="rotate(-90)" class="st6"/>
			<text x="-751.3" y="46.1" transform="rotate(-90)" class="st5">RDY_EVT  <tspan x="-751.3" dy="1.05em" class="st7">[</tspan>waitForRDY]/waitForRDY=false;frame_get();</text>		</g>
		<g id="shape346-312" transform="translate(859.363,425.12) rotate(90)">
			<title>Flowline1.346</title>
			<desc>[RDY] / frame_get();</desc>
			<path d="M0 731.74 L41.22 731.74" class="st2"/>
			<rect x="-776.428" y="8.50559" width="84.9935" height="9.7446" transform="rotate(-90)" class="st6"/>
			<text x="-776.43" y="15.88" transform="rotate(-90)" class="st5">[RDY] / frame_get();</text>		</g>
		<g id="shape347-319" transform="translate(859.363,355.62) rotate(90)">
			<title>Flowline1.347</title>
			<desc>API_RX_CALL_EVT</desc>
			<path d="M0 731.74 L34.22 731.74" class="st2"/>
			<rect x="-770.231" y="8.00559" width="86.5981" height="9.7446" transform="rotate(-90)" class="st6"/>
			<text x="-770.23" y="15.38" transform="rotate(-90)" class="st5">API_RX_CALL_EVT</text>		</g>
		<g id="group348-326" transform="translate(97.123,-320.12)">
			<title>Flowline2.348</title>
			<desc>[!RDY]/waitForRDY=true</desc>
			<g id="shape349-327" transform="translate(12.5,-60.4982)">
				<title>Straight Edge.28</title>
				<desc>N</desc>
			</g>
			<g id="shape350-330" transform="translate(30.5036,1454.48) rotate(180)">
				<title>Straight Edge.29</title>
				<desc>N</desc>
			</g>
			<g id="shape348-333">
				<path d="M12.5 731.74 L-22.37 731.74 A18 18 0 0 1 -40.37 713.74 L-40.37 680.24 A18 18 0 0 1 -22.37 662.24 L6.46 662.24"
						class="st11"/>
				<rect x="-82.2367" y="703.746" width="103.733" height="9.7446" class="st6"/>
				<text x="-82.24" y="711.12" class="st5">[!RDY]/waitForRDY=true</text>			</g>
		</g>
		<g id="shape438-340" transform="translate(109.623,-230.12)">
			<title>Process.438</title>
			<desc>RX_PAYLOAD</desc>
			<rect x="0" y="704.74" width="84.2598" height="27" class="st4"/>
			<text x="10.45" y="720.61" class="st5">RX_PAYLOAD</text>		</g>
		<g id="shape452-343" transform="translate(534.013,-38.87)">
			<title>Start/End-point.452</title>
			<desc>T1</desc>
			<path d="M9 731.74 L27 731.74 A9 13.5 -180 0 0 27 704.74 L9 704.74 A9 13.5 -180 1 0 9 731.74 Z" class="st4"/>
			<text x="12.46" y="720.61" class="st5">T1</text>		</g>
		<g id="shape453-346" transform="translate(534.013,-0.37)">
			<title>Start/End-point.453</title>
			<desc>T2</desc>
			<path d="M9 731.74 L27 731.74 A9 13.5 -180 0 0 27 704.74 L9 704.74 A9 13.5 -180 1 0 9 731.74 Z" class="st4"/>
			<text x="12.46" y="720.61" class="st5">T2</text>		</g>
		<g id="shape454-349" transform="translate(45.7529,-92.12)">
			<title>Start/End-point.454</title>
			<desc>T0</desc>
			<path d="M9 731.74 L27 731.74 A9 13.5 -180 0 0 27 704.74 L9 704.74 A9 13.5 -180 1 0 9 731.74 Z" class="st4"/>
			<text x="12.46" y="720.61" class="st5">T0</text>		</g>
		<g id="shape455-352" transform="translate(883.493,501.62) rotate(90)">
			<title>Flowline1.455</title>
			<desc>XFER_DONE_EVT</desc>
			<path d="M0 731.74 L61.72 731.74" class="st2"/>
			<rect x="-773.974" y="47.0056" width="81.8251" height="9.7446" transform="rotate(-90)" class="st6"/>
			<text x="-773.97" y="54.38" transform="rotate(-90)" class="st5">XFER_DONE_EVT</text>		</g>
		<g id="group456-359" transform="translate(378.642,-146.62)">
			<title>Flowline2.456</title>
			<desc>[RDY]/frame_get();</desc>
			<g id="shape457-360" transform="translate(-184.759,1350.23) rotate(180)">
				<title>Straight Edge.28</title>
				<desc>N</desc>
			</g>
			<g id="shape458-363" transform="translate(-17.5035,8.75174)">
				<title>Straight Edge.29</title>
				<desc>N</desc>
			</g>
			<g id="shape456-366">
				<path d="M0 731.74 L56.11 731.74 A18 18 -180 0 0 74.11 713.74 L74.11 645.24 A18 18 -180 0 0 56.11 627.24 L-178.72
							 627.24" class="st11"/>
				<rect x="33.2538" y="700.246" width="79.7146" height="9.7446" class="st6"/>
				<text x="33.25" y="707.62" class="st5">[RDY]/frame_get();</text>			</g>
		</g>
		<g id="shape459-373" transform="translate(-371.098,571.62) rotate(-90)">
			<title>Flowline1.459</title>
			<desc>[!RDY]/waitForRDY=true;</desc>
			<path d="M0 731.74 L82.72 731.74" class="st2"/>
			<rect x="674.538" y="-60.9901" width="106.373" height="9.7446" transform="rotate(90)" class="st6"/>
			<text x="674.54" y="-53.62" transform="rotate(90)" class="st5">[!RDY]/waitForRDY=true;</text>		</g>
		<g id="shape460-380" transform="translate(169.753,-146.62)">
			<title>Flowline1.460</title>
			<desc>[!RXCompleted]</desc>
			<path d="M0 731.74 L164.61 731.74" class="st2"/>
			<rect x="9.15079" y="726.746" width="67.0556" height="9.7446" class="st6"/>
			<text x="9.15" y="734.12" class="st5">[!RXCompleted]</text>		</g>
		<g id="group462-387" transform="translate(231.253,-70.62)">
			<title>Flowline2.462</title>
			<desc>[Rx_buffer ] /CallBack_PacketReceived();</desc>
			<g id="shape463-388" transform="translate(701.488,775.24) rotate(90)">
				<title>Straight Edge.28</title>
				<desc>N</desc>
			</g>
			<g id="shape464-391" transform="translate(-21.5036,9.00182)">
				<title>Straight Edge.29</title>
				<desc>N</desc>
			</g>
			<g id="shape462-394">
				<path d="M-3.5 731.74 L46.34 731.74 A15.8994 15.8994 0 0 1 62.24 747.64 L62.24 747.64 A15.8994 15.8994 0 0 1 46.34
							 763.54 L-15.65 763.54 A5.85057 5.85057 -180 0 0 -21.5 769.39 L-21.5 775.24" class="st12"/>
				<rect x="0.66861" y="737.29" width="124.341" height="20.8996" class="st6"/>
				<text x="0.67" y="745.84" class="st5">[Rx_buffer ] <tspan x="1.99" dy="1.05em" class="st7">/</tspan>CallBack_PacketReceived();</text>			</g>
		</g>
		<g id="group573-403" transform="translate(188.253,-70.62)">
			<title>Flowline2.573</title>
			<desc>[!Rx_buffer ] /CallBack_PacketDropped();</desc>
			<g id="shape574-404" transform="translate(744.488,775.24) rotate(90)">
				<title>Straight Edge.28</title>
				<desc>N</desc>
			</g>
			<g id="shape575-407" transform="translate(21.5036,1454.48) rotate(180)">
				<title>Straight Edge.29</title>
				<desc>N</desc>
			</g>
			<g id="shape573-410">
				<path d="M3.5 731.74 L-44.96 731.74 A16.354 16.354 -180 0 0 -61.31 748.09 L-61.31 748.09 A16.354 16.354 -180 0 0
							 -44.96 764.45 L16.1 764.45 A5.39603 5.39603 0 0 1 21.5 769.84 L21.5 775.24" class="st12"/>
				<rect x="-100.75" y="735.79" width="121.178" height="20.8996" class="st6"/>
				<text x="-100.75" y="744.34" class="st5">[!Rx_buffer ] <tspan x="-99.43" dy="1.05em" class="st7">/</tspan>CallBack_PacketDropped();</text>			</g>
		</g>
		<g id="shape576-418" transform="translate(226.637,-13.6191) rotate(-0.0873411)">
			<title>Flowline1.576</title>
			<desc>[Tx_buffer]</desc>
			<path d="M0 731.74 L155.72 731.74" class="st2"/>
			<rect x="26.091" y="727.17" width="45.4076" height="9.7446" transform="rotate(0.0873411)" class="st6"/>
			<text x="26.09" y="734.54" transform="rotate(0.0873411)" class="st5">[Tx_buffer]</text>		</g>
		<g id="shape577-425" transform="translate(427.753,-13.87)">
			<title>Flowline1.577</title>
			<desc>[!RDY]</desc>
			<path d="M0 731.74 L97.98 731.74" class="st2"/>
			<rect x="18.9506" y="727.246" width="27.9756" height="9.7446" class="st6"/>
			<text x="18.95" y="734.62" class="st5">[!RDY]</text>		</g>
		<g id="group578-432" transform="translate(409.753,-27.37)">
			<title>Flowline2.578</title>
			<desc>[RDY]/header_send(tx_buf_len);</desc>
			<g id="shape579-433" transform="translate(124.26,-16.2483)">
				<title>Straight Edge.28</title>
				<desc>N</desc>
			</g>
			<g id="shape580-436" transform="translate(-722.738,749.744) rotate(-90)">
				<title>Straight Edge.29</title>
				<desc>N</desc>
			</g>
			<g id="shape578-439">
				<path d="M0 731.74 L0 719.24 A12.5 12.5 0 0 1 12.5 706.74 L118.22 706.74" class="st11"/>
				<rect x="-26.1224" y="700.996" width="136.245" height="9.7446" class="st6"/>
				<text x="-26.12" y="708.37" class="st5">[RDY]/header_send(tx_buf_len);</text>			</g>
		</g>
		<g id="shape582-446" transform="translate(541.363,-474.509)">
			<title>Decision.582</title>
			<path d="M0 718.24 L18 704.74 L36 718.24 L18 731.74 L0 718.24 Z" class="st4"/>
		</g>
		<g id="shape583-448" transform="translate(541.363,-324.064)">
			<title>Decision.583</title>
			<path d="M0 718.24 L18 704.74 L36 718.24 L18 731.74 L0 718.24 Z" class="st4"/>
		</g>
		<g id="shape584-450" transform="translate(541.363,-245.564)">
			<title>Decision.584</title>
			<path d="M0 718.24 L18 704.74 L36 718.24 L18 731.74 L0 718.24 Z" class="st4"/>
		</g>
		<g id="shape585-452" transform="translate(411.753,-324.064)">
			<title>Decision.585</title>
			<path d="M0 718.24 L18 704.74 L36 718.24 L18 731.74 L0 718.24 Z" class="st4"/>
		</g>
		<g id="shape587-454" transform="translate(133.753,-651.37)">
			<title>Decision.587</title>
			<path d="M0 718.24 L18 704.74 L36 718.24 L18 731.74 L0 718.24 Z" class="st4"/>
		</g>
		<g id="shape589-456" transform="translate(191.753,-57.12)">
			<title>Decision.589</title>
			<path d="M0 718.24 L18 704.74 L36 718.24 L18 731.74 L0 718.24 Z" class="st4"/>
		</g>
		<g id="shape590-458" transform="translate(133.753,-133.12)">
			<title>Decision.590</title>
			<path d="M0 718.24 L18 704.74 L36 718.24 L18 731.74 L0 718.24 Z" class="st4"/>
		</g>
		<g id="shape591-460" transform="translate(342.642,-133.12)">
			<title>Decision.591</title>
			<path d="M0 718.24 L18 704.74 L36 718.24 L18 731.74 L0 718.24 Z" class="st4"/>
		</g>
		<g id="shape592-462" transform="translate(391.753,-0.37)">
			<title>Decision.592</title>
			<path d="M0 718.24 L18 704.74 L36 718.24 L18 731.74 L0 718.24 Z" class="st4"/>
		</g>
		<g id="shape593-464" transform="translate(191.753,-0.12)">
			<title>Decision.593</title>
			<path d="M0 718.24 L18 704.74 L36 718.24 L18 731.74 L0 718.24 Z" class="st4"/>
		</g>
		<g id="shape594-466" transform="translate(45.7529,-0.12)">
			<title>Decision.594</title>
			<path d="M0 718.24 L18 704.74 L36 718.24 L18 731.74 L0 718.24 Z" class="st4"/>
		</g>
		<g id="shape612-468" transform="translate(651.753,-353.12)">
			<title>Sheet.612</title>
			<desc>RDY_EVT [ waitForRDY]/waitForRDY=false; frame_send();</desc>
			<rect x="0" y="696.24" width="155" height="35.5" class="st13"/>
			<text x="4" y="706.87" class="st5">RDY_EVT <tspan x="4" dy="1em" class="st7">[ </tspan>waitForRDY]/waitForRDY=false;<tspan
						x="4" dy="1em" class="st7">frame</tspan>_send();</text>		</g>
		<g id="shape618-473" transform="translate(631.753,-538.191)">
			<title>Sheet.618</title>
			<desc>RDY_EVT/ header_send(tx_buf_len);</desc>
			<rect x="0" y="711.74" width="122.5" height="20" class="st14"/>
			<text x="4" y="718.42" class="st5">RDY_EVT/ <tspan x="7.12" dy="1.15em" class="st7">header</tspan>_send(tx_buf_len);</text>		</g>
		<g id="shape620-477" transform="translate(693.605,-669.62)">
			<title>Start/End-point.620</title>
			<desc>T0</desc>
			<path d="M9 731.74 L27 731.74 A9 13.5 -180 0 0 27 704.74 L9 704.74 A9 13.5 -180 1 0 9 731.74 Z" class="st4"/>
			<text x="12.46" y="720.61" class="st5">T0</text>		</g>
		<g id="shape621-480" transform="translate(693.605,780.36) rotate(180)">
			<title>Flowline1.621</title>
			<path d="M0 731.74 L65.83 731.74" class="st2"/>
		</g>
		<g id="shape641-485" transform="translate(193.883,-181.481)">
			<title>Sheet.641</title>
			<desc>RDY_EVT [waitForRDY]/waitForRDY=false;frame_get();</desc>
			<rect x="0" y="704.74" width="143.195" height="27" class="st13"/>
			<text x="4" y="715.39" class="st5">RDY_EVT [waitForRDY]/<tspan x="4" dy="1.2em" class="st7">waitForRDY</tspan>=false;frame_get();</text>		</g>
		<g id="shape650-489" transform="translate(191.753,1449.86) rotate(180)">
			<title>Flowline1.650</title>
			<desc>[!Tx_buffer]</desc>
			<path d="M0 731.74 L101.72 731.74" class="st2"/>
			<rect x="-76.4749" y="-737.44" width="48.0471" height="11.3997" transform="rotate(180)" class="st6"/>
			<text x="-76.47" y="-728.89" transform="rotate(180)" class="st5">[!Tx_buffer]</text>		</g>
		<g id="shape655-496" transform="translate(-667.987,704.62) rotate(-90)">
			<title>Flowline1.655</title>
			<desc>[!REQ]</desc>
			<path d="M0 731.74 L56.72 731.74" class="st2"/>
			<rect x="716.166" y="-25.6997" width="28.5046" height="11.3997" transform="rotate(90)" class="st6"/>
			<text x="716.17" y="-17.15" transform="rotate(90)" class="st5">[!REQ]</text>		</g>
		<g id="group657-503" transform="translate(45.7529,-13.62)">
			<title>Flowline2.657</title>
			<desc>[REQ]</desc>
			<g id="shape658-504" transform="translate(88,-642.498)">
				<title>Straight Edge.28</title>
				<desc>N</desc>
			</g>
			<g id="shape659-507" transform="translate(17.5035,1454.73) rotate(180)">
				<title>Straight Edge.29</title>
				<desc>N</desc>
			</g>
			<g id="shape657-510">
				<path d="M0 731.74 L-21 731.74 A18 18 0 0 1 -39 713.74 L-39 98.49 A18 18 0 0 1 -21 80.49 L81.96 80.49" class="st11"/>
				<rect x="-35.3676" y="726.54" width="25.8651" height="11.3997" class="st6"/>
				<text x="-35.37" y="735.09" class="st5">[REQ]</text>			</g>
		</g>
		<g id="shape661-517" transform="translate(183.263,-570.12)">
			<title>Sheet.661</title>
			<desc>RDY_EVT/ header_send(0);</desc>
			<rect x="0" y="704.74" width="91" height="27" class="st14"/>
			<text x="22.27" y="715.24" class="st5">RDY_EVT/ <tspan x="10.64" dy="1.223em" class="st7">header</tspan>_send(0);</text>		</g>
		<g id="shape664-521" transform="translate(109.623,-306.62)">
			<title>Decision.588</title>
			<path d="M0 718.24 L18 704.74 L36 718.24 L18 731.74 L0 718.24 Z" class="st4"/>
		</g>
		<g id="shape665-523" transform="translate(109.623,-515.87)">
			<title>Decision.586</title>
			<path d="M0 718.24 L18 704.74 L36 718.24 L18 731.74 L0 718.24 Z" class="st4"/>
		</g>
		<g id="group666-525" transform="translate(151.753,-133.12)">
			<title>Flowline2.666</title>
			<desc>RXCompleted</desc>
			<g id="shape667-526" transform="translate(780.738,780.74) rotate(90)">
				<title>Straight Edge.28</title>
				<desc>N</desc>
			</g>
			<g id="shape668-529" transform="translate(722.738,713.736) rotate(90)">
				<title>Straight Edge.29</title>
				<desc>N</desc>
			</g>
			<g id="shape666-532">
				<path d="M0 731.74 L0 748.21 A16.4727 16.4727 -180 0 0 16.47 764.69 L49.97 764.69 A8.02734 8.02734 0 0 1 58 772.71
							 L58 774.7" class="st11"/>
				<rect x="-24.5685" y="739.54" width="59.1372" height="14.4001" class="st6"/>
				<text x="-24.57" y="750.34" class="st5">RXCompleted</text>			</g>
		</g>
	</g>
</svg>
