<?xml version="1.0" encoding="UTF-8" standalone="no"?>
<!DOCTYPE svg PUBLIC "-//W3C//DTD SVG 1.1//EN" "http://www.w3.org/Graphics/SVG/1.1/DTD/svg11.dtd">
<!-- Generated by Microsoft Visio, SVG Export app_fifo_initialized.svg Page-1 -->
<svg xmlns="http://www.w3.org/2000/svg" xmlns:xlink="http://www.w3.org/1999/xlink" xmlns:ev="http://www.w3.org/2001/xml-events"
		width="6.74184in" height="4.00943in" viewBox="0 0 485.412 288.679" xml:space="preserve" color-interpolation-filters="sRGB"
		class="st9">
	<style type="text/css">
	<![CDATA[
		.st1 {fill:#009cde;fill-opacity:0.85;stroke:#000000;stroke-linecap:round;stroke-linejoin:round;stroke-width:0.72}
		.st2 {fill:#c4dbf2;fill-opacity:0.85;stroke:#000000;stroke-linecap:round;stroke-linejoin:round;stroke-width:0.72}
		.st3 {marker-end:url(#mrkr13-26);stroke:#0081b7;stroke-linecap:round;stroke-linejoin:round;stroke-width:2}
		.st4 {fill:#0081b7;fill-opacity:1;stroke:#0081b7;stroke-opacity:1;stroke-width:0.44247787610619}
		.st5 {marker-end:url(#mrkr13-32);stroke:#ff6600;stroke-linecap:round;stroke-linejoin:round;stroke-width:2}
		.st6 {fill:#ff6600;fill-opacity:1;stroke:#ff6600;stroke-opacity:1;stroke-width:0.44247787610619}
		.st7 {fill:none;stroke:none;stroke-linecap:round;stroke-linejoin:round;stroke-width:0.75}
		.st8 {fill:#000000;font-family:Arial;font-size:1.00001em}
		.st9 {fill:none;fill-rule:evenodd;font-size:12px;overflow:visible;stroke-linecap:square;stroke-miterlimit:3}
	]]>
	</style>

	<defs id="Markers">
		<g id="lend13">
			<path d="M 3 1 L 0 0 L 3 -1 L 3 1 " style="stroke:none"/>
		</g>
		<marker id="mrkr13-26" class="st4" refX="-6.78" orient="auto" markerUnits="strokeWidth" overflow="visible">
			<use xlink:href="#lend13" transform="scale(-2.26,-2.26) "/>
		</marker>
		<marker id="mrkr13-32" class="st6" refX="-6.78" orient="auto" markerUnits="strokeWidth" overflow="visible">
			<use xlink:href="#lend13" transform="scale(-2.26,-2.26) "/>
		</marker>
	</defs>
	<g>
		<title>Page-1</title>
		<g id="shape265-1" transform="translate(30.2935,-9.2935)">
			<title>s.3</title>
			<rect x="0" y="228.679" width="60" height="60" class="st1"/>
		</g>
		<g id="shape267-3" transform="translate(30.2935,-79.2935)">
			<title>s.6</title>
			<rect x="0" y="228.679" width="60" height="60" class="st2"/>
		</g>
		<g id="shape269-5" transform="translate(5.03729,-174.293)">
			<title>s.269</title>
			<rect x="0" y="228.679" width="60" height="60" class="st2"/>
		</g>
		<g id="shape270-7" transform="translate(65.0373,-174.293)">
			<title>s.270</title>
			<rect x="0" y="228.679" width="60" height="60" class="st2"/>
		</g>
		<g id="shape271-9" transform="translate(125.037,-174.293)">
			<title>s.271</title>
			<rect x="0" y="228.679" width="60" height="60" class="st2"/>
		</g>
		<g id="shape272-11" transform="translate(185.037,-174.293)">
			<title>s.272</title>
			<rect x="0" y="228.679" width="60" height="60" class="st2"/>
		</g>
		<g id="shape273-13" transform="translate(245.037,-174.293)">
			<title>s.273</title>
			<rect x="0" y="228.679" width="60" height="60" class="st2"/>
		</g>
		<g id="shape274-15" transform="translate(305.037,-174.293)">
			<title>s.274</title>
			<rect x="0" y="228.679" width="60" height="60" class="st2"/>
		</g>
		<g id="shape275-17" transform="translate(365.037,-174.293)">
			<title>s.275</title>
			<rect x="0" y="228.679" width="60" height="60" class="st2"/>
		</g>
		<g id="shape276-19" transform="translate(425.037,-174.293)">
			<title>s.276</title>
			<rect x="0" y="228.679" width="60" height="60" class="st2"/>
		</g>
		<g id="shape277-21" transform="translate(481.472,234.385) rotate(90)">
			<title>Sheet.277</title>
			<path d="M0 288.68 L26.44 288.68" class="st3"/>
		</g>
		<g id="shape278-27" transform="translate(481.472,166.59) rotate(90)">
			<title>Sheet.278</title>
			<path d="M0 288.68 L26.44 288.68" class="st5"/>
		</g>
		<g id="shape281-33" transform="translate(302.972,14.3853) rotate(90)">
			<title>Sheet.281</title>
			<path d="M0 288.68 L26.44 288.68" class="st3"/>
		</g>
		<g id="shape282-38" transform="translate(319.972,14.3853) rotate(90)">
			<title>Sheet.282</title>
			<path d="M0 288.68 L26.44 288.68" class="st5"/>
		</g>
		<g id="shape283-43" transform="translate(90.2935,-26.7935)">
			<title>Sheet.283</title>
			<desc>Used byte</desc>
			<rect x="0" y="263.679" width="70" height="25" class="st7"/>
			<text x="4" y="278.76" class="st8">Used byte</text>		</g>
		<g id="shape285-46" transform="translate(90.2935,-99.2935)">
			<title>Sheet.285</title>
			<desc>Free byte</desc>
			<rect x="0" y="268.679" width="60" height="20" class="st7"/>
			<text x="4" y="283.76" class="st8">Free byte</text>		</g>
		<g id="shape317-49" transform="translate(197.793,-95.0889)">
			<title>Sheet.317</title>
			<desc>Read pointer</desc>
			<rect x="0" y="268.679" width="90" height="20" class="st7"/>
			<text x="4" y="283.76" class="st8">Read pointer</text>		</g>
		<g id="shape318-52" transform="translate(197.793,-24.2935)">
			<title>Sheet.318</title>
			<desc>Write pointer</desc>
			<rect x="0" y="263.679" width="90" height="25" class="st7"/>
			<text x="4" y="279.87" class="st8">Write pointer</text>		</g>
		<g id="shape319-55" transform="translate(5.03729,-154.293)">
			<title>Sheet.319</title>
			<desc>byte 0</desc>
			<rect x="0" y="268.679" width="60" height="20" class="st7"/>
			<text x="13.65" y="282.37" class="st8">byte 0</text>		</g>
		<g id="shape320-58" transform="translate(425.037,-154.293)">
			<title>Sheet.320</title>
			<desc>byte 7</desc>
			<rect x="0" y="268.679" width="60" height="20" class="st7"/>
			<text x="13.65" y="282.37" class="st8">byte 7</text>		</g>
		<g id="shape321-61" transform="translate(24.2935,-274.293)">
			<title>Sheet.321</title>
			<desc>0</desc>
			<rect x="0" y="274.679" width="10" height="14" class="st7"/>
			<text x="4" y="285.37" class="st8">0</text>		</g>
		<g id="shape355-64" transform="translate(7.2935,-274.293)">
			<title>Sheet.355</title>
			<desc>0</desc>
			<rect x="0" y="274.679" width="10" height="14" class="st7"/>
			<text x="4" y="285.37" class="st8">0</text>		</g>
	</g>
</svg>
