<?xml version="1.0" encoding="UTF-8" standalone="no"?>
<!DOCTYPE svg PUBLIC "-//W3C//DTD SVG 1.1//EN" "http://www.w3.org/Graphics/SVG/1.1/DTD/svg11.dtd">
<!-- Generated by Microsoft Visio, SVG Export architecture_overview_serialization.svg Page-1 -->
<svg xmlns="http://www.w3.org/2000/svg" xmlns:xlink="http://www.w3.org/1999/xlink" xmlns:ev="http://www.w3.org/2001/xml-events"
		width="8.10699in" height="8.58639in" viewBox="0 0 583.703 618.22" xml:space="preserve" color-interpolation-filters="sRGB"
		class="st10">
	<style type="text/css">
	<![CDATA[
		.st1 {stroke:#000000;stroke-linecap:round;stroke-linejoin:round;stroke-width:0.72}
		.st2 {fill:#c4dbf2;stroke:#000000;stroke-linecap:round;stroke-linejoin:round;stroke-width:0.72}
		.st3 {fill:#000000;font-family:Arial;font-size:1.00001em}
		.st4 {fill:#c4dbf2;stroke:#000000;stroke-linecap:round;stroke-linejoin:round;stroke-width:0.24}
		.st5 {marker-end:url(#mrkr13-16);stroke:#000000;stroke-linecap:round;stroke-linejoin:round;stroke-width:0.24}
		.st6 {fill:#000000;fill-opacity:1;stroke:#000000;stroke-opacity:1;stroke-width:0.08695652173913}
		.st7 {fill:#ffffff;stroke:none;stroke-linecap:butt;stroke-width:7.2}
		.st8 {font-size:1em}
		.st9 {marker-start:url(#mrkr4-209);stroke:#000000;stroke-dasharray:1.68,1.2;stroke-linecap:round;stroke-linejoin:round;stroke-width:0.24}
		.st10 {fill:none;fill-rule:evenodd;font-size:12px;overflow:visible;stroke-linecap:square;stroke-miterlimit:3}
	]]>
	</style>

	<defs id="Markers">
		<g id="lend13">
			<path d="M 3 1 L 0 0 L 3 -1 L 3 1 " style="stroke:none"/>
		</g>
		<marker id="mrkr13-16" class="st6" refX="-34.5" orient="auto" markerUnits="strokeWidth" overflow="visible">
			<use xlink:href="#lend13" transform="scale(-11.5,-11.5) "/>
		</marker>
		<g id="lend4">
			<path d="M 2 1 L 0 0 L 2 -1 L 2 1 " style="stroke:none"/>
		</g>
		<marker id="mrkr4-209" class="st6" refX="21.5" orient="auto" markerUnits="strokeWidth" overflow="visible">
			<use xlink:href="#lend4" transform="scale(11.5) "/>
		</marker>
	</defs>
	<g>
		<title>Page-1</title>
		<g id="group267-1" transform="translate(0.464187,-2.86)">
			<title>Sheet.267</title>
			<g id="shape268-2">
				<title>Sheet.268</title>
				<path d="M0 25.62 L0 595.82 A22.4037 22.4037 -180 0 0 22.4 618.22 L114.48 618.22 A22.4037 22.4037 -180 0 0 136.88
							 595.82 L136.88 25.62 L0 25.62" class="st1"/>
			</g>
			<g id="shape269-5" transform="translate(0,-592.596)">
				<title>Sheet.269</title>
				<desc>Application chip</desc>
				<path d="M136.88 618.22 L0 618.22 A22.4037 22.4037 0 0 1 22.4 595.82 L114.48 595.82 A22.4037 22.4037 0 0 1 136.88
							 618.22 Z" class="st2"/>
				<text x="26.41" y="610.62" class="st3">Application chip</text>			</g>
		</g>
		<g id="shape270-8" transform="translate(14.9317,-514.966)">
			<title>Sheet.270</title>
			<desc>Application</desc>
			<rect x="0" y="555.326" width="104.823" height="62.8935" class="st4"/>
			<text x="23.06" y="590.37" class="st3">Application</text>		</g>
		<g id="shape271-11" transform="translate(-590.877,163.254) rotate(-90)">
			<title>Sheet.271</title>
			<desc>SD resp</desc>
			<path d="M0 618.22 L51.72 618.22" class="st5"/>
			<rect x="594.877" y="-24.3063" width="43.3482" height="14.4001" transform="rotate(90)" class="st7"/>
			<text x="594.88" y="-13.51" transform="rotate(90)" class="st3">SD resp</text>		</g>
		<g id="shape272-19" transform="translate(-510.877,163.254) rotate(-90)">
			<title>Sheet.272</title>
			<desc>SD event</desc>
			<path d="M0 618.22 L51.72 618.22" class="st5"/>
			<rect x="591.871" y="-24.3063" width="49.3602" height="14.4001" transform="rotate(90)" class="st7"/>
			<text x="591.87" y="-13.51" transform="rotate(90)" class="st3">SD event</text>		</g>
		<g id="shape273-26" transform="translate(685.563,103.254) rotate(90)">
			<title>Sheet.273</title>
			<desc>SD call</desc>
			<path d="M0 618.22 L51.72 618.22" class="st5"/>
			<rect x="-638.894" y="15.6937" width="38.0105" height="14.4001" transform="rotate(-90)" class="st7"/>
			<text x="-638.89" y="26.49" transform="rotate(-90)" class="st3">SD call</text>		</g>
		<g id="shape274-33" transform="translate(14.9317,-428.884)">
			<title>Sheet.274</title>
			<desc>SoftDevice API</desc>
			<rect x="0" y="592.137" width="104.823" height="26.0829" class="st4"/>
			<text x="12.06" y="608.78" class="st3">SoftDevice API</text>		</g>
		<g id="shape275-36" transform="translate(14.9317,-365.547)">
			<title>Sheet.275</title>
			<desc>Codec</desc>
			<rect x="0" y="555.326" width="104.823" height="62.8935" class="st4"/>
			<text x="35.07" y="590.37" class="st3">Codec</text>		</g>
		<g id="shape276-39" transform="translate(715.563,252.673) rotate(90)">
			<title>Sheet.276</title>
			<desc>Packet</desc>
			<path d="M0 618.22 L51.72 618.22" class="st5"/>
			<rect x="-638.232" y="20.4873" width="36.6864" height="14.4001" transform="rotate(-90)" class="st7"/>
			<text x="-638.23" y="31.29" transform="rotate(-90)" class="st3">Packet</text>		</g>
		<g id="shape277-46" transform="translate(-580.877,312.673) rotate(-90)">
			<title>Sheet.277</title>
			<desc>Packet</desc>
			<path d="M0 618.22 L51.72 618.22" class="st5"/>
			<rect x="598.208" y="-39.5127" width="36.6864" height="14.4001" transform="rotate(90)" class="st7"/>
			<text x="598.21" y="-28.71" transform="rotate(90)" class="st3">Packet</text>		</g>
		<g id="shape278-53" transform="translate(14.9317,-242.654)">
			<title>Sheet.278</title>
			<desc>Transport layer</desc>
			<rect x="0" y="555.326" width="104.823" height="62.8935" class="st4"/>
			<text x="12.06" y="590.37" class="st3">Transport layer</text>		</g>
		<g id="shape279-56" transform="translate(14.9317,-141.876)">
			<title>Sheet.279</title>
			<desc>Serialization PHY</desc>
			<rect x="0" y="555.326" width="104.823" height="62.8935" class="st4"/>
			<text x="19.73" y="583.17" class="st3">Serialization <tspan x="40.07" dy="1.2em" class="st8">PHY</tspan></text>		</g>
		<g id="shape280-60" transform="translate(14.9317,-24.9665)">
			<title>Sheet.280</title>
			<desc>Hardware PHY driver</desc>
			<rect x="0" y="555.326" width="104.823" height="62.8935" class="st4"/>
			<text x="26.4" y="575.97" class="st3">Hardware<tspan x="40.07" dy="1.2em" class="st8">PHY </tspan><tspan x="37.41"
						dy="1.2em" class="st8">driver</tspan></text>		</g>
		<g id="shape281-65" transform="translate(715.563,375.566) rotate(90)">
			<title>Sheet.281</title>
			<desc>Packet</desc>
			<path d="M0 618.22 L29.6 618.22" class="st5"/>
			<rect x="-638.232" y="11.5938" width="36.6864" height="14.4001" transform="rotate(-90)" class="st7"/>
			<text x="-638.23" y="22.39" transform="rotate(-90)" class="st3">Packet</text>		</g>
		<g id="shape282-72" transform="translate(-580.877,413.451) rotate(-90)">
			<title>Sheet.282</title>
			<desc>Packet</desc>
			<path d="M0 618.22 L29.6 618.22" class="st5"/>
			<rect x="598.208" y="-26.2906" width="36.6864" height="14.4001" transform="rotate(90)" class="st7"/>
			<text x="598.21" y="-15.49" transform="rotate(90)" class="st3">Packet</text>		</g>
		<g id="shape283-79" transform="translate(715.563,476.344) rotate(90)">
			<title>Sheet.283</title>
			<desc>TX</desc>
			<path d="M0 618.22 L45.74 618.22" class="st5"/>
			<rect x="-622.556" y="17.8002" width="15.3342" height="14.4001" transform="rotate(-90)" class="st7"/>
			<text x="-622.56" y="28.6" transform="rotate(-90)" class="st3">TX</text>		</g>
		<g id="shape284-86" transform="translate(-580.877,530.36) rotate(-90)">
			<title>Sheet.284</title>
			<desc>RX</desc>
			<path d="M0 618.22 L45.74 618.22" class="st5"/>
			<rect x="608.216" y="-37.1998" width="16.6701" height="14.4001" transform="rotate(90)" class="st7"/>
			<text x="608.22" y="-26.4" transform="rotate(90)" class="st3">RX</text>		</g>
		<g id="shape285-93" transform="translate(118.819,-37.8593) rotate(-0.0866675)">
			<title>Sheet.285</title>
			<desc>TX</desc>
			<path d="M0 618.22 L96.9 618.22" class="st5"/>
			<rect x="44.1881" y="611.019" width="15.3342" height="14.4001" transform="rotate(0.0866675)" class="st7"/>
			<text x="44.19" y="621.82" transform="rotate(0.0866675)" class="st3">TX</text>		</g>
		<g id="shape286-100" transform="translate(219.859,1163.42) rotate(-179.53)">
			<title>Sheet.286</title>
			<desc>RX</desc>
			<path d="M0 618.22 L96.9 618.22" class="st5"/>
			<rect x="-57.5197" y="-625.262" width="16.6701" height="14.4001" transform="rotate(179.53)" class="st7"/>
			<text x="-57.52" y="-614.46" transform="rotate(179.53)" class="st3">RX</text>		</g>
		<g id="group288-107" transform="translate(197.343,-0.36)">
			<title>Sheet.288</title>
			<g id="shape289-108">
				<title>Sheet.289</title>
				<path d="M0 25.62 L0 595.82 A22.4037 22.4037 -180 0 0 22.4 618.22 L363.6 618.22 A22.4037 22.4037 -180 0 0 386 595.82
							 L386 25.62 L0 25.62" class="st1"/>
			</g>
			<g id="shape290-111" transform="translate(0,-592.596)">
				<title>Sheet.290</title>
				<desc>Connectivity chip</desc>
				<path d="M386 618.22 L0 618.22 A22.4037 22.4037 0 0 1 22.4 595.82 L363.6 595.82 A22.4037 22.4037 0 0 1 386 618.22
							 Z" class="st2"/>
				<text x="147.64" y="610.62" class="st3">Connectivity chip</text>			</g>
		</g>
		<g id="shape291-114" transform="translate(224.932,-511.572)">
			<title>Sheet.291</title>
			<desc>Connectivity firmware (while loop)</desc>
			<rect x="0" y="555.326" width="104.823" height="62.8935" class="st4"/>
			<text x="19.73" y="575.97" class="st3">Connectivity <tspan x="29.41" dy="1.2em" class="st8">firmware </tspan><tspan
						x="21.73" dy="1.2em" class="st8">(</tspan>while loop)</text>		</g>
		<g id="shape293-119" transform="translate(895.563,106.648) rotate(90)">
			<title>Sheet.293</title>
			<desc>SD event</desc>
			<path d="M0 618.22 L51.72 618.22" class="st5"/>
			<rect x="-644.569" y="21.3534" width="49.3602" height="14.4001" transform="rotate(-90)" class="st7"/>
			<text x="-644.57" y="32.15" transform="rotate(-90)" class="st3">SD event</text>		</g>
		<g id="shape296-126" transform="translate(224.932,-388.679)">
			<title>Sheet.296</title>
			<desc>Codec</desc>
			<rect x="0" y="555.326" width="104.823" height="62.8935" class="st4"/>
			<text x="35.07" y="590.37" class="st3">Codec</text>		</g>
		<g id="shape297-129" transform="translate(925.563,229.541) rotate(90)">
			<title>Sheet.297</title>
			<desc>Packet</desc>
			<path d="M0 618.22 L62.11 618.22" class="st5"/>
			<rect x="-638.232" y="33.4599" width="36.6864" height="14.4001" transform="rotate(-90)" class="st7"/>
			<text x="-638.23" y="44.26" transform="rotate(-90)" class="st3">Packet</text>		</g>
		<g id="shape298-136" transform="translate(-370.877,299.936) rotate(-90)">
			<title>Sheet.298</title>
			<desc>Packet</desc>
			<path d="M0 618.22 L62.11 618.22" class="st5"/>
			<rect x="598.208" y="-36.9346" width="36.6864" height="14.4001" transform="rotate(90)" class="st7"/>
			<text x="598.21" y="-26.13" transform="rotate(90)" class="st3">Packet</text>		</g>
		<g id="shape299-143" transform="translate(224.932,-255.391)">
			<title>Sheet.299</title>
			<desc>Transport layer</desc>
			<rect x="0" y="555.326" width="104.823" height="62.8935" class="st4"/>
			<text x="12.06" y="590.37" class="st3">Transport layer</text>		</g>
		<g id="shape300-146" transform="translate(224.932,-138.482)">
			<title>Sheet.300</title>
			<desc>Serialization PHY</desc>
			<rect x="0" y="555.326" width="104.823" height="62.8935" class="st4"/>
			<text x="19.73" y="583.17" class="st3">Serialization <tspan x="40.07" dy="1.2em" class="st8">PHY</tspan></text>		</g>
		<g id="shape301-150" transform="translate(224.932,-21.5723)">
			<title>Sheet.301</title>
			<desc>Hardware PHY driver</desc>
			<rect x="0" y="555.326" width="104.823" height="62.8935" class="st4"/>
			<text x="26.4" y="575.97" class="st3">Hardware<tspan x="40.07" dy="1.2em" class="st8">PHY </tspan><tspan x="37.41"
						dy="1.2em" class="st8">driver</tspan></text>		</g>
		<g id="shape302-155" transform="translate(925.563,362.829) rotate(90)">
			<title>Sheet.302</title>
			<desc>Packet</desc>
			<path d="M0 618.22 L45.74 618.22" class="st5"/>
			<rect x="-638.232" y="20.1719" width="36.6864" height="14.4001" transform="rotate(-90)" class="st7"/>
			<text x="-638.23" y="30.97" transform="rotate(-90)" class="st3">Packet</text>		</g>
		<g id="shape303-162" transform="translate(-370.877,416.845) rotate(-90)">
			<title>Sheet.303</title>
			<desc>Packet</desc>
			<path d="M0 618.22 L45.74 618.22" class="st5"/>
			<rect x="598.208" y="-33.8438" width="36.6864" height="14.4001" transform="rotate(90)" class="st7"/>
			<text x="598.21" y="-23.04" transform="rotate(90)" class="st3">Packet</text>		</g>
		<g id="shape304-169" transform="translate(-370.877,533.754) rotate(-90)">
			<title>Sheet.304</title>
			<desc>TX</desc>
			<path d="M0 618.22 L45.74 618.22" class="st5"/>
			<rect x="608.884" y="-32.6623" width="15.3342" height="14.4001" transform="rotate(90)" class="st7"/>
			<text x="608.88" y="-21.86" transform="rotate(90)" class="st3">TX</text>		</g>
		<g id="shape305-176" transform="translate(925.563,479.738) rotate(90)">
			<title>Sheet.305</title>
			<desc>RX</desc>
			<path d="M0 618.22 L45.74 618.22" class="st5"/>
			<rect x="-628.224" y="21.3534" width="16.6701" height="14.4001" transform="rotate(-90)" class="st7"/>
			<text x="-628.22" y="32.15" transform="rotate(-90)" class="st3">RX</text>		</g>
		<g id="shape306-183" transform="translate(402.52,-377.86)">
			<title>Sheet.306</title>
			<desc>SoftDevice API</desc>
			<rect x="0" y="533.22" width="64.8225" height="85" class="st4"/>
			<text x="-604.73" y="28.81" transform="rotate(-90)" class="st3">SoftDevice <tspan x="-585.39" dy="1.2em" class="st8">API</tspan></text>		</g>
		<g id="shape307-187" transform="translate(467.343,-377.86)">
			<title>Sheet.307</title>
			<desc>SD</desc>
			<rect x="0" y="533.22" width="104.823" height="85" class="st4"/>
			<text x="44.08" y="579.32" class="st3">SD</text>		</g>
		<g id="shape308-190" transform="translate(329.754,-437.86)">
			<title>Sheet.308</title>
			<desc>SD call</desc>
			<path d="M0 618.22 L64.49 618.22" class="st5"/>
			<rect x="16.9148" y="611.02" width="38.0105" height="14.4001" class="st7"/>
			<text x="16.91" y="621.82" class="st3">SD call</text>		</g>
		<g id="shape309-197" transform="translate(402.52,833.58) rotate(180)">
			<title>Sheet.309</title>
			<desc>SD resp</desc>
			<path d="M0 618.22 L64.49 618.22" class="st5"/>
			<rect x="-58.5203" y="-625.42" width="43.3482" height="14.4001" transform="rotate(180)" class="st7"/>
			<text x="-58.52" y="-614.62" transform="rotate(180)" class="st3">SD resp</text>		</g>
		<g id="shape310-204" transform="translate(329.754,-543.019)">
			<title>Sheet.310</title>
			<desc>SD event</desc>
			<path d="M5.16 618.22 L5.52 618.22 L190 618.22 L190 698.38" class="st9"/>
			<rect x="95.947" y="611.018" width="49.3602" height="14.4001" class="st7"/>
			<text x="95.95" y="621.82" class="st3">SD event</text>		</g>
	</g>
</svg>
