<?xml version="1.0" encoding="UTF-8" standalone="no"?>
<!DOCTYPE svg PUBLIC "-//W3C//DTD SVG 1.1//EN" "http://www.w3.org/Graphics/SVG/1.1/DTD/svg11.dtd">
<!-- Generated by Microsoft Visio, SVG Export battery_timer_with_scheduler.svg Page-1 -->
<svg xmlns="http://www.w3.org/2000/svg" xmlns:xlink="http://www.w3.org/1999/xlink" xmlns:ev="http://www.w3.org/2001/xml-events"
		width="7.25333in" height="5.12833in" viewBox="0 0 522.24 369.24" xml:space="preserve" color-interpolation-filters="sRGB"
		class="st14">
	<style type="text/css">
	<![CDATA[
		.st1 {fill:#ffffff}
		.st2 {stroke:#000000;stroke-linecap:round;stroke-linejoin:round;stroke-width:0.24}
		.st3 {fill:#ffffff;stroke:none;stroke-linecap:butt;stroke-width:7.2}
		.st4 {fill:#000000;font-family:Arial;font-size:0.666664em}
		.st5 {stroke:#000000;stroke-dasharray:3.6,2.16;stroke-linecap:round;stroke-linejoin:round;stroke-width:0.24}
		.st6 {marker-end:url(#mrkr12-129);marker-start:url(#mrkr41-127);stroke:#000000;stroke-linecap:round;stroke-linejoin:round;stroke-width:0.24}
		.st7 {fill:#000000;fill-opacity:1;stroke:#000000;stroke-opacity:1;stroke-width:0.08695652173913}
		.st8 {marker-end:url(#mrkr13-137);stroke:#000000;stroke-linecap:round;stroke-linejoin:round;stroke-width:0.24}
		.st9 {fill:#e6e6e6;stroke:#000000;stroke-linecap:round;stroke-linejoin:round;stroke-width:0.24}
		.st10 {marker-end:url(#mrkr20-198);stroke:#000000;stroke-dasharray:1.68,1.2;stroke-linecap:round;stroke-linejoin:round;stroke-width:0.24}
		.st11 {fill:#ffffff;stroke:#000000;stroke-linecap:round;stroke-linejoin:round;stroke-width:0.24}
		.st12 {font-size:1em}
		.st13 {marker-end:url(#mrkr12-129);stroke:#000000;stroke-dasharray:1.68,1.2;stroke-linecap:round;stroke-linejoin:round;stroke-width:0.24}
		.st14 {fill:none;fill-rule:evenodd;font-size:12px;overflow:visible;stroke-linecap:square;stroke-miterlimit:3}
	]]>
	</style>

	<defs id="Markers">
		<g id="lend41">
			<path
					d="M 0.75 0.75 C 0.335786 0.75 0 0.414214 0 0 0 -0.414214 0.335786 -0.75 0.75 -0.75 1.16421 -0.75 1.5 -0.414214 1.5 0 1.5 0.414214 1.16421 0.75 0.75 0.75 Z "
					style="stroke-linecap:round;stroke-linejoin:round;fill:none"/>
		</g>
		<marker id="mrkr41-127" class="st7" refX="15.75" orient="auto" markerUnits="strokeWidth" overflow="visible">
			<use xlink:href="#lend41" transform="scale(11.5) "/>
		</marker>
		<g id="lend12">
			<path d="M 3 1 L 0 0 L 3 -1 " style="stroke-linecap:round;stroke-linejoin:round;fill:none"/>
		</g>
		<marker id="mrkr12-129" class="st7" orient="auto" markerUnits="strokeWidth" overflow="visible">
			<use xlink:href="#lend12" transform="scale(-11.5,-11.5) "/>
		</marker>
		<g id="lend13">
			<path d="M 3 1 L 0 0 L 3 -1 L 3 1 " style="stroke:none"/>
		</g>
		<marker id="mrkr13-137" class="st7" refX="-34.5" orient="auto" markerUnits="strokeWidth" overflow="visible">
			<use xlink:href="#lend13" transform="scale(-11.5,-11.5) "/>
		</marker>
		<g id="lend20">
			<path
					d="M 0 0.75 C -0.414214 0.75 -0.75 0.414214 -0.75 0 -0.75 -0.414214 -0.414214 -0.75 0 -0.75 0.414214 -0.75 0.75 -0.414214 0.75 0 0.75 0.414214 0.414214 0.75 0 0.75 Z "
					style="stroke-linecap:round;stroke-linejoin:round;fill:none"/>
		</g>
		<marker id="mrkr20-198" class="st7" refX="-8.625" orient="auto" markerUnits="strokeWidth" overflow="visible">
			<use xlink:href="#lend20" transform="scale(-11.5,-11.5) "/>
		</marker>
	</defs>
	<g>
		<title>Page-1</title>
		<g id="group1-1" transform="translate(181.123,-333.12)">
			<title>Part, Lifeline</title>
			<g id="shape2-2" transform="translate(72,5.68434E-014)">
				<title>Sheet.2</title>
				<path d="M0 369.24 L0 333.24 L0 369.24 Z" class="st1"/>
			</g>
			<g id="shape3-5">
				<title>Sheet.3</title>
				<path d="M72 369.24 L0 369.24 L72 369.24 Z" class="st1"/>
			</g>
			<g id="shape4-8">
				<title>Sheet.4</title>
				<path d="M72 369.24 L0 369.24 L72 369.24 Z" class="st1"/>
			</g>
			<g id="shape5-11">
				<title>Sheet.5</title>
				<path d="M72 369.24 L0 369.24 L72 369.24 Z" class="st1"/>
			</g>
			<g id="shape6-14">
				<title>Sheet.6</title>
				<desc>Timer</desc>
				<path d="M72 369.24 L72 333.24 L0 333.24 L0 369.24 L72 369.24 ZM0 369.24 L0 333.24 L0 369.24 ZM72 333.24 L72 369.24
							 L72 333.24 Z" class="st1"/>
				<path d="M72 369.24 L72 333.24" class="st2"/>
				<path d="M0 369.24 L0 333.24" class="st2"/>
				<path d="M0 333.24 L72 333.24" class="st2"/>
				<path d="M0 369.24 L72 369.24" class="st2"/>
				<rect x="25.7794" y="346.44" width="20.4414" height="9.59985" class="st3"/>
				<text x="25.78" y="353.64" class="st4">Timer</text>			</g>
		</g>
		<g id="shape7-22" transform="translate(217.123,405.36) scale(1,-1)">
			<title>Lifeline</title>
			<path d="M0 369.24 L0 36.24" class="st5"/>
		</g>
		<g id="group8-25" transform="translate(270.12,-333.12)">
			<title>Part, Lifeline.8</title>
			<g id="shape9-26" transform="translate(72,5.68434E-014)">
				<title>Sheet.9</title>
				<path d="M0 369.24 L0 333.24 L0 369.24 Z" class="st1"/>
			</g>
			<g id="shape10-29">
				<title>Sheet.10</title>
				<path d="M72 369.24 L0 369.24 L72 369.24 Z" class="st1"/>
			</g>
			<g id="shape11-32">
				<title>Sheet.11</title>
				<path d="M72 369.24 L0 369.24 L72 369.24 Z" class="st1"/>
			</g>
			<g id="shape12-35">
				<title>Sheet.12</title>
				<path d="M72 369.24 L0 369.24 L72 369.24 Z" class="st1"/>
			</g>
			<g id="shape13-38">
				<title>Sheet.13</title>
				<desc>Scheduler</desc>
				<path d="M72 369.24 L72 333.24 L0 333.24 L0 369.24 L72 369.24 ZM0 369.24 L0 333.24 L0 369.24 ZM72 333.24 L72 369.24
							 L72 333.24 Z" class="st1"/>
				<path d="M72 369.24 L72 333.24" class="st2"/>
				<path d="M0 369.24 L0 333.24" class="st2"/>
				<path d="M0 333.24 L72 333.24" class="st2"/>
				<path d="M0 369.24 L72 369.24" class="st2"/>
				<rect x="17.9885" y="346.44" width="36.0233" height="9.59985" class="st3"/>
				<text x="17.99" y="353.64" class="st4">Scheduler</text>			</g>
		</g>
		<g id="group14-46" transform="translate(450.12,-333.12)">
			<title>Part, Lifeline.14</title>
			<g id="shape15-47" transform="translate(72,5.68434E-014)">
				<title>Sheet.15</title>
				<path d="M0 369.24 L0 333.24 L0 369.24 Z" class="st1"/>
			</g>
			<g id="shape16-50">
				<title>Sheet.16</title>
				<path d="M72 369.24 L0 369.24 L72 369.24 Z" class="st1"/>
			</g>
			<g id="shape17-53">
				<title>Sheet.17</title>
				<path d="M72 369.24 L0 369.24 L72 369.24 Z" class="st1"/>
			</g>
			<g id="shape18-56">
				<title>Sheet.18</title>
				<path d="M72 369.24 L0 369.24 L72 369.24 Z" class="st1"/>
			</g>
			<g id="shape19-59">
				<title>Sheet.19</title>
				<desc>App Main</desc>
				<path d="M72 369.24 L72 333.24 L0 333.24 L0 369.24 L72 369.24 ZM0 369.24 L0 333.24 L0 369.24 ZM72 333.24 L72 369.24
							 L72 333.24 Z" class="st1"/>
				<path d="M72 369.24 L72 333.24" class="st2"/>
				<path d="M0 369.24 L0 333.24" class="st2"/>
				<path d="M0 333.24 L72 333.24" class="st2"/>
				<path d="M0 369.24 L72 369.24" class="st2"/>
				<rect x="19.1019" y="346.44" width="33.7964" height="9.59985" class="st3"/>
				<text x="19.1" y="353.64" class="st4">App Main</text>			</g>
		</g>
		<g id="shape20-67" transform="translate(306.12,405.36) scale(1,-1)">
			<title>Lifeline.20</title>
			<path d="M0 369.24 L0 36.24" class="st5"/>
		</g>
		<g id="shape21-70" transform="translate(486.12,405.36) scale(1,-1)">
			<title>Lifeline.21</title>
			<path d="M0 369.24 L0 36.24" class="st5"/>
		</g>
		<g id="group22-73" transform="translate(360.12,-333.12)">
			<title>Part, Lifeline.23</title>
			<g id="shape23-74" transform="translate(72,5.68434E-014)">
				<title>Sheet.23</title>
				<path d="M0 369.24 L0 333.24 L0 369.24 Z" class="st1"/>
			</g>
			<g id="shape24-77">
				<title>Sheet.24</title>
				<path d="M72 369.24 L0 369.24 L72 369.24 Z" class="st1"/>
			</g>
			<g id="shape25-80">
				<title>Sheet.25</title>
				<path d="M72 369.24 L0 369.24 L72 369.24 Z" class="st1"/>
			</g>
			<g id="shape26-83">
				<title>Sheet.26</title>
				<path d="M72 369.24 L0 369.24 L72 369.24 Z" class="st1"/>
			</g>
			<g id="shape27-86">
				<title>Sheet.27</title>
				<desc>Battery Service</desc>
				<path d="M72 369.24 L72 333.24 L0 333.24 L0 369.24 L72 369.24 ZM0 369.24 L0 333.24 L0 369.24 ZM72 333.24 L72 369.24
							 L72 333.24 Z" class="st1"/>
				<path d="M72 369.24 L72 333.24" class="st2"/>
				<path d="M0 369.24 L0 333.24" class="st2"/>
				<path d="M0 333.24 L72 333.24" class="st2"/>
				<path d="M0 369.24 L72 369.24" class="st2"/>
				<rect x="8.87915" y="346.44" width="54.242" height="9.59985" class="st3"/>
				<text x="8.88" y="353.64" class="st4">Battery Service</text>			</g>
		</g>
		<g id="shape28-94" transform="translate(396.12,405.36) scale(1,-1)">
			<title>Lifeline.29</title>
			<path d="M0 369.24 L0 36.24" class="st5"/>
		</g>
		<g id="group29-97" transform="translate(87.87,-333.12)">
			<title>Part, Lifeline.30</title>
			<g id="shape30-98" transform="translate(76.5,5.68434E-014)">
				<title>Sheet.30</title>
				<path d="M0 369.24 L0 333.24 L0 369.24 Z" class="st1"/>
			</g>
			<g id="shape31-101">
				<title>Sheet.31</title>
				<path d="M76.5 369.24 L0 369.24 L76.5 369.24 Z" class="st1"/>
			</g>
			<g id="shape32-104">
				<title>Sheet.32</title>
				<path d="M76.5 369.24 L0 369.24 L76.5 369.24 Z" class="st1"/>
			</g>
			<g id="shape33-107">
				<title>Sheet.33</title>
				<path d="M76.5 369.24 L0 369.24 L76.5 369.24 Z" class="st1"/>
			</g>
			<g id="shape34-110">
				<title>Sheet.34</title>
				<desc>BLE Stack</desc>
				<path d="M76.5 369.24 L76.5 333.24 L0 333.24 L0 369.24 L76.5 369.24 ZM0 369.24 L0 333.24 L0 369.24 ZM76.5 333.24
							 L76.5 369.24 L76.5 333.24 Z" class="st1"/>
				<path d="M76.5 369.24 L76.5 333.24" class="st2"/>
				<path d="M0 369.24 L0 333.24" class="st2"/>
				<path d="M0 333.24 L76.5 333.24" class="st2"/>
				<path d="M0 369.24 L76.5 369.24" class="st2"/>
				<rect x="19.5746" y="346.44" width="37.351" height="9.59985" class="st3"/>
				<text x="19.57" y="353.64" class="st4">BLE Stack</text>			</g>
		</g>
		<g id="shape35-118" transform="translate(126.12,405.36) scale(1,-1)">
			<title>Lifeline.36</title>
			<path d="M0 369.24 L0 36.24" class="st5"/>
		</g>
		<g id="shape36-121" transform="translate(220.723,-252.12)">
			<title>Message (seq.diag).40</title>
			<desc>app_sched_event_put(EVENT_TIMER)</desc>
			<path d="M3.78 369.24 L4.14 369.24 L85.4 369.24" class="st6"/>
			<rect x="6.25223" y="355.44" width="140.07" height="9.59985" class="st3"/>
			<text x="6.25" y="362.64" class="st4">app_sched_event_put(EVENT_TIMER)</text>		</g>
		<g id="shape37-132" transform="translate(306.12,-225.12)">
			<title>Message (seq.diag).41</title>
			<desc>TIMEOUT(APP_TIMER_BATTERY_LEVEL_MEAS)</desc>
			<path d="M0 369.24 L171.72 369.24" class="st8"/>
			<rect x="11.1471" y="355.44" width="184.486" height="9.59985" class="st3"/>
			<text x="11.15" y="362.64" class="st4">TIMEOUT(APP_TIMER_BATTERY_LEVEL_MEAS)</text>		</g>
		<g id="shape38-140" transform="translate(482.52,540.36) rotate(180)">
			<title>Message (seq.diag).42</title>
			<desc>ble_bas_battery_level_update()</desc>
			<path d="M0 369.24 L74.52 369.24" class="st8"/>
			<rect x="-115.549" y="-383.04" width="112.078" height="9.59985" transform="rotate(180)" class="st3"/>
			<text x="-115.55" y="-375.84" transform="rotate(180)" class="st4">ble_bas_battery_level_update()</text>		</g>
		<g id="shape70-147" transform="translate(851.76,144.12) rotate(90)">
			<title>Exec.Occurrence, Coregion.122</title>
			<path d="M0 369.24 L0 362.04 L135 362.04 L135 369.24 L0 369.24 Z" class="st9"/>
		</g>
		<g id="shape71-149" transform="translate(761.76,171.12) rotate(90)">
			<title>Exec.Occurrence, Coregion.123</title>
			<path d="M0 369.24 L0 362.04 L90 362.04 L90 369.24 L0 369.24 Z" class="st9"/>
		</g>
		<g id="shape88-151" transform="translate(582.763,108.12) rotate(90)">
			<title>Exec.Occurrence, Coregion.161</title>
			<path d="M0 369.24 L0 362.04 L18 362.04 L18 369.24 L0 369.24 Z" class="st9"/>
		</g>
		<g id="group103-153" transform="translate(0.12,-333.12)">
			<title>Part, Lifeline.22</title>
			<g id="shape104-154" transform="translate(72,5.68434E-014)">
				<title>Sheet.104</title>
				<path d="M0 369.24 L0 333.24 L0 369.24 Z" class="st1"/>
			</g>
			<g id="shape105-157">
				<title>Sheet.105</title>
				<path d="M72 369.24 L0 369.24 L72 369.24 Z" class="st1"/>
			</g>
			<g id="shape106-160">
				<title>Sheet.106</title>
				<path d="M72 369.24 L0 369.24 L72 369.24 Z" class="st1"/>
			</g>
			<g id="shape107-163">
				<title>Sheet.107</title>
				<path d="M72 369.24 L0 369.24 L72 369.24 Z" class="st1"/>
			</g>
			<g id="shape108-166">
				<title>Sheet.108</title>
				<desc>Power Manager</desc>
				<path d="M72 369.24 L72 333.24 L0 333.24 L0 369.24 L72 369.24 ZM0 369.24 L0 333.24 L0 369.24 ZM72 333.24 L72 369.24
							 L72 333.24 Z" class="st1"/>
				<path d="M72 369.24 L72 333.24" class="st2"/>
				<path d="M0 369.24 L0 333.24" class="st2"/>
				<path d="M0 333.24 L72 333.24" class="st2"/>
				<path d="M0 369.24 L72 369.24" class="st2"/>
				<rect x="7.76376" y="346.44" width="56.4725" height="9.59985" class="st3"/>
				<text x="7.76" y="353.64" class="st4">Power Manager</text>			</g>
		</g>
		<g id="shape109-174" transform="translate(36.12,405.36) scale(1,-1)">
			<title>Lifeline.75</title>
			<path d="M0 369.24 L0 36.24" class="st5"/>
		</g>
		<g id="shape110-177" transform="translate(401.76,54.12) rotate(90)">
			<title>Exec.Occurrence, Coregion.76</title>
			<path d="M0 369.24 L0 362.04 L54 362.04 L54 369.24 L0 369.24 Z" class="st9"/>
		</g>
		<g id="shape111-179" transform="translate(401.76,297.12) rotate(90)">
			<title>Exec.Occurrence, Coregion.77</title>
			<path d="M0 369.24 L0 362.04 L72 362.04 L72 369.24 L0 369.24 Z" class="st9"/>
		</g>
		<g id="group112-181" transform="translate(111.495,473.985) rotate(180)">
			<title>Note, Constraint.78</title>
			<g id="shape113-182" transform="translate(31.5,-21.375)">
				<title>Sheet.113</title>
			</g>
			<g id="shape114-183" transform="translate(31.5,-21.375)">
				<title>Sheet.114</title>
			</g>
			<g id="shape115-184" transform="translate(31.5,-21.375)">
				<title>Sheet.115</title>
			</g>
			<g id="shape116-185" transform="translate(31.5,-21.375)">
				<title>Sheet.116</title>
			</g>
			<g id="shape117-186" transform="translate(31.5,-21.375)">
				<title>Sheet.117</title>
			</g>
			<g id="shape118-187" transform="translate(31.5,-21.375)">
				<title>Sheet.118</title>
			</g>
			<g id="shape119-188" transform="translate(31.5,-21.375)">
				<title>Sheet.119</title>
			</g>
			<g id="shape120-189" transform="translate(31.5,-21.375)">
				<title>Sheet.120</title>
			</g>
			<g id="shape121-190" transform="translate(31.5,-21.375)">
				<title>Sheet.121</title>
			</g>
			<g id="shape122-191" transform="translate(31.5,-21.375)">
				<title>Sheet.122</title>
			</g>
			<g id="shape123-192" transform="translate(31.5,-21.375)">
				<title>Sheet.123</title>
			</g>
			<g id="shape124-193" transform="translate(306.637,101.617) rotate(48.1715)">
				<title>Sheet.124</title>
				<path d="M0 369.24 L58.32 369.24" class="st10"/>
			</g>
			<g id="shape125-199" transform="translate(81.9542,695.73) rotate(180)">
				<title>Sheet.125</title>
			</g>
			<g id="shape126-202" transform="translate(-42.4156,0)">
				<title>Sheet.126</title>
				<desc>Initially in low power mode (suspended inside nrf_wait_for_ap...</desc>
				<path d="M0 360.24 L9 369.24 L9 360.24 L0 360.24 ZM0 360.24 L9 360.24 L9 369.24 L105.42 369.24 L105.42 326.49 L0
							 326.49 L0 360.24 Z" class="st11"/>
				<text x="-101.42" y="-355.07" transform="rotate(180)" class="st4">Initially in low power mode <tspan x="-101.42"
							dy="1.2em" class="st12">(</tspan>suspended inside <tspan x="-101.42" dy="1.2em" class="st12">nrf</tspan>_wait_for_app_event())</text>			</g>
		</g>
		<g id="group127-208" transform="translate(116.329,650.61) rotate(180)">
			<title>Note, Constraint.108</title>
			<g id="shape128-209" transform="translate(34.875,-13.5)">
				<title>Sheet.128</title>
			</g>
			<g id="shape129-210" transform="translate(34.875,-13.5)">
				<title>Sheet.129</title>
			</g>
			<g id="shape130-211" transform="translate(34.875,-13.5)">
				<title>Sheet.130</title>
			</g>
			<g id="shape131-212" transform="translate(34.875,-13.5)">
				<title>Sheet.131</title>
			</g>
			<g id="shape132-213" transform="translate(34.875,-13.5)">
				<title>Sheet.132</title>
			</g>
			<g id="shape133-214" transform="translate(34.875,-13.5)">
				<title>Sheet.133</title>
			</g>
			<g id="shape134-215" transform="translate(34.875,-13.5)">
				<title>Sheet.134</title>
			</g>
			<g id="shape135-216" transform="translate(34.875,-13.5)">
				<title>Sheet.135</title>
			</g>
			<g id="shape136-217" transform="translate(34.875,-13.5)">
				<title>Sheet.136</title>
			</g>
			<g id="shape137-218" transform="translate(34.875,-13.5)">
				<title>Sheet.137</title>
			</g>
			<g id="shape138-219" transform="translate(34.875,-13.5)">
				<title>Sheet.138</title>
			</g>
			<g id="shape139-220" transform="translate(-214.607,83.5321) rotate(-42.5056)">
				<title>Sheet.139</title>
				<path d="M0 369.24 L54.54 369.24" class="st10"/>
			</g>
			<g id="shape140-225" transform="translate(67.4964,711.48) rotate(180)">
				<title>Sheet.140</title>
			</g>
			<g id="shape141-228">
				<title>Sheet.141</title>
				<desc>Returns to low power mode</desc>
				<path d="M0 360.24 L9 369.24 L9 360.24 L0 360.24 ZM0 360.24 L9 360.24 L9 369.24 L69.75 369.24 L69.75 342.24 L0 342.24
							 L0 360.24 Z" class="st11"/>
				<text x="-65.75" y="-358.14" transform="rotate(180)" class="st4">Returns to low <tspan x="-65.75" dy="1.2em"
							class="st12">power mode</tspan></text>			</g>
		</g>
		<g id="shape143-233" transform="translate(392.52,585.36) rotate(180)">
			<title>Message (seq.diag).69</title>
			<desc>ble_gatts_hvx()</desc>
			<path d="M0 369.24 L254.52 369.24" class="st8"/>
			<rect x="-159.861" y="-383.04" width="54.6954" height="9.59985" transform="rotate(180)" class="st3"/>
			<text x="-159.86" y="-375.84" transform="rotate(180)" class="st4">ble_gatts_hvx()</text>		</g>
		<g id="shape144-240" transform="translate(491.76,216.12) rotate(90)">
			<title>Exec.Occurrence, Coregion.70</title>
			<path d="M0 369.24 L0 362.04 L27 362.04 L27 369.24 L0 369.24 Z" class="st9"/>
		</g>
		<g id="shape145-242" transform="translate(129.72,-126.12)">
			<title>Message (seq.diag).145</title>
			<path d="M0 369.24 L262.8 369.24" class="st13"/>
		</g>
		<g id="shape146-247" transform="translate(399.72,-108.12)">
			<title>Message (seq.diag).146</title>
			<path d="M0 369.24 L82.8 369.24" class="st13"/>
		</g>
		<g id="shape147-252" transform="translate(482.52,648.36) rotate(180)">
			<title>Message (seq.diag).147</title>
			<path d="M0 369.24 L172.8 369.24" class="st13"/>
		</g>
		<g id="shape69-257" transform="translate(671.76,126.12) rotate(90)">
			<title>Exec.Occurrence, Coregion</title>
			<path d="M0 369.24 L0 362.04 L171 362.04 L171 369.24 L0 369.24 Z" class="st9"/>
		</g>
		<g id="group39-259" transform="translate(226.792,445.86) rotate(180)">
			<title>Note, Constraint.58</title>
			<g id="shape40-260" transform="translate(44.2094,-9)">
				<title>Sheet.40</title>
			</g>
			<g id="shape41-261" transform="translate(44.2094,-9)">
				<title>Sheet.41</title>
			</g>
			<g id="shape42-262" transform="translate(44.2094,-9)">
				<title>Sheet.42</title>
			</g>
			<g id="shape43-263" transform="translate(44.2094,-9)">
				<title>Sheet.43</title>
			</g>
			<g id="shape44-264" transform="translate(44.2094,-9)">
				<title>Sheet.44</title>
			</g>
			<g id="shape45-265" transform="translate(44.2094,-9)">
				<title>Sheet.45</title>
			</g>
			<g id="shape46-266" transform="translate(44.2094,-9)">
				<title>Sheet.46</title>
			</g>
			<g id="shape47-267" transform="translate(44.2094,-9)">
				<title>Sheet.47</title>
			</g>
			<g id="shape48-268" transform="translate(44.2094,-9)">
				<title>Sheet.48</title>
			</g>
			<g id="shape49-269" transform="translate(44.2094,-9)">
				<title>Sheet.49</title>
			</g>
			<g id="shape50-270" transform="translate(44.2094,-9)">
				<title>Sheet.50</title>
			</g>
			<g id="shape51-271" transform="translate(-221.731,616.392) rotate(-133.926)">
				<title>Sheet.51</title>
				<path d="M0 369.24 L41.67 369.24" class="st10"/>
			</g>
			<g id="shape52-276" transform="translate(86.1651,720.48) rotate(180)">
				<title>Sheet.52</title>
			</g>
			<g id="shape53-279">
				<title>Sheet.53</title>
				<desc>RTC1_IRQHandler</desc>
				<path d="M0 360.24 L9 369.24 L9 360.24 L0 360.24 ZM0 360.24 L9 360.24 L9 369.24 L88.42 369.24 L88.42 351.24 L0 351.24
							 L0 360.24 Z" class="st11"/>
				<text x="-84.42" y="-357.84" transform="rotate(180)" class="st4">RTC1_IRQHandler</text>			</g>
		</g>
		<g id="group89-283" transform="translate(288.789,511.11) rotate(180)">
			<title>Note, Constraint.178</title>
			<g id="shape90-284" transform="translate(51.75,-22.5)">
				<title>Sheet.90</title>
			</g>
			<g id="shape91-285" transform="translate(51.75,-22.5)">
				<title>Sheet.91</title>
			</g>
			<g id="shape92-286" transform="translate(51.75,-22.5)">
				<title>Sheet.92</title>
			</g>
			<g id="shape93-287" transform="translate(51.75,-22.5)">
				<title>Sheet.93</title>
			</g>
			<g id="shape94-288" transform="translate(51.75,-22.5)">
				<title>Sheet.94</title>
			</g>
			<g id="shape95-289" transform="translate(51.75,-22.5)">
				<title>Sheet.95</title>
			</g>
			<g id="shape96-290" transform="translate(51.75,-22.5)">
				<title>Sheet.96</title>
			</g>
			<g id="shape97-291" transform="translate(51.75,-22.5)">
				<title>Sheet.97</title>
			</g>
			<g id="shape98-292" transform="translate(51.75,-22.5)">
				<title>Sheet.98</title>
			</g>
			<g id="shape99-293" transform="translate(51.75,-22.5)">
				<title>Sheet.99</title>
			</g>
			<g id="shape100-294" transform="translate(-34.5994,705.741) rotate(-166.476)">
				<title>Sheet.100</title>
				<path d="M0 369.24 L65.28 369.24" class="st10"/>
			</g>
			<g id="shape101-299" transform="translate(101.246,693.48) rotate(180)">
				<title>Sheet.101</title>
			</g>
			<g id="shape102-302">
				<title>Sheet.102</title>
				<desc>app_sched_schedule() (called from main loop after SWI2_IRQHan...</desc>
				<path d="M0 360.24 L9 369.24 L9 360.24 L0 360.24 ZM0 360.24 L9 360.24 L9 369.24 L103.5 369.24 L103.5 324.24 L0 324.24
							 L0 360.24 Z" class="st11"/>
				<text x="-99.5" y="-358.74" transform="rotate(180)" class="st4">app_sched_schedule() <tspan x="-99.5" dy="1.2em"
							class="st12">(</tspan>called from main loop <tspan x="-99.5" dy="1.2em" class="st12">after SWI</tspan>2_IRQHandler <tspan
							x="-99.5" dy="1.2em" class="st12">has returned</tspan>)</text>			</g>
		</g>
		<g id="group54-309" transform="translate(499.331,664.11) rotate(180)">
			<title>Note, Constraint</title>
			<g id="shape55-310" transform="translate(75.2078,-9)">
				<title>Sheet.55</title>
			</g>
			<g id="shape56-311" transform="translate(75.2078,-9)">
				<title>Sheet.56</title>
			</g>
			<g id="shape57-312" transform="translate(75.2078,-9)">
				<title>Sheet.57</title>
			</g>
			<g id="shape58-313" transform="translate(75.2078,-9)">
				<title>Sheet.58</title>
			</g>
			<g id="shape59-314" transform="translate(75.2078,-9)">
				<title>Sheet.59</title>
			</g>
			<g id="shape60-315" transform="translate(75.2078,-9)">
				<title>Sheet.60</title>
			</g>
			<g id="shape61-316" transform="translate(75.2078,-9)">
				<title>Sheet.61</title>
			</g>
			<g id="shape62-317" transform="translate(75.2078,-9)">
				<title>Sheet.62</title>
			</g>
			<g id="shape63-318" transform="translate(75.2078,729.48) rotate(180)">
				<title>Sheet.63</title>
				<path d="M0 369.24 L15.93 369.24" class="st10"/>
			</g>
			<g id="shape64-323" transform="translate(75.2078,-9)">
				<title>Sheet.64</title>
			</g>
			<g id="shape65-324" transform="translate(75.2078,-9)">
				<title>Sheet.65</title>
			</g>
			<g id="shape66-325" transform="translate(382.601,564.807) rotate(123.643)">
				<title>Sheet.66</title>
				<path d="M0 369.24 L103.34 369.24" class="st10"/>
			</g>
			<g id="shape67-330" transform="translate(148.162,720.48) rotate(180)">
				<title>Sheet.67</title>
			</g>
			<g id="shape68-333">
				<title>Sheet.68</title>
				<desc>battery_level_meas_timeout_handler()</desc>
				<path d="M0 360.24 L9 369.24 L9 360.24 L0 360.24 ZM0 360.24 L9 360.24 L9 369.24 L150.42 369.24 L150.42 351.24 L0
							 351.24 L0 360.24 Z" class="st11"/>
				<text x="-146.42" y="-357.84" transform="rotate(180)" class="st4">battery_level_meas_timeout_handler()</text>			</g>
		</g>
	</g>
</svg>
