<?xml version="1.0" encoding="UTF-8" standalone="no"?>
<!DOCTYPE svg PUBLIC "-//W3C//DTD SVG 1.1//EN" "http://www.w3.org/Graphics/SVG/1.1/DTD/svg11.dtd">
<!-- Generated by Microsoft Visio, SVG Export battery_timer_without_scheduler.svg Page-1 -->
<svg xmlns="http://www.w3.org/2000/svg" xmlns:xlink="http://www.w3.org/1999/xlink" xmlns:ev="http://www.w3.org/2001/xml-events"
		width="7.25333in" height="4.12833in" viewBox="0 0 522.24 297.24" xml:space="preserve" color-interpolation-filters="sRGB"
		class="st13">
	<style type="text/css">
	<![CDATA[
		.st1 {fill:#ffffff}
		.st2 {stroke:#000000;stroke-linecap:round;stroke-linejoin:round;stroke-width:0.24}
		.st3 {fill:#ffffff;stroke:none;stroke-linecap:butt;stroke-width:7.2}
		.st4 {fill:#000000;font-family:Arial;font-size:0.666664em}
		.st5 {stroke:#000000;stroke-dasharray:3.6,2.16;stroke-linecap:round;stroke-linejoin:round;stroke-width:0.24}
		.st6 {marker-end:url(#mrkr13-102);stroke:#000000;stroke-linecap:round;stroke-linejoin:round;stroke-width:0.24}
		.st7 {fill:#000000;fill-opacity:1;stroke:#000000;stroke-opacity:1;stroke-width:0.08695652173913}
		.st8 {fill:#e6e6e6;stroke:#000000;stroke-linecap:round;stroke-linejoin:round;stroke-width:0.24}
		.st9 {marker-end:url(#mrkr20-161);stroke:#000000;stroke-dasharray:1.68,1.2;stroke-linecap:round;stroke-linejoin:round;stroke-width:0.24}
		.st10 {fill:#ffffff;stroke:#000000;stroke-linecap:round;stroke-linejoin:round;stroke-width:0.24}
		.st11 {font-size:1em}
		.st12 {marker-end:url(#mrkr12-210);stroke:#000000;stroke-dasharray:1.68,1.2;stroke-linecap:round;stroke-linejoin:round;stroke-width:0.24}
		.st13 {fill:none;fill-rule:evenodd;font-size:12px;overflow:visible;stroke-linecap:square;stroke-miterlimit:3}
	]]>
	</style>

	<defs id="Markers">
		<g id="lend13">
			<path d="M 3 1 L 0 0 L 3 -1 L 3 1 " style="stroke:none"/>
		</g>
		<marker id="mrkr13-102" class="st7" refX="-34.5" orient="auto" markerUnits="strokeWidth" overflow="visible">
			<use xlink:href="#lend13" transform="scale(-11.5,-11.5) "/>
		</marker>
		<g id="lend20">
			<path
					d="M 0 0.75 C -0.414214 0.75 -0.75 0.414214 -0.75 0 -0.75 -0.414214 -0.414214 -0.75 0 -0.75 0.414214 -0.75 0.75 -0.414214 0.75 0 0.75 0.414214 0.414214 0.75 0 0.75 Z "
					style="stroke-linecap:round;stroke-linejoin:round;fill:none"/>
		</g>
		<marker id="mrkr20-161" class="st7" refX="-8.625" orient="auto" markerUnits="strokeWidth" overflow="visible">
			<use xlink:href="#lend20" transform="scale(-11.5,-11.5) "/>
		</marker>
		<g id="lend12">
			<path d="M 3 1 L 0 0 L 3 -1 " style="stroke-linecap:round;stroke-linejoin:round;fill:none"/>
		</g>
		<marker id="mrkr12-210" class="st7" orient="auto" markerUnits="strokeWidth" overflow="visible">
			<use xlink:href="#lend12" transform="scale(-11.5,-11.5) "/>
		</marker>
	</defs>
	<g>
		<title>Page-1</title>
		<g id="group1-1" transform="translate(226.123,-261.12)">
			<title>Part, Lifeline</title>
			<g id="shape2-2" transform="translate(72,5.68434E-014)">
				<title>Sheet.2</title>
				<path d="M0 297.24 L0 261.24 L0 297.24 Z" class="st1"/>
			</g>
			<g id="shape3-5">
				<title>Sheet.3</title>
				<path d="M72 297.24 L0 297.24 L72 297.24 Z" class="st1"/>
			</g>
			<g id="shape4-8">
				<title>Sheet.4</title>
				<path d="M72 297.24 L0 297.24 L72 297.24 Z" class="st1"/>
			</g>
			<g id="shape5-11">
				<title>Sheet.5</title>
				<path d="M72 297.24 L0 297.24 L72 297.24 Z" class="st1"/>
			</g>
			<g id="shape6-14">
				<title>Sheet.6</title>
				<desc>Timer</desc>
				<path d="M72 297.24 L72 261.24 L0 261.24 L0 297.24 L72 297.24 ZM0 297.24 L0 261.24 L0 297.24 ZM72 261.24 L72 297.24
							 L72 261.24 Z" class="st1"/>
				<path d="M72 297.24 L72 261.24" class="st2"/>
				<path d="M0 297.24 L0 261.24" class="st2"/>
				<path d="M0 261.24 L72 261.24" class="st2"/>
				<path d="M0 297.24 L72 297.24" class="st2"/>
				<rect x="25.7794" y="274.44" width="20.4414" height="9.59985" class="st3"/>
				<text x="25.78" y="281.64" class="st4">Timer</text>			</g>
		</g>
		<g id="shape7-22" transform="translate(262.123,333.36) scale(1,-1)">
			<title>Lifeline</title>
			<path d="M0 297.24 L0 36.24" class="st5"/>
		</g>
		<g id="group14-25" transform="translate(450.12,-261.12)">
			<title>Part, Lifeline.14</title>
			<g id="shape15-26" transform="translate(72,5.68434E-014)">
				<title>Sheet.15</title>
				<path d="M0 297.24 L0 261.24 L0 297.24 Z" class="st1"/>
			</g>
			<g id="shape16-29">
				<title>Sheet.16</title>
				<path d="M72 297.24 L0 297.24 L72 297.24 Z" class="st1"/>
			</g>
			<g id="shape17-32">
				<title>Sheet.17</title>
				<path d="M72 297.24 L0 297.24 L72 297.24 Z" class="st1"/>
			</g>
			<g id="shape18-35">
				<title>Sheet.18</title>
				<path d="M72 297.24 L0 297.24 L72 297.24 Z" class="st1"/>
			</g>
			<g id="shape19-38">
				<title>Sheet.19</title>
				<desc>App Main</desc>
				<path d="M72 297.24 L72 261.24 L0 261.24 L0 297.24 L72 297.24 ZM0 297.24 L0 261.24 L0 297.24 ZM72 261.24 L72 297.24
							 L72 261.24 Z" class="st1"/>
				<path d="M72 297.24 L72 261.24" class="st2"/>
				<path d="M0 297.24 L0 261.24" class="st2"/>
				<path d="M0 261.24 L72 261.24" class="st2"/>
				<path d="M0 297.24 L72 297.24" class="st2"/>
				<rect x="19.1019" y="274.44" width="33.7964" height="9.59985" class="st3"/>
				<text x="19.1" y="281.64" class="st4">App Main</text>			</g>
		</g>
		<g id="shape21-46" transform="translate(486.12,333.36) scale(1,-1)">
			<title>Lifeline.21</title>
			<path d="M0 297.24 L0 36.24" class="st5"/>
		</g>
		<g id="group22-49" transform="translate(338.623,-261.12)">
			<title>Part, Lifeline.23</title>
			<g id="shape23-50" transform="translate(72,5.68434E-014)">
				<title>Sheet.23</title>
				<path d="M0 297.24 L0 261.24 L0 297.24 Z" class="st1"/>
			</g>
			<g id="shape24-53">
				<title>Sheet.24</title>
				<path d="M72 297.24 L0 297.24 L72 297.24 Z" class="st1"/>
			</g>
			<g id="shape25-56">
				<title>Sheet.25</title>
				<path d="M72 297.24 L0 297.24 L72 297.24 Z" class="st1"/>
			</g>
			<g id="shape26-59">
				<title>Sheet.26</title>
				<path d="M72 297.24 L0 297.24 L72 297.24 Z" class="st1"/>
			</g>
			<g id="shape27-62">
				<title>Sheet.27</title>
				<desc>Battery Service</desc>
				<path d="M72 297.24 L72 261.24 L0 261.24 L0 297.24 L72 297.24 ZM0 297.24 L0 261.24 L0 297.24 ZM72 261.24 L72 297.24
							 L72 261.24 Z" class="st1"/>
				<path d="M72 297.24 L72 261.24" class="st2"/>
				<path d="M0 297.24 L0 261.24" class="st2"/>
				<path d="M0 261.24 L72 261.24" class="st2"/>
				<path d="M0 297.24 L72 297.24" class="st2"/>
				<rect x="8.87915" y="274.44" width="54.242" height="9.59985" class="st3"/>
				<text x="8.88" y="281.64" class="st4">Battery Service</text>			</g>
		</g>
		<g id="shape28-70" transform="translate(374.623,333.36) scale(1,-1)">
			<title>Lifeline.29</title>
			<path d="M0 297.24 L0 36.24" class="st5"/>
		</g>
		<g id="group29-73" transform="translate(109.123,-261.12)">
			<title>Part, Lifeline.30</title>
			<g id="shape30-74" transform="translate(76.5,5.68434E-014)">
				<title>Sheet.30</title>
				<path d="M0 297.24 L0 261.24 L0 297.24 Z" class="st1"/>
			</g>
			<g id="shape31-77">
				<title>Sheet.31</title>
				<path d="M76.5 297.24 L0 297.24 L76.5 297.24 Z" class="st1"/>
			</g>
			<g id="shape32-80">
				<title>Sheet.32</title>
				<path d="M76.5 297.24 L0 297.24 L76.5 297.24 Z" class="st1"/>
			</g>
			<g id="shape33-83">
				<title>Sheet.33</title>
				<path d="M76.5 297.24 L0 297.24 L76.5 297.24 Z" class="st1"/>
			</g>
			<g id="shape34-86">
				<title>Sheet.34</title>
				<desc>BLE Stack</desc>
				<path d="M76.5 297.24 L76.5 261.24 L0 261.24 L0 297.24 L76.5 297.24 ZM0 297.24 L0 261.24 L0 297.24 ZM76.5 261.24
							 L76.5 297.24 L76.5 261.24 Z" class="st1"/>
				<path d="M76.5 297.24 L76.5 261.24" class="st2"/>
				<path d="M0 297.24 L0 261.24" class="st2"/>
				<path d="M0 261.24 L76.5 261.24" class="st2"/>
				<path d="M0 297.24 L76.5 297.24" class="st2"/>
				<rect x="19.5746" y="274.44" width="37.351" height="9.59985" class="st3"/>
				<text x="19.57" y="281.64" class="st4">BLE Stack</text>			</g>
		</g>
		<g id="shape35-94" transform="translate(147.373,333.36) scale(1,-1)">
			<title>Lifeline.36</title>
			<path d="M0 297.24 L0 36.24" class="st5"/>
		</g>
		<g id="shape36-97" transform="translate(265.723,-180.12)">
			<title>Message (seq.diag).40</title>
			<desc>TIMEOUT(APP_TIMER_BATTERY_LEVEL_MEAS)</desc>
			<path d="M0 297.24 L208.52 297.24" class="st6"/>
			<rect x="20.0441" y="283.44" width="184.486" height="9.59985" class="st3"/>
			<text x="20.04" y="290.64" class="st4">TIMEOUT(APP_TIMER_BATTERY_LEVEL_MEAS)</text>		</g>
		<g id="shape38-105" transform="translate(482.52,441.36) rotate(180)">
			<title>Message (seq.diag).42</title>
			<desc>ble_bas_battery_level_update()</desc>
			<path d="M0 297.24 L96.02 297.24" class="st6"/>
			<rect x="-115.549" y="-311.04" width="112.078" height="9.59985" transform="rotate(180)" class="st3"/>
			<text x="-115.55" y="-303.84" transform="rotate(180)" class="st4">ble_bas_battery_level_update()</text>		</g>
		<g id="shape70-112" transform="translate(779.76,117.12) rotate(90)">
			<title>Exec.Occurrence, Coregion.122</title>
			<path d="M0 297.24 L0 290.04 L99 290.04 L99 297.24 L0 297.24 Z" class="st8"/>
		</g>
		<g id="shape71-114" transform="translate(668.263,144.12) rotate(90)">
			<title>Exec.Occurrence, Coregion.123</title>
			<path d="M0 297.24 L0 290.04 L54 290.04 L54 297.24 L0 297.24 Z" class="st8"/>
		</g>
		<g id="group103-116" transform="translate(0.12,-261.12)">
			<title>Part, Lifeline.22</title>
			<g id="shape104-117" transform="translate(72,5.68434E-014)">
				<title>Sheet.104</title>
				<path d="M0 297.24 L0 261.24 L0 297.24 Z" class="st1"/>
			</g>
			<g id="shape105-120">
				<title>Sheet.105</title>
				<path d="M72 297.24 L0 297.24 L72 297.24 Z" class="st1"/>
			</g>
			<g id="shape106-123">
				<title>Sheet.106</title>
				<path d="M72 297.24 L0 297.24 L72 297.24 Z" class="st1"/>
			</g>
			<g id="shape107-126">
				<title>Sheet.107</title>
				<path d="M72 297.24 L0 297.24 L72 297.24 Z" class="st1"/>
			</g>
			<g id="shape108-129">
				<title>Sheet.108</title>
				<desc>Power Manager</desc>
				<path d="M72 297.24 L72 261.24 L0 261.24 L0 297.24 L72 297.24 ZM0 297.24 L0 261.24 L0 297.24 ZM72 261.24 L72 297.24
							 L72 261.24 Z" class="st1"/>
				<path d="M72 297.24 L72 261.24" class="st2"/>
				<path d="M0 297.24 L0 261.24" class="st2"/>
				<path d="M0 261.24 L72 261.24" class="st2"/>
				<path d="M0 297.24 L72 297.24" class="st2"/>
				<rect x="7.76376" y="274.44" width="56.4725" height="9.59985" class="st3"/>
				<text x="7.76" y="281.64" class="st4">Power Manager</text>			</g>
		</g>
		<g id="shape109-137" transform="translate(36.12,333.36) scale(1,-1)">
			<title>Lifeline.75</title>
			<path d="M0 297.24 L0 36.24" class="st5"/>
		</g>
		<g id="shape110-140" transform="translate(329.76,54.12) rotate(90)">
			<title>Exec.Occurrence, Coregion.76</title>
			<path d="M0 297.24 L0 290.04 L54 290.04 L54 297.24 L0 297.24 Z" class="st8"/>
		</g>
		<g id="shape111-142" transform="translate(329.76,234.12) rotate(90)">
			<title>Exec.Occurrence, Coregion.77</title>
			<path d="M0 297.24 L0 290.04 L63 290.04 L63 297.24 L0 297.24 Z" class="st8"/>
		</g>
		<g id="group112-144" transform="translate(118.123,341.235) rotate(180)">
			<title>Note, Constraint.78</title>
			<g id="shape113-145" transform="translate(31.5,-21.375)">
				<title>Sheet.113</title>
			</g>
			<g id="shape114-146" transform="translate(31.5,-21.375)">
				<title>Sheet.114</title>
			</g>
			<g id="shape115-147" transform="translate(31.5,-21.375)">
				<title>Sheet.115</title>
			</g>
			<g id="shape116-148" transform="translate(31.5,-21.375)">
				<title>Sheet.116</title>
			</g>
			<g id="shape117-149" transform="translate(31.5,-21.375)">
				<title>Sheet.117</title>
			</g>
			<g id="shape118-150" transform="translate(31.5,-21.375)">
				<title>Sheet.118</title>
			</g>
			<g id="shape119-151" transform="translate(31.5,-21.375)">
				<title>Sheet.119</title>
			</g>
			<g id="shape120-152" transform="translate(31.5,-21.375)">
				<title>Sheet.120</title>
			</g>
			<g id="shape121-153" transform="translate(31.5,-21.375)">
				<title>Sheet.121</title>
			</g>
			<g id="shape122-154" transform="translate(31.5,-21.375)">
				<title>Sheet.122</title>
			</g>
			<g id="shape123-155" transform="translate(31.5,-21.375)">
				<title>Sheet.123</title>
			</g>
			<g id="shape124-156" transform="translate(-63.1206,-5.9125) rotate(-18.562)">
				<title>Sheet.124</title>
				<path d="M0 297.24 L47.41 297.24" class="st9"/>
			</g>
			<g id="shape125-162" transform="translate(81.9542,551.73) rotate(180)">
				<title>Sheet.125</title>
			</g>
			<g id="shape126-165" transform="translate(-42.4156,0)">
				<title>Sheet.126</title>
				<desc>Initially in low power mode (suspended inside nrf_wait_for_ap...</desc>
				<path d="M0 288.24 L9 297.24 L9 288.24 L0 288.24 ZM0 288.24 L9 288.24 L9 297.24 L105.42 297.24 L105.42 254.49 L0
							 254.49 L0 288.24 Z" class="st10"/>
				<text x="-101.42" y="-283.07" transform="rotate(180)" class="st4">Initially in low power mode <tspan x="-101.42"
							dy="1.2em" class="st11">(</tspan>suspended inside <tspan x="-101.42" dy="1.2em" class="st11">nrf</tspan>_wait_for_app_event())</text>			</g>
		</g>
		<g id="group127-171" transform="translate(118.123,524.61) rotate(180)">
			<title>Note, Constraint.108</title>
			<g id="shape128-172" transform="translate(34.875,-13.5)">
				<title>Sheet.128</title>
			</g>
			<g id="shape129-173" transform="translate(34.875,-13.5)">
				<title>Sheet.129</title>
			</g>
			<g id="shape130-174" transform="translate(34.875,-13.5)">
				<title>Sheet.130</title>
			</g>
			<g id="shape131-175" transform="translate(34.875,-13.5)">
				<title>Sheet.131</title>
			</g>
			<g id="shape132-176" transform="translate(34.875,-13.5)">
				<title>Sheet.132</title>
			</g>
			<g id="shape133-177" transform="translate(34.875,-13.5)">
				<title>Sheet.133</title>
			</g>
			<g id="shape134-178" transform="translate(34.875,-13.5)">
				<title>Sheet.134</title>
			</g>
			<g id="shape135-179" transform="translate(34.875,-13.5)">
				<title>Sheet.135</title>
			</g>
			<g id="shape136-180" transform="translate(34.875,-13.5)">
				<title>Sheet.136</title>
			</g>
			<g id="shape137-181" transform="translate(34.875,-13.5)">
				<title>Sheet.137</title>
			</g>
			<g id="shape138-182" transform="translate(34.875,-13.5)">
				<title>Sheet.138</title>
			</g>
			<g id="shape139-183" transform="translate(-130.911,37.0281) rotate(-33.9003)">
				<title>Sheet.139</title>
				<path d="M0 297.24 L50.37 297.24" class="st9"/>
			</g>
			<g id="shape140-188" transform="translate(67.4964,567.48) rotate(180)">
				<title>Sheet.140</title>
			</g>
			<g id="shape141-191">
				<title>Sheet.141</title>
				<desc>Returns to low power mode</desc>
				<path d="M0 288.24 L9 297.24 L9 288.24 L0 288.24 ZM0 288.24 L9 288.24 L9 297.24 L69.75 297.24 L69.75 270.24 L0 270.24
							 L0 288.24 Z" class="st10"/>
				<text x="-65.75" y="-286.14" transform="rotate(180)" class="st4">Returns to low <tspan x="-65.75" dy="1.2em"
							class="st11">power mode</tspan></text>			</g>
		</g>
		<g id="shape143-196" transform="translate(371.023,450.36) rotate(180)">
			<title>Message (seq.diag).69</title>
			<desc>ble_gatts_hvx()</desc>
			<path d="M0 297.24 L211.77 297.24" class="st6"/>
			<rect x="-191.361" y="-311.04" width="54.6954" height="9.59985" transform="rotate(180)" class="st3"/>
			<text x="-191.36" y="-303.84" transform="rotate(180)" class="st4">ble_gatts_hvx()</text>		</g>
		<g id="shape144-203" transform="translate(441.013,153.12) rotate(90)">
			<title>Exec.Occurrence, Coregion.70</title>
			<path d="M0 297.24 L0 290.04 L27 290.04 L27 297.24 L0 297.24 Z" class="st8"/>
		</g>
		<g id="shape8-205" transform="translate(378.223,-99.12)">
			<title>Message (seq.diag).41</title>
			<path d="M0 297.24 L104.3 297.24" class="st12"/>
		</g>
		<g id="shape9-211" transform="translate(150.973,-117.12)">
			<title>Message (seq.diag).9</title>
			<path d="M0 297.24 L220.05 297.24" class="st12"/>
		</g>
		<g id="shape10-216" transform="translate(482.52,513.36) rotate(180)">
			<title>Message (seq.diag).10</title>
			<path d="M0 297.24 L216.8 297.24" class="st12"/>
		</g>
		<g id="group54-221" transform="translate(509.289,526.86) rotate(180)">
			<title>Note, Constraint</title>
			<g id="shape55-222" transform="translate(75.2078,-9)">
				<title>Sheet.55</title>
			</g>
			<g id="shape56-223" transform="translate(75.2078,-9)">
				<title>Sheet.56</title>
			</g>
			<g id="shape57-224" transform="translate(75.2078,-9)">
				<title>Sheet.57</title>
			</g>
			<g id="shape58-225" transform="translate(75.2078,-9)">
				<title>Sheet.58</title>
			</g>
			<g id="shape59-226" transform="translate(75.2078,-9)">
				<title>Sheet.59</title>
			</g>
			<g id="shape60-227" transform="translate(75.2078,-9)">
				<title>Sheet.60</title>
			</g>
			<g id="shape61-228" transform="translate(75.2078,-9)">
				<title>Sheet.61</title>
			</g>
			<g id="shape62-229" transform="translate(75.2078,-9)">
				<title>Sheet.62</title>
			</g>
			<g id="shape63-230" transform="translate(75.2078,585.48) rotate(180)">
				<title>Sheet.63</title>
				<path d="M0 297.24 L15.93 297.24" class="st9"/>
			</g>
			<g id="shape64-235" transform="translate(75.2078,-9)">
				<title>Sheet.64</title>
			</g>
			<g id="shape65-236" transform="translate(75.2078,-9)">
				<title>Sheet.65</title>
			</g>
			<g id="shape66-237" transform="translate(316.701,461.539) rotate(125.664)">
				<title>Sheet.66</title>
				<path d="M0 297.24 L81.01 297.24" class="st9"/>
			</g>
			<g id="shape67-242" transform="translate(148.162,576.48) rotate(180)">
				<title>Sheet.67</title>
			</g>
			<g id="shape68-245">
				<title>Sheet.68</title>
				<desc>battery_level_meas_timeout_handler()</desc>
				<path d="M0 288.24 L9 297.24 L9 288.24 L0 288.24 ZM0 288.24 L9 288.24 L9 297.24 L150.42 297.24 L150.42 279.24 L0
							 279.24 L0 288.24 Z" class="st10"/>
				<text x="-146.42" y="-285.84" transform="rotate(180)" class="st4">battery_level_meas_timeout_handler()</text>			</g>
		</g>
		<g id="shape88-249" transform="translate(555.763,108.12) rotate(90)">
			<title>Exec.Occurrence, Coregion.161</title>
			<path d="M0 297.24 L0 290.04 L126 290.04 L126 297.24 L0 297.24 Z" class="st8"/>
		</g>
		<g id="group39-251" transform="translate(256.042,380.61) rotate(180)">
			<title>Note, Constraint.58</title>
			<g id="shape40-252" transform="translate(44.2094,-9)">
				<title>Sheet.40</title>
			</g>
			<g id="shape41-253" transform="translate(44.2094,-9)">
				<title>Sheet.41</title>
			</g>
			<g id="shape42-254" transform="translate(44.2094,-9)">
				<title>Sheet.42</title>
			</g>
			<g id="shape43-255" transform="translate(44.2094,-9)">
				<title>Sheet.43</title>
			</g>
			<g id="shape44-256" transform="translate(44.2094,-9)">
				<title>Sheet.44</title>
			</g>
			<g id="shape45-257" transform="translate(44.2094,-9)">
				<title>Sheet.45</title>
			</g>
			<g id="shape46-258" transform="translate(44.2094,-9)">
				<title>Sheet.46</title>
			</g>
			<g id="shape47-259" transform="translate(44.2094,-9)">
				<title>Sheet.47</title>
			</g>
			<g id="shape48-260" transform="translate(44.2094,-9)">
				<title>Sheet.48</title>
			</g>
			<g id="shape49-261" transform="translate(44.2094,-9)">
				<title>Sheet.49</title>
			</g>
			<g id="shape50-262" transform="translate(44.2094,-9)">
				<title>Sheet.50</title>
			</g>
			<g id="shape51-263" transform="translate(-129.92,529.135) rotate(-144.139)">
				<title>Sheet.51</title>
				<path d="M0 297.24 L55.54 297.24" class="st9"/>
			</g>
			<g id="shape52-268" transform="translate(86.1651,576.48) rotate(180)">
				<title>Sheet.52</title>
			</g>
			<g id="shape53-271">
				<title>Sheet.53</title>
				<desc>RTC1_IRQHandler</desc>
				<path d="M0 288.24 L9 297.24 L9 288.24 L0 288.24 ZM0 288.24 L9 288.24 L9 297.24 L88.42 297.24 L88.42 279.24 L0 279.24
							 L0 288.24 Z" class="st10"/>
				<text x="-84.42" y="-285.84" transform="rotate(180)" class="st4">RTC1_IRQHandler</text>			</g>
		</g>
	</g>
</svg>
