<?xml version="1.0" encoding="UTF-8" standalone="no"?>
<!DOCTYPE svg PUBLIC "-//W3C//DTD SVG 1.1//EN" "http://www.w3.org/Graphics/SVG/1.1/DTD/svg11.dtd">
<!-- Generated by Microsoft Visio, SVG Export ble_event_with_scheduler.svg Page-1 -->
<svg xmlns="http://www.w3.org/2000/svg" xmlns:xlink="http://www.w3.org/1999/xlink" xmlns:ev="http://www.w3.org/2001/xml-events"
		width="6.24611in" height="4.62993in" viewBox="0 0 449.72 333.355" xml:space="preserve" color-interpolation-filters="sRGB"
		class="st14">
	<style type="text/css">
	<![CDATA[
		.st1 {fill:#ffffff}
		.st2 {stroke:#000000;stroke-linecap:round;stroke-linejoin:round;stroke-width:0.24}
		.st3 {fill:#ffffff;stroke:none;stroke-linecap:butt;stroke-width:7.2}
		.st4 {fill:#000000;font-family:Arial;font-size:0.666664em}
		.st5 {stroke:#000000;stroke-dasharray:3.6,2.16;stroke-linecap:round;stroke-linejoin:round;stroke-width:0.24}
		.st6 {marker-end:url(#mrkr12-105);marker-start:url(#mrkr41-103);stroke:#000000;stroke-linecap:round;stroke-linejoin:round;stroke-width:0.24}
		.st7 {fill:#000000;fill-opacity:1;stroke:#000000;stroke-opacity:1;stroke-width:0.08695652173913}
		.st8 {marker-end:url(#mrkr13-113);stroke:#000000;stroke-linecap:round;stroke-linejoin:round;stroke-width:0.24}
		.st9 {fill:#e6e6e6;stroke:#000000;stroke-linecap:round;stroke-linejoin:round;stroke-width:0.24}
		.st10 {marker-end:url(#mrkr20-152);stroke:#000000;stroke-dasharray:1.68,1.2;stroke-linecap:round;stroke-linejoin:round;stroke-width:0.24}
		.st11 {fill:#ffffff;stroke:#000000;stroke-linecap:round;stroke-linejoin:round;stroke-width:0.24}
		.st12 {font-size:1em}
		.st13 {marker-end:url(#mrkr12-105);stroke:#000000;stroke-dasharray:1.68,1.2;stroke-linecap:round;stroke-linejoin:round;stroke-width:0.24}
		.st14 {fill:none;fill-rule:evenodd;font-size:12px;overflow:visible;stroke-linecap:square;stroke-miterlimit:3}
	]]>
	</style>

	<defs id="Markers">
		<g id="lend41">
			<path
					d="M 0.75 0.75 C 0.335786 0.75 0 0.414214 0 0 0 -0.414214 0.335786 -0.75 0.75 -0.75 1.16421 -0.75 1.5 -0.414214 1.5 0 1.5 0.414214 1.16421 0.75 0.75 0.75 Z "
					style="stroke-linecap:round;stroke-linejoin:round;fill:none"/>
		</g>
		<marker id="mrkr41-103" class="st7" refX="15.75" orient="auto" markerUnits="strokeWidth" overflow="visible">
			<use xlink:href="#lend41" transform="scale(11.5) "/>
		</marker>
		<g id="lend12">
			<path d="M 3 1 L 0 0 L 3 -1 " style="stroke-linecap:round;stroke-linejoin:round;fill:none"/>
		</g>
		<marker id="mrkr12-105" class="st7" orient="auto" markerUnits="strokeWidth" overflow="visible">
			<use xlink:href="#lend12" transform="scale(-11.5,-11.5) "/>
		</marker>
		<g id="lend13">
			<path d="M 3 1 L 0 0 L 3 -1 L 3 1 " style="stroke:none"/>
		</g>
		<marker id="mrkr13-113" class="st7" refX="-34.5" orient="auto" markerUnits="strokeWidth" overflow="visible">
			<use xlink:href="#lend13" transform="scale(-11.5,-11.5) "/>
		</marker>
		<g id="lend20">
			<path
					d="M 0 0.75 C -0.414214 0.75 -0.75 0.414214 -0.75 0 -0.75 -0.414214 -0.414214 -0.75 0 -0.75 0.414214 -0.75 0.75 -0.414214 0.75 0 0.75 0.414214 0.414214 0.75 0 0.75 Z "
					style="stroke-linecap:round;stroke-linejoin:round;fill:none"/>
		</g>
		<marker id="mrkr20-152" class="st7" refX="-8.625" orient="auto" markerUnits="strokeWidth" overflow="visible">
			<use xlink:href="#lend20" transform="scale(-11.5,-11.5) "/>
		</marker>
	</defs>
	<g>
		<title>Page-1</title>
		<g id="group8-1" transform="translate(180.12,-297.235)">
			<title>Part, Lifeline.8</title>
			<g id="shape9-2" transform="translate(72,5.68434E-014)">
				<title>Sheet.9</title>
				<path d="M0 333.36 L0 297.36 L0 333.36 Z" class="st1"/>
			</g>
			<g id="shape10-5">
				<title>Sheet.10</title>
				<path d="M72 333.36 L0 333.36 L72 333.36 Z" class="st1"/>
			</g>
			<g id="shape11-8">
				<title>Sheet.11</title>
				<path d="M72 333.36 L0 333.36 L72 333.36 Z" class="st1"/>
			</g>
			<g id="shape12-11">
				<title>Sheet.12</title>
				<path d="M72 333.36 L0 333.36 L72 333.36 Z" class="st1"/>
			</g>
			<g id="shape13-14">
				<title>Sheet.13</title>
				<desc>Scheduler</desc>
				<path d="M72 333.36 L72 297.36 L0 297.36 L0 333.36 L72 333.36 ZM0 333.36 L0 297.36 L0 333.36 ZM72 297.36 L72 333.36
							 L72 297.36 Z" class="st1"/>
				<path d="M72 333.36 L72 297.36" class="st2"/>
				<path d="M0 333.36 L0 297.36" class="st2"/>
				<path d="M0 297.36 L72 297.36" class="st2"/>
				<path d="M0 333.36 L72 333.36" class="st2"/>
				<rect x="17.9885" y="310.555" width="36.0233" height="9.59985" class="st3"/>
				<text x="17.99" y="317.76" class="st4">Scheduler</text>			</g>
		</g>
		<g id="group14-22" transform="translate(360.12,-297.235)">
			<title>Part, Lifeline.14</title>
			<g id="shape15-23" transform="translate(72,5.68434E-014)">
				<title>Sheet.15</title>
				<path d="M0 333.36 L0 297.36 L0 333.36 Z" class="st1"/>
			</g>
			<g id="shape16-26">
				<title>Sheet.16</title>
				<path d="M72 333.36 L0 333.36 L72 333.36 Z" class="st1"/>
			</g>
			<g id="shape17-29">
				<title>Sheet.17</title>
				<path d="M72 333.36 L0 333.36 L72 333.36 Z" class="st1"/>
			</g>
			<g id="shape18-32">
				<title>Sheet.18</title>
				<path d="M72 333.36 L0 333.36 L72 333.36 Z" class="st1"/>
			</g>
			<g id="shape19-35">
				<title>Sheet.19</title>
				<desc>App Main</desc>
				<path d="M72 333.36 L72 297.36 L0 297.36 L0 333.36 L72 333.36 ZM0 333.36 L0 297.36 L0 333.36 ZM72 297.36 L72 333.36
							 L72 297.36 Z" class="st1"/>
				<path d="M72 333.36 L72 297.36" class="st2"/>
				<path d="M0 333.36 L0 297.36" class="st2"/>
				<path d="M0 297.36 L72 297.36" class="st2"/>
				<path d="M0 333.36 L72 333.36" class="st2"/>
				<rect x="19.1019" y="310.555" width="33.7964" height="9.59985" class="st3"/>
				<text x="19.1" y="317.76" class="st4">App Main</text>			</g>
		</g>
		<g id="shape20-43" transform="translate(216.12,369.475) scale(1,-1)">
			<title>Lifeline.20</title>
			<path d="M0 333.36 L0 36.24" class="st5"/>
		</g>
		<g id="shape21-46" transform="translate(378.12,369.475) scale(1,-1)">
			<title>Lifeline.21</title>
			<path d="M0 333.36 L0 36.24" class="st5"/>
		</g>
		<g id="group23-49" transform="translate(270.12,-297.235)">
			<title>Part, Lifeline.23</title>
			<g id="shape24-50" transform="translate(72,5.68434E-014)">
				<title>Sheet.24</title>
				<path d="M0 333.36 L0 297.36 L0 333.36 Z" class="st1"/>
			</g>
			<g id="shape25-53">
				<title>Sheet.25</title>
				<path d="M72 333.36 L0 333.36 L72 333.36 Z" class="st1"/>
			</g>
			<g id="shape26-56">
				<title>Sheet.26</title>
				<path d="M72 333.36 L0 333.36 L72 333.36 Z" class="st1"/>
			</g>
			<g id="shape27-59">
				<title>Sheet.27</title>
				<path d="M72 333.36 L0 333.36 L72 333.36 Z" class="st1"/>
			</g>
			<g id="shape28-62">
				<title>Sheet.28</title>
				<desc>XX Service</desc>
				<path d="M72 333.36 L72 297.36 L0 297.36 L0 333.36 L72 333.36 ZM0 333.36 L0 297.36 L0 333.36 ZM72 297.36 L72 333.36
							 L72 297.36 Z" class="st1"/>
				<path d="M72 333.36 L72 297.36" class="st2"/>
				<path d="M0 333.36 L0 297.36" class="st2"/>
				<path d="M0 297.36 L72 297.36" class="st2"/>
				<path d="M0 333.36 L72 333.36" class="st2"/>
				<rect x="16.215" y="310.555" width="39.57" height="9.59985" class="st3"/>
				<text x="16.21" y="317.76" class="st4">XX Service</text>			</g>
		</g>
		<g id="shape29-70" transform="translate(306.12,369.475) scale(1,-1)">
			<title>Lifeline.29</title>
			<path d="M0 333.36 L0 36.24" class="st5"/>
		</g>
		<g id="group30-73" transform="translate(87.87,-297.235)">
			<title>Part, Lifeline.30</title>
			<g id="shape31-74" transform="translate(76.5,5.68434E-014)">
				<title>Sheet.31</title>
				<path d="M0 333.36 L0 297.36 L0 333.36 Z" class="st1"/>
			</g>
			<g id="shape32-77">
				<title>Sheet.32</title>
				<path d="M76.5 333.36 L0 333.36 L76.5 333.36 Z" class="st1"/>
			</g>
			<g id="shape33-80">
				<title>Sheet.33</title>
				<path d="M76.5 333.36 L0 333.36 L76.5 333.36 Z" class="st1"/>
			</g>
			<g id="shape34-83">
				<title>Sheet.34</title>
				<path d="M76.5 333.36 L0 333.36 L76.5 333.36 Z" class="st1"/>
			</g>
			<g id="shape35-86">
				<title>Sheet.35</title>
				<desc>BLE Stack</desc>
				<path d="M76.5 333.36 L76.5 297.36 L0 297.36 L0 333.36 L76.5 333.36 ZM0 333.36 L0 297.36 L0 333.36 ZM76.5 297.36
							 L76.5 333.36 L76.5 297.36 Z" class="st1"/>
				<path d="M76.5 333.36 L76.5 297.36" class="st2"/>
				<path d="M0 333.36 L0 297.36" class="st2"/>
				<path d="M0 297.36 L76.5 297.36" class="st2"/>
				<path d="M0 333.36 L76.5 333.36" class="st2"/>
				<rect x="19.5746" y="310.555" width="37.351" height="9.59985" class="st3"/>
				<text x="19.57" y="317.76" class="st4">BLE Stack</text>			</g>
		</g>
		<g id="shape36-94" transform="translate(126.12,369.475) scale(1,-1)">
			<title>Lifeline.36</title>
			<path d="M0 333.36 L0 36.24" class="st5"/>
		</g>
		<g id="shape40-97" transform="translate(129.72,-216.235)">
			<title>Message (seq.diag).40</title>
			<desc>app_sched_event_put(EVENT_BLE)</desc>
			<path d="M3.78 333.36 L4.14 333.36 L86.4 333.36" class="st6"/>
			<rect x="2.13511" y="319.671" width="130.304" height="9.59985" class="st3"/>
			<text x="2.14" y="326.87" class="st4">app_sched_event_put(EVENT_BLE)</text>		</g>
		<g id="shape41-108" transform="translate(219.72,-189.235)">
			<title>Message (seq.diag).41</title>
			<desc>EVENT_BLE</desc>
			<path d="M0 333.36 L182.52 333.36" class="st8"/>
			<rect x="71.1663" y="319.555" width="46.2415" height="9.59985" class="st3"/>
			<text x="71.17" y="326.76" class="st4">EVENT_BLE</text>		</g>
		<g id="shape42-116" transform="translate(410.901,495.475) rotate(179.935)">
			<title>Message (seq.diag).42</title>
			<desc>ble_xxs_on_ble_evt()</desc>
			<path d="M0 333.36 L92.52 333.36" class="st8"/>
			<rect x="-89.9276" y="-347.097" width="76.0471" height="9.59985" transform="rotate(-179.935)" class="st3"/>
			<text x="-89.93" y="-339.9" transform="rotate(-179.935)" class="st4">ble_xxs_on_ble_evt()</text>		</g>
		<g id="shape90-123" transform="translate(309.128,-153.119) rotate(-0.101821)">
			<title>Message (seq.diag).90</title>
			<desc>BLE_XX_EVT_YY</desc>
			<path d="M0 333.36 L56.52 333.36" class="st8"/>
			<rect x="12.6946" y="319.555" width="65.3698" height="9.59985" transform="rotate(0.101821)" class="st3"/>
			<text x="12.69" y="326.75" transform="rotate(0.101821)" class="st4">BLE_XX_EVT_YY</text>		</g>
		<g id="shape121-130" transform="translate(545.875,126.12) rotate(90)">
			<title>Exec.Occurrence, Coregion</title>
			<path d="M0 333.36 L0 326.16 L135 326.16 L135 333.36 L0 333.36 Z" class="st9"/>
		</g>
		<g id="shape123-132" transform="translate(635.875,162.235) rotate(90)">
			<title>Exec.Occurrence, Coregion.123</title>
			<path d="M0 333.36 L0 326.16 L62.88 326.16 L62.88 333.36 L0 333.36 Z" class="st9"/>
		</g>
		<g id="shape161-134" transform="translate(455.875,108.12) rotate(90)">
			<title>Exec.Occurrence, Coregion.161</title>
			<path d="M0 333.36 L0 326.16 L18 326.16 L18 333.36 L0 333.36 Z" class="st9"/>
		</g>
		<g id="group178-136" transform="translate(202.62,524.84) rotate(180)">
			<title>Note, Constraint.178</title>
			<g id="shape179-137" transform="translate(51.75,-22.5)">
				<title>Sheet.179</title>
			</g>
			<g id="shape180-138" transform="translate(51.75,-22.5)">
				<title>Sheet.180</title>
			</g>
			<g id="shape181-139" transform="translate(51.75,-22.5)">
				<title>Sheet.181</title>
			</g>
			<g id="shape182-140" transform="translate(51.75,-22.5)">
				<title>Sheet.182</title>
			</g>
			<g id="shape183-141" transform="translate(51.75,-22.5)">
				<title>Sheet.183</title>
			</g>
			<g id="shape184-142" transform="translate(51.75,-22.5)">
				<title>Sheet.184</title>
			</g>
			<g id="shape185-143" transform="translate(51.75,-22.5)">
				<title>Sheet.185</title>
			</g>
			<g id="shape186-144" transform="translate(51.75,-22.5)">
				<title>Sheet.186</title>
			</g>
			<g id="shape188-145" transform="translate(51.75,-22.5)">
				<title>Sheet.188</title>
			</g>
			<g id="shape189-146" transform="translate(51.75,-22.5)">
				<title>Sheet.189</title>
			</g>
			<g id="shape190-147" transform="translate(212.246,603.031) rotate(151.219)">
				<title>Sheet.190</title>
				<path d="M0 333.36 L68.27 333.36" class="st10"/>
			</g>
			<g id="shape191-153" transform="translate(101.246,621.71) rotate(180)">
				<title>Sheet.191</title>
			</g>
			<g id="shape192-156">
				<title>Sheet.192</title>
				<desc>app_sched_schedule() (called from main loop after SWI2_IRQHan...</desc>
				<path d="M0 324.36 L9 333.36 L9 324.36 L0 324.36 ZM0 324.36 L9 324.36 L9 333.36 L103.5 333.36 L103.5 288.36 L0 288.36
							 L0 324.36 Z" class="st11"/>
				<text x="-99.5" y="-322.86" transform="rotate(180)" class="st4">app_sched_schedule() <tspan x="-99.5" dy="1.2em"
							class="st12">(</tspan>called from main loop <tspan x="-99.5" dy="1.2em" class="st12">after SWI</tspan>2_IRQHandler <tspan
							x="-99.5" dy="1.2em" class="st12">has returned</tspan>)</text>			</g>
		</g>
		<g id="group22-163" transform="translate(0.12,-297.235)">
			<title>Part, Lifeline.22</title>
			<g id="shape37-164" transform="translate(72,5.68434E-014)">
				<title>Sheet.37</title>
				<path d="M0 333.36 L0 297.36 L0 333.36 Z" class="st1"/>
			</g>
			<g id="shape38-167">
				<title>Sheet.38</title>
				<path d="M72 333.36 L0 333.36 L72 333.36 Z" class="st1"/>
			</g>
			<g id="shape39-170">
				<title>Sheet.39</title>
				<path d="M72 333.36 L0 333.36 L72 333.36 Z" class="st1"/>
			</g>
			<g id="shape73-173">
				<title>Sheet.73</title>
				<path d="M72 333.36 L0 333.36 L72 333.36 Z" class="st1"/>
			</g>
			<g id="shape74-176">
				<title>Sheet.74</title>
				<desc>Power Manager</desc>
				<path d="M72 333.36 L72 297.36 L0 297.36 L0 333.36 L72 333.36 ZM0 333.36 L0 297.36 L0 333.36 ZM72 297.36 L72 333.36
							 L72 297.36 Z" class="st1"/>
				<path d="M72 333.36 L72 297.36" class="st2"/>
				<path d="M0 333.36 L0 297.36" class="st2"/>
				<path d="M0 297.36 L72 297.36" class="st2"/>
				<path d="M0 333.36 L72 333.36" class="st2"/>
				<rect x="7.76376" y="310.555" width="56.4725" height="9.59985" class="st3"/>
				<text x="7.76" y="317.76" class="st4">Power Manager</text>			</g>
		</g>
		<g id="shape75-184" transform="translate(36.12,369.475) scale(1,-1)">
			<title>Lifeline.75</title>
			<path d="M0 333.36 L0 36.36" class="st5"/>
		</g>
		<g id="shape76-187" transform="translate(365.875,54.12) rotate(90)">
			<title>Exec.Occurrence, Coregion.76</title>
			<path d="M0 333.36 L0 326.16 L54 326.16 L54 333.36 L0 333.36 Z" class="st9"/>
		</g>
		<g id="shape77-189" transform="translate(365.875,261.12) rotate(90)">
			<title>Exec.Occurrence, Coregion.77</title>
			<path d="M0 333.36 L0 326.16 L72 326.16 L72 333.36 L0 333.36 Z" class="st9"/>
		</g>
		<g id="group108-191" transform="translate(118.245,594.475) rotate(180)">
			<title>Note, Constraint.108</title>
			<g id="shape109-192" transform="translate(34.875,-13.5)">
				<title>Sheet.109</title>
			</g>
			<g id="shape110-193" transform="translate(34.875,-13.5)">
				<title>Sheet.110</title>
			</g>
			<g id="shape111-194" transform="translate(34.875,-13.5)">
				<title>Sheet.111</title>
			</g>
			<g id="shape112-195" transform="translate(34.875,-13.5)">
				<title>Sheet.112</title>
			</g>
			<g id="shape113-196" transform="translate(34.875,-13.5)">
				<title>Sheet.113</title>
			</g>
			<g id="shape114-197" transform="translate(34.875,-13.5)">
				<title>Sheet.114</title>
			</g>
			<g id="shape115-198" transform="translate(34.875,-13.5)">
				<title>Sheet.115</title>
			</g>
			<g id="shape116-199" transform="translate(34.875,-13.5)">
				<title>Sheet.116</title>
			</g>
			<g id="shape117-200" transform="translate(34.875,-13.5)">
				<title>Sheet.117</title>
			</g>
			<g id="shape118-201" transform="translate(34.875,-13.5)">
				<title>Sheet.118</title>
			</g>
			<g id="shape119-202" transform="translate(34.875,-13.5)">
				<title>Sheet.119</title>
			</g>
			<g id="shape124-203" transform="translate(-117.86,23.5486) rotate(-27.2695)">
				<title>Sheet.124</title>
				<path d="M0 333.36 L47.04 333.36" class="st10"/>
			</g>
			<g id="shape125-208" transform="translate(67.4964,639.71) rotate(180)">
				<title>Sheet.125</title>
			</g>
			<g id="shape126-211">
				<title>Sheet.126</title>
				<desc>Returns to low power mode</desc>
				<path d="M0 324.36 L9 333.36 L9 324.36 L0 324.36 ZM0 324.36 L9 324.36 L9 333.36 L69.75 333.36 L69.75 306.36 L0 306.36
							 L0 324.36 Z" class="st11"/>
				<text x="-65.75" y="-322.26" transform="rotate(180)" class="st4">Returns to low <tspan x="-65.75" dy="1.2em"
							class="st12">power mode</tspan></text>			</g>
		</g>
		<g id="group193-216" transform="translate(123.87,381.965) rotate(180)">
			<title>Note, Constraint.193</title>
			<g id="shape194-217" transform="translate(31.5,-21.375)">
				<title>Sheet.194</title>
			</g>
			<g id="shape195-218" transform="translate(31.5,-21.375)">
				<title>Sheet.195</title>
			</g>
			<g id="shape196-219" transform="translate(31.5,-21.375)">
				<title>Sheet.196</title>
			</g>
			<g id="shape197-220" transform="translate(31.5,-21.375)">
				<title>Sheet.197</title>
			</g>
			<g id="shape198-221" transform="translate(31.5,-21.375)">
				<title>Sheet.198</title>
			</g>
			<g id="shape199-222" transform="translate(31.5,-21.375)">
				<title>Sheet.199</title>
			</g>
			<g id="shape200-223" transform="translate(31.5,-21.375)">
				<title>Sheet.200</title>
			</g>
			<g id="shape201-224" transform="translate(31.5,-21.375)">
				<title>Sheet.201</title>
			</g>
			<g id="shape202-225" transform="translate(31.5,-21.375)">
				<title>Sheet.202</title>
			</g>
			<g id="shape203-226" transform="translate(31.5,-21.375)">
				<title>Sheet.203</title>
			</g>
			<g id="shape204-227" transform="translate(31.5,-21.375)">
				<title>Sheet.204</title>
			</g>
			<g id="shape205-228" transform="translate(-37.475,-14.1611) rotate(-11.9414)">
				<title>Sheet.205</title>
				<path d="M0 333.36 L51.74 333.36" class="st10"/>
			</g>
			<g id="shape206-233" transform="translate(81.9542,623.96) rotate(180)">
				<title>Sheet.206</title>
			</g>
			<g id="shape207-236" transform="translate(-42.4156,0)">
				<title>Sheet.207</title>
				<desc>Initially in low power mode (suspended inside nrf_wait_for_ap...</desc>
				<path d="M0 324.36 L9 333.36 L9 324.36 L0 324.36 ZM0 324.36 L9 324.36 L9 333.36 L105.42 333.36 L105.42 290.61 L0
							 290.61 L0 324.36 Z" class="st11"/>
				<text x="-101.42" y="-319.18" transform="rotate(180)" class="st4">Initially in low power mode <tspan x="-101.42"
							dy="1.2em" class="st12">(</tspan>suspended inside <tspan x="-101.42" dy="1.2em" class="st12">nrf</tspan>_wait_for_app_event())</text>			</g>
		</g>
		<g id="shape208-242" transform="translate(375.112,540.475) rotate(179.898)">
			<title>Message (seq.diag).208</title>
			<path d="M0 333.36 L64.8 333.36" class="st13"/>
		</g>
		<g id="shape129-247" transform="translate(414.12,369.475) scale(1,-1)">
			<title>Lifeline.129</title>
			<path d="M0 333.36 L0 36.24" class="st5"/>
		</g>
		<g id="shape130-250" transform="translate(410.52,576.475) rotate(180)">
			<title>Message (seq.diag).130</title>
			<path d="M0 333.36 L190.8 333.36" class="st13"/>
		</g>
		<g id="shape132-255" transform="translate(309.72,-108.235)">
			<title>Message (seq.diag).132</title>
			<path d="M0 333.36 L100.8 333.36" class="st13"/>
		</g>
		<g id="shape131-260" transform="translate(707.875,180.12) rotate(90)">
			<title>Exec.Occurrence, Coregion.131</title>
			<path d="M0 333.36 L0 326.16 L27 326.16 L27 333.36 L0 333.36 Z" class="st9"/>
		</g>
		<g id="shape122-262" transform="translate(743.875,144.12) rotate(90)">
			<title>Exec.Occurrence, Coregion.122</title>
			<path d="M0 333.36 L0 326.16 L99 326.16 L99 333.36 L0 333.36 Z" class="st9"/>
		</g>
		<g id="group44-264" transform="translate(432.12,441.59) rotate(180)">
			<title>Note, Constraint</title>
			<g id="shape45-265" transform="translate(41.625,-9)">
				<title>Sheet.45</title>
			</g>
			<g id="shape46-266" transform="translate(41.625,-9)">
				<title>Sheet.46</title>
			</g>
			<g id="shape47-267" transform="translate(41.625,-9)">
				<title>Sheet.47</title>
			</g>
			<g id="shape48-268" transform="translate(41.625,-9)">
				<title>Sheet.48</title>
			</g>
			<g id="shape49-269" transform="translate(41.625,-9)">
				<title>Sheet.49</title>
			</g>
			<g id="shape50-270" transform="translate(41.625,-9)">
				<title>Sheet.50</title>
			</g>
			<g id="shape51-271" transform="translate(41.625,-9)">
				<title>Sheet.51</title>
			</g>
			<g id="shape52-272" transform="translate(41.625,-9)">
				<title>Sheet.52</title>
			</g>
			<g id="shape53-273" transform="translate(41.625,657.71) rotate(180)">
				<title>Sheet.53</title>
				<path d="M0 333.36 L15.93 333.36" class="st10"/>
			</g>
			<g id="shape54-278" transform="translate(41.625,-9)">
				<title>Sheet.54</title>
			</g>
			<g id="shape55-279" transform="translate(41.625,-9)">
				<title>Sheet.55</title>
			</g>
			<g id="shape56-280" transform="translate(-279.503,413.812) rotate(-105.566)">
				<title>Sheet.56</title>
				<path d="M0 333.36 L72.55 333.36" class="st10"/>
			</g>
			<g id="shape57-285" transform="translate(80.9964,648.71) rotate(180)">
				<title>Sheet.57</title>
			</g>
			<g id="shape89-288">
				<title>Sheet.89</title>
				<desc>ble_evt_dispatch()</desc>
				<path d="M0 324.36 L9 333.36 L9 324.36 L0 324.36 ZM0 324.36 L9 324.36 L9 333.36 L83.25 333.36 L83.25 315.36 L0 315.36
							 L0 324.36 Z" class="st11"/>
				<text x="-79.25" y="-321.96" transform="rotate(180)" class="st4">ble_evt_dispatch()</text>			</g>
		</g>
		<g id="group91-292" transform="translate(441.12,587.84) rotate(180)">
			<title>Note, Constraint.91</title>
			<g id="shape92-293" transform="translate(36,-9)">
				<title>Sheet.92</title>
			</g>
			<g id="shape93-294" transform="translate(36,-9)">
				<title>Sheet.93</title>
			</g>
			<g id="shape94-295" transform="translate(36,-9)">
				<title>Sheet.94</title>
			</g>
			<g id="shape95-296" transform="translate(36,-9)">
				<title>Sheet.95</title>
			</g>
			<g id="shape96-297" transform="translate(36,-9)">
				<title>Sheet.96</title>
			</g>
			<g id="shape97-298" transform="translate(36,-9)">
				<title>Sheet.97</title>
			</g>
			<g id="shape98-299" transform="translate(36,-9)">
				<title>Sheet.98</title>
			</g>
			<g id="shape99-300" transform="translate(36,-9)">
				<title>Sheet.99</title>
			</g>
			<g id="shape101-301" transform="translate(36,-9)">
				<title>Sheet.101</title>
			</g>
			<g id="shape102-302" transform="translate(36,-9)">
				<title>Sheet.102</title>
			</g>
			<g id="shape103-303" transform="translate(349.85,212) rotate(70.3032)">
				<title>Sheet.103</title>
				<path d="M0 333.36 L67.36 333.36" class="st10"/>
			</g>
			<g id="shape104-308" transform="translate(65.2464,648.71) rotate(180)">
				<title>Sheet.104</title>
			</g>
			<g id="shape120-311" transform="translate(9,0)">
				<title>Sheet.120</title>
				<desc>on_xxs_evt()</desc>
				<path d="M0 324.36 L9 333.36 L9 324.36 L0 324.36 ZM0 324.36 L9 324.36 L9 333.36 L63 333.36 L63 315.36 L0 315.36 L0
							 324.36 Z" class="st11"/>
				<text x="-59" y="-321.96" transform="rotate(180)" class="st4">on_xxs_evt()</text>			</g>
		</g>
		<g id="group58-315" transform="translate(135.12,473.09) rotate(180)">
			<title>Note, Constraint.58</title>
			<g id="shape59-316" transform="translate(40.5,-9)">
				<title>Sheet.59</title>
			</g>
			<g id="shape60-317" transform="translate(40.5,-9)">
				<title>Sheet.60</title>
			</g>
			<g id="shape61-318" transform="translate(40.5,-9)">
				<title>Sheet.61</title>
			</g>
			<g id="shape62-319" transform="translate(40.5,-9)">
				<title>Sheet.62</title>
			</g>
			<g id="shape63-320" transform="translate(40.5,-9)">
				<title>Sheet.63</title>
			</g>
			<g id="shape64-321" transform="translate(40.5,-9)">
				<title>Sheet.64</title>
			</g>
			<g id="shape65-322" transform="translate(40.5,-9)">
				<title>Sheet.65</title>
			</g>
			<g id="shape66-323" transform="translate(40.5,-9)">
				<title>Sheet.66</title>
			</g>
			<g id="shape67-324" transform="translate(40.5,-9)">
				<title>Sheet.67</title>
			</g>
			<g id="shape68-325" transform="translate(40.5,-9)">
				<title>Sheet.68</title>
			</g>
			<g id="shape69-326" transform="translate(40.5,-9)">
				<title>Sheet.69</title>
			</g>
			<g id="shape70-327" transform="translate(292.807,542.224) rotate(130.811)">
				<title>Sheet.70</title>
				<path d="M0 333.36 L39.7 333.36" class="st10"/>
			</g>
			<g id="shape71-332" transform="translate(78.7464,648.71) rotate(180)">
				<title>Sheet.71</title>
			</g>
			<g id="shape72-335">
				<title>Sheet.72</title>
				<desc>SWI2_IRQHandler</desc>
				<path d="M0 324.36 L9 333.36 L9 324.36 L0 324.36 ZM0 324.36 L9 324.36 L9 333.36 L81 333.36 L81 315.36 L0 315.36 L0
							 324.36 Z" class="st11"/>
				<text x="-77" y="-321.96" transform="rotate(180)" class="st4">SWI2_IRQHandler</text>			</g>
		</g>
	</g>
</svg>
