<?xml version="1.0" encoding="UTF-8" standalone="no"?>
<!DOCTYPE svg PUBLIC "-//W3C//DTD SVG 1.1//EN" "http://www.w3.org/Graphics/SVG/1.1/DTD/svg11.dtd">
<!-- Generated by Microsoft Visio, SVG Export ble_event_without_scheduler.svg Page-1 -->
<svg xmlns="http://www.w3.org/2000/svg" xmlns:xlink="http://www.w3.org/1999/xlink" xmlns:ev="http://www.w3.org/2001/xml-events"
		width="6.24611in" height="4.37993in" viewBox="0 0 449.72 315.355" xml:space="preserve" color-interpolation-filters="sRGB"
		class="st13">
	<style type="text/css">
	<![CDATA[
		.st1 {fill:#ffffff}
		.st2 {stroke:#000000;stroke-linecap:round;stroke-linejoin:round;stroke-width:0.24}
		.st3 {fill:#ffffff;stroke:none;stroke-linecap:butt;stroke-width:7.2}
		.st4 {fill:#000000;font-family:Arial;font-size:0.666664em}
		.st5 {stroke:#000000;stroke-dasharray:3.6,2.16;stroke-linecap:round;stroke-linejoin:round;stroke-width:0.24}
		.st6 {marker-end:url(#mrkr13-78);stroke:#000000;stroke-linecap:round;stroke-linejoin:round;stroke-width:0.24}
		.st7 {fill:#000000;fill-opacity:1;stroke:#000000;stroke-opacity:1;stroke-width:0.08695652173913}
		.st8 {fill:#e6e6e6;stroke:#000000;stroke-linecap:round;stroke-linejoin:round;stroke-width:0.24}
		.st9 {marker-end:url(#mrkr20-132);stroke:#000000;stroke-dasharray:1.68,1.2;stroke-linecap:round;stroke-linejoin:round;stroke-width:0.24}
		.st10 {fill:#ffffff;stroke:#000000;stroke-linecap:round;stroke-linejoin:round;stroke-width:0.24}
		.st11 {font-size:1em}
		.st12 {marker-end:url(#mrkr12-179);stroke:#000000;stroke-dasharray:1.68,1.2;stroke-linecap:round;stroke-linejoin:round;stroke-width:0.24}
		.st13 {fill:none;fill-rule:evenodd;font-size:12px;overflow:visible;stroke-linecap:square;stroke-miterlimit:3}
	]]>
	</style>

	<defs id="Markers">
		<g id="lend13">
			<path d="M 3 1 L 0 0 L 3 -1 L 3 1 " style="stroke:none"/>
		</g>
		<marker id="mrkr13-78" class="st7" refX="-34.5" orient="auto" markerUnits="strokeWidth" overflow="visible">
			<use xlink:href="#lend13" transform="scale(-11.5,-11.5) "/>
		</marker>
		<g id="lend20">
			<path
					d="M 0 0.75 C -0.414214 0.75 -0.75 0.414214 -0.75 0 -0.75 -0.414214 -0.414214 -0.75 0 -0.75 0.414214 -0.75 0.75 -0.414214 0.75 0 0.75 0.414214 0.414214 0.75 0 0.75 Z "
					style="stroke-linecap:round;stroke-linejoin:round;fill:none"/>
		</g>
		<marker id="mrkr20-132" class="st7" refX="-8.625" orient="auto" markerUnits="strokeWidth" overflow="visible">
			<use xlink:href="#lend20" transform="scale(-11.5,-11.5) "/>
		</marker>
		<g id="lend12">
			<path d="M 3 1 L 0 0 L 3 -1 " style="stroke-linecap:round;stroke-linejoin:round;fill:none"/>
		</g>
		<marker id="mrkr12-179" class="st7" orient="auto" markerUnits="strokeWidth" overflow="visible">
			<use xlink:href="#lend12" transform="scale(-11.5,-11.5) "/>
		</marker>
	</defs>
	<g>
		<title>Page-1</title>
		<g id="group14-1" transform="translate(360.12,-279.235)">
			<title>Part, Lifeline.14</title>
			<g id="shape15-2" transform="translate(72,5.68434E-014)">
				<title>Sheet.15</title>
				<path d="M0 315.36 L0 279.36 L0 315.36 Z" class="st1"/>
			</g>
			<g id="shape16-5">
				<title>Sheet.16</title>
				<path d="M72 315.36 L0 315.36 L72 315.36 Z" class="st1"/>
			</g>
			<g id="shape17-8">
				<title>Sheet.17</title>
				<path d="M72 315.36 L0 315.36 L72 315.36 Z" class="st1"/>
			</g>
			<g id="shape18-11">
				<title>Sheet.18</title>
				<path d="M72 315.36 L0 315.36 L72 315.36 Z" class="st1"/>
			</g>
			<g id="shape19-14">
				<title>Sheet.19</title>
				<desc>App Main</desc>
				<path d="M72 315.36 L72 279.36 L0 279.36 L0 315.36 L72 315.36 ZM0 315.36 L0 279.36 L0 315.36 ZM72 279.36 L72 315.36
							 L72 279.36 Z" class="st1"/>
				<path d="M72 315.36 L72 279.36" class="st2"/>
				<path d="M0 315.36 L0 279.36" class="st2"/>
				<path d="M0 279.36 L72 279.36" class="st2"/>
				<path d="M0 315.36 L72 315.36" class="st2"/>
				<rect x="19.1019" y="292.555" width="33.7964" height="9.59985" class="st3"/>
				<text x="19.1" y="299.76" class="st4">App Main</text>			</g>
		</g>
		<g id="shape21-22" transform="translate(378.12,351.475) scale(1,-1)">
			<title>Lifeline.21</title>
			<path d="M0 315.36 L0 36.24" class="st5"/>
		</g>
		<g id="group23-25" transform="translate(238.62,-279.235)">
			<title>Part, Lifeline.23</title>
			<g id="shape24-26" transform="translate(72,5.68434E-014)">
				<title>Sheet.24</title>
				<path d="M0 315.36 L0 279.36 L0 315.36 Z" class="st1"/>
			</g>
			<g id="shape25-29">
				<title>Sheet.25</title>
				<path d="M72 315.36 L0 315.36 L72 315.36 Z" class="st1"/>
			</g>
			<g id="shape26-32">
				<title>Sheet.26</title>
				<path d="M72 315.36 L0 315.36 L72 315.36 Z" class="st1"/>
			</g>
			<g id="shape27-35">
				<title>Sheet.27</title>
				<path d="M72 315.36 L0 315.36 L72 315.36 Z" class="st1"/>
			</g>
			<g id="shape28-38">
				<title>Sheet.28</title>
				<desc>XX Service</desc>
				<path d="M72 315.36 L72 279.36 L0 279.36 L0 315.36 L72 315.36 ZM0 315.36 L0 279.36 L0 315.36 ZM72 279.36 L72 315.36
							 L72 279.36 Z" class="st1"/>
				<path d="M72 315.36 L72 279.36" class="st2"/>
				<path d="M0 315.36 L0 279.36" class="st2"/>
				<path d="M0 279.36 L72 279.36" class="st2"/>
				<path d="M0 315.36 L72 315.36" class="st2"/>
				<rect x="16.215" y="292.555" width="39.57" height="9.59985" class="st3"/>
				<text x="16.21" y="299.76" class="st4">XX Service</text>			</g>
		</g>
		<g id="shape29-46" transform="translate(274.62,351.475) scale(1,-1)">
			<title>Lifeline.29</title>
			<path d="M0 315.36 L0 36.24" class="st5"/>
		</g>
		<g id="group30-49" transform="translate(112.62,-279.235)">
			<title>Part, Lifeline.30</title>
			<g id="shape31-50" transform="translate(76.5,5.68434E-014)">
				<title>Sheet.31</title>
				<path d="M0 315.36 L0 279.36 L0 315.36 Z" class="st1"/>
			</g>
			<g id="shape32-53">
				<title>Sheet.32</title>
				<path d="M76.5 315.36 L0 315.36 L76.5 315.36 Z" class="st1"/>
			</g>
			<g id="shape33-56">
				<title>Sheet.33</title>
				<path d="M76.5 315.36 L0 315.36 L76.5 315.36 Z" class="st1"/>
			</g>
			<g id="shape34-59">
				<title>Sheet.34</title>
				<path d="M76.5 315.36 L0 315.36 L76.5 315.36 Z" class="st1"/>
			</g>
			<g id="shape35-62">
				<title>Sheet.35</title>
				<desc>BLE Stack</desc>
				<path d="M76.5 315.36 L76.5 279.36 L0 279.36 L0 315.36 L76.5 315.36 ZM0 315.36 L0 279.36 L0 315.36 ZM76.5 279.36
							 L76.5 315.36 L76.5 279.36 Z" class="st1"/>
				<path d="M76.5 315.36 L76.5 279.36" class="st2"/>
				<path d="M0 315.36 L0 279.36" class="st2"/>
				<path d="M0 279.36 L76.5 279.36" class="st2"/>
				<path d="M0 315.36 L76.5 315.36" class="st2"/>
				<rect x="19.5746" y="292.555" width="37.351" height="9.59985" class="st3"/>
				<text x="19.57" y="299.76" class="st4">BLE Stack</text>			</g>
		</g>
		<g id="shape36-70" transform="translate(155.37,351.475) scale(1,-1)">
			<title>Lifeline.36</title>
			<path d="M0 315.36 L0 36.24" class="st5"/>
		</g>
		<g id="shape90-73" transform="translate(278.22,-153.12)">
			<title>Message (seq.diag).90</title>
			<desc>BLE_XX_EVT_YY</desc>
			<path d="M0 315.36 L88.02 315.36" class="st6"/>
			<rect x="12.1022" y="301.555" width="65.3698" height="9.59985" class="st3"/>
			<text x="12.1" y="308.76" class="st4">BLE_XX_EVT_YY</text>		</g>
		<g id="shape123-81" transform="translate(586.375,144.235) rotate(90)">
			<title>Exec.Occurrence, Coregion.123</title>
			<path d="M0 315.36 L0 308.16 L62.88 308.16 L62.88 315.36 L0 315.36 Z" class="st8"/>
		</g>
		<g id="shape128-83" transform="translate(689.875,162.235) rotate(90)">
			<title>Exec.Occurrence, Coregion.128</title>
			<path d="M0 315.36 L0 308.16 L26.88 308.16 L26.88 315.36 L0 315.36 Z" class="st8"/>
		</g>
		<g id="shape161-85" transform="translate(467.125,108.12) rotate(90)">
			<title>Exec.Occurrence, Coregion.161</title>
			<path d="M0 315.36 L0 308.16 L135 308.16 L135 315.36 L0 315.36 Z" class="st8"/>
		</g>
		<g id="group22-87" transform="translate(0.12,-279.235)">
			<title>Part, Lifeline.22</title>
			<g id="shape37-88" transform="translate(72,5.68434E-014)">
				<title>Sheet.37</title>
				<path d="M0 315.36 L0 279.36 L0 315.36 Z" class="st1"/>
			</g>
			<g id="shape38-91">
				<title>Sheet.38</title>
				<path d="M72 315.36 L0 315.36 L72 315.36 Z" class="st1"/>
			</g>
			<g id="shape39-94">
				<title>Sheet.39</title>
				<path d="M72 315.36 L0 315.36 L72 315.36 Z" class="st1"/>
			</g>
			<g id="shape73-97">
				<title>Sheet.73</title>
				<path d="M72 315.36 L0 315.36 L72 315.36 Z" class="st1"/>
			</g>
			<g id="shape74-100">
				<title>Sheet.74</title>
				<desc>Power Manager</desc>
				<path d="M72 315.36 L72 279.36 L0 279.36 L0 315.36 L72 315.36 ZM0 315.36 L0 279.36 L0 315.36 ZM72 279.36 L72 315.36
							 L72 279.36 Z" class="st1"/>
				<path d="M72 315.36 L72 279.36" class="st2"/>
				<path d="M0 315.36 L0 279.36" class="st2"/>
				<path d="M0 279.36 L72 279.36" class="st2"/>
				<path d="M0 315.36 L72 315.36" class="st2"/>
				<rect x="7.76376" y="292.555" width="56.4725" height="9.59985" class="st3"/>
				<text x="7.76" y="299.76" class="st4">Power Manager</text>			</g>
		</g>
		<g id="shape75-108" transform="translate(36.12,351.475) scale(1,-1)">
			<title>Lifeline.75</title>
			<path d="M0 315.36 L0 36.24" class="st5"/>
		</g>
		<g id="shape76-111" transform="translate(347.875,54.12) rotate(90)">
			<title>Exec.Occurrence, Coregion.76</title>
			<path d="M0 315.36 L0 308.16 L54 308.16 L54 315.36 L0 315.36 Z" class="st8"/>
		</g>
		<g id="shape77-113" transform="translate(347.875,243.12) rotate(90)">
			<title>Exec.Occurrence, Coregion.77</title>
			<path d="M0 315.36 L0 308.16 L72.12 308.16 L72.12 315.36 L0 315.36 Z" class="st8"/>
		</g>
		<g id="group108-115" transform="translate(115.995,551.84) rotate(180)">
			<title>Note, Constraint.108</title>
			<g id="shape109-116" transform="translate(34.875,-13.5)">
				<title>Sheet.109</title>
			</g>
			<g id="shape110-117" transform="translate(34.875,-13.5)">
				<title>Sheet.110</title>
			</g>
			<g id="shape111-118" transform="translate(34.875,-13.5)">
				<title>Sheet.111</title>
			</g>
			<g id="shape112-119" transform="translate(34.875,-13.5)">
				<title>Sheet.112</title>
			</g>
			<g id="shape113-120" transform="translate(34.875,-13.5)">
				<title>Sheet.113</title>
			</g>
			<g id="shape114-121" transform="translate(34.875,-13.5)">
				<title>Sheet.114</title>
			</g>
			<g id="shape115-122" transform="translate(34.875,-13.5)">
				<title>Sheet.115</title>
			</g>
			<g id="shape116-123" transform="translate(34.875,-13.5)">
				<title>Sheet.116</title>
			</g>
			<g id="shape117-124" transform="translate(34.875,-13.5)">
				<title>Sheet.117</title>
			</g>
			<g id="shape118-125" transform="translate(34.875,-13.5)">
				<title>Sheet.118</title>
			</g>
			<g id="shape119-126" transform="translate(34.875,-13.5)">
				<title>Sheet.119</title>
			</g>
			<g id="shape124-127" transform="translate(-146.616,43.9601) rotate(-35.1356)">
				<title>Sheet.124</title>
				<path d="M0 315.36 L48.55 315.36" class="st9"/>
			</g>
			<g id="shape125-133" transform="translate(67.4964,603.71) rotate(180)">
				<title>Sheet.125</title>
			</g>
			<g id="shape126-136">
				<title>Sheet.126</title>
				<desc>Returns to low power mode</desc>
				<path d="M0 306.36 L9 315.36 L9 306.36 L0 306.36 ZM0 306.36 L9 306.36 L9 315.36 L69.75 315.36 L69.75 288.36 L0 288.36
							 L0 306.36 Z" class="st10"/>
				<text x="-65.75" y="-304.26" transform="rotate(180)" class="st4">Returns to low <tspan x="-65.75" dy="1.2em"
							class="st11">power mode</tspan></text>			</g>
		</g>
		<g id="group193-141" transform="translate(123.87,363.965) rotate(180)">
			<title>Note, Constraint.193</title>
			<g id="shape194-142" transform="translate(31.5,-21.375)">
				<title>Sheet.194</title>
			</g>
			<g id="shape195-143" transform="translate(31.5,-21.375)">
				<title>Sheet.195</title>
			</g>
			<g id="shape196-144" transform="translate(31.5,-21.375)">
				<title>Sheet.196</title>
			</g>
			<g id="shape197-145" transform="translate(31.5,-21.375)">
				<title>Sheet.197</title>
			</g>
			<g id="shape198-146" transform="translate(31.5,-21.375)">
				<title>Sheet.198</title>
			</g>
			<g id="shape199-147" transform="translate(31.5,-21.375)">
				<title>Sheet.199</title>
			</g>
			<g id="shape200-148" transform="translate(31.5,-21.375)">
				<title>Sheet.200</title>
			</g>
			<g id="shape201-149" transform="translate(31.5,-21.375)">
				<title>Sheet.201</title>
			</g>
			<g id="shape202-150" transform="translate(31.5,-21.375)">
				<title>Sheet.202</title>
			</g>
			<g id="shape203-151" transform="translate(31.5,-21.375)">
				<title>Sheet.203</title>
			</g>
			<g id="shape204-152" transform="translate(31.5,-21.375)">
				<title>Sheet.204</title>
			</g>
			<g id="shape205-153" transform="translate(-33.7506,-14.5506) rotate(-11.9414)">
				<title>Sheet.205</title>
				<path d="M0 315.36 L51.74 315.36" class="st9"/>
			</g>
			<g id="shape206-158" transform="translate(81.9542,587.96) rotate(180)">
				<title>Sheet.206</title>
			</g>
			<g id="shape207-161" transform="translate(-42.4156,0)">
				<title>Sheet.207</title>
				<desc>Initially in low power mode (suspended inside nrf_wait_for_ap...</desc>
				<path d="M0 306.36 L9 315.36 L9 306.36 L0 306.36 ZM0 306.36 L9 306.36 L9 315.36 L105.42 315.36 L105.42 272.61 L0
							 272.61 L0 306.36 Z" class="st10"/>
				<text x="-101.42" y="-301.18" transform="rotate(180)" class="st4">Initially in low power mode <tspan x="-101.42"
							dy="1.2em" class="st11">(</tspan>suspended inside <tspan x="-101.42" dy="1.2em" class="st11">nrf</tspan>_wait_for_app_event())</text>			</g>
		</g>
		<g id="shape1-167" transform="translate(158.97,-189.235)">
			<title>Message (seq.diag).1</title>
			<desc>ble_evt_dispatch()</desc>
			<path d="M0 315.36 L243.27 315.36" class="st6"/>
			<rect x="81.8515" y="301.555" width="65.3711" height="9.59985" class="st3"/>
			<text x="81.85" y="308.76" class="st4">ble_evt_dispatch()</text>		</g>
		<g id="shape44-174" transform="translate(374.897,504.475) rotate(179.931)">
			<title>Message (seq.diag).44</title>
			<path d="M0 315.36 L96.3 315.36" class="st12"/>
		</g>
		<g id="shape2-180" transform="translate(410.52,540.475) rotate(180)">
			<title>Message (seq.diag).2</title>
			<path d="M0 315.36 L251.55 315.36" class="st12"/>
		</g>
		<g id="group58-185" transform="translate(146.37,500.09) rotate(180)">
			<title>Note, Constraint.58</title>
			<g id="shape59-186" transform="translate(40.5,-9)">
				<title>Sheet.59</title>
			</g>
			<g id="shape60-187" transform="translate(40.5,-9)">
				<title>Sheet.60</title>
			</g>
			<g id="shape61-188" transform="translate(40.5,-9)">
				<title>Sheet.61</title>
			</g>
			<g id="shape62-189" transform="translate(40.5,-9)">
				<title>Sheet.62</title>
			</g>
			<g id="shape63-190" transform="translate(40.5,-9)">
				<title>Sheet.63</title>
			</g>
			<g id="shape64-191" transform="translate(40.5,-9)">
				<title>Sheet.64</title>
			</g>
			<g id="shape65-192" transform="translate(40.5,-9)">
				<title>Sheet.65</title>
			</g>
			<g id="shape66-193" transform="translate(40.5,-9)">
				<title>Sheet.66</title>
			</g>
			<g id="shape67-194" transform="translate(40.5,-9)">
				<title>Sheet.67</title>
			</g>
			<g id="shape68-195" transform="translate(40.5,-9)">
				<title>Sheet.68</title>
			</g>
			<g id="shape69-196" transform="translate(40.5,-9)">
				<title>Sheet.69</title>
			</g>
			<g id="shape70-197" transform="translate(179.878,589.238) rotate(153.77)">
				<title>Sheet.70</title>
				<path d="M0 315.36 L49.1 315.36" class="st9"/>
			</g>
			<g id="shape71-202" transform="translate(78.7464,612.71) rotate(180)">
				<title>Sheet.71</title>
			</g>
			<g id="shape72-205">
				<title>Sheet.72</title>
				<desc>SWI2_IRQHandler</desc>
				<path d="M0 306.36 L9 315.36 L9 306.36 L0 306.36 ZM0 306.36 L9 306.36 L9 315.36 L81 315.36 L81 297.36 L0 297.36 L0
							 306.36 Z" class="st10"/>
				<text x="-77" y="-303.96" transform="rotate(180)" class="st4">SWI2_IRQHandler</text>			</g>
		</g>
		<g id="shape208-209" transform="translate(414.12,351.475) scale(1,-1)">
			<title>Lifeline.208</title>
			<path d="M0 315.36 L0 36.24" class="st5"/>
		</g>
		<g id="shape209-212" transform="translate(725.875,126.12) rotate(90)">
			<title>Exec.Occurrence, Coregion.209</title>
			<path d="M0 315.36 L0 308.16 L99 308.16 L99 315.36 L0 315.36 Z" class="st8"/>
		</g>
		<g id="shape210-214" transform="translate(410.794,459.475) rotate(179.95)">
			<title>Message (seq.diag).42</title>
			<desc>ble_xxs_on_ble_evt()</desc>
			<path d="M0 315.36 L124.02 315.36" class="st6"/>
			<rect x="-105.569" y="-329.097" width="76.0471" height="9.59985" transform="rotate(-179.95)" class="st3"/>
			<text x="-105.57" y="-321.9" transform="rotate(-179.95)" class="st4">ble_xxs_on_ble_evt()</text>		</g>
		<g id="shape211-221" transform="translate(278.22,-108.235)">
			<title>Message (seq.diag).132</title>
			<path d="M0 315.36 L132.3 315.36" class="st12"/>
		</g>
		<g id="group91-226" transform="translate(432.12,549.475) rotate(180)">
			<title>Note, Constraint.91</title>
			<g id="shape92-227" transform="translate(31.5,-9)">
				<title>Sheet.92</title>
			</g>
			<g id="shape93-228" transform="translate(31.5,-9)">
				<title>Sheet.93</title>
			</g>
			<g id="shape94-229" transform="translate(31.5,-9)">
				<title>Sheet.94</title>
			</g>
			<g id="shape95-230" transform="translate(31.5,-9)">
				<title>Sheet.95</title>
			</g>
			<g id="shape96-231" transform="translate(31.5,-9)">
				<title>Sheet.96</title>
			</g>
			<g id="shape97-232" transform="translate(31.5,-9)">
				<title>Sheet.97</title>
			</g>
			<g id="shape98-233" transform="translate(31.5,-9)">
				<title>Sheet.98</title>
			</g>
			<g id="shape99-234" transform="translate(31.5,-9)">
				<title>Sheet.99</title>
			</g>
			<g id="shape101-235" transform="translate(31.5,-9)">
				<title>Sheet.101</title>
			</g>
			<g id="shape102-236" transform="translate(31.5,-9)">
				<title>Sheet.102</title>
			</g>
			<g id="shape103-237" transform="translate(333.51,215.586) rotate(73.2719)">
				<title>Sheet.103</title>
				<path d="M0 315.36 L63.59 315.36" class="st9"/>
			</g>
			<g id="shape104-242" transform="translate(60.7464,612.71) rotate(180)">
				<title>Sheet.104</title>
			</g>
			<g id="shape120-245">
				<title>Sheet.120</title>
				<desc>on_xxs_evt()</desc>
				<path d="M0 306.36 L9 315.36 L9 306.36 L0 306.36 ZM0 306.36 L9 306.36 L9 315.36 L63 315.36 L63 297.36 L0 297.36 L0
							 306.36 Z" class="st10"/>
				<text x="-59" y="-303.96" transform="rotate(180)" class="st4">on_xxs_evt()</text>			</g>
		</g>
	</g>
</svg>
