<?xml version="1.0" encoding="UTF-8" standalone="no"?>
<!DOCTYPE svg PUBLIC "-//W3C//DTD SVG 1.1//EN" "http://www.w3.org/Graphics/SVG/1.1/DTD/svg11.dtd">
<!-- Generated by Microsoft Visio, SVG Export blinky.svg Page-1 -->
<svg xmlns="http://www.w3.org/2000/svg" xmlns:xlink="http://www.w3.org/1999/xlink" xmlns:ev="http://www.w3.org/2001/xml-events"
		width="6.82643in" height="1.05486in" viewBox="0 0 491.503 75.9499" xml:space="preserve" color-interpolation-filters="sRGB"
		class="st10">
	<style type="text/css">
	<![CDATA[
		.st1 {fill:#c4dbf2;stroke:#000000;stroke-linecap:round;stroke-linejoin:round;stroke-width:0.24}
		.st2 {fill:#000000;font-family:Arial;font-size:1.00001em}
		.st3 {marker-end:url(#mrkr13-9);stroke:#000000;stroke-linecap:round;stroke-linejoin:round;stroke-width:0.24}
		.st4 {fill:#000000;fill-opacity:1;stroke:#000000;stroke-opacity:1;stroke-width:0.08695652173913}
		.st5 {font-size:1em}
		.st6 {fill:#4677bf;fill-opacity:1;stroke:#4677bf;stroke-opacity:1;stroke-width:0.16556291390728}
		.st7 {marker-end:url(#mrkr4-46);stroke:#000000;stroke-linecap:round;stroke-linejoin:round;stroke-width:0.5}
		.st8 {fill:#000000;fill-opacity:1;stroke:#000000;stroke-opacity:1;stroke-width:0.16556291390728}
		.st9 {fill:#ffffff;stroke:none;stroke-linecap:round;stroke-linejoin:round;stroke-width:0.24}
		.st10 {fill:none;fill-rule:evenodd;font-size:12px;overflow:visible;stroke-linecap:square;stroke-miterlimit:3}
	]]>
	</style>

	<defs id="Markers">
		<g id="lend13">
			<path d="M 3 1 L 0 0 L 3 -1 L 3 1 " style="stroke:none"/>
		</g>
		<marker id="mrkr13-9" class="st4" refX="-34.5" orient="auto" markerUnits="strokeWidth" overflow="visible">
			<use xlink:href="#lend13" transform="scale(-11.5,-11.5) "/>
		</marker>
		<g id="lend4">
			<path d="M 2 1 L 0 0 L 2 -1 L 2 1 " style="stroke:none"/>
		</g>
		<marker id="mrkr4-37" class="st6" refX="-12.08" orient="auto" markerUnits="strokeWidth" overflow="visible">
			<use xlink:href="#lend4" transform="scale(-6.04,-6.04) "/>
		</marker>
		<marker id="mrkr4-46" class="st8" refX="-12.08" orient="auto" markerUnits="strokeWidth" overflow="visible">
			<use xlink:href="#lend4" transform="scale(-6.04,-6.04) "/>
		</marker>
	</defs>
	<g>
		<title>Page-1</title>
		<g id="shape252-1" transform="translate(0.12,-13.62)">
			<title>Start/End-point</title>
			<desc>Start</desc>
			<path d="M13.5 75.95 L58.5 75.95 A13.5 13.5 -180 0 0 58.5 48.95 L13.5 48.95 A13.5 13.5 -180 1 0 13.5 75.95 Z"
					class="st1"/>
			<text x="23.33" y="66.05" class="st2">Start</text>		</g>
		<g id="shape256-4" transform="translate(72.12,-27.12)">
			<title>Flowline1</title>
			<path d="M0 75.95 L29.72 75.95" class="st3"/>
		</g>
		<g id="shape257-10" transform="translate(110.12,-0.12)">
			<title>Process.245</title>
			<desc>Set LED pins as output</desc>
			<rect x="0" y="21.9499" width="72" height="54" class="st1"/>
			<text x="13.65" y="38.15" class="st2">Set LED <tspan x="16.99" dy="1.2em" class="st5">pins as </tspan><tspan x="19.32"
						dy="1.2em" class="st5">output</tspan></text>		</g>
		<g id="shape258-15" transform="translate(182.12,-27.12)">
			<title>Flowline1.258</title>
			<path d="M0 75.95 L29.72 75.95" class="st3"/>
		</g>
		<g id="shape260-20" transform="translate(220.12,-0.12)">
			<title>Process.260</title>
			<desc>Toggle first LED</desc>
			<rect x="0" y="21.9499" width="72" height="54" class="st1"/>
			<text x="17.65" y="45.35" class="st2">Toggle <tspan x="13" dy="1.2em" class="st5">first LED</tspan></text>		</g>
		<g id="shape259-24" transform="translate(292.12,-27.12)">
			<title>Flowline1.259</title>
			<path d="M0 75.95 L101.72 75.95" class="st3"/>
		</g>
		<g id="shape261-29" transform="translate(402.12,-0.12)">
			<title>Process.261</title>
			<desc>Toggle last LED</desc>
			<rect x="0" y="21.9499" width="72" height="54" class="st1"/>
			<text x="17.65" y="45.35" class="st2">Toggle <tspan x="13.32" dy="1.2em" class="st5">last LED</tspan></text>		</g>
		<g id="group262-33" transform="translate(474.12,-14.62)">
			<title>Flowline2</title>
			<g id="shape263-34" transform="translate(-211.052,63.4499) rotate(90)">
				<title>Straight Edge.28</title>
				<desc>N</desc>
			</g>
			<g id="shape264-38" transform="translate(-21.7829,-2.36563) rotate(-3.26106)">
				<title>Straight Edge.29</title>
				<desc>N</desc>
			</g>
			<g id="shape262-41">
				<path d="M0 63.45 L5.31 63.45 A5.31496 5.31496 -180 0 0 10.63 58.13 L10.63 43.82 A18 18 -180 0 0 -7.37 25.82 L-260
							 25.82 A18 18 -180 0 0 -278 43.82 L-278 57.41" class="st7"/>
			</g>
		</g>
		<g id="shape265-47" transform="translate(330.12,-0.12)">
			<title>Process.104</title>
			<desc>(...)</desc>
			<rect x="0" y="21.9499" width="30" height="54" class="st9"/>
			<text x="6" y="52.55" class="st2">(...)</text>		</g>
	</g>
</svg>
