<?xml version="1.0" encoding="UTF-8" standalone="no"?>
<!DOCTYPE svg PUBLIC "-//W3C//DTD SVG 1.1//EN" "http://www.w3.org/Graphics/SVG/1.1/DTD/svg11.dtd">
<!-- Generated by Microsoft Visio, SVG Export NEW_blinky_freetos.svg Page-1 -->
<svg xmlns="http://www.w3.org/2000/svg" xmlns:xlink="http://www.w3.org/1999/xlink" xmlns:ev="http://www.w3.org/2001/xml-events"
		width="4.40752in" height="5.52841in" viewBox="0 0 317.341 398.046" xml:space="preserve" color-interpolation-filters="sRGB"
		class="st14">
	<style type="text/css">
	<![CDATA[
		.st1 {fill:#c4dbf2;stroke:#000000;stroke-linecap:round;stroke-linejoin:round;stroke-width:0.24}
		.st2 {fill:#000000;font-family:Arial;font-size:1.00001em}
		.st3 {font-size:1em}
		.st4 {marker-end:url(#mrkr20-47);stroke:#000000;stroke-dasharray:1.68,1.2;stroke-linecap:round;stroke-linejoin:round;stroke-width:0.24}
		.st5 {fill:#000000;fill-opacity:1;stroke:#000000;stroke-opacity:1;stroke-width:0.08695652173913}
		.st6 {fill:#c4dbf2;stroke:none;stroke-linecap:round;stroke-linejoin:round;stroke-width:0.24;visibility:hidden}
		.st7 {marker-end:url(#mrkr13-72);stroke:#000000;stroke-linecap:round;stroke-linejoin:round;stroke-width:0.24}
		.st8 {fill:#4677bf;fill-opacity:1;stroke:#4677bf;stroke-opacity:1;stroke-width:0.16556291390728}
		.st9 {marker-end:url(#mrkr4-111);stroke:#000000;stroke-linecap:round;stroke-linejoin:round;stroke-width:0.5}
		.st10 {fill:#000000;fill-opacity:1;stroke:#000000;stroke-opacity:1;stroke-width:0.16556291390728}
		.st11 {stroke:#000000;stroke-linecap:round;stroke-linejoin:round;stroke-width:1.5}
		.st12 {stroke:#3f3f3f;stroke-linecap:round;stroke-linejoin:round;stroke-width:1}
		.st13 {fill:#3f3f3f;font-family:Arial;font-size:1.00001em}
		.st14 {fill:none;fill-rule:evenodd;font-size:12px;overflow:visible;stroke-linecap:square;stroke-miterlimit:3}
	]]>
	</style>

	<defs id="Markers">
		<g id="lend20">
			<path
					d="M 0 0.75 C -0.414214 0.75 -0.75 0.414214 -0.75 0 -0.75 -0.414214 -0.414214 -0.75 0 -0.75 0.414214 -0.75 0.75 -0.414214 0.75 0 0.75 0.414214 0.414214 0.75 0 0.75 Z "
					style="stroke-linecap:round;stroke-linejoin:round;fill:none"/>
		</g>
		<marker id="mrkr20-47" class="st5" refX="-8.6250000000001" orient="auto" markerUnits="strokeWidth" overflow="visible">
			<use xlink:href="#lend20" transform="scale(-11.5,-11.5) "/>
		</marker>
		<g id="lend13">
			<path d="M 3 1 L 0 0 L 3 -1 L 3 1 " style="stroke:none"/>
		</g>
		<marker id="mrkr13-72" class="st5" refX="-34.5" orient="auto" markerUnits="strokeWidth" overflow="visible">
			<use xlink:href="#lend13" transform="scale(-11.5,-11.5) "/>
		</marker>
		<g id="lend4">
			<path d="M 2 1 L 0 0 L 2 -1 L 2 1 " style="stroke:none"/>
		</g>
		<marker id="mrkr4-102" class="st8" refX="-12.08" orient="auto" markerUnits="strokeWidth" overflow="visible">
			<use xlink:href="#lend4" transform="scale(-6.04,-6.04) "/>
		</marker>
		<marker id="mrkr4-111" class="st10" refX="-12.08" orient="auto" markerUnits="strokeWidth" overflow="visible">
			<use xlink:href="#lend4" transform="scale(-6.04,-6.04) "/>
		</marker>
	</defs>
	<g>
		<title>Page-1</title>
		<g id="shape285-1" transform="translate(87.2212,-370.926)">
			<title>Start/End-point</title>
			<desc>main</desc>
			<path d="M13.5 398.05 L58.5 398.05 A13.5 13.5 -180 0 0 58.5 371.05 L13.5 371.05 A13.5 13.5 -180 1 0 13.5 398.05 Z"
					class="st1"/>
			<text x="22.99" y="388.15" class="st2">main</text>		</g>
		<g id="shape286-4" transform="translate(73.2212,-295.666)">
			<title>Process.245</title>
			<desc>Configuration and task creation</desc>
			<rect x="0" y="344.046" width="100" height="54" class="st1"/>
			<text x="2.63" y="367.45" class="st2">Configuration and <tspan x="15.98" dy="1.2em" class="st3">task creation</tspan></text>		</g>
		<g id="shape287-8" transform="translate(87.2212,-237.556)">
			<title>Start/End-point.287</title>
			<desc>Start the scheduler</desc>
			<path d="M18 398.05 L54 398.05 A18 18.4252 -180 0 0 54 361.2 L18 361.2 A18 18.4252 -180 1 0 18 398.05 Z" class="st1"/>
			<text x="13.32" y="376.02" class="st2">Start the <tspan x="9.98" dy="1.2em" class="st3">scheduler</tspan></text>		</g>
		<g id="shape288-12" transform="translate(6.73425,-162.476)">
			<title>Start/End-point.288</title>
			<desc>vLed0Function</desc>
			<path d="M13.5 398.05 L86.5 398.05 A13.5 13.5 -180 0 0 86.5 371.05 L13.5 371.05 A13.5 13.5 -180 1 0 13.5 398.05 Z"
					class="st1"/>
			<text x="10.64" y="388.15" class="st2">vLed0Function</text>		</g>
		<g id="shape289-15" transform="translate(162.734,-161.447)">
			<title>Start/End-point.289</title>
			<desc>vLed1Callback</desc>
			<path d="M13.5 398.05 L86.5 398.05 A13.5 13.5 -180 0 0 86.5 371.05 L13.5 371.05 A13.5 13.5 -180 1 0 13.5 398.05 Z"
					class="st1"/>
			<text x="10.64" y="388.15" class="st2">vLed1Callback</text>		</g>
		<g id="shape290-18" transform="translate(20.7343,-81.2979)">
			<title>Process.290</title>
			<desc>Toggle LED0</desc>
			<rect x="0" y="344.046" width="72" height="54" class="st1"/>
			<text x="17.65" y="367.45" class="st2">Toggle <tspan x="20.99" dy="1.2em" class="st3">LED</tspan>0</text>		</g>
		<g id="shape291-22" transform="translate(176.734,-80.2696)">
			<title>Process.291</title>
			<desc>Toggle LED0</desc>
			<rect x="0" y="344.046" width="72" height="54" class="st1"/>
			<text x="17.65" y="367.45" class="st2">Toggle <tspan x="20.99" dy="1.2em" class="st3">LED</tspan>0</text>		</g>
		<g id="shape292-26" transform="translate(20.7343,-0.12)">
			<title>Process.292</title>
			<desc>Delay 500ms</desc>
			<rect x="0" y="344.046" width="72" height="54" class="st1"/>
			<text x="20.66" y="367.45" class="st2">Delay <tspan x="17.99" dy="1.2em" class="st3">500</tspan>ms</text>		</g>
		<g id="shape293-30" transform="translate(176.734,-12.5917)">
			<title>Start/End-point.293</title>
			<desc>End</desc>
			<path d="M13.5 398.05 L58.5 398.05 A13.5 13.5 -180 0 0 58.5 371.05 L13.5 371.05 A13.5 13.5 -180 1 0 13.5 398.05 Z"
					class="st1"/>
			<text x="25.32" y="388.15" class="st2">End</text>		</g>
		<g id="group294-33" transform="translate(317.221,451.575) rotate(180)">
			<title>Annotation/Comment</title>
			<g id="shape295-34" transform="translate(61,-32.3744)">
				<title>Sheet.295</title>
			</g>
			<g id="shape296-35" transform="translate(61,-32.3744)">
				<title>Sheet.296</title>
			</g>
			<g id="shape297-36" transform="translate(61,-32.3744)">
				<title>Sheet.297</title>
			</g>
			<g id="shape298-37" transform="translate(61,-32.3744)">
				<title>Sheet.298</title>
			</g>
			<g id="shape299-38" transform="translate(61,-32.3744)">
				<title>Sheet.299</title>
			</g>
			<g id="shape300-39" transform="translate(61,-32.3744)">
				<title>Sheet.300</title>
			</g>
			<g id="shape301-40" transform="translate(61,-32.3744)">
				<title>Sheet.301</title>
			</g>
			<g id="shape302-41" transform="translate(61,-32.3744)">
				<title>Sheet.302</title>
			</g>
			<g id="shape303-42" transform="translate(-67.2223,-11.1568) rotate(-18.7918)">
				<title>Sheet.303</title>
				<path d="M0 398.05 L30.68 398.05" class="st4"/>
			</g>
			<g id="shape304-48" transform="translate(-136.318,19.9752) rotate(-29.7171)">
				<title>Sheet.304</title>
				<path d="M0 398.05 L39.38 398.05" class="st4"/>
			</g>
			<g id="shape305-53" transform="translate(61,-32.3744)">
				<title>Sheet.305</title>
			</g>
			<g id="shape306-54" transform="translate(-138.445,21.1976) rotate(-30.0701)">
				<title>Sheet.306</title>
				<path d="M0 398.05 L110.02 398.05" class="st4"/>
			</g>
			<g id="shape307-59" transform="translate(119.746,731.343) rotate(180)">
				<title>Sheet.307</title>
				<rect x="0" y="333.297" width="117.493" height="64.7487" class="st6"/>
			</g>
			<g id="shape308-61">
				<title>Sheet.308</title>
				<desc>When main finishes, its stack is cleared and used by ISR and ...</desc>
				<path d="M0 389.05 L9 398.05 L9 389.05 L0 389.05 ZM0 389.05 L9 389.05 L9 398.05 L122 398.05 L122 333.3 L0 333.3 L0
							 389.05 Z" class="st1"/>
				<text x="-118" y="-383.67" transform="rotate(180)" class="st2">When main finishes, <tspan x="-118" dy="1.2em"
							class="st3">its stack is cleared </tspan><tspan x="-118" dy="1.2em" class="st3">and used by ISR and </tspan><tspan
							x="-118" dy="1.2em" class="st3">system</tspan>.</text>			</g>
		</g>
		<g id="shape310-67" transform="translate(521.267,27.12) rotate(90)">
			<title>Flowline1</title>
			<path d="M0 398.05 L12.98 398.05" class="st7"/>
		</g>
		<g id="shape311-73" transform="translate(521.267,102.38) rotate(90)">
			<title>Flowline1.311</title>
			<path d="M0 398.05 L12.98 398.05" class="st7"/>
		</g>
		<g id="shape312-78" transform="translate(454.78,235.57) rotate(90)">
			<title>Flowline1.312</title>
			<path d="M0 398.05 L18.9 398.05" class="st7"/>
		</g>
		<g id="shape313-83" transform="translate(454.78,316.748) rotate(90)">
			<title>Flowline1.313</title>
			<path d="M0 398.05 L18.9 398.05" class="st7"/>
		</g>
		<g id="shape314-88" transform="translate(610.78,236.598) rotate(90)">
			<title>Flowline1.314</title>
			<path d="M0 398.05 L18.9 398.05" class="st7"/>
		</g>
		<g id="shape315-93" transform="translate(610.78,317.776) rotate(90)">
			<title>Flowline1.315</title>
			<path d="M0 398.05 L32.4 398.05" class="st7"/>
		</g>
		<g id="group316-98" transform="translate(80.2343,-27.12)">
			<title>Flowline2</title>
			<g id="shape317-99" transform="translate(12.5,705.912) rotate(180)">
				<title>Straight Edge.28</title>
				<desc>N</desc>
			</g>
			<g id="shape318-103" transform="translate(-5.50363,9.00182)">
				<title>Straight Edge.29</title>
				<desc>N</desc>
			</g>
			<g id="shape316-106">
				<path d="M12.5 398.05 L34.5 398.05 A18 18 -180 0 0 52.5 380.05 L52.5 334.87 A18 18 -180 0 0 34.5 316.87 L18.54 316.87"
						class="st9"/>
			</g>
		</g>
		<g id="shape319-112" transform="translate(0.75,-225.298)">
			<title>Sheet.319</title>
			<path d="M0 398.05 L280 398.05" class="st11"/>
		</g>
		<g id="shape283-115" transform="translate(0.75,-202.148)">
			<title>Reverse</title>
			<desc>Task</desc>
			<path d="M0 402.3 L0 398.05 L111.97 398.05 L111.97 402.3" class="st12"/>
			<text x="42.98" y="395.31" class="st13">Task</text>		</g>
		<g id="shape324-119" transform="translate(156.75,-202.621)">
			<title>Reverse.324</title>
			<desc>Timer callback</desc>
			<path d="M0 402.3 L0 398.05 L111.97 398.05 L111.97 402.3" class="st12"/>
			<text x="17.31" y="395.31" class="st13">Timer callback</text>		</g>
	</g>
</svg>
