<?xml version="1.0" encoding="UTF-8" standalone="no"?>
<!DOCTYPE svg PUBLIC "-//W3C//DTD SVG 1.1//EN" "http://www.w3.org/Graphics/SVG/1.1/DTD/svg11.dtd">
<!-- Generated by Microsoft Visio, SVG Export bootloader_process.svg Page-1 -->
<svg xmlns="http://www.w3.org/2000/svg" xmlns:xlink="http://www.w3.org/1999/xlink" xmlns:ev="http://www.w3.org/2001/xml-events"
		width="8.38032in" height="7.82972in" viewBox="0 0 603.383 563.74" xml:space="preserve" color-interpolation-filters="sRGB"
		class="st11">
	<style type="text/css">
	<![CDATA[
		.st1 {fill:#4677bf;fill-opacity:1;stroke:#4677bf;stroke-opacity:1;stroke-width:0.16556291390728}
		.st2 {marker-end:url(#mrkr4-20);marker-start:url(#mrkr4-18);stroke:#000000;stroke-linecap:round;stroke-linejoin:round;stroke-width:0.5}
		.st3 {fill:#000000;fill-opacity:1;stroke:#000000;stroke-opacity:1;stroke-width:0.16556291390728}
		.st4 {fill:#ffffff;stroke:none;stroke-linecap:butt;stroke-width:7.2}
		.st5 {fill:#000000;font-family:Arial;font-size:1.00001em}
		.st6 {font-size:1em}
		.st7 {fill:#c4dbf2;stroke:#000000;stroke-linecap:round;stroke-linejoin:round;stroke-width:0.24}
		.st8 {marker-end:url(#mrkr13-32);stroke:#000000;stroke-linecap:round;stroke-linejoin:round;stroke-width:0.24}
		.st9 {fill:#000000;fill-opacity:1;stroke:#000000;stroke-opacity:1;stroke-width:0.08695652173913}
		.st10 {marker-end:url(#mrkr4-20);stroke:#000000;stroke-linecap:round;stroke-linejoin:round;stroke-width:0.5}
		.st11 {fill:none;fill-rule:evenodd;font-size:12px;overflow:visible;stroke-linecap:square;stroke-miterlimit:3}
	]]>
	</style>

	<defs id="Markers">
		<g id="lend4">
			<path d="M 2 1 L 0 0 L 2 -1 L 2 1 " style="stroke:none"/>
		</g>
		<marker id="mrkr4-5" class="st1" refX="12.08" orient="auto" markerUnits="strokeWidth" overflow="visible">
			<use xlink:href="#lend4" transform="scale(6.04) "/>
		</marker>
		<marker id="mrkr4-7" class="st1" refX="-12.08" orient="auto" markerUnits="strokeWidth" overflow="visible">
			<use xlink:href="#lend4" transform="scale(-6.04,-6.04) "/>
		</marker>
		<marker id="mrkr4-18" class="st3" refX="11.36" orient="auto" markerUnits="strokeWidth" overflow="visible">
			<use xlink:href="#lend4" transform="scale(6.04) "/>
		</marker>
		<marker id="mrkr4-20" class="st3" refX="-12.08" orient="auto" markerUnits="strokeWidth" overflow="visible">
			<use xlink:href="#lend4" transform="scale(-6.04,-6.04) "/>
		</marker>
		<g id="lend13">
			<path d="M 3 1 L 0 0 L 3 -1 L 3 1 " style="stroke:none"/>
		</g>
		<marker id="mrkr13-32" class="st9" refX="-34.5" orient="auto" markerUnits="strokeWidth" overflow="visible">
			<use xlink:href="#lend13" transform="scale(-11.5,-11.5) "/>
		</marker>
	</defs>
	<g>
		<title>Page-1</title>
		<g id="group30-1" transform="translate(155.612,-449.62)">
			<title>Flowline2.276</title>
			<desc>DFU controller requests and receives info</desc>
			<g id="shape31-2" transform="translate(-443.528,228.964) rotate(-56.3022)">
				<title>Straight Edge.28</title>
				<desc>N</desc>
			</g>
			<g id="shape32-8" transform="translate(25.0036,1118.48) rotate(180)">
				<title>Straight Edge.29</title>
				<desc>N</desc>
			</g>
			<g id="shape30-12">
				<path d="M1.32 563.74 L0.96 563.74 L-42.25 563.74 A18 18 0 0 1 -60.25 545.74 L-60.25 524.24 A18 18 0 0 1 -42.25 506.24
							 L2.75 506.24 A15.25 15.25 0 0 1 18 521.49 L18 530.7" class="st2"/>
				<rect x="-112.61" y="520.57" width="126.711" height="28.8001" class="st4"/>
				<text x="-112.61" y="531.37" class="st5">DFU controller requests  <tspan x="-94.62" dy="1.2em" class="st6">and receives info</tspan></text>			</g>
		</g>
		<g id="shape1-24" transform="translate(162.612,-536.62)">
			<title>Start/End-point</title>
			<desc>DFU mode</desc>
			<path d="M13.5 563.74 L58.5 563.74 A13.5 13.5 -180 0 0 58.5 536.74 L13.5 536.74 A13.5 13.5 -180 1 0 13.5 563.74 Z"
					class="st7"/>
			<text x="6.99" y="553.84" class="st5">DFU mode</text>		</g>
		<g id="shape2-27" transform="translate(762.352,27.12) rotate(90)">
			<title>Flowline1</title>
			<desc>DFU controller connects</desc>
			<path d="M0 563.74 L51.72 563.74" class="st8"/>
			<rect x="-629.766" y="12.8002" width="128.715" height="14.4001" transform="rotate(-90)" class="st4"/>
			<text x="-629.77" y="23.6" transform="rotate(-90)" class="st5">DFU controller connects</text>		</g>
		<g id="shape3-35" transform="translate(162.612,-422.62)">
			<title>Process.296</title>
			<desc>Waiting for data</desc>
			<rect x="0" y="509.74" width="72" height="54" class="st7"/>
			<text x="7.32" y="533.14" class="st5">Waiting for <tspan x="24.32" dy="1.2em" class="st6">data</tspan></text>		</g>
		<g id="shape4-39" transform="translate(762.352,141.12) rotate(90)">
			<title>Flowline1.250</title>
			<desc>DFU controller request: Create init packet</desc>
			<path d="M0 563.74 L51.72 563.74" class="st8"/>
			<rect x="-625.762" y="14.1001" width="124.044" height="28.8001" transform="rotate(-90)" class="st4"/>
			<text x="-625.76" y="24.9" transform="rotate(-90)" class="st5">DFU controller request: <tspan x="-610.43" dy="1.2em"
						class="st6">Create init packet</tspan></text>		</g>
		<g id="shape5-47" transform="translate(162.612,-308.62)">
			<title>Process.251</title>
			<desc>Receive init packet</desc>
			<rect x="0" y="509.74" width="72" height="54" class="st7"/>
			<text x="4.99" y="533.14" class="st5">Receive init <tspan x="18.32" dy="1.2em" class="st6">packet</tspan></text>		</g>
		<g id="shape6-51" transform="translate(762.352,255.12) rotate(90)">
			<title>Flowline1.252</title>
			<desc>DFU controller request: Execute</desc>
			<path d="M0 563.74 L51.72 563.74" class="st8"/>
			<rect x="-625.762" y="13.6001" width="124.044" height="28.8001" transform="rotate(-90)" class="st4"/>
			<text x="-625.76" y="24.4" transform="rotate(-90)" class="st5">DFU controller request: <tspan x="-585.42" dy="1.2em"
						class="st6">Execute</tspan></text>		</g>
		<g id="shape7-59" transform="translate(150.112,-175.87)">
			<title>Decision.295</title>
			<desc>Prevalidate</desc>
			<path d="M0 527.36 L48.5 490.99 L97 527.36 L48.5 563.74 L0 527.36 Z" class="st7"/>
			<text x="18.48" y="530.97" class="st5">Prevalidate</text>		</g>
		<g id="group8-62" transform="translate(143.862,-212.245)">
			<title>Flowline2</title>
			<desc>Prevalidation ok</desc>
			<g id="shape9-63" transform="translate(18.75,-217.373)">
				<title>Straight Edge.28</title>
				<desc>N</desc>
			</g>
			<g id="shape10-66" transform="translate(24.2536,1118.48) rotate(180)">
				<title>Straight Edge.29</title>
				<desc>N</desc>
			</g>
			<g id="shape8-69">
				<path d="M6.25 563.74 L-30.5 563.74 A18 18 0 0 1 -48.5 545.74 L-48.5 355.36 A18 18 0 0 1 -30.5 337.36 L12.71 337.36"
						class="st10"/>
				<rect x="-83.1926" y="429.903" width="69.3762" height="28.8001" class="st4"/>
				<text x="-83.19" y="440.7" class="st5">Prevalidation <tspan x="-54.84" dy="1.2em" class="st6">ok</tspan></text>			</g>
		</g>
		<g id="group11-77" transform="translate(247.112,-212.245)">
			<title>Flowline2.257</title>
			<desc>Prevalidation failed</desc>
			<g id="shape12-78" transform="translate(-84.5,-328.873)">
				<title>Straight Edge.28</title>
				<desc>N</desc>
			</g>
			<g id="shape13-81" transform="translate(554.738,545.736) rotate(90)">
				<title>Straight Edge.29</title>
				<desc>N</desc>
			</g>
			<g id="shape11-84">
				<path d="M0 563.74 L0 603.6 A18 18 0 0 1 -18 621.6 L-188.75 621.6 A18 18 0 0 1 -206.75 603.6 L-206.75 243.86 A18
							 18 0 0 1 -188.75 225.86 L-90.54 225.86" class="st10"/>
				<rect x="-241.443" y="480.508" width="69.3762" height="28.8001" class="st4"/>
				<text x="-241.44" y="491.31" class="st5">Prevalidation <tspan x="-221.1" dy="1.2em" class="st6">failed</tspan></text>			</g>
		</g>
		<g id="shape14-92" transform="translate(412.612,-422.62)">
			<title>Process.260</title>
			<desc>Receive firmware</desc>
			<rect x="0" y="509.74" width="72" height="54" class="st7"/>
			<text x="14.32" y="533.14" class="st5">Receive <tspan x="13" dy="1.2em" class="st6">firmware</tspan></text>		</g>
		<g id="shape15-96" transform="translate(234.612,-449.62)">
			<title>Flowline1.261</title>
			<desc>DFU controller request: Create data object</desc>
			<path d="M0 563.74 L169.72 563.74" class="st8"/>
			<rect x="26.9778" y="548.84" width="124.044" height="28.8001" class="st4"/>
			<text x="26.98" y="559.64" class="st5">DFU controller request:  <tspan x="39.97" dy="1.2em" class="st6">Create data object</tspan></text>		</g>
		<g id="shape16-104" transform="translate(400.112,-301.477)">
			<title>Decision.262</title>
			<desc>Is data complete</desc>
			<path d="M0 527.36 L48.5 490.99 L97 527.36 L48.5 563.74 L0 527.36 Z" class="st7"/>
			<text x="30.49" y="523.77" class="st5">Is data <tspan x="24.15" dy="1.2em" class="st6">complete</tspan></text>		</g>
		<g id="shape17-108" transform="translate(1012.35,141.12) rotate(90)">
			<title>Flowline1.263</title>
			<desc>DFU controller request: Execute</desc>
			<path d="M0 563.74 L40.11 563.74" class="st8"/>
			<rect x="-625.762" y="8.10013" width="124.044" height="28.8001" transform="rotate(-90)" class="st4"/>
			<text x="-625.76" y="18.9" transform="rotate(-90)" class="st5">DFU controller request: <tspan x="-585.42" dy="1.2em"
						class="st6">Execute</tspan></text>		</g>
		<g id="shape18-116" transform="translate(400.112,-175.87)">
			<title>Decision.264</title>
			<desc>Postvalidate</desc>
			<path d="M0 527.36 L48.5 490.99 L97 527.36 L48.5 563.74 L0 527.36 Z" class="st7"/>
			<text x="15.81" y="530.97" class="st5">Postvalidate</text>		</g>
		<g id="shape19-119" transform="translate(1012.35,262.263) rotate(90)">
			<title>Flowline1.265</title>
			<desc>Data complete</desc>
			<path d="M0 563.74 L44.58 563.74" class="st8"/>
			<rect x="-604.096" y="12.8002" width="77.3742" height="14.4001" transform="rotate(-90)" class="st4"/>
			<text x="-604.1" y="23.6" transform="rotate(-90)" class="st5">Data complete</text>		</g>
		<g id="group20-126" transform="translate(497.112,-337.852)">
			<title>Flowline2.266</title>
			<desc>Data not complete</desc>
			<g id="shape21-127" transform="translate(281.238,424.972) rotate(90)">
				<title>Straight Edge.28</title>
				<desc>N</desc>
			</g>
			<g id="shape22-130" transform="translate(-18.0036,9.00182)">
				<title>Straight Edge.29</title>
				<desc>N</desc>
			</g>
			<g id="shape20-133">
				<path d="M0 563.74 L12.07 563.74 A12.0715 12.0715 -180 0 0 24.14 551.67 L24.14 419.47 A18 18 -180 0 0 6.14 401.47
							 L-261.75 401.47 A11.75 11.75 -180 0 0 -273.5 413.22 L-273.5 418.93" class="st10"/>
				<rect x="-0.100578" y="457.803" width="48.6922" height="28.8001" class="st4"/>
				<text x="1.56" y="468.6" class="st5">Data not <tspan x="-0.1" dy="1.2em" class="st6">complete</tspan></text>			</g>
		</g>
		<g id="shape23-141" transform="translate(1012.35,387.87) rotate(90)">
			<title>Flowline1.269</title>
			<desc>Postvalidation ok</desc>
			<path d="M0 563.74 L51.72 563.74" class="st8"/>
			<rect x="-601.097" y="11.6001" width="74.7144" height="28.8001" transform="rotate(-90)" class="st4"/>
			<text x="-601.1" y="22.4" transform="rotate(-90)" class="st5">Postvalidation <tspan x="-570.08" dy="1.2em" class="st6">ok</tspan></text>		</g>
		<g id="shape24-149" transform="translate(412.612,-61.87)">
			<title>Process.270</title>
			<desc>Copy new firmware</desc>
			<rect x="0" y="509.74" width="72" height="54" class="st7"/>
			<text x="9.32" y="533.14" class="st5">Copy new <tspan x="13" dy="1.2em" class="st6">firmware</tspan></text>		</g>
		<g id="shape25-153" transform="translate(412.612,-0.12)">
			<title>Start/End-point.271</title>
			<desc>Reset device</desc>
			<path d="M18 563.74 L54 563.74 A18 18.9 -180 0 0 54 525.94 L18 525.94 A18 18.9 -180 1 0 18 563.74 Z" class="st7"/>
			<text x="20.33" y="541.24" class="st5">Reset <tspan x="18.66" dy="1.2em" class="st6">device</tspan></text>		</g>
		<g id="shape26-157" transform="translate(1012.35,501.87) rotate(90)">
			<title>Flowline1.272</title>
			<path d="M0 563.74 L15.67 563.74" class="st8"/>
		</g>
		<g id="group27-162" transform="translate(497.112,-212.245)">
			<title>Flowline2.273</title>
			<desc>Postvalidation failed</desc>
			<g id="shape28-163" transform="translate(-262.5,780.603) rotate(180)">
				<title>Straight Edge.28</title>
				<desc>N</desc>
			</g>
			<g id="shape29-166" transform="translate(-28.1718,14.0859)">
				<title>Straight Edge.29</title>
				<desc>N</desc>
			</g>
			<g id="shape27-169">
				<path d="M0 563.74 L45.67 563.74 A18 18 -180 0 0 63.67 545.74 L63.67 243.86 A18 18 -180 0 0 45.67 225.86 L-256.46
							 225.86" class="st10"/>
				<rect x="25.8883" y="494.195" width="74.7144" height="28.8001" class="st4"/>
				<text x="25.89" y="505" class="st5">Postvalidation <tspan x="48.9" dy="1.2em" class="st6">failed</tspan></text>			</g>
		</g>
	</g>
</svg>
