<?xml version="1.0" encoding="UTF-8" standalone="no"?>
<!DOCTYPE svg PUBLIC "-//W3C//DTD SVG 1.1//EN" "http://www.w3.org/Graphics/SVG/1.1/DTD/svg11.dtd">
<!-- Generated by Microsoft Visio, SVG Export command_and_response_diagram.svg Page-1 -->
<svg xmlns="http://www.w3.org/2000/svg" xmlns:xlink="http://www.w3.org/1999/xlink" xmlns:ev="http://www.w3.org/2001/xml-events"
		width="6.84194in" height="3.19778in" viewBox="0 0 492.62 230.24" xml:space="preserve" color-interpolation-filters="sRGB"
		class="st15">
	<style type="text/css">
	<![CDATA[
		.st1 {fill:#dc582a;fill-opacity:0.5;stroke:#000000;stroke-linecap:round;stroke-linejoin:round;stroke-opacity:0.098;stroke-width:0.24}
		.st2 {fill:#c4dbf2;stroke:#000000;stroke-linecap:round;stroke-linejoin:round;stroke-opacity:0.098;stroke-width:0.24}
		.st3 {fill:#ffffff;fill-opacity:0}
		.st4 {stroke:#000000;stroke-linecap:round;stroke-linejoin:round;stroke-width:0.24}
		.st5 {fill:#000000;font-family:Arial;font-size:1.00001em}
		.st6 {font-size:1em}
		.st7 {stroke:#000000;stroke-dasharray:3.6,2.16;stroke-linecap:round;stroke-linejoin:round;stroke-width:0.24}
		.st8 {marker-end:url(#mrkr13-80);stroke:#000000;stroke-linecap:round;stroke-linejoin:round;stroke-width:0.24}
		.st9 {fill:#000000;fill-opacity:1;stroke:#000000;stroke-opacity:1;stroke-width:0.08695652173913}
		.st10 {stroke:#000000;stroke-linecap:round;stroke-linejoin:round;stroke-width:0.25}
		.st11 {marker-end:url(#mrkr5-107);marker-start:url(#mrkr5-105);stroke:#000000;stroke-linecap:round;stroke-linejoin:round;stroke-width:0.75}
		.st12 {fill:#000000;fill-opacity:1;stroke:#000000;stroke-opacity:1;stroke-width:0.22935779816514}
		.st13 {fill:none;stroke:none;stroke-linecap:round;stroke-linejoin:round;stroke-width:0.75}
		.st14 {fill:#000000;font-family:Arial;font-size:1.00001em;font-weight:bold}
		.st15 {fill:none;fill-rule:evenodd;font-size:12px;overflow:visible;stroke-linecap:square;stroke-miterlimit:3}
	]]>
	</style>

	<defs id="Markers">
		<g id="lend13">
			<path d="M 3 1 L 0 0 L 3 -1 L 3 1 " style="stroke:none"/>
		</g>
		<marker id="mrkr13-80" class="st9" refX="-34.5" orient="auto" markerUnits="strokeWidth" overflow="visible">
			<use xlink:href="#lend13" transform="scale(-11.5,-11.5) "/>
		</marker>
		<g id="lend5">
			<path d="M 2 1 L 0 0 L 1.98117 -0.993387 C 1.67173 -0.364515 1.67301 0.372641 1.98465 1.00043 " style="stroke:none"/>
		</g>
		<marker id="mrkr5-105" class="st12" refX="7.15" orient="auto" markerUnits="strokeWidth" overflow="visible">
			<use xlink:href="#lend5" transform="scale(4.36) "/>
		</marker>
		<marker id="mrkr5-107" class="st12" refX="-7.63" orient="auto" markerUnits="strokeWidth" overflow="visible">
			<use xlink:href="#lend5" transform="scale(-4.36,-4.36) "/>
		</marker>
	</defs>
	<g>
		<title>Page-1</title>
		<g id="shape285-1" transform="translate(2.5,-0.12)">
			<title>Sheet.285</title>
			<rect x="0" y="0.240003" width="145" height="230" rx="11.3386" ry="11.3386" class="st1"/>
		</g>
		<g id="shape284-3" transform="translate(202.5,-0.12)">
			<title>Sheet.284</title>
			<rect x="0" y="0.240003" width="290" height="230" rx="11.3386" ry="11.3386" class="st2"/>
		</g>
		<g id="group227-5" transform="translate(22.5,-182.12)">
			<title>Sheet.227</title>
			<g id="shape228-6" transform="translate(110,0)">
				<title>Sheet.228</title>
				<path d="M0 230.24 L0 194.24 L0 230.24 Z" class="st3"/>
			</g>
			<g id="shape229-9">
				<title>Sheet.229</title>
				<path d="M110 230.24 L0 230.24 L110 230.24 Z" class="st3"/>
			</g>
			<g id="shape230-12">
				<title>Sheet.230</title>
				<path d="M110 230.24 L0 230.24 L110 230.24 Z" class="st3"/>
			</g>
			<g id="shape231-15">
				<title>Sheet.231</title>
				<path d="M110 230.24 L0 230.24 L110 230.24 Z" class="st3"/>
			</g>
			<g id="shape232-18">
				<title>Sheet.232</title>
				<desc>Application chip</desc>
				<path d="M110 230.24 L110 194.24 L0 194.24 L0 230.24 L110 230.24 ZM0 230.24 L0 194.24 L0 230.24 ZM110 194.24 L110
							 230.24 L110 194.24 Z" class="st3"/>
				<path d="M110 230.24 L110 194.24" class="st4"/>
				<path d="M0 230.24 L0 194.24" class="st4"/>
				<path d="M0 194.24 L110 194.24" class="st4"/>
				<path d="M0 230.24 L110 230.24" class="st4"/>
				<text x="12.97" y="215.84" class="st5">Application chip</text>			</g>
		</g>
		<g id="group233-25" transform="translate(217.01,-182.12)">
			<title>Sheet.233</title>
			<g id="shape234-26" transform="translate(100,0)">
				<title>Sheet.234</title>
				<path d="M0 230.24 L0 194.24 L0 230.24 Z" class="st3"/>
			</g>
			<g id="shape235-29">
				<title>Sheet.235</title>
				<path d="M100 230.24 L0 230.24 L100 230.24 Z" class="st3"/>
			</g>
			<g id="shape236-32">
				<title>Sheet.236</title>
				<path d="M100 230.24 L0 230.24 L100 230.24 Z" class="st3"/>
			</g>
			<g id="shape237-35">
				<title>Sheet.237</title>
				<path d="M100 230.24 L0 230.24 L100 230.24 Z" class="st3"/>
			</g>
			<g id="shape238-38">
				<title>Sheet.238</title>
				<desc>Connectivity codec</desc>
				<path d="M100 230.24 L100 194.24 L0 194.24 L0 230.24 L100 230.24 ZM0 230.24 L0 194.24 L0 230.24 ZM100 194.24 L100
							 230.24 L100 194.24 Z" class="st3"/>
				<path d="M100 230.24 L100 194.24" class="st4"/>
				<path d="M0 230.24 L0 194.24" class="st4"/>
				<path d="M0 194.24 L100 194.24" class="st4"/>
				<path d="M0 230.24 L100 230.24" class="st4"/>
				<text x="17.32" y="208.64" class="st5">Connectivity <tspan x="33.99" dy="1.2em" class="st6">codec</tspan></text>			</g>
		</g>
		<g id="group239-46" transform="translate(377.01,-182.12)">
			<title>Sheet.239</title>
			<g id="shape240-47" transform="translate(100,0)">
				<title>Sheet.240</title>
				<path d="M0 230.24 L0 194.24 L0 230.24 Z" class="st3"/>
			</g>
			<g id="shape241-50">
				<title>Sheet.241</title>
				<path d="M100 230.24 L0 230.24 L100 230.24 Z" class="st3"/>
			</g>
			<g id="shape242-53">
				<title>Sheet.242</title>
				<path d="M100 230.24 L0 230.24 L100 230.24 Z" class="st3"/>
			</g>
			<g id="shape243-56">
				<title>Sheet.243</title>
				<path d="M100 230.24 L0 230.24 L100 230.24 Z" class="st3"/>
			</g>
			<g id="shape244-59">
				<title>Sheet.244</title>
				<desc>SoftDevice</desc>
				<path d="M100 230.24 L100 194.24 L0 194.24 L0 230.24 L100 230.24 ZM0 230.24 L0 194.24 L0 230.24 ZM100 194.24 L100
							 230.24 L100 194.24 Z" class="st3"/>
				<path d="M100 230.24 L100 194.24" class="st4"/>
				<path d="M0 230.24 L0 194.24" class="st4"/>
				<path d="M0 194.24 L100 194.24" class="st4"/>
				<path d="M0 230.24 L100 230.24" class="st4"/>
				<text x="20.99" y="215.84" class="st5">SoftDevice</text>			</g>
		</g>
		<g id="shape245-66" transform="translate(77.5,278.36) scale(1,-1)">
			<title>Lifeline.42</title>
			<path d="M0 230.24 L0 48.24" class="st7"/>
		</g>
		<g id="shape246-69" transform="translate(267.01,278.36) scale(1,-1)">
			<title>Lifeline.246</title>
			<path d="M0 230.24 L0 48.24" class="st7"/>
		</g>
		<g id="shape247-72" transform="translate(427.01,278.36) scale(1,-1)">
			<title>Lifeline.247</title>
			<path d="M0 230.24 L0 48.24" class="st7"/>
		</g>
		<g id="shape249-75" transform="translate(267.01,-113.12)">
			<title>Sheet.249</title>
			<path d="M0 230.24 L151.72 230.24" class="st8"/>
		</g>
		<g id="shape248-81" transform="translate(77.5,-137.12)">
			<title>Sheet.248</title>
			<path d="M0 230.24 L181.23 230.24" class="st8"/>
		</g>
		<g id="shape250-86" transform="translate(427.01,377.36) rotate(180)">
			<title>Sheet.250</title>
			<path d="M0 230.24 L151.72 230.24" class="st8"/>
		</g>
		<g id="shape251-91" transform="translate(267.01,404.36) rotate(180)">
			<title>Sheet.251</title>
			<path d="M0 230.24 L181.23 230.24" class="st8"/>
		</g>
		<g id="shape267-96" transform="translate(76.5,404.36) rotate(180)">
			<title>Sheet.267</title>
			<path d="M0 230.24 L36 230.24" class="st10"/>
		</g>
		<g id="shape268-99" transform="translate(-189.74,174.12) rotate(-90)">
			<title>Sheet.268</title>
			<path d="M5.36 230.24 L5.72 230.24 L75.28 230.24" class="st11"/>
		</g>
		<g id="shape269-108" transform="translate(40.5,-137.12)">
			<title>Sheet.269</title>
			<path d="M0 230.24 L36 230.24" class="st10"/>
		</g>
		<g id="shape277-111" transform="translate(7.5,-142.12)">
			<title>Sheet.277</title>
			<desc>Command execution</desc>
			<rect x="0" y="202.24" width="70" height="28" class="st13"/>
			<text x="5.67" y="212.64" class="st14">Command <tspan x="6.99" dy="1.2em" class="st6">execution</tspan></text>		</g>
		<g id="shape279-115" transform="translate(267.01,-123.12)">
			<title>Sheet.279</title>
			<desc>Command decode</desc>
			<rect x="0" y="202.24" width="130" height="28" class="st13"/>
			<text x="12.99" y="219.84" class="st14">Command decode</text>		</g>
		<g id="shape280-118" transform="translate(267.01,-55.12)">
			<title>Sheet.280</title>
			<desc>Response encode</desc>
			<rect x="0" y="202.24" width="130" height="28" class="st13"/>
			<text x="13.65" y="219.84" class="st14">Response encode</text>		</g>
		<g id="shape298-121" transform="translate(271.5,-107.826)">
			<title>Sheet.298</title>
			<desc>Function call</desc>
			<rect x="0" y="210.24" width="152" height="20" class="st13"/>
			<text x="42.32" y="223.84" class="st5">Function call</text>		</g>
		<g id="shape300-124" transform="translate(271.5,-78.4141)">
			<title>Sheet.300</title>
			<desc>SoftDevice response</desc>
			<rect x="0" y="210.24" width="152" height="20" class="st13"/>
			<text x="20.64" y="223.84" class="st5">SoftDevice response</text>		</g>
		<g id="shape301-127" transform="translate(100.5,-126.12)">
			<title>Sheet.301</title>
			<desc>Command / DTM command</desc>
			<rect x="0" y="210.24" width="152" height="20" class="st13"/>
			<text x="44.99" y="216.64" class="st5">Command / <tspan x="34.99" dy="1.2em" class="st6">DTM command</tspan></text>		</g>
		<g id="shape302-131" transform="translate(96.5,-44.9435)">
			<title>Sheet.302</title>
			<desc>Command response / DTM command response</desc>
			<rect x="0" y="210.24" width="152" height="20" class="st13"/>
			<text x="18.64" y="216.64" class="st5">Command response / <tspan x="8.64" dy="1.2em" class="st6">DTM command response</tspan></text>		</g>
		<g id="shape303-135" transform="translate(6.32353,-90.12)">
			<title>Sheet.303</title>
			<desc>Wait</desc>
			<rect x="0" y="210.24" width="40" height="20" class="st13"/>
			<text x="8" y="223.84" class="st5">Wait</text>		</g>
	</g>
</svg>
