<?xml version="1.0" encoding="UTF-8" standalone="no"?>
<!DOCTYPE svg PUBLIC "-//W3C//DTD SVG 1.1//EN" "http://www.w3.org/Graphics/SVG/1.1/DTD/svg11.dtd">
<!-- Generated by Microsoft Visio, SVG Export conn_uml1 2.svg Page-1 -->
<svg xmlns="http://www.w3.org/2000/svg" xmlns:xlink="http://www.w3.org/1999/xlink" xmlns:ev="http://www.w3.org/2001/xml-events"
		width="10.9496in" height="8.31938in" viewBox="0 0 788.372 598.995" xml:space="preserve" color-interpolation-filters="sRGB"
		class="st10">
	<style type="text/css">
	<![CDATA[
		.st1 {fill:#c4dbf2;stroke:#000000;stroke-linecap:round;stroke-linejoin:round;stroke-width:0.24}
		.st2 {fill:#000000;font-family:Arial;font-size:1.00001em}
		.st3 {marker-end:url(#mrkr13-12);stroke:#000000;stroke-linecap:round;stroke-linejoin:round;stroke-width:0.24}
		.st4 {fill:#000000;fill-opacity:1;stroke:#000000;stroke-opacity:1;stroke-width:0.08695652173913}
		.st5 {fill:#ffffff;stroke:none;stroke-linecap:butt;stroke-width:7.2}
		.st6 {fill:#4677bf;fill-opacity:1;stroke:#4677bf;stroke-opacity:1;stroke-width:0.16556291390728}
		.st7 {marker-end:url(#mrkr4-85);stroke:#000000;stroke-linecap:round;stroke-linejoin:round;stroke-width:0.5}
		.st8 {fill:#000000;fill-opacity:1;stroke:#000000;stroke-opacity:1;stroke-width:0.16556291390728}
		.st9 {font-size:1em}
		.st10 {fill:none;fill-rule:evenodd;font-size:12px;overflow:visible;stroke-linecap:square;stroke-miterlimit:3}
	]]>
	</style>

	<defs id="Markers">
		<g id="lend13">
			<path d="M 3 1 L 0 0 L 3 -1 L 3 1 " style="stroke:none"/>
		</g>
		<marker id="mrkr13-12" class="st4" refX="-34.5" orient="auto" markerUnits="strokeWidth" overflow="visible">
			<use xlink:href="#lend13" transform="scale(-11.5,-11.5) "/>
		</marker>
		<g id="lend4">
			<path d="M 2 1 L 0 0 L 2 -1 L 2 1 " style="stroke:none"/>
		</g>
		<marker id="mrkr4-76" class="st6" refX="-12.08" orient="auto" markerUnits="strokeWidth" overflow="visible">
			<use xlink:href="#lend4" transform="scale(-6.04,-6.04) "/>
		</marker>
		<marker id="mrkr4-85" class="st8" refX="-12.08" orient="auto" markerUnits="strokeWidth" overflow="visible">
			<use xlink:href="#lend4" transform="scale(-6.04,-6.04) "/>
		</marker>
	</defs>
	<g>
		<title>Page-1</title>
		<g id="shape334-1" transform="translate(165.619,-571.875)">
			<title>Start/End-point</title>
			<desc>Start</desc>
			<path d="M13.5 599 L58.5 599 A13.5 13.5 -180 0 0 58.5 572 L13.5 572 A13.5 13.5 -180 1 0 13.5 599 Z" class="st1"/>
			<text x="23.33" y="589.1" class="st2">Start</text>		</g>
		<g id="shape335-4" transform="translate(145.651,-492.66)">
			<title>Process.245</title>
			<desc>HEADER_SETUP</desc>
			<rect x="0" y="557.01" width="111.935" height="41.9849" class="st1"/>
			<text x="7.62" y="581.6" class="st2">HEADER_SETUP</text>		</g>
		<g id="shape337-7" transform="translate(800.614,106.335) rotate(90)">
			<title>Flowline1</title>
			<desc>-/header_get();</desc>
			<path d="M0 599 L30.51 599" class="st3"/>
			<rect x="-640.353" y="12.8002" width="79.3776" height="14.4001" transform="rotate(-90)" class="st5"/>
			<text x="-640.35" y="23.6" transform="rotate(-90)" class="st2">-/header_get();</text>		</g>
		<g id="shape339-15" transform="translate(153.651,-411.883)">
			<title>Process.339</title>
			<desc>RX_HEADER</desc>
			<rect x="0" y="557.01" width="95.9355" height="41.9849" class="st1"/>
			<text x="11.29" y="581.6" class="st2">RX_HEADER</text>		</g>
		<g id="shape341-18" transform="translate(173.629,-332.898)">
			<title>Decision.254</title>
			<path d="M0 578 L27.99 557.01 L55.98 578 L27.99 599 L0 578 Z" class="st1"/>
		</g>
		<g id="shape342-20" transform="translate(145.651,-255.351)">
			<title>Process.342</title>
			<desc>MEM_REQUEST</desc>
			<rect x="0" y="557.01" width="111.935" height="41.9849" class="st1"/>
			<text x="9.63" y="581.6" class="st2">MEM_REQUEST</text>		</g>
		<g id="shape344-23" transform="translate(153.651,-177.805)">
			<title>Process.344</title>
			<desc>RX_PAYLOAD</desc>
			<rect x="0" y="557.01" width="95.9355" height="41.9849" class="st1"/>
			<text x="7.95" y="581.6" class="st2">RX_PAYLOAD</text>		</g>
		<g id="shape346-26" transform="translate(173.629,-100.259)">
			<title>Decision.346</title>
			<path d="M0 578 L27.99 557.01 L55.98 578 L27.99 599 L0 578 Z" class="st1"/>
		</g>
		<g id="shape347-28" transform="translate(504.945,-239.89)">
			<title>Process.347</title>
			<desc>TX_HEADER</desc>
			<rect x="0" y="557.01" width="87" height="41.9849" class="st1"/>
			<text x="7.49" y="581.6" class="st2">TX_HEADER</text>		</g>
		<g id="shape349-31" transform="translate(504.945,-161.281)">
			<title>Process.349</title>
			<desc>TX_PAYLOAD</desc>
			<rect x="0" y="557.01" width="87" height="41.9849" class="st1"/>
			<text x="4.15" y="581.6" class="st2">TX_PAYLOAD</text>		</g>
		<g id="shape351-34" transform="translate(466.635,-514.89)">
			<title>Process.351</title>
			<desc>SPI_HARDWARE</desc>
			<rect x="0" y="557.01" width="102.5" height="41.9849" class="st1"/>
			<text x="3.24" y="581.6" class="st2">SPI_HARDWARE</text>		</g>
		<g id="shape353-37" transform="translate(520.455,-82.6726)">
			<title>Decision.353</title>
			<path d="M0 578 L27.99 557.01 L55.98 578 L27.99 599 L0 578 Z" class="st1"/>
		</g>
		<g id="shape354-39" transform="translate(800.614,27.12) rotate(90)">
			<title>Flowline1.354</title>
			<path d="M0 599 L28.95 599" class="st3"/>
		</g>
		<g id="shape355-44" transform="translate(800.614,187.112) rotate(90)">
			<title>Flowline1.355</title>
			<desc>XFER_DONE_EVT/payloadLength=DECODE(HEADER)</desc>
			<path d="M0 599 L28.72 599" class="st3"/>
			<rect x="-681.54" y="7.80775" width="301.785" height="14.4001" transform="rotate(-90)" class="st5"/>
			<text x="-681.54" y="18.61" transform="rotate(-90)" class="st2">XFER_DONE_EVT/payloadLength=DECODE(HEADER)</text>		</g>
		<g id="shape356-51" transform="translate(800.614,266.097) rotate(90)">
			<title>Flowline1.356</title>
			<desc>[payloadLength != 0]/CallBack_MemReq(payloadLength)</desc>
			<path d="M0 599 L27.28 599" class="st3"/>
			<rect x="-684.579" y="6.82287" width="301.862" height="14.4001" transform="rotate(-90)" class="st5"/>
			<text x="-684.58" y="17.62" transform="rotate(-90)" class="st2">[payloadLength != 0]/CallBack_MemReq(payloadLength)</text>		</g>
		<g id="shape357-58" transform="translate(800.614,343.644) rotate(90)">
			<title>Flowline1.357</title>
			<desc>API_EVT/frame_get();</desc>
			<path d="M0 599 L27.28 599" class="st3"/>
			<rect x="-659.686" y="7.27641" width="118.045" height="14.4001" transform="rotate(-90)" class="st5"/>
			<text x="-659.69" y="18.08" transform="rotate(-90)" class="st2">API_EVT/frame_get();</text>		</g>
		<g id="shape358-65" transform="translate(800.614,421.19) rotate(90)">
			<title>Flowline1.358</title>
			<desc>XFER_DONE_EVT</desc>
			<path d="M0 599 L27.28 599" class="st3"/>
			<rect x="-652.344" y="6.72995" width="103.36" height="14.4001" transform="rotate(-90)" class="st5"/>
			<text x="-652.34" y="17.53" transform="rotate(-90)" class="st2">XFER_DONE_EVT</text>		</g>
		<g id="group359-72" transform="translate(229.609,-353.89)">
			<title>Flowline2</title>
			<desc>[payloadLength==0]/REQ=false; header_send(tx_packet_length);</desc>
			<g id="shape360-73" transform="translate(803.027,671.01) rotate(90)">
				<title>Straight Edge.28</title>
				<desc>N</desc>
			</g>
			<g id="shape361-77" transform="translate(-229.609,114.804)">
				<title>Straight Edge.29</title>
				<desc>N</desc>
			</g>
			<g id="shape359-80">
				<path d="M0 599 L300.84 599 A18 18 0 0 1 318.84 617 L318.84 664.97" class="st7"/>
				<rect x="63.7194" y="583.811" width="346.582" height="14.4001" class="st5"/>
				<text x="63.72" y="594.61" class="st2">[payloadLength==0]/REQ=false; header_send(tx_packet_length);</text>			</g>
		</g>
		<g id="shape362-88" transform="translate(1147.44,359.105) rotate(90)">
			<title>Flowline1.362</title>
			<desc>XFER_DONE_EVT/frame_send();</desc>
			<path d="M0 599 L28.34 599" class="st3"/>
			<rect x="-691.359" y="5.81531" width="181.391" height="14.4001" transform="rotate(-90)" class="st5"/>
			<text x="-691.36" y="16.62" transform="rotate(-90)" class="st2">XFER_DONE_EVT/frame_send();</text>		</g>
		<g id="shape363-95" transform="translate(1147.44,437.714) rotate(90)">
			<title>Flowline1.363</title>
			<desc>XFER_DONE_EVT</desc>
			<path d="M0 599 L28.34 599" class="st3"/>
			<rect x="-652.344" y="7.20646" width="103.36" height="14.4001" transform="rotate(-90)" class="st5"/>
			<text x="-652.34" y="18.01" transform="rotate(-90)" class="st2">XFER_DONE_EVT</text>		</g>
		<g id="group364-102" transform="translate(201.619,-100.259)">
			<title>Flowline2.364</title>
			<desc>[RXCompleted &#38; dropped]/ CallBack_PacketDropped(); header_get...</desc>
			<g id="shape365-103" transform="translate(-47.9677,-322.615)">
				<title>Straight Edge.28</title>
				<desc>N</desc>
			</g>
			<g id="shape366-106" transform="translate(588.993,578.992) rotate(90)">
				<title>Straight Edge.29</title>
				<desc>N</desc>
			</g>
			<g id="shape364-109">
				<path d="M0 599 L0 652.38 A18 18 0 0 1 -18 670.38 L-168.09 670.38 A18 18 0 0 1 -186.09 652.38 L-186.09 284.38 A18
							 18 0 0 1 -168.09 266.38 L-54.01 266.38" class="st7"/>
				<rect x="-158.687" y="652.052" width="148.069" height="43.2002" class="st5"/>
				<text x="-158.69" y="662.85" class="st2">[RXCompleted &#38; dropped]/ <tspan x="-158.69" dy="1.2em" class="st9">CallBack</tspan>_PacketDropped(); <tspan
							x="-119.01" dy="1.2em" class="st9">header</tspan>_get();</text>			</g>
		</g>
		<g id="group367-118" transform="translate(176.14,-121.251)">
			<title>Flowline2.367</title>
			<desc>[RXCompleted &#38; !dropped] /CallBack_PacketRx(); header_get();</desc>
			<g id="shape368-119" transform="translate(-22.4889,-301.622)">
				<title>Straight Edge.28</title>
				<desc>N</desc>
			</g>
			<g id="shape369-122" transform="translate(17.4926,1187.99) rotate(180)">
				<title>Straight Edge.29</title>
				<desc>N</desc>
			</g>
			<g id="shape367-125">
				<path d="M-2.51 599 L-79.51 599 A18 18 0 0 1 -97.51 581 L-97.51 305.37 A18 18 0 0 1 -79.51 287.37 L-28.53 287.37"
						class="st7"/>
				<rect x="-150.882" y="583.044" width="143.416" height="43.2002" class="st5"/>
				<text x="-150.88" y="593.84" class="st2">[RXCompleted &#38; !dropped] <tspan x="-150.88" dy="1.2em" class="st9">/</tspan>CallBack_PacketRx(); <tspan
							x="-150.88" dy="1.2em" class="st9">header</tspan>_get();</text>			</g>
		</g>
		<g id="group370-134" transform="translate(227.098,-121.251)">
			<title>Flowline2.370</title>
			<desc>[!RXCompleted]/frame_get();</desc>
			<g id="shape371-135" transform="translate(22.4889,1097.36) rotate(180)">
				<title>Straight Edge.28</title>
				<desc>N</desc>
			</g>
			<g id="shape372-138" transform="translate(-17.4926,10.0018)">
				<title>Straight Edge.29</title>
				<desc>N</desc>
			</g>
			<g id="shape370-141">
				<path d="M2.51 599 L182.67 599 A18 18 -180 0 0 200.67 581 L200.67 526.37 A18 18 -180 0 0 182.67 508.37 L28.53 508.37"
						class="st7"/>
				<rect x="14.8402" y="594.171" width="153.394" height="14.4001" class="st5"/>
				<text x="14.84" y="604.97" class="st2">[!RXCompleted]/frame_get();</text>			</g>
		</g>
		<g id="group373-148" transform="translate(237.087,-184.375)">
			<title>Flowline2.373</title>
			<desc>DMA_DONE_EVT/RDY=true</desc>
			<g id="shape374-149" transform="translate(12.5,1160.49) rotate(180)">
				<title>Straight Edge.28</title>
				<desc>N</desc>
			</g>
			<g id="shape375-152" transform="translate(-7.50369,10.0018)">
				<title>Straight Edge.29</title>
				<desc>N</desc>
			</g>
			<g id="shape373-155">
				<path d="M12.5 599 L83.28 599 A13.75 13.75 -180 0 0 97.03 585.25 L97.03 585.25 A13.75 13.75 -180 0 0 83.28 571.5
							 L18.54 571.5" class="st7"/>
				<rect x="19.3592" y="582.295" width="154.379" height="14.4001" class="st5"/>
				<text x="19.36" y="593.1" class="st2">DMA_DONE_EVT/RDY=true</text>			</g>
		</g>
		<g id="group376-162" transform="translate(237.087,-418.329)">
			<title>Flowline2.376</title>
			<desc>DMA_DONE_EVT/RDY=true;</desc>
			<g id="shape377-163" transform="translate(12.5,1159.99) rotate(180)">
				<title>Straight Edge.28</title>
				<desc>N</desc>
			</g>
			<g id="shape378-166" transform="translate(-7.50369,10.0018)">
				<title>Straight Edge.29</title>
				<desc>N</desc>
			</g>
			<g id="shape376-169">
				<path d="M12.5 599 L91.03 599 A14 14 -180 0 0 105.03 585 L105.03 585 A14 14 -180 0 0 91.03 571 L18.54 571"
						class="st7"/>
				<rect x="26.1761" y="577.795" width="157.713" height="14.4001" class="st5"/>
				<text x="26.18" y="588.6" class="st2">DMA_DONE_EVT/RDY=true;</text>			</g>
		</g>
		<g id="group383-176" transform="translate(579.445,-245.875)">
			<title>Flowline2.383</title>
			<desc>DMA_DONE_EVT/RDY=true</desc>
			<g id="shape384-177" transform="translate(12.5,1159.99) rotate(180)">
				<title>Straight Edge.28</title>
				<desc>N</desc>
			</g>
			<g id="shape385-180" transform="translate(-7.50369,10.0018)">
				<title>Straight Edge.29</title>
				<desc>N</desc>
			</g>
			<g id="shape383-183">
				<path d="M12.5 599 L92.71 599 A14 14 -180 0 0 106.71 585 L106.71 585 A14 14 -180 0 0 92.71 571 L18.54 571"
						class="st7"/>
				<rect x="19.9843" y="575.795" width="154.379" height="14.4001" class="st5"/>
				<text x="19.98" y="586.6" class="st2">DMA_DONE_EVT/RDY=true</text>			</g>
		</g>
		<g id="group386-190" transform="translate(579.445,-166.875)">
			<title>Flowline2.386</title>
			<desc>DMA_DONE_EVT/RDY=true</desc>
			<g id="shape387-191" transform="translate(12.5,1157.99) rotate(180)">
				<title>Straight Edge.28</title>
				<desc>N</desc>
			</g>
			<g id="shape388-194" transform="translate(-7.50369,10.0018)">
				<title>Straight Edge.29</title>
				<desc>N</desc>
			</g>
			<g id="shape386-197">
				<path d="M12.5 599 L90.17 599 A15 15 -180 0 0 105.17 584 L105.17 584 A15 15 -180 0 0 90.17 569 L18.54 569"
						class="st7"/>
				<rect x="19.9843" y="576.795" width="154.379" height="14.4001" class="st5"/>
				<text x="19.98" y="587.6" class="st2">DMA_DONE_EVT/RDY=true</text>			</g>
		</g>
		<g id="group389-204" transform="translate(571.69,-103.665)">
			<title>Flowline2.389</title>
			<desc>[!TXCompleted]/frame_send();</desc>
			<g id="shape390-205" transform="translate(20.255,1094.78) rotate(180)">
				<title>Straight Edge.28</title>
				<desc>N</desc>
			</g>
			<g id="shape391-208" transform="translate(-15.2587,10.0018)">
				<title>Straight Edge.29</title>
				<desc>N</desc>
			</g>
			<g id="shape389-211">
				<path d="M4.74 599 L166.93 599 A18 18 -180 0 0 184.93 581 L184.93 523.79 A18 18 -180 0 0 166.93 505.79 L26.3 505.79"
						class="st7"/>
				<rect x="39.2293" y="583.585" width="161.398" height="14.4001" class="st5"/>
				<text x="39.23" y="594.39" class="st2">[!TXCompleted]/frame_send();</text>			</g>
		</g>
		<g id="group392-218" transform="translate(548.445,-82.6726)">
			<title>Flowline2.392</title>
			<desc>[TXCompleted]/CallBack_PacketTX();header_get();</desc>
			<g id="shape393-219" transform="translate(-298.859,824.332) rotate(180)">
				<title>Straight Edge.28</title>
				<desc>N</desc>
			</g>
			<g id="shape394-222" transform="translate(588.993,578.992) rotate(90)">
				<title>Straight Edge.29</title>
				<desc>N</desc>
			</g>
			<g id="shape392-225">
				<path d="M0 599 L0 631.79 A18 18 -180 0 0 18 649.79 L215.17 649.79 A18 18 -180 0 0 233.17 631.79 L233.17 253.34 A18
							 18 -180 0 0 215.17 235.34 L-292.82 235.34" class="st7"/>
				<rect x="-93.2199" y="605.866" width="272.787" height="14.4001" class="st5"/>
				<text x="-93.22" y="616.67" class="st2">[TXCompleted]/CallBack_PacketTX();header_get();</text>			</g>
		</g>
		<g id="group415-232" transform="translate(556.635,-521.375)">
			<title>Flowline2.415</title>
			<desc>XFER_DONE_EVT/RDY=false</desc>
			<g id="shape416-233" transform="translate(12.5,1160.49) rotate(180)">
				<title>Straight Edge.28</title>
				<desc>N</desc>
			</g>
			<g id="shape417-236" transform="translate(-7.50369,10.0018)">
				<title>Straight Edge.29</title>
				<desc>N</desc>
			</g>
			<g id="shape415-239">
				<path d="M12.5 599 L93.25 599 A13.75 13.75 -180 0 0 107 585.25 L107 585.25 A13.75 13.75 -180 0 0 93.25 571.5 L18.54
							 571.5" class="st7"/>
				<rect x="24.8067" y="579.295" width="164.387" height="14.4001" class="st5"/>
				<text x="24.81" y="590.1" class="st2">XFER_DONE_EVT/RDY=false</text>			</g>
		</g>
	</g>
</svg>
