<?xml version="1.0" encoding="UTF-8" standalone="no"?>
<!DOCTYPE svg PUBLIC "-//W3C//DTD SVG 1.1//EN" "http://www.w3.org/Graphics/SVG/1.1/DTD/svg11.dtd">
<!-- Generated by Microsoft Visio, SVG Export csense_getting_values.svg Page-1 -->
<svg xmlns="http://www.w3.org/2000/svg" xmlns:xlink="http://www.w3.org/1999/xlink" xmlns:ev="http://www.w3.org/2001/xml-events"
		width="5.90184in" height="7.91521in" viewBox="0 0 424.932 569.895" xml:space="preserve" color-interpolation-filters="sRGB"
		class="st13">
	<style type="text/css">
	<![CDATA[
		.st1 {fill:#c4dbf2;stroke:#000000;stroke-linecap:round;stroke-linejoin:round;stroke-width:0.24}
		.st2 {fill:#000000;font-family:Arial;font-size:1.00001em}
		.st3 {font-size:1em}
		.st4 {marker-end:url(#mrkr13-21);stroke:#000000;stroke-linecap:round;stroke-linejoin:round;stroke-width:0.24}
		.st5 {fill:#000000;fill-opacity:1;stroke:#000000;stroke-opacity:1;stroke-width:0.08695652173913}
		.st6 {fill:#ffffff;stroke:none;stroke-linecap:butt;stroke-width:7.2}
		.st7 {fill:#4677bf;fill-opacity:1;stroke:#4677bf;stroke-opacity:1;stroke-width:0.16556291390728}
		.st8 {marker-end:url(#mrkr4-88);stroke:#000000;stroke-linecap:round;stroke-linejoin:round;stroke-width:0.5}
		.st9 {fill:#000000;fill-opacity:1;stroke:#000000;stroke-opacity:1;stroke-width:0.16556291390728}
		.st10 {fill:none;stroke:#000000;stroke-dasharray:1.68,1.2;stroke-linecap:round;stroke-linejoin:round;stroke-width:0.24}
		.st11 {marker-end:url(#mrkr20-107);stroke:#000000;stroke-dasharray:1.68,1.2;stroke-linecap:round;stroke-linejoin:round;stroke-width:0.24}
		.st12 {fill:#c4dbf2;stroke:none;stroke-linecap:round;stroke-linejoin:round;stroke-width:0.24;visibility:hidden}
		.st13 {fill:none;fill-rule:evenodd;font-size:12px;overflow:visible;stroke-linecap:square;stroke-miterlimit:3}
	]]>
	</style>

	<defs id="Markers">
		<g id="lend13">
			<path d="M 3 1 L 0 0 L 3 -1 L 3 1 " style="stroke:none"/>
		</g>
		<marker id="mrkr13-21" class="st5" refX="-34.5" orient="auto" markerUnits="strokeWidth" overflow="visible">
			<use xlink:href="#lend13" transform="scale(-11.5,-11.5) "/>
		</marker>
		<g id="lend4">
			<path d="M 2 1 L 0 0 L 2 -1 L 2 1 " style="stroke:none"/>
		</g>
		<marker id="mrkr4-79" class="st7" refX="-12.08" orient="auto" markerUnits="strokeWidth" overflow="visible">
			<use xlink:href="#lend4" transform="scale(-6.04,-6.04) "/>
		</marker>
		<marker id="mrkr4-88" class="st9" refX="-12.08" orient="auto" markerUnits="strokeWidth" overflow="visible">
			<use xlink:href="#lend4" transform="scale(-6.04,-6.04) "/>
		</marker>
		<g id="lend20">
			<path
					d="M 0 0.75 C -0.414214 0.75 -0.75 0.414214 -0.75 0 -0.75 -0.414214 -0.414214 -0.75 0 -0.75 0.414214 -0.75 0.75 -0.414214 0.75 0 0.75 0.414214 0.414214 0.75 0 0.75 Z "
					style="stroke-linecap:round;stroke-linejoin:round;fill:none"/>
		</g>
		<marker id="mrkr20-107" class="st5" refX="-8.6250000000001" orient="auto" markerUnits="strokeWidth" overflow="visible">
			<use xlink:href="#lend20" transform="scale(-11.5,-11.5) "/>
		</marker>
	</defs>
	<g>
		<title>Page-1</title>
		<g id="shape227-1" transform="translate(10.5623,-526.16)">
			<title>Start/End-point</title>
			<desc>Wait for the event handler with a value from the Capacitive S...</desc>
			<path d="M18.98 569.9 L230.02 569.9 A18.9799 18.9799 -180 0 0 230.02 531.94 L18.98 531.94 A18.9799 18.9799 -180 1 0 18.98
						 569.9 Z" class="st1"/>
			<text x="8.78" y="547.32" class="st2">Wait for the event handler with a value from <tspan x="47.46" dy="1.2em"
						class="st3">the</tspan> Capacitive Sensor driver.</text>		</g>
		<g id="shape229-5" transform="translate(17.5623,-256.66)">
			<title>Decision.254</title>
			<desc>On at least one pad, is the change value higher than NRF_CSEN...</desc>
			<path d="M0 515.9 L117.5 461.9 L235 515.9 L117.5 569.9 L0 515.9 Z" class="st1"/>
			<text x="88.48" y="488.2" class="st2">On at least <tspan x="56.78" dy="1.2em" class="st3">o</tspan>ne pad, is the change  <tspan
						x="71.47" dy="1.2em" class="st3">value</tspan> higher than <tspan x="36.48" dy="1.2em" class="st3">NRF</tspan>_CSENSE_HYSTERSIS?</text>		</g>
		<g id="shape231-11" transform="translate(17.5623,-16.0798)">
			<title>Start/End-point.231</title>
			<desc>Generate event Pressed or Dragged and recalculate the step va...</desc>
			<path d="M24.3 569.9 L210.7 569.9 A24.3 24.3 -180 0 0 210.7 521.3 L24.3 521.3 A24.3 24.3 -180 1 0 24.3 569.9 Z"
					class="st1"/>
			<text x="9.1" y="534.8" class="st2">Generate event Pressed or Dragged and <tspan x="2.43" dy="1.2em" class="st3">recalculate</tspan> the step value. Do nothing if the <tspan
						x="17.1" dy="1.2em" class="st3">instance is </tspan>a button and was touched.</text>		</g>
		<g id="shape233-16" transform="translate(704.957,43.7349) rotate(90)">
			<title>Flowline1</title>
			<path d="M0 569.9 L12.98 569.9" class="st4"/>
		</g>
		<g id="shape235-22" transform="translate(704.957,313.235) rotate(90)">
			<title>Flowline1.235</title>
			<desc>Yes</desc>
			<path d="M0 569.9 L38.96 569.9" class="st4"/>
			<rect x="-582.903" y="8.30019" width="20.6782" height="14.4001" transform="rotate(-90)" class="st6"/>
			<text x="-582.9" y="19.1" transform="rotate(-90)" class="st2">Yes</text>		</g>
		<g id="shape236-29" transform="translate(704.957,457.975) rotate(90)">
			<title>Flowline1.236</title>
			<desc>Yes</desc>
			<path d="M0 569.9 L38.96 569.9" class="st4"/>
			<rect x="-582.903" y="3.56003" width="20.6782" height="14.4001" transform="rotate(-90)" class="st6"/>
			<text x="-582.9" y="14.36" transform="rotate(-90)" class="st2">Yes</text>		</g>
		<g id="shape249-36" transform="translate(79.3123,-414.9)">
			<title>Decision.249</title>
			<desc>Was every enabled analog channel read?</desc>
			<path d="M0 524.9 L55.75 479.9 L111.5 524.9 L55.75 569.9 L0 524.9 Z" class="st1"/>
			<text x="27.41" y="514.09" class="st2">Was every <tspan x="14.71" dy="1.2em" class="st3">enabled</tspan> analog <tspan
						x="17.72" dy="1.2em" class="st3">channel</tspan> read?</text>		</g>
		<g id="shape250-41" transform="translate(704.957,154.995) rotate(90)">
			<title>Flowline1.250</title>
			<desc>Yes</desc>
			<path d="M0 569.9 L41.96 569.9" class="st4"/>
			<rect x="-582.903" y="6.54035" width="20.6782" height="14.4001" transform="rotate(-90)" class="st6"/>
			<text x="-582.9" y="17.34" transform="rotate(-90)" class="st2">Yes</text>		</g>
		<g id="shape251-48" transform="translate(252.562,-310.66)">
			<title>Flowline1.251</title>
			<desc>No</desc>
			<path d="M0 569.9 L55.97 569.9" class="st4"/>
			<rect x="8.91132" y="563.235" width="15.3399" height="14.4001" class="st6"/>
			<text x="8.91" y="574.04" class="st2">No</text>		</g>
		<g id="shape252-55" transform="translate(316.812,-297.16)">
			<title>Start/End-point.252</title>
			<desc>Do nothing.</desc>
			<path d="M13.5 569.9 L58.5 569.9 A13.5 13.5 -180 0 0 58.5 542.9 L13.5 542.9 A13.5 13.5 -180 1 0 13.5 569.9 Z"
					class="st1"/>
			<text x="5.31" y="560" class="st2">Do nothing.</text>		</g>
		<g id="shape253-58" transform="translate(79.3123,-111.92)">
			<title>Decision.253</title>
			<desc>Is the value above the threshold?</desc>
			<path d="M0 521.15 L55.75 472.4 L111.5 521.15 L55.75 569.9 L0 521.15 Z" class="st1"/>
			<text x="25.06" y="510.34" class="st2">Is the value <tspan x="29.39" dy="1.2em" class="st3">above the </tspan><tspan
						x="27.73" dy="1.2em" class="st3">threshold</tspan>?</text>		</g>
		<g id="shape254-63" transform="translate(244.062,-136.37)">
			<title>Start/End-point.254</title>
			<desc>Generate event Released or do nothing if the instance was not...</desc>
			<path d="M24.3 569.9 L141.45 569.9 A24.3 24.3 -180 0 0 141.45 521.3 L24.3 521.3 A24.3 24.3 -180 1 0 24.3 569.9 Z"
					class="st1"/>
			<text x="7.49" y="534.8" class="st2">Generate event Released or <tspan x="3.82" dy="1.2em" class="st3">do nothing if the instance was </tspan><tspan
						x="49.85" dy="1.2em" class="st3">not touched</tspan>.</text>		</g>
		<g id="shape255-68" transform="translate(190.812,-160.67)">
			<title>Flowline1.255</title>
			<desc>No</desc>
			<path d="M0 569.9 L44.97 569.9" class="st4"/>
			<rect x="10.6613" y="562.695" width="15.3399" height="14.4001" class="st6"/>
			<text x="10.66" y="573.5" class="st2">No</text>		</g>
		<g id="group264-75" transform="translate(190.812,-459.9)">
			<title>Flowline2</title>
			<desc>No</desc>
			<g id="shape265-76" transform="translate(68.75,1045.55) rotate(180)">
				<title>Straight Edge.28</title>
				<desc>N</desc>
			</g>
			<g id="shape266-80" transform="translate(-18.0036,9.00182)">
				<title>Straight Edge.29</title>
				<desc>N</desc>
			</g>
			<g id="shape264-83">
				<path d="M0 569.9 L76 569.9 A18 18 -180 0 0 94 551.9 L94 497.28 A12.625 12.625 -180 0 0 81.37 484.66 L74.79 484.66"
						class="st8"/>
				<rect x="15.5801" y="566.445" width="15.3399" height="14.4001" class="st6"/>
				<text x="15.58" y="577.25" class="st2">No</text>			</g>
		</g>
		<g id="shape267-91" transform="translate(0.12,-0.12)">
			<title>Process.245</title>
			<path d="M0 569.9 L424.69 569.9 L424.69 159.46 L0 159.46 L0 569.9 Z" class="st10"/>
		</g>
		<g id="group268-93" transform="translate(424.812,691.231) rotate(180)">
			<title>Annotation/Comment</title>
			<g id="shape269-94" transform="translate(75,-9.21969)">
				<title>Sheet.269</title>
			</g>
			<g id="shape270-95" transform="translate(75,-9.21969)">
				<title>Sheet.270</title>
			</g>
			<g id="shape271-96" transform="translate(75,-9.21969)">
				<title>Sheet.271</title>
			</g>
			<g id="shape272-97" transform="translate(75,-9.21969)">
				<title>Sheet.272</title>
			</g>
			<g id="shape273-98" transform="translate(75,-9.21969)">
				<title>Sheet.273</title>
			</g>
			<g id="shape274-99" transform="translate(75,-9.21969)">
				<title>Sheet.274</title>
			</g>
			<g id="shape275-100" transform="translate(75,-9.21969)">
				<title>Sheet.275</title>
			</g>
			<g id="shape276-101" transform="translate(75,-9.21969)">
				<title>Sheet.276</title>
			</g>
			<g id="shape277-102" transform="translate(-36.4808,1119.56) rotate(-168.719)">
				<title>Sheet.277</title>
				<path d="M0 569.9 L1.71 569.9" class="st11"/>
			</g>
			<g id="shape278-108" transform="translate(75,-9.21969)">
				<title>Sheet.278</title>
			</g>
			<g id="shape279-109" transform="translate(75,-9.21969)">
				<title>Sheet.279</title>
			</g>
			<g id="shape280-110" transform="translate(-286.998,120.519) rotate(-39.4349)">
				<title>Sheet.280</title>
				<path d="M0 569.9 L43.25 569.9" class="st11"/>
			</g>
			<g id="shape281-115" transform="translate(147.746,1121.35) rotate(180)">
				<title>Sheet.281</title>
				<rect x="0" y="551.456" width="145.493" height="18.4394" class="st12"/>
			</g>
			<g id="shape282-117">
				<title>Sheet.282</title>
				<desc>Repeat for every instance.</desc>
				<path d="M0 560.9 L9 569.9 L9 560.9 L0 560.9 ZM0 560.9 L9 560.9 L9 569.9 L150 569.9 L150 551.46 L0 551.46 L0 560.9
							 Z" class="st1"/>
				<text x="-146" y="-557.08" transform="rotate(180)" class="st2">Repeat for every instance.</text>			</g>
		</g>
	</g>
</svg>
