<?xml version="1.0" encoding="UTF-8" standalone="no"?>
<!DOCTYPE svg PUBLIC "-//W3C//DTD SVG 1.1//EN" "http://www.w3.org/Graphics/SVG/1.1/DTD/svg11.dtd">
<!-- Generated by Microsoft Visio, SVG Export csense_saadc.svg Page-1 -->
<svg xmlns="http://www.w3.org/2000/svg" xmlns:xlink="http://www.w3.org/1999/xlink" xmlns:ev="http://www.w3.org/2001/xml-events"
		width="11.6076in" height="6.85069in" viewBox="0 0 835.75 493.25" xml:space="preserve" color-interpolation-filters="sRGB"
		class="st7">
	<style type="text/css">
	<![CDATA[
		.st1 {fill:#ffffff;stroke:#000000;stroke-linecap:round;stroke-linejoin:round;stroke-width:0.75}
		.st2 {fill:#000000;font-family:Calibri;font-size:2.50001em}
		.st3 {fill:#c4dbf2;stroke:#000000;stroke-linecap:round;stroke-linejoin:round;stroke-width:0.75}
		.st4 {fill:#000000;font-family:Calibri;font-size:1.5em}
		.st5 {stroke:#000000;stroke-linecap:round;stroke-linejoin:round;stroke-width:0.75}
		.st6 {fill:#000000;font-family:Calibri;font-size:1.99999em}
		.st7 {fill:none;fill-rule:evenodd;font-size:12px;overflow:visible;stroke-linecap:square;stroke-miterlimit:3}
	]]>
	</style>

	<g>
		<title>Page-1</title>
		<g id="group230-1" transform="translate(500.375,-0.375)">
			<title>Sheet.230</title>
			<g id="shape227-2">
				<title>Block1</title>
				<desc>SAADC</desc>
				<rect x="0" y="325.75" width="335" height="167.5" class="st1"/>
				<text x="126.02" y="418.5" class="st2">SAADC</text>			</g>
			<g id="shape228-5" transform="translate(0,-103.146)">
				<title>Block2</title>
				<desc>AIN0</desc>
				<rect x="0" y="443.25" width="100" height="50" class="st3"/>
				<text x="32.15" y="473.65" class="st4">AIN0</text>			</g>
			<g id="shape229-8" transform="translate(0,-17.5)">
				<title>Block2.229</title>
				<desc>AIN1</desc>
				<rect x="0" y="443.25" width="100" height="50" class="st3"/>
				<text x="32.15" y="473.65" class="st4">AIN1</text>			</g>
		</g>
		<g id="shape236-11" transform="translate(311.125,-94.4282)">
			<title>Sheet.236</title>
			<desc>PAD1</desc>
			<ellipse cx="34.25" cy="458.803" rx="34.25" ry="34.4468" class="st3"/>
			<text x="14.29" y="464.2" class="st4">PAD1</text>		</g>
		<g id="shape237-14" transform="translate(300.377,-55.3986)">
			<title>Line1</title>
			<path d="M0 505.73 L200 505.77" class="st5"/>
		</g>
		<g id="shape238-17" transform="translate(379.625,-141.198)">
			<title>Line1.238</title>
			<path d="M0 505.57 L120.75 505.93" class="st5"/>
		</g>
		<g id="shape239-20" transform="translate(145.375,-104.152)">
			<title>Block1</title>
			<desc>R1</desc>
			<rect x="0" y="443.803" width="98.8937" height="49.4468" class="st3"/>
			<text x="40" y="473.93" class="st4">R1</text>		</g>
		<g id="shape240-23" transform="translate(145.375,-18.1516)">
			<title>Block1.240</title>
			<desc>R2</desc>
			<rect x="0" y="443.803" width="98.8937" height="49.4468" class="st3"/>
			<text x="40" y="473.93" class="st4">R2</text>		</g>
		<g id="shape242-26" transform="translate(0.375,-325.375)">
			<title>Block1.242</title>
			<desc>GPIO</desc>
			<rect x="0" y="325.75" width="335" height="167.5" class="st1"/>
			<text x="136.58" y="418.5" class="st2">GPIO</text>		</g>
		<g id="shape245-29" transform="translate(15.7369,-325.375)">
			<title>Block2</title>
			<desc>Charge pin</desc>
			<rect x="0" y="439.5" width="119.638" height="53.75" class="st3"/>
			<text x="7.49" y="473.58" class="st6">Charge pin</text>		</g>
		<g id="shape246-32" transform="translate(244.269,-116.375)">
			<title>Line1.246</title>
			<path d="M0 480.75 L66.86 480.75" class="st5"/>
		</g>
		<g id="shape247-35" transform="translate(244.269,-30.375)">
			<title>Line1.247</title>
			<path d="M0 480.75 L66.52 480.75" class="st5"/>
		</g>
		<g id="shape248-38" transform="translate(30.375,-325.375)">
			<title>Line1.248</title>
			<path d="M0 493.25 L0 779.5 L115 779.5" class="st5"/>
		</g>
		<g id="shape251-41" transform="translate(105.375,-325.375)">
			<title>Line1.251</title>
			<path d="M0 493.25 L0 689.75 L40 689.75" class="st5"/>
		</g>
		<g id="shape235-44" transform="translate(310.785,-8.42816)">
			<title>Sheet.235</title>
			<desc>PAD2</desc>
			<ellipse cx="34.25" cy="458.803" rx="34.25" ry="34.4468" class="st3"/>
			<text x="14.29" y="464.2" class="st4">PAD2</text>		</g>
	</g>
</svg>
