<?xml version="1.0" encoding="UTF-8" standalone="no"?>
<!DOCTYPE svg PUBLIC "-//W3C//DTD SVG 1.1//EN" "http://www.w3.org/Graphics/SVG/1.1/DTD/svg11.dtd">
<!-- Generated by Microsoft Visio, SVG Export csense_getting_steps.svg Page-1 -->
<svg xmlns="http://www.w3.org/2000/svg" xmlns:xlink="http://www.w3.org/1999/xlink" xmlns:ev="http://www.w3.org/2001/xml-events"
		width="5.05194in" height="7.58667in" viewBox="0 0 363.74 546.24" xml:space="preserve" color-interpolation-filters="sRGB"
		class="st10">
	<style type="text/css">
	<![CDATA[
		.st1 {fill:#c4dbf2;stroke:#000000;stroke-linecap:round;stroke-linejoin:round;stroke-width:0.24}
		.st2 {fill:#000000;font-family:Arial;font-size:1.00001em}
		.st3 {font-size:1em}
		.st4 {marker-end:url(#mrkr13-43);stroke:#000000;stroke-linecap:round;stroke-linejoin:round;stroke-width:0.24}
		.st5 {fill:#000000;fill-opacity:1;stroke:#000000;stroke-opacity:1;stroke-width:0.08695652173913}
		.st6 {fill:#ffffff;stroke:none;stroke-linecap:butt;stroke-width:7.2}
		.st7 {fill:#4677bf;fill-opacity:1;stroke:#4677bf;stroke-opacity:1;stroke-width:0.16556291390728}
		.st8 {marker-end:url(#mrkr4-74);stroke:#000000;stroke-linecap:round;stroke-linejoin:round;stroke-width:0.5}
		.st9 {fill:#000000;fill-opacity:1;stroke:#000000;stroke-opacity:1;stroke-width:0.16556291390728}
		.st10 {fill:none;fill-rule:evenodd;font-size:12px;overflow:visible;stroke-linecap:square;stroke-miterlimit:3}
	]]>
	</style>

	<defs id="Markers">
		<g id="lend13">
			<path d="M 3 1 L 0 0 L 3 -1 L 3 1 " style="stroke:none"/>
		</g>
		<marker id="mrkr13-43" class="st5" refX="-34.5" orient="auto" markerUnits="strokeWidth" overflow="visible">
			<use xlink:href="#lend13" transform="scale(-11.5,-11.5) "/>
		</marker>
		<g id="lend4">
			<path d="M 2 1 L 0 0 L 2 -1 L 2 1 " style="stroke:none"/>
		</g>
		<marker id="mrkr4-65" class="st7" refX="-12.08" orient="auto" markerUnits="strokeWidth" overflow="visible">
			<use xlink:href="#lend4" transform="scale(-6.04,-6.04) "/>
		</marker>
		<marker id="mrkr4-74" class="st9" refX="-12.08" orient="auto" markerUnits="strokeWidth" overflow="visible">
			<use xlink:href="#lend4" transform="scale(-6.04,-6.04) "/>
		</marker>
	</defs>
	<g>
		<title>Page-1</title>
		<g id="shape227-1" transform="translate(96.62,-488.12)">
			<title>Start/End-point</title>
			<desc>Value on one of the pads is above threshold and at least on o...</desc>
			<path d="M29 546.24 L220 546.24 A29 29 -180 0 0 220 488.24 L29 488.24 A29 29 -180 1 0 29 546.24 Z" class="st1"/>
			<text x="7.41" y="506.44" class="st2">Value on one of the pads is above threshold <tspan x="24.42" dy="1.2em"
						class="st3">and at least on one change exceeded </tspan><tspan x="41.14" dy="1.2em" class="st3">NRF</tspan>_CSENSE_HYSTERESIS.</text>		</g>
		<g id="shape228-6" transform="translate(78.62,-367.12)">
			<title>Process.245</title>
			<desc>Find a mask of the pads that might have been touched, i.e. ar...</desc>
			<rect x="0" y="455.24" width="285" height="91" class="st1"/>
			<text x="20.76" y="468.34" class="st2">Find a mask of the pads that might have been <tspan x="5.73" dy="1.2em"
						class="st3">touched</tspan>, i.e. are connected to one analog input and <tspan x="4.41" dy="1.2em"
						class="st3">the highest</tspan> value was read on this input. Update the <tspan x="16.79" dy="1.2em"
						class="st3">minim</tspan>um or  maximum value on every channel. <tspan x="7.42" dy="1.2em" class="st3">Calculate ratio</tspan> for each channel and normalize raw <tspan
						x="35.46" dy="1.2em" class="st3">values</tspan> to NRF_CSENSE_MAX_VALUE.</text>		</g>
		<g id="shape229-14" transform="translate(158.62,-211.12)">
			<title>Decision.254</title>
			<desc>Is there only one pad connected to the channel with the highe...</desc>
			<path d="M0 483.24 L62.5 420.24 L125 483.24 L62.5 546.24 L0 483.24 Z" class="st1"/>
			<text x="42.49" y="450.84" class="st2">Is there  <tspan x="28.14" dy="1.2em" class="st3">o</tspan>nly one pad <tspan
						x="18.13" dy="1.2em" class="st3">connected to the </tspan><tspan x="19.14" dy="1.2em" class="st3">channel with the </tspan><tspan
						x="29.48" dy="1.2em" class="st3">highest read </tspan><tspan x="44.82" dy="1.2em" class="st3">value</tspan>?</text>		</g>
		<g id="shape230-22" transform="translate(134.12,-83.12)">
			<title>Process.230</title>
			<desc>Calculate the step by taking the average of values from the t...</desc>
			<rect x="0" y="474.24" width="174" height="72" class="st1"/>
			<text x="3.28" y="492.24" class="st2">Calculate the step by taking the <tspan x="15.96" dy="1.2em" class="st3">average of values from the </tspan><tspan
						x="6.6" dy="1.2em" class="st3">touched pad and the two pads </tspan><tspan x="21.29" dy="1.2em" class="st3">that are placed next to it</tspan>.</text>		</g>
		<g id="shape231-28" transform="translate(151.12,-0.12)">
			<title>Start/End-point.231</title>
			<desc>Return the calculated pad in the event handler.</desc>
			<path d="M18.9 546.24 L121.1 546.24 A18.9 18.9 -180 0 0 121.1 508.44 L18.9 508.44 A18.9 18.9 -180 1 0 18.9 546.24 Z"
					class="st1"/>
			<text x="13.3" y="523.74" class="st2">Return the calculated <tspan x="3.95" dy="1.2em" class="st3">pad in </tspan>the event handler.</text>		</g>
		<g id="shape232-32" transform="translate(0.12,-165.12)">
			<title>Process.232</title>
			<desc>Find the touched pad, based on the values of the pads placed ...</desc>
			<rect x="0" y="488.24" width="125" height="58" class="st1"/>
			<text x="4.46" y="499.24" class="st2">Find the touched pad, <tspan x="2.12" dy="1.2em" class="st3">bas</tspan>ed on the values of <tspan
						x="7.12" dy="1.2em" class="st3">the </tspan>pads placed next <tspan x="51.16" dy="1.2em" class="st3">to it</tspan>.</text>		</g>
		<g id="shape233-38" transform="translate(767.36,58.12) rotate(90)">
			<title>Flowline1</title>
			<path d="M0 546.24 L21.72 546.24" class="st4"/>
		</g>
		<g id="shape234-44" transform="translate(767.36,179.12) rotate(90)">
			<title>Flowline1.234</title>
			<path d="M0 546.24 L21.72 546.24" class="st4"/>
		</g>
		<g id="shape235-49" transform="translate(767.36,335.12) rotate(90)">
			<title>Flowline1.235</title>
			<desc>Yes</desc>
			<path d="M0 546.24 L47.72 546.24" class="st4"/>
			<rect x="-559.248" y="0.80019" width="20.6782" height="14.4001" transform="rotate(-90)" class="st6"/>
			<text x="-559.25" y="11.6" transform="rotate(-90)" class="st2">Yes</text>		</g>
		<g id="shape236-56" transform="translate(767.36,463.12) rotate(90)">
			<title>Flowline1.236</title>
			<path d="M0 546.24 L36.92 546.24" class="st4"/>
		</g>
		<g id="group237-61" transform="translate(158.62,-274.12)">
			<title>Flowline2</title>
			<desc>No</desc>
			<g id="shape238-62" transform="translate(441.238,597.24) rotate(90)">
				<title>Straight Edge.28</title>
				<desc>N</desc>
			</g>
			<g id="shape239-66" transform="translate(18.0036,1083.48) rotate(180)">
				<title>Straight Edge.29</title>
				<desc>N</desc>
			</g>
			<g id="shape237-69">
				<path d="M0 546.24 L-78 546.24 A18 18 -180 0 0 -96 564.24 L-96 591.2" class="st8"/>
				<rect x="-21.1699" y="540.04" width="15.3399" height="14.4001" class="st6"/>
				<text x="-21.17" y="550.84" class="st2">No</text>			</g>
		</g>
		<g id="group240-77" transform="translate(62.62,-165.12)">
			<title>Flowline2.240</title>
			<g id="shape241-78" transform="translate(71.5,55.0018)">
				<title>Straight Edge.28</title>
				<desc>N</desc>
			</g>
			<g id="shape242-81" transform="translate(537.238,528.236) rotate(90)">
				<title>Straight Edge.29</title>
				<desc>N</desc>
			</g>
			<g id="shape240-84">
				<path d="M0 546.24 L0 574.24 A18 18 -180 0 0 18 592.24 L65.46 592.24" class="st8"/>
			</g>
		</g>
	</g>
</svg>
