<?xml version="1.0" encoding="UTF-8" standalone="no"?>
<!DOCTYPE svg PUBLIC "-//W3C//DTD SVG 1.1//EN" "http://www.w3.org/Graphics/SVG/1.1/DTD/svg11.dtd">
<!-- Generated by Microsoft Visio, SVG Export csense_wrong_design2.svg Page-1 -->
<svg xmlns="http://www.w3.org/2000/svg" xmlns:xlink="http://www.w3.org/1999/xlink" xmlns:ev="http://www.w3.org/2001/xml-events"
		width="8.40278in" height="2.27535in" viewBox="0 0 605 163.825" xml:space="preserve" color-interpolation-filters="sRGB"
		class="st7">
	<style type="text/css">
	<![CDATA[
		.st1 {fill:#c4dbf2;stroke:none;stroke-linecap:round;stroke-linejoin:round;stroke-width:0.24}
		.st2 {fill:#e7f0fa;stroke:none;stroke-linecap:round;stroke-linejoin:round;stroke-width:0.25}
		.st3 {stroke:#000000;stroke-linecap:round;stroke-linejoin:round;stroke-width:0.24}
		.st4 {fill:#ffffff;stroke:none;stroke-linecap:butt;stroke-width:7.2}
		.st5 {fill:#000000;font-family:Arial;font-size:1.00001em}
		.st6 {stroke:#000000;stroke-linecap:round;stroke-linejoin:round;stroke-width:5}
		.st7 {fill:none;fill-rule:evenodd;font-size:12px;overflow:visible;stroke-linecap:square;stroke-miterlimit:3}
	]]>
	</style>

	<g>
		<title>Page-1</title>
		<g id="shape297-1" transform="translate(2.5,-49.5949)">
			<title>Process.245</title>
			<rect x="0" y="52.0949" width="600" height="111.731" class="st1"/>
		</g>
		<g id="shape292-3" transform="translate(15.6387,-57.6643)">
			<title>Chevron.10</title>
			<path d="M0 163.83 L47.8 163.83 L95.59 116.03 L47.8 68.23 L0 68.23 L47.8 116.03 L0 163.83 Z" class="st2"/>
		</g>
		<g id="shape310-5" transform="translate(111.23,-57.6643)">
			<title>Chevron.310</title>
			<path d="M0 163.83 L47.8 163.83 L95.59 116.03 L47.8 68.23 L0 68.23 L47.8 116.03 L0 163.83 Z" class="st2"/>
		</g>
		<g id="shape311-7" transform="translate(206.822,-57.6643)">
			<title>Chevron.311</title>
			<path d="M0 163.83 L47.8 163.83 L95.59 116.03 L47.8 68.23 L0 68.23 L47.8 116.03 L0 163.83 Z" class="st2"/>
		</g>
		<g id="shape312-9" transform="translate(302.414,-57.6643)">
			<title>Chevron.312</title>
			<path d="M0 163.83 L47.8 163.83 L95.59 116.03 L47.8 68.23 L0 68.23 L47.8 116.03 L0 163.83 Z" class="st2"/>
		</g>
		<g id="shape313-11" transform="translate(398.005,-57.6643)">
			<title>Chevron.313</title>
			<path d="M0 163.83 L47.8 163.83 L95.59 116.03 L47.8 68.23 L0 68.23 L47.8 116.03 L0 163.83 Z" class="st2"/>
		</g>
		<g id="shape314-13" transform="translate(493.597,-57.6643)">
			<title>Chevron.314</title>
			<path d="M0 163.83 L47.8 163.83 L95.59 116.03 L47.8 68.23 L0 68.23 L47.8 116.03 L0 163.83 Z" class="st2"/>
		</g>
		<g id="shape317-15" transform="translate(227.26,106.161) rotate(90)">
			<title>Flowline1</title>
			<desc>AIN1</desc>
			<path d="M0 163.83 L18.9 163.83" class="st3"/>
			<rect x="-178.833" y="26.6981" width="26.6781" height="14.4001" transform="rotate(-90)" class="st4"/>
			<text x="-178.83" y="37.5" transform="rotate(-90)" class="st5">AIN1</text>		</g>
		<g id="shape318-20" transform="translate(322.852,106.161) rotate(90)">
			<title>Flowline1.318</title>
			<desc>AIN2</desc>
			<path d="M0 163.83 L18.9 163.83" class="st3"/>
			<rect x="-178.833" y="26.6981" width="26.6781" height="14.4001" transform="rotate(-90)" class="st4"/>
			<text x="-178.83" y="37.5" transform="rotate(-90)" class="st5">AIN2</text>		</g>
		<g id="shape319-25" transform="translate(418.443,106.161) rotate(90)">
			<title>Flowline1.319</title>
			<desc>AIN3</desc>
			<path d="M0 163.83 L18.9 163.83" class="st3"/>
			<rect x="-178.833" y="26.6981" width="26.6781" height="14.4001" transform="rotate(-90)" class="st4"/>
			<text x="-178.83" y="37.5" transform="rotate(-90)" class="st5">AIN3</text>		</g>
		<g id="shape320-30" transform="translate(514.035,106.161) rotate(90)">
			<title>Flowline1.320</title>
			<desc>AIN1</desc>
			<path d="M0 163.83 L18.9 163.83" class="st3"/>
			<rect x="-178.833" y="26.6981" width="26.6781" height="14.4001" transform="rotate(-90)" class="st4"/>
			<text x="-178.83" y="37.5" transform="rotate(-90)" class="st5">AIN1</text>		</g>
		<g id="shape321-35" transform="translate(609.627,106.161) rotate(90)">
			<title>Flowline1.321</title>
			<desc>AIN2</desc>
			<path d="M0 163.83 L18.9 163.83" class="st3"/>
			<rect x="-178.833" y="26.6981" width="26.6781" height="14.4001" transform="rotate(-90)" class="st4"/>
			<text x="-178.83" y="37.5" transform="rotate(-90)" class="st5">AIN2</text>		</g>
		<g id="shape322-40" transform="translate(705.219,106.161) rotate(90)">
			<title>Flowline1.322</title>
			<desc>AIN4</desc>
			<path d="M0 163.83 L18.9 163.83" class="st3"/>
			<rect x="-178.833" y="26.6981" width="26.6781" height="14.4001" transform="rotate(-90)" class="st4"/>
			<text x="-178.83" y="37.5" transform="rotate(-90)" class="st5">AIN4</text>		</g>
		<g id="shape323-45" transform="translate(-27.4916,-46.8262) rotate(-10.5487)">
			<title>Sheet.323</title>
			<path d="M0 163.83 L610.31 163.83" class="st6"/>
		</g>
		<g id="shape324-48" transform="translate(32.4916,-158.557) rotate(10.5487)">
			<title>Sheet.324</title>
			<path d="M0 163.83 L610.31 163.83" class="st6"/>
		</g>
	</g>
</svg>
