<?xml version="1.0" encoding="UTF-8" standalone="no"?>
<!DOCTYPE svg PUBLIC "-//W3C//DTD SVG 1.1//EN" "http://www.w3.org/Graphics/SVG/1.1/DTD/svg11.dtd">
<!-- Generated by Microsoft Visio, SVG Export csense_good_design2.svg Page-1 -->
<svg xmlns="http://www.w3.org/2000/svg" xmlns:xlink="http://www.w3.org/1999/xlink" xmlns:ev="http://www.w3.org/2001/xml-events"
		width="8.33667in" height="2.2423in" viewBox="0 0 600.24 161.445" xml:space="preserve" color-interpolation-filters="sRGB"
		class="st6">
	<style type="text/css">
	<![CDATA[
		.st1 {fill:#c4dbf2;stroke:none;stroke-linecap:round;stroke-linejoin:round;stroke-width:0.24}
		.st2 {fill:#e7f0fa;stroke:none;stroke-linecap:round;stroke-linejoin:round;stroke-width:0.25}
		.st3 {stroke:#000000;stroke-linecap:round;stroke-linejoin:round;stroke-width:0.24}
		.st4 {fill:#ffffff;stroke:none;stroke-linecap:butt;stroke-width:7.2}
		.st5 {fill:#000000;font-family:Arial;font-size:1.00001em}
		.st6 {fill:none;fill-rule:evenodd;font-size:12px;overflow:visible;stroke-linecap:square;stroke-miterlimit:3}
	]]>
	</style>

	<g>
		<title>Page-1</title>
		<g id="shape297-1" transform="translate(0.12,-49.5949)">
			<title>Process.245</title>
			<rect x="0" y="49.7149" width="600" height="111.731" class="st1"/>
		</g>
		<g id="shape292-3" transform="translate(13.2587,-57.6643)">
			<title>Chevron.10</title>
			<path d="M0 161.45 L47.8 161.45 L95.59 113.65 L47.8 65.85 L0 65.85 L47.8 113.65 L0 161.45 Z" class="st2"/>
		</g>
		<g id="shape310-5" transform="translate(108.85,-57.6643)">
			<title>Chevron.310</title>
			<path d="M0 161.45 L47.8 161.45 L95.59 113.65 L47.8 65.85 L0 65.85 L47.8 113.65 L0 161.45 Z" class="st2"/>
		</g>
		<g id="shape311-7" transform="translate(204.442,-57.6643)">
			<title>Chevron.311</title>
			<path d="M0 161.45 L47.8 161.45 L95.59 113.65 L47.8 65.85 L0 65.85 L47.8 113.65 L0 161.45 Z" class="st2"/>
		</g>
		<g id="shape312-9" transform="translate(300.034,-57.6643)">
			<title>Chevron.312</title>
			<path d="M0 161.45 L47.8 161.45 L95.59 113.65 L47.8 65.85 L0 65.85 L47.8 113.65 L0 161.45 Z" class="st2"/>
		</g>
		<g id="shape313-11" transform="translate(395.625,-57.6643)">
			<title>Chevron.313</title>
			<path d="M0 161.45 L47.8 161.45 L95.59 113.65 L47.8 65.85 L0 65.85 L47.8 113.65 L0 161.45 Z" class="st2"/>
		</g>
		<g id="shape314-13" transform="translate(491.217,-57.6643)">
			<title>Chevron.314</title>
			<path d="M0 161.45 L47.8 161.45 L95.59 113.65 L47.8 65.85 L0 65.85 L47.8 113.65 L0 161.45 Z" class="st2"/>
		</g>
		<g id="shape317-15" transform="translate(222.5,103.781) rotate(90)">
			<title>Flowline1</title>
			<desc>AIN1</desc>
			<path d="M0 161.45 L18.9 161.45" class="st3"/>
			<rect x="-176.453" y="26.6981" width="26.6781" height="14.4001" transform="rotate(-90)" class="st4"/>
			<text x="-176.45" y="37.5" transform="rotate(-90)" class="st5">AIN1</text>		</g>
		<g id="shape318-20" transform="translate(318.092,103.781) rotate(90)">
			<title>Flowline1.318</title>
			<desc>AIN2</desc>
			<path d="M0 161.45 L18.9 161.45" class="st3"/>
			<rect x="-176.453" y="26.6981" width="26.6781" height="14.4001" transform="rotate(-90)" class="st4"/>
			<text x="-176.45" y="37.5" transform="rotate(-90)" class="st5">AIN2</text>		</g>
		<g id="shape319-25" transform="translate(413.683,103.781) rotate(90)">
			<title>Flowline1.319</title>
			<desc>AIN3</desc>
			<path d="M0 161.45 L18.9 161.45" class="st3"/>
			<rect x="-176.453" y="26.6981" width="26.6781" height="14.4001" transform="rotate(-90)" class="st4"/>
			<text x="-176.45" y="37.5" transform="rotate(-90)" class="st5">AIN3</text>		</g>
		<g id="shape320-30" transform="translate(509.275,103.781) rotate(90)">
			<title>Flowline1.320</title>
			<desc>AIN4</desc>
			<path d="M0 161.45 L18.9 161.45" class="st3"/>
			<rect x="-176.453" y="26.6981" width="26.6781" height="14.4001" transform="rotate(-90)" class="st4"/>
			<text x="-176.45" y="37.5" transform="rotate(-90)" class="st5">AIN4</text>		</g>
		<g id="shape321-35" transform="translate(604.867,103.781) rotate(90)">
			<title>Flowline1.321</title>
			<desc>AIN1</desc>
			<path d="M0 161.45 L18.9 161.45" class="st3"/>
			<rect x="-176.453" y="26.6981" width="26.6781" height="14.4001" transform="rotate(-90)" class="st4"/>
			<text x="-176.45" y="37.5" transform="rotate(-90)" class="st5">AIN1</text>		</g>
		<g id="shape322-40" transform="translate(700.459,103.781) rotate(90)">
			<title>Flowline1.322</title>
			<desc>AIN3</desc>
			<path d="M0 161.45 L18.9 161.45" class="st3"/>
			<rect x="-176.453" y="26.6981" width="26.6781" height="14.4001" transform="rotate(-90)" class="st4"/>
			<text x="-176.45" y="37.5" transform="rotate(-90)" class="st5">AIN3</text>		</g>
	</g>
</svg>
