<?xml version="1.0" encoding="UTF-8" standalone="no"?>
<!DOCTYPE svg PUBLIC "-//W3C//DTD SVG 1.1//EN" "http://www.w3.org/Graphics/SVG/1.1/DTD/svg11.dtd">
<!-- Generated by Microsoft Visio, SVG Export dtm_engine.svg Page-1 -->
<svg xmlns="http://www.w3.org/2000/svg" xmlns:xlink="http://www.w3.org/1999/xlink" xmlns:ev="http://www.w3.org/2001/xml-events"
		width="8.49637in" height="4.82004in" viewBox="0 0 611.739 347.043" xml:space="preserve" color-interpolation-filters="sRGB"
		class="st13">
	<style type="text/css">
	<![CDATA[
		.st1 {fill:#ffffff}
		.st2 {stroke:#000000;stroke-linecap:round;stroke-linejoin:round;stroke-width:0.24}
		.st3 {fill:#000000;font-family:Arial;font-size:1.00001em;font-weight:bold}
		.st4 {marker-end:url(#mrkr13-86);stroke:#000000;stroke-linecap:round;stroke-linejoin:round;stroke-width:0.24}
		.st5 {fill:#000000;fill-opacity:1;stroke:#000000;stroke-opacity:1;stroke-width:0.08695652173913}
		.st6 {fill:#ffffff;stroke:none;stroke-linecap:butt;stroke-width:7.2}
		.st7 {fill:#000000;font-family:Arial;font-size:0.666664em}
		.st8 {marker-start:url(#mrkr13-94);stroke:#000000;stroke-linecap:round;stroke-linejoin:round;stroke-width:0.24}
		.st9 {fill:#000000;font-family:Arial;font-size:0.833336em}
		.st10 {font-size:0.799995em}
		.st11 {marker-end:url(#mrkr13-86);marker-start:url(#mrkr10-212);stroke:#000000;stroke-linecap:round;stroke-linejoin:round;stroke-width:0.24}
		.st12 {fill:#000000;fill-opacity:1;stroke:#000000;stroke-opacity:1;stroke-width:0.057142857142857}
		.st13 {fill:none;fill-rule:evenodd;font-size:12px;overflow:visible;stroke-linecap:square;stroke-miterlimit:3}
	]]>
	</style>

	<defs id="Markers">
		<g id="lend13">
			<path d="M 3 1 L 0 0 L 3 -1 L 3 1 " style="stroke:none"/>
		</g>
		<marker id="mrkr13-86" class="st5" refX="-34.5" orient="auto" markerUnits="strokeWidth" overflow="visible">
			<use xlink:href="#lend13" transform="scale(-11.5,-11.5) "/>
		</marker>
		<marker id="mrkr13-94" class="st5" refX="33" orient="auto" markerUnits="strokeWidth" overflow="visible">
			<use xlink:href="#lend13" transform="scale(11.5) "/>
		</marker>
		<g id="lend10">
			<path
					d="M 0 0.75 C -0.414214 0.75 -0.75 0.414214 -0.75 0 -0.75 -0.414214 -0.414214 -0.75 0 -0.75 0.414214 -0.75 0.75 -0.414214 0.75 0 0.75 0.414214 0.414214 0.75 0 0.75 Z "
					style="stroke:none"/>
		</g>
		<marker id="mrkr10-212" class="st12" refX="11.625" orient="auto" markerUnits="strokeWidth" overflow="visible">
			<use xlink:href="#lend10" transform="scale(17.5) "/>
		</marker>
	</defs>
	<g>
		<title>Page-1</title>
		<g id="group1-1" transform="translate(0.716704,-0.12)">
			<title>Object</title>
			<g id="shape2-2" transform="translate(51.0236,0)">
				<title>Sheet.2</title>
				<path d="M0 347.04 L0 69.25 L0 347.04 Z" class="st1"/>
			</g>
			<g id="shape3-5">
				<title>Sheet.3</title>
				<path d="M51.02 347.04 L0 347.04 L51.02 347.04 Z" class="st1"/>
			</g>
			<g id="shape4-8">
				<title>Sheet.4</title>
				<path d="M51.02 347.04 L0 347.04 L51.02 347.04 Z" class="st1"/>
			</g>
			<g id="shape5-11">
				<title>Sheet.5</title>
				<path d="M51.02 347.04 L0 347.04 L51.02 347.04 Z" class="st1"/>
			</g>
			<g id="shape6-14">
				<title>Sheet.6</title>
				<desc>Idle</desc>
				<path d="M51.02 347.04 L51.02 69.25 L0 69.25 L0 347.04 L51.02 347.04 ZM0 347.04 L0 69.25 L0 347.04 ZM51.02 69.25
							 L51.02 347.04 L51.02 69.25 Z" class="st1"/>
				<path d="M51.02 347.04 L51.02 69.25" class="st2"/>
				<path d="M0 347.04 L0 69.25" class="st2"/>
				<path d="M0 69.25 L51.02 69.25" class="st2"/>
				<path d="M0 347.04 L51.02 347.04" class="st2"/>
				<text x="15.18" y="211.75" class="st3">Idle</text>			</g>
		</g>
		<g id="group14-21" transform="translate(338.04,-115.406)">
			<title>Object.14</title>
			<g id="shape15-22" transform="translate(134.22,0)">
				<title>Sheet.15</title>
				<path d="M0 347.04 L0 297.92 L0 347.04 Z" class="st1"/>
			</g>
			<g id="shape16-25">
				<title>Sheet.16</title>
				<path d="M134.22 347.04 L0 347.04 L134.22 347.04 Z" class="st1"/>
			</g>
			<g id="shape17-28">
				<title>Sheet.17</title>
				<path d="M134.22 347.04 L0 347.04 L134.22 347.04 Z" class="st1"/>
			</g>
			<g id="shape18-31">
				<title>Sheet.18</title>
				<path d="M134.22 347.04 L0 347.04 L134.22 347.04 Z" class="st1"/>
			</g>
			<g id="shape19-34">
				<title>Sheet.19</title>
				<desc>Transmitter test</desc>
				<path d="M134.22 347.04 L134.22 297.92 L0 297.92 L0 347.04 L134.22 347.04 ZM0 347.04 L0 297.92 L0 347.04 ZM134.22
							 297.92 L134.22 347.04 L134.22 297.92 Z" class="st1"/>
				<path d="M134.22 347.04 L134.22 297.92" class="st2"/>
				<path d="M0 347.04 L0 297.92" class="st2"/>
				<path d="M0 297.92 L134.22 297.92" class="st2"/>
				<path d="M0 347.04 L134.22 347.04" class="st2"/>
				<text x="21.76" y="326.08" class="st3">Transmitter test</text>			</g>
		</g>
		<g id="group20-41" transform="translate(338.04,-207.049)">
			<title>Object.20</title>
			<g id="shape21-42" transform="translate(134.22,0)">
				<title>Sheet.21</title>
				<path d="M0 347.04 L0 297.92 L0 347.04 Z" class="st1"/>
			</g>
			<g id="shape22-45">
				<title>Sheet.22</title>
				<path d="M134.22 347.04 L0 347.04 L134.22 347.04 Z" class="st1"/>
			</g>
			<g id="shape23-48">
				<title>Sheet.23</title>
				<path d="M134.22 347.04 L0 347.04 L134.22 347.04 Z" class="st1"/>
			</g>
			<g id="shape24-51">
				<title>Sheet.24</title>
				<path d="M134.22 347.04 L0 347.04 L134.22 347.04 Z" class="st1"/>
			</g>
			<g id="shape25-54">
				<title>Sheet.25</title>
				<desc>Receiver test</desc>
				<path d="M134.22 347.04 L134.22 297.92 L0 297.92 L0 347.04 L134.22 347.04 ZM0 347.04 L0 297.92 L0 347.04 ZM134.22
							 297.92 L134.22 347.04 L134.22 297.92 Z" class="st1"/>
				<path d="M134.22 347.04 L134.22 297.92" class="st2"/>
				<path d="M0 347.04 L0 297.92" class="st2"/>
				<path d="M0 297.92 L134.22 297.92" class="st2"/>
				<path d="M0 347.04 L134.22 347.04" class="st2"/>
				<text x="29.75" y="326.08" class="st3">Receiver test</text>			</g>
		</g>
		<g id="group26-61" transform="translate(338.04,-22.7972)">
			<title>Object.26</title>
			<g id="shape27-62" transform="translate(134.22,0)">
				<title>Sheet.27</title>
				<path d="M0 347.04 L0 297.92 L0 347.04 Z" class="st1"/>
			</g>
			<g id="shape28-65">
				<title>Sheet.28</title>
				<path d="M134.22 347.04 L0 347.04 L134.22 347.04 Z" class="st1"/>
			</g>
			<g id="shape29-68">
				<title>Sheet.29</title>
				<path d="M134.22 347.04 L0 347.04 L134.22 347.04 Z" class="st1"/>
			</g>
			<g id="shape30-71">
				<title>Sheet.30</title>
				<path d="M134.22 347.04 L0 347.04 L134.22 347.04 Z" class="st1"/>
			</g>
			<g id="shape31-74">
				<title>Sheet.31</title>
				<desc>Carrier test</desc>
				<path d="M134.22 347.04 L134.22 297.92 L0 297.92 L0 347.04 L134.22 347.04 ZM0 347.04 L0 297.92 L0 347.04 ZM134.22
							 297.92 L134.22 347.04 L134.22 297.92 Z" class="st1"/>
				<path d="M134.22 347.04 L134.22 297.92" class="st2"/>
				<path d="M0 347.04 L0 297.92" class="st2"/>
				<path d="M0 297.92 L134.22 297.92" class="st2"/>
				<path d="M0 347.04 L134.22 347.04" class="st2"/>
				<text x="35.09" y="326.08" class="st3">Carrier test</text>			</g>
		</g>
		<g id="shape33-81" transform="translate(125.217,97.474) rotate(-90)">
			<title>Self-call</title>
			<desc>LE_CMD_TRANSMITTER_TEST</desc>
			<path d="M0 347.04 L0 419.75 L-13.5 419.75 L-13.5 355.32" class="st4"/>
			<rect x="361.423" y="-10.469" width="118.683" height="9.59985" transform="rotate(90)" class="st6"/>
			<text x="361.42" y="-3.27" transform="rotate(90)" class="st7">LE_CMD_TRANSMITTER_TEST</text>		</g>
		<g id="shape38-89" transform="translate(125.229,120.151) rotate(-90)">
			<title>Self-call.38</title>
			<desc>LE_CMD_RECEIVER_TEST</desc>
			<path d="M0 354.96 L0 355.32 L0 422.16 L-13.5 422.16 L-13.5 347.04" class="st8"/>
			<rect x="361.61" y="17.8774" width="102.694" height="9.59985" transform="rotate(90)" class="st6"/>
			<text x="361.61" y="25.08" transform="rotate(90)" class="st7">LE_CMD_RECEIVER_TEST</text>		</g>
		<g id="shape39-97" transform="translate(125.332,188.856) rotate(-90)">
			<title>Self-call.39</title>
			<desc>LE_CMD_TRANSMITTER_TEST</desc>
			<path d="M0 347.04 L0 419.75 L-13.5 419.75 L-13.5 355.32" class="st4"/>
			<rect x="361.423" y="-10.469" width="118.683" height="9.59985" transform="rotate(90)" class="st6"/>
			<text x="361.42" y="-3.27" transform="rotate(90)" class="st7">LE_CMD_TRANSMITTER_TEST</text>		</g>
		<g id="shape40-104" transform="translate(125.344,211.533) rotate(-90)">
			<title>Self-call.40</title>
			<desc>LE_CMD_RECEIVER_TEST</desc>
			<path d="M0 354.96 L0 355.32 L0 422.16 L-13.5 422.16 L-13.5 347.04" class="st8"/>
			<rect x="361.61" y="17.8774" width="102.694" height="9.59985" transform="rotate(90)" class="st6"/>
			<text x="361.61" y="25.08" transform="rotate(90)" class="st7">LE_CMD_RECEIVER_TEST</text>		</g>
		<g id="shape43-111" transform="translate(125.407,281.726) rotate(-90)">
			<title>Self-call.43</title>
			<desc>LE_CMD_TRANSMITTER_TEST</desc>
			<path d="M0 347.04 L0 419.75 L-13.5 419.75 L-13.5 355.32" class="st4"/>
			<rect x="361.423" y="-10.469" width="118.683" height="9.59985" transform="rotate(90)" class="st6"/>
			<text x="361.42" y="-3.27" transform="rotate(90)" class="st7">LE_CMD_TRANSMITTER_TEST</text>		</g>
		<g id="shape44-118" transform="translate(125.419,304.403) rotate(-90)">
			<title>Self-call.44</title>
			<desc>LE_CMD_RECEIVER_TEST</desc>
			<path d="M0 354.96 L0 355.32 L0 422.16 L-13.5 422.16 L-13.5 347.04" class="st8"/>
			<rect x="361.61" y="17.8774" width="102.694" height="9.59985" transform="rotate(90)" class="st6"/>
			<text x="361.61" y="25.08" transform="rotate(90)" class="st7">LE_CMD_RECEIVER_TEST</text>		</g>
		<g id="shape45-125" transform="translate(51.7403,-243.892)">
			<title>Message.right</title>
			<desc>LE_CMD_RECEIVER_TEST</desc>
			<path d="M0 347.04 L278.02 347.04" class="st4"/>
			<rect x="77.5737" y="341.036" width="128.37" height="12.0001" class="st6"/>
			<text x="77.57" y="350.04" class="st9">LE_CMD_RECEIVER_TEST</text>		</g>
		<g id="shape46-132" transform="translate(51.7403,-231.611)">
			<title>Message.right.46</title>
			<desc>LE_CMD_TEST_END</desc>
			<path d="M7.92 347.04 L8.28 347.04 L286.3 347.04" class="st8"/>
			<rect x="92.5788" y="341.227" width="98.3598" height="12.0001" class="st6"/>
			<text x="92.58" y="350.23" class="st9">LE_CMD_TEST_END</text>		</g>
		<g id="shape47-139" transform="translate(51.7403,-219.33)">
			<title>Message.right.47</title>
			<desc>LE_CMD_RESET</desc>
			<path d="M7.92 347.04 L8.28 347.04 L286.3 347.04" class="st8"/>
			<rect x="102.025" y="341.227" width="79.4682" height="12.0001" class="st6"/>
			<text x="102.02" y="350.23" class="st9">LE_CMD_RESET</text>		</g>
		<g id="shape48-146" transform="translate(51.7403,-153.191)">
			<title>Message.right.48</title>
			<desc>LE_CMD_TRANSMITTER_TEST, pkt = 0x0F || 0x55 || PRBS9</desc>
			<path d="M0 347.04 L278.02 347.04" class="st4"/>
			<rect x="16.1795" y="341.036" width="251.158" height="12.0001" class="st6"/>
			<text x="16.18" y="350.04" class="st9">LE_CMD_TRANSMITTER_TEST<tspan class="st10">, </tspan><tspan class="st10">pkt </tspan><tspan
						class="st10">= </tspan><tspan class="st10">0</tspan><tspan class="st10">x</tspan><tspan class="st10">0</tspan><tspan
						class="st10">F </tspan><tspan class="st10">|| </tspan><tspan class="st10">0</tspan><tspan class="st10">x</tspan><tspan
						class="st10">55 </tspan><tspan class="st10">|| </tspan><tspan class="st10">PRBS</tspan><tspan class="st10">9</tspan></text>		</g>
		<g id="shape49-167" transform="translate(51.7403,-140.91)">
			<title>Message.right.49</title>
			<desc>LE_CMD_TEST_END</desc>
			<path d="M7.92 347.04 L8.28 347.04 L286.3 347.04" class="st8"/>
			<rect x="92.5788" y="341.227" width="98.3598" height="12.0001" class="st6"/>
			<text x="92.58" y="350.23" class="st9">LE_CMD_TEST_END</text>		</g>
		<g id="shape50-174" transform="translate(51.7403,-128.629)">
			<title>Message.right.50</title>
			<desc>LE_CMD_RESET</desc>
			<path d="M7.92 347.04 L8.28 347.04 L286.3 347.04" class="st8"/>
			<rect x="102.025" y="341.227" width="79.4682" height="12.0001" class="st6"/>
			<text x="102.02" y="350.23" class="st9">LE_CMD_RESET</text>		</g>
		<g id="shape51-181" transform="translate(51.7403,-58.6977)">
			<title>Message.right.51</title>
			<desc>LE_CMD_TRANSMITTER_TEST, pkt = Vendor Specific</desc>
			<path d="M0 347.04 L278.02 347.04" class="st4"/>
			<rect x="27.7267" y="341.036" width="228.62" height="12.0001" class="st6"/>
			<text x="27.73" y="350.04" class="st9">LE_CMD_TRANSMITTER_TEST<tspan class="st10">, </tspan><tspan class="st10">pkt </tspan><tspan
						class="st10">= </tspan><tspan class="st10">Vendor Specific</tspan></text>		</g>
		<g id="shape52-192" transform="translate(51.7403,-46.4167)">
			<title>Message.right.52</title>
			<desc>LE_CMD_TEST_END</desc>
			<path d="M7.92 347.04 L8.28 347.04 L286.3 347.04" class="st8"/>
			<rect x="92.5788" y="341.227" width="98.3598" height="12.0001" class="st6"/>
			<text x="92.58" y="350.23" class="st9">LE_CMD_TEST_END</text>		</g>
		<g id="shape53-199" transform="translate(51.7403,-34.1357)">
			<title>Message.right.53</title>
			<desc>LE_CMD_RESET</desc>
			<path d="M7.92 347.04 L8.28 347.04 L286.3 347.04" class="st8"/>
			<rect x="102.025" y="341.227" width="79.4682" height="12.0001" class="st6"/>
			<text x="102.02" y="350.23" class="st9">LE_CMD_RESET</text>		</g>
		<g id="shape57-206" transform="translate(19.1379,-338.315)">
			<title>Dynamic connector</title>
			<desc>dtm_init()</desc>
			<path d="M7.08 349.83 L7.08 350.19 L7.09 399.16" class="st11"/>
			<rect x="-13.7509" y="371.243" width="41.675" height="12.0001" class="st6"/>
			<text x="-13.75" y="380.24" class="st9">dtm_init()</text>		</g>
	</g>
</svg>
