<?xml version="1.0" encoding="UTF-8" standalone="no"?>
<!DOCTYPE svg PUBLIC "-//W3C//DTD SVG 1.1//EN" "http://www.w3.org/Graphics/SVG/1.1/DTD/svg11.dtd">
<!-- Generated by Microsoft Visio, SVG Export event_send_diagram.svg Page-1 -->
<svg xmlns="http://www.w3.org/2000/svg" xmlns:xlink="http://www.w3.org/1999/xlink" xmlns:ev="http://www.w3.org/2001/xml-events"
		width="7.5416in" height="2.08667in" viewBox="0 0 542.995 150.24" xml:space="preserve" color-interpolation-filters="sRGB"
		class="st12">
	<style type="text/css">
	<![CDATA[
		.st1 {fill:#dc582a;fill-opacity:0.5;stroke:#000000;stroke-linecap:round;stroke-linejoin:round;stroke-opacity:0.098;stroke-width:0.24}
		.st2 {fill:#c4dbf2;stroke:#000000;stroke-linecap:round;stroke-linejoin:round;stroke-opacity:0.098;stroke-width:0.24}
		.st3 {fill:#ffffff;fill-opacity:0}
		.st4 {stroke:#000000;stroke-linecap:round;stroke-linejoin:round;stroke-width:0.24}
		.st5 {fill:#000000;font-family:Arial;font-size:1.00001em}
		.st6 {font-size:1em}
		.st7 {stroke:#000000;stroke-dasharray:3.6,2.16;stroke-linecap:round;stroke-linejoin:round;stroke-width:0.24}
		.st8 {marker-end:url(#mrkr13-80);stroke:#000000;stroke-linecap:round;stroke-linejoin:round;stroke-width:0.24}
		.st9 {fill:#000000;fill-opacity:1;stroke:#000000;stroke-opacity:1;stroke-width:0.08695652173913}
		.st10 {fill:none;stroke:none;stroke-linecap:round;stroke-linejoin:round;stroke-width:0.75}
		.st11 {fill:#000000;font-family:Arial;font-size:1.00001em;font-weight:bold}
		.st12 {fill:none;fill-rule:evenodd;font-size:12px;overflow:visible;stroke-linecap:square;stroke-miterlimit:3}
	]]>
	</style>

	<defs id="Markers">
		<g id="lend13">
			<path d="M 3 1 L 0 0 L 3 -1 L 3 1 " style="stroke:none"/>
		</g>
		<marker id="mrkr13-80" class="st9" refX="-34.5" orient="auto" markerUnits="strokeWidth" overflow="visible">
			<use xlink:href="#lend13" transform="scale(-11.5,-11.5) "/>
		</marker>
	</defs>
	<g>
		<title>Page-1</title>
		<g id="shape285-1" transform="translate(0.12,-0.12)">
			<title>Sheet.285</title>
			<rect x="0" y="0.239994" width="145" height="150" rx="11.3386" ry="11.3386" class="st1"/>
		</g>
		<g id="shape284-3" transform="translate(187.62,-0.12)">
			<title>Sheet.284</title>
			<rect x="0" y="0.239994" width="350" height="150" rx="11.3386" ry="11.3386" class="st2"/>
		</g>
		<g id="group227-5" transform="translate(17.62,-102.12)">
			<title>Sheet.227</title>
			<g id="shape228-6" transform="translate(110,0)">
				<title>Sheet.228</title>
				<path d="M0 150.24 L0 114.24 L0 150.24 Z" class="st3"/>
			</g>
			<g id="shape229-9">
				<title>Sheet.229</title>
				<path d="M110 150.24 L0 150.24 L110 150.24 Z" class="st3"/>
			</g>
			<g id="shape230-12">
				<title>Sheet.230</title>
				<path d="M110 150.24 L0 150.24 L110 150.24 Z" class="st3"/>
			</g>
			<g id="shape231-15">
				<title>Sheet.231</title>
				<path d="M110 150.24 L0 150.24 L110 150.24 Z" class="st3"/>
			</g>
			<g id="shape232-18">
				<title>Sheet.232</title>
				<desc>Application chip</desc>
				<path d="M110 150.24 L110 114.24 L0 114.24 L0 150.24 L110 150.24 ZM0 150.24 L0 114.24 L0 150.24 ZM110 114.24 L110
							 150.24 L110 114.24 Z" class="st3"/>
				<path d="M110 150.24 L110 114.24" class="st4"/>
				<path d="M0 150.24 L0 114.24" class="st4"/>
				<path d="M0 114.24 L110 114.24" class="st4"/>
				<path d="M0 150.24 L110 150.24" class="st4"/>
				<text x="12.97" y="135.84" class="st5">Application chip</text>			</g>
		</g>
		<g id="group233-25" transform="translate(212.13,-102.12)">
			<title>Sheet.233</title>
			<g id="shape234-26" transform="translate(100,0)">
				<title>Sheet.234</title>
				<path d="M0 150.24 L0 114.24 L0 150.24 Z" class="st3"/>
			</g>
			<g id="shape235-29">
				<title>Sheet.235</title>
				<path d="M100 150.24 L0 150.24 L100 150.24 Z" class="st3"/>
			</g>
			<g id="shape236-32">
				<title>Sheet.236</title>
				<path d="M100 150.24 L0 150.24 L100 150.24 Z" class="st3"/>
			</g>
			<g id="shape237-35">
				<title>Sheet.237</title>
				<path d="M100 150.24 L0 150.24 L100 150.24 Z" class="st3"/>
			</g>
			<g id="shape238-38">
				<title>Sheet.238</title>
				<desc>Connectivity codec</desc>
				<path d="M100 150.24 L100 114.24 L0 114.24 L0 150.24 L100 150.24 ZM0 150.24 L0 114.24 L0 150.24 ZM100 114.24 L100
							 150.24 L100 114.24 Z" class="st3"/>
				<path d="M100 150.24 L100 114.24" class="st4"/>
				<path d="M0 150.24 L0 114.24" class="st4"/>
				<path d="M0 114.24 L100 114.24" class="st4"/>
				<path d="M0 150.24 L100 150.24" class="st4"/>
				<text x="17.32" y="128.64" class="st5">Connectivity <tspan x="33.99" dy="1.2em" class="st6">codec</tspan></text>			</g>
		</g>
		<g id="group239-46" transform="translate(372.13,-102.12)">
			<title>Sheet.239</title>
			<g id="shape240-47" transform="translate(100,0)">
				<title>Sheet.240</title>
				<path d="M0 150.24 L0 114.24 L0 150.24 Z" class="st3"/>
			</g>
			<g id="shape241-50">
				<title>Sheet.241</title>
				<path d="M100 150.24 L0 150.24 L100 150.24 Z" class="st3"/>
			</g>
			<g id="shape242-53">
				<title>Sheet.242</title>
				<path d="M100 150.24 L0 150.24 L100 150.24 Z" class="st3"/>
			</g>
			<g id="shape243-56">
				<title>Sheet.243</title>
				<path d="M100 150.24 L0 150.24 L100 150.24 Z" class="st3"/>
			</g>
			<g id="shape244-59">
				<title>Sheet.244</title>
				<desc>SoftDevice</desc>
				<path d="M100 150.24 L100 114.24 L0 114.24 L0 150.24 L100 150.24 ZM0 150.24 L0 114.24 L0 150.24 ZM100 114.24 L100
							 150.24 L100 114.24 Z" class="st3"/>
				<path d="M100 150.24 L100 114.24" class="st4"/>
				<path d="M0 150.24 L0 114.24" class="st4"/>
				<path d="M0 114.24 L100 114.24" class="st4"/>
				<path d="M0 150.24 L100 150.24" class="st4"/>
				<text x="20.99" y="135.84" class="st5">SoftDevice</text>			</g>
		</g>
		<g id="shape245-66" transform="translate(72.62,198.36) scale(1,-1)">
			<title>Lifeline.42</title>
			<path d="M0 150.24 L0 48.24" class="st7"/>
		</g>
		<g id="shape246-69" transform="translate(262.13,198.36) scale(1,-1)">
			<title>Lifeline.246</title>
			<path d="M0 150.24 L0 48.24" class="st7"/>
		</g>
		<g id="shape247-72" transform="translate(422.13,198.36) scale(1,-1)">
			<title>Lifeline.247</title>
			<path d="M0 150.24 L0 48.24" class="st7"/>
		</g>
		<g id="shape250-75" transform="translate(422.13,234.36) rotate(180)">
			<title>Sheet.250</title>
			<path d="M0 150.24 L151.72 150.24" class="st8"/>
		</g>
		<g id="shape251-81" transform="translate(262.13,261.36) rotate(180)">
			<title>Sheet.251</title>
			<path d="M0 150.24 L181.23 150.24" class="st8"/>
		</g>
		<g id="shape279-86" transform="translate(412.62,-66.12)">
			<title>Sheet.279</title>
			<desc>Event triggered</desc>
			<rect x="0" y="131.24" width="130" height="19" class="st10"/>
			<text x="20.99" y="144.34" class="st11">Event triggered</text>		</g>
		<g id="shape280-89" transform="translate(252.62,-38.12)">
			<title>Sheet.280</title>
			<desc>Event encode</desc>
			<rect x="0" y="122.24" width="130" height="28" class="st10"/>
			<text x="25.99" y="139.84" class="st11">Event encode</text>		</g>
		<g id="shape286-92" transform="translate(270.13,-60.7082)">
			<title>Sheet.286</title>
			<desc>SoftDevice event</desc>
			<rect x="0" y="130.24" width="152" height="20" class="st10"/>
			<text x="30.64" y="143.84" class="st5">SoftDevice event</text>		</g>
		<g id="shape287-95" transform="translate(90.37,-34.2376)">
			<title>Sheet.287</title>
			<desc>Event</desc>
			<rect x="0" y="130.24" width="152" height="20" class="st10"/>
			<text x="60.66" y="143.84" class="st5">Event</text>		</g>
	</g>
</svg>
