<?xml version="1.0" encoding="UTF-8" standalone="no"?>
<!DOCTYPE svg PUBLIC "-//W3C//DTD SVG 1.1//EN" "http://www.w3.org/Graphics/SVG/1.1/DTD/svg11.dtd">
<!-- Generated by Microsoft Visio, SVG Export fds.svg Page-1 -->
<svg xmlns="http://www.w3.org/2000/svg" xmlns:xlink="http://www.w3.org/1999/xlink" xmlns:ev="http://www.w3.org/2001/xml-events"
		width="11.6929in" height="8.26772in" viewBox="0 0 841.89 595.276" xml:space="preserve" color-interpolation-filters="sRGB"
		class="st12">
	<style type="text/css">
	<![CDATA[
		.st1 {visibility:visible}
		.st2 {fill:none;filter:url(#filter_2);stroke:#5b9bd5;stroke-opacity:0.22}
		.st3 {fill:none;stroke:#c7c8c8;stroke-opacity:0;stroke-width:0.25}
		.st4 {fill:none;stroke:none;stroke-linecap:round;stroke-linejoin:round;stroke-width:0.72}
		.st5 {fill:#000000;font-family:Arial;font-size:1.00001em}
		.st6 {font-size:1em}
		.st7 {fill:none;stroke:#c7c8c8;stroke-width:0.25}
		.st8 {fill:#009cde;fill-opacity:0.85;stroke:#000000;stroke-linecap:round;stroke-linejoin:round;stroke-width:0.72}
		.st9 {fill:#6dcff6;fill-opacity:0.85;stroke:#000000;stroke-linecap:round;stroke-linejoin:round;stroke-width:0.72}
		.st10 {fill:#dc582a;fill-opacity:0.85;stroke:#000000;stroke-linecap:round;stroke-linejoin:round;stroke-width:0.72}
		.st11 {fill:none;stroke:none;stroke-width:0.25}
		.st12 {fill:none;fill-rule:evenodd;font-size:12px;overflow:visible;stroke-linecap:square;stroke-miterlimit:3}
	]]>
	</style>

	<defs id="Filters">
		<filter id="filter_2">
			<feGaussianBlur stdDeviation="2"/>
		</filter>
	</defs>
	<g>
		<title>Page-1</title>
		<g id="group1-1" transform="translate(36.8504,-162.049)">
			<title>b.address.background</title>
			<g id="shape2-2" transform="translate(1.55875E-012,-0.630895)">
				<title>Sheet.2</title>
				<g id="shadow2-3" transform="matrix(1,0,0,1,0.345598,1.97279)" class="st1">
					<rect x="0" y="212.26" width="87.3764" height="383.016" class="st2"/>
				</g>
				<rect x="0" y="212.26" width="87.3764" height="383.016" class="st3"/>
			</g>
			<g id="shape3-7" transform="translate(-11.946,-299.999)">
				<title>Sheet.3</title>
				<desc>UICR.NRFFW[0]</desc>
				<rect x="0" y="575.681" width="113.386" height="19.5941" class="st4"/>
				<text x="12.03" y="589.08" class="st5">UICR.NRFFW[0]</text>			</g>
			<g id="shape4-10" transform="translate(-5.59552E-014,-348.188)">
				<title>Sheet.4</title>
				<desc>0x80000 512 KB</desc>
				<rect x="0" y="559.816" width="90.7087" height="35.4594" class="st4"/>
				<text x="22.33" y="573.95" class="st5">0x80000 <tspan x="25.67" dy="1.2em" class="st6">512 </tspan>KB</text>			</g>
			<g id="shape5-14" transform="translate(90.367,-8.20163)">
				<title>Sheet.5</title>
				<g id="shadow5-15" transform="matrix(1,0,0,1,0.345598,1.97279)" class="st1">
					<rect x="0" y="226.202" width="221.444" height="369.073" class="st2"/>
				</g>
				<rect x="0" y="226.202" width="221.444" height="369.073" class="st7"/>
			</g>
		</g>
		<g id="group6-19" transform="translate(467.717,-162.049)">
			<title>b.address.background.6</title>
			<g id="shape7-20" transform="translate(1.55875E-012,-0.630895)">
				<title>Sheet.7</title>
				<g id="shadow7-21" transform="matrix(1,0,0,1,0.345598,1.97279)" class="st1">
					<rect x="0" y="212.26" width="87.3764" height="383.016" class="st2"/>
				</g>
				<rect x="0" y="212.26" width="87.3764" height="383.016" class="st3"/>
			</g>
			<g id="shape9-25" transform="translate(1.27898E-013,-348.188)">
				<title>Sheet.9</title>
				<desc>0x80000 512 KB</desc>
				<rect x="0" y="559.816" width="87.3764" height="35.4594" class="st4"/>
				<text x="20.67" y="573.95" class="st5">0x80000 <tspan x="24.01" dy="1.2em" class="st6">512 </tspan>KB</text>			</g>
			<g id="shape10-29" transform="translate(90.367,-8.20163)">
				<title>Sheet.10</title>
				<g id="shadow10-30" transform="matrix(1,0,0,1,0.345598,1.97279)" class="st1">
					<rect x="0" y="226.202" width="221.444" height="369.073" class="st2"/>
				</g>
				<rect x="0" y="226.202" width="221.444" height="369.073" class="st7"/>
			</g>
		</g>
		<g id="shape14-34" transform="translate(127.559,-473.386)">
			<title>s.1</title>
			<desc>Bootloader</desc>
			<rect x="0" y="530.079" width="221.102" height="65.1969" class="st8"/>
			<text x="81.53" y="566.28" class="st5">Bootloader</text>		</g>
		<g id="shape15-37" transform="translate(127.559,-407.657)">
			<title>s.2</title>
			<desc>FDS area</desc>
			<rect x="0" y="530.079" width="221.102" height="65.1969" class="st9"/>
			<text x="84.88" y="566.28" class="st5">FDS area</text>		</g>
		<g id="shape66-40" transform="translate(558.425,-473.386)">
			<title>s.66</title>
			<desc>FDS area</desc>
			<rect x="0" y="530.079" width="221.102" height="65.1969" class="st9"/>
			<text x="84.88" y="566.28" class="st5">FDS area</text>		</g>
		<g id="group68-43" transform="translate(127.559,-285.732)">
			<title>Sheet.68</title>
			<g id="shape62-44">
				<title>Sheet.62</title>
				<path d="M221.1 573.53 L221.1 473.88 L0 473.88 L0 587.62 C8.59 586.67 15.87 587.86 23.24 589.04 C29.24 590 35.31
							 590.95 41.1 591.87 C51.79 593.58 61.53 595.22 72 595.28 C92.69 595.39 116.18 589.34 138.33 583.37 C151.58
							 579.8 164.36 576.26 177.45 574.3 C191.59 572.18 206.11 571.91 221.1 573.53 Z" class="st10"/>
			</g>
			<g id="shape63-46" transform="translate(45.3543,-51.5906)">
				<title>Sheet.63</title>
				<desc>Application</desc>
				<rect x="0" y="557.008" width="134.646" height="38.2677" class="st11"/>
				<text x="37.97" y="579.74" class="st5">Application</text>			</g>
		</g>
		<g id="group70-49" transform="translate(558.425,-351.496)">
			<title>Sheet.70</title>
			<g id="shape71-50">
				<title>Sheet.71</title>
				<path d="M221.1 573.53 L221.1 473.88 L0 473.88 L0 587.62 C8.59 586.67 15.87 587.86 23.24 589.04 C29.24 590 35.31
							 590.95 41.1 591.87 C51.79 593.58 61.53 595.22 72 595.28 C92.69 595.39 116.18 589.34 138.33 583.37 C151.58
							 579.8 164.36 576.26 177.45 574.3 C191.59 572.18 206.11 571.91 221.1 573.53 Z" class="st10"/>
			</g>
			<g id="shape72-52" transform="translate(45.3543,-51.5906)">
				<title>Sheet.72</title>
				<desc>Application</desc>
				<rect x="0" y="557.008" width="134.646" height="38.2677" class="st11"/>
				<text x="37.97" y="579.74" class="st5">Application</text>			</g>
		</g>
		<g id="shape73-55" transform="translate(127.559,-548.504)">
			<title>Sheet.73</title>
			<desc>With bootloader</desc>
			<rect x="0" y="572.598" width="219.685" height="22.6772" class="st11"/>
			<text x="67.82" y="587.54" class="st5">With bootloader</text>		</g>
		<g id="shape75-58" transform="translate(559.843,-544.252)">
			<title>Sheet.75</title>
			<desc>Without bootloader</desc>
			<rect x="0" y="572.598" width="219.685" height="22.6772" class="st11"/>
			<text x="59.48" y="587.54" class="st5">Without bootloader</text>		</g>
		<g id="shape81-61" transform="translate(18,-162.049)">
			<title>b.address.background.78</title>
			<desc>0x00000000</desc>
			<rect x="0" y="576.865" width="106.535" height="18.4103" class="st4"/>
			<text x="36.47" y="589.67" class="st5">0x00000000</text>		</g>
		<g id="shape82-64" transform="translate(449.882,-162.049)">
			<title>b.address.background.82</title>
			<desc>0x00000000</desc>
			<rect x="0" y="576.865" width="106.535" height="18.4103" class="st4"/>
			<text x="36.47" y="589.67" class="st5">0x00000000</text>		</g>
	</g>
</svg>
