<?xml version="1.0" encoding="UTF-8" standalone="no"?>
<!DOCTYPE svg PUBLIC "-//W3C//DTD SVG 1.1//EN" "http://www.w3.org/Graphics/SVG/1.1/DTD/svg11.dtd">
<!-- Generated by Microsoft Visio, SVG Export fds_record_layout.svg Page-1 -->
<svg xmlns="http://www.w3.org/2000/svg" xmlns:xlink="http://www.w3.org/1999/xlink" xmlns:ev="http://www.w3.org/2001/xml-events"
		width="8.014in" height="1.41586in" viewBox="0 0 577.008 101.942" xml:space="preserve" color-interpolation-filters="sRGB"
		class="st11">
	<style type="text/css">
	<![CDATA[
		.st1 {fill:#c4dbf2;stroke:#000000;stroke-linecap:round;stroke-linejoin:round;stroke-width:0.24}
		.st2 {fill:#000000;font-family:Arial;font-size:1.00001em}
		.st3 {fill:none;stroke:#000000;stroke-linecap:round;stroke-linejoin:round;stroke-width:0.24}
		.st4 {fill:none;stroke:none;stroke-linecap:round;stroke-linejoin:round;stroke-width:0.75}
		.st5 {fill:#000000;font-family:Calibri;font-size:1.00001em}
		.st6 {visibility:visible}
		.st7 {fill:none;filter:url(#filter_2);stroke:#5b9bd5;stroke-opacity:0.22}
		.st8 {stroke:#000000;stroke-width:0.5}
		.st9 {fill:#000000;font-family:Arial;font-size:1.00001em;font-style:italic}
		.st10 {font-size:1em;font-style:normal}
		.st11 {fill:none;fill-rule:evenodd;font-size:12px;overflow:visible;stroke-linecap:square;stroke-miterlimit:3}
	]]>
	</style>

	<defs id="Filters">
		<filter id="filter_2">
			<feGaussianBlur stdDeviation="2"/>
		</filter>
	</defs>
	<g>
		<title>Page-1</title>
		<g id="shape347-1" transform="translate(3.07867,-72.6396)">
			<title>Sheet.347</title>
			<desc>Header</desc>
			<rect x="0" y="72.7596" width="404.08" height="29.1822" class="st1"/>
			<text x="182.36" y="90.95" class="st2">Header</text>		</g>
		<g id="shape348-4" transform="translate(407.158,-72.6396)">
			<title>Sheet.348</title>
			<desc>Content</desc>
			<rect x="0" y="72.7596" width="165.974" height="29.1822" class="st1"/>
			<text x="61.97" y="90.95" class="st2">Content</text>		</g>
		<g id="shape349-7" transform="translate(3.07867,-43.4574)">
			<title>Sheet.349</title>
			<desc>Record key</desc>
			<rect x="0" y="72.7596" width="67.5422" height="29.1822" class="st3"/>
			<text x="3.42" y="90.95" class="st2">Record key</text>		</g>
		<g id="shape350-10" transform="translate(70.6208,-43.4574)">
			<title>Sheet.350</title>
			<desc>Data length</desc>
			<rect x="0" y="72.7596" width="67.2609" height="29.1822" class="st3"/>
			<text x="2.94" y="90.95" class="st2">Data length</text>		</g>
		<g id="shape351-13" transform="translate(137.882,-43.4574)">
			<title>Sheet.351</title>
			<desc>File ID</desc>
			<rect x="0" y="72.7596" width="67.5422" height="29.1822" class="st3"/>
			<text x="16.44" y="90.95" class="st2">File ID</text>		</g>
		<g id="shape352-16" transform="translate(205.424,-43.4574)">
			<title>Sheet.352</title>
			<desc>CRC value</desc>
			<rect x="0" y="72.7596" width="67.5422" height="29.1822" class="st3"/>
			<text x="4.76" y="90.95" class="st2">CRC value</text>		</g>
		<g id="shape353-19" transform="translate(272.966,-43.4574)">
			<title>Sheet.353</title>
			<desc>Record ID</desc>
			<rect x="0" y="72.7596" width="134.192" height="29.1822" class="st3"/>
			<text x="40.09" y="90.95" class="st2">Record ID</text>		</g>
		<g id="shape354-22" transform="translate(407.158,-43.4574)">
			<title>Sheet.354</title>
			<desc>Data</desc>
			<rect x="0" y="72.7596" width="90.1223" height="29.1822" class="st3"/>
			<text x="32.39" y="90.95" class="st2">Data</text>		</g>
		<g id="shape355-25" transform="translate(542.969,-43.4574)">
			<title>Sheet.355</title>
			<rect x="0" y="72.7596" width="30.1628" height="29.1822" class="st3"/>
		</g>
		<g id="shape356-27" transform="translate(497.281,-43.4574)">
			<title>Sheet.356</title>
			<desc>...</desc>
			<rect x="0" y="72.7596" width="45.6889" height="29.1822" class="st4"/>
			<text x="18.3" y="90.95" class="st5">...</text>		</g>
		<g id="shape358-30" transform="translate(105.02,58.4844) rotate(90)">
			<title>Right Brace.358</title>
			<g id="shadow358-31" transform="matrix(1,0,0,1,1.97279,-0.345598)" class="st6">
				<path d="M0 101.94 A27.7757 22.5602 -180 0 0 10.37 88.46 L10.37 34.54 L20.75 34.54 L10.37 34.54 L10.37 -19.39 A27.7757
							 22.5602 -180 0 0 -0 -32.87" class="st7"/>
			</g>
			<path d="M0 101.94 A27.7757 22.5602 -180 0 0 10.37 88.46 L10.37 34.54 L20.75 34.54 L10.37 34.54 L10.37 -19.39 A27.7757
						 22.5602 -180 0 0 -0 -32.87" class="st8"/>
		</g>
		<g id="shape359-38" transform="translate(239.589,58.4844) rotate(90)">
			<title>Right Brace.359</title>
			<g id="shadow359-39" transform="matrix(1,0,0,1,1.97279,-0.345598)" class="st6">
				<path d="M0 101.94 A27.7757 22.5602 -180 0 0 10.37 88.46 L10.37 34.54 L20.75 34.54 L10.37 34.54 L10.37 -19.39 A27.7757
							 22.5602 -180 0 0 -0 -32.87" class="st7"/>
			</g>
			<path d="M0 101.94 A27.7757 22.5602 -180 0 0 10.37 88.46 L10.37 34.54 L20.75 34.54 L10.37 34.54 L10.37 -19.39 A27.7757
						 22.5602 -180 0 0 -0 -32.87" class="st8"/>
		</g>
		<g id="shape360-46" transform="translate(374.291,58.4844) rotate(90)">
			<title>Right Brace.360</title>
			<g id="shadow360-47" transform="matrix(1,0,0,1,1.97279,-0.345598)" class="st6">
				<path d="M0 101.94 A27.7757 22.5602 -180 0 0 10.37 88.46 L10.37 34.54 L20.75 34.54 L10.37 34.54 L10.37 -19.39 A27.7757
							 22.5602 -180 0 0 -0 -32.87" class="st7"/>
			</g>
			<path d="M0 101.94 A27.7757 22.5602 -180 0 0 10.37 88.46 L10.37 34.54 L20.75 34.54 L10.37 34.54 L10.37 -19.39 A27.7757
						 22.5602 -180 0 0 -0 -32.87" class="st8"/>
		</g>
		<g id="shape361-54" transform="translate(509.206,58.4844) rotate(90)">
			<title>Right Brace.361</title>
			<g id="shadow361-55" transform="matrix(1,0,0,1,1.97279,-0.345598)" class="st6">
				<path d="M-0 101.94 A27.7757 27.7757 -180 0 0 10.37 85.34 L10.37 18.95 L20.75 18.95 L10.37 18.95 L10.37 -47.43 A27.7757
							 27.7757 -180 0 0 -0 -64.03" class="st7"/>
			</g>
			<path d="M-0 101.94 A27.7757 27.7757 -180 0 0 10.37 85.34 L10.37 18.95 L20.75 18.95 L10.37 18.95 L10.37 -47.43 A27.7757
						 27.7757 -180 0 0 -0 -64.03" class="st8"/>
		</g>
		<g id="shape363-62" transform="translate(20.4829,-0.375)">
			<title>Sheet.363</title>
			<desc>1 word (4 bytes)</desc>
			<rect x="0" y="79.6061" width="100" height="22.3356" class="st4"/>
			<text x="6.98" y="94.37" class="st2">1 word (4 bytes)</text>		</g>
		<g id="shape364-65" transform="translate(155.051,-0.375)">
			<title>Sheet.364</title>
			<desc>1 word (4 bytes)</desc>
			<rect x="0" y="79.6061" width="100" height="22.3356" class="st4"/>
			<text x="6.98" y="94.37" class="st2">1 word (4 bytes)</text>		</g>
		<g id="shape365-68" transform="translate(289.619,-0.375)">
			<title>Sheet.365</title>
			<desc>1 word (4 bytes)</desc>
			<rect x="0" y="79.6061" width="100" height="22.3356" class="st4"/>
			<text x="6.98" y="94.37" class="st2">1 word (4 bytes)</text>		</g>
		<g id="shape366-71" transform="translate(435.502,-0.375)">
			<title>Sheet.366</title>
			<desc>Data length words</desc>
			<rect x="0" y="79.6061" width="109.497" height="22.3356" class="st4"/>
			<text x="6.39" y="94.38" class="st9">Data length<tspan class="st10"> </tspan><tspan class="st10">words</tspan></text>		</g>
	</g>
</svg>
