<?xml version="1.0" encoding="UTF-8" standalone="no"?>
<!DOCTYPE svg PUBLIC "-//W3C//DTD SVG 1.1//EN" "http://www.w3.org/Graphics/SVG/1.1/DTD/svg11.dtd">
<!-- Generated by Microsoft Visio, SVG Export NEW_GPIOTE_Example.svg Page-1 -->
<svg xmlns="http://www.w3.org/2000/svg" xmlns:xlink="http://www.w3.org/1999/xlink" xmlns:ev="http://www.w3.org/2001/xml-events"
		width="3.13712in" height="6.53111in" viewBox="0 0 225.873 470.24" xml:space="preserve" color-interpolation-filters="sRGB"
		class="st10">
	<style type="text/css">
	<![CDATA[
		.st1 {fill:#c4dbf2;stroke:#000000;stroke-linecap:round;stroke-linejoin:round;stroke-width:0.24}
		.st2 {fill:#000000;font-family:Arial;font-size:1.00001em}
		.st3 {font-size:1em}
		.st4 {marker-end:url(#mrkr13-10);stroke:#000000;stroke-linecap:round;stroke-linejoin:round;stroke-width:0.24}
		.st5 {fill:#000000;fill-opacity:1;stroke:#000000;stroke-opacity:1;stroke-width:0.08695652173913}
		.st6 {fill:#ffffff;stroke:none;stroke-linecap:butt;stroke-width:7.2}
		.st7 {fill:#4677bf;fill-opacity:1;stroke:#4677bf;stroke-opacity:1;stroke-width:0.16556291390728}
		.st8 {marker-end:url(#mrkr4-50);stroke:#000000;stroke-linecap:round;stroke-linejoin:round;stroke-width:0.5}
		.st9 {fill:#000000;fill-opacity:1;stroke:#000000;stroke-opacity:1;stroke-width:0.16556291390728}
		.st10 {fill:none;fill-rule:evenodd;font-size:12px;overflow:visible;stroke-linecap:square;stroke-miterlimit:3}
	]]>
	</style>

	<defs id="Markers">
		<g id="lend13">
			<path d="M 3 1 L 0 0 L 3 -1 L 3 1 " style="stroke:none"/>
		</g>
		<marker id="mrkr13-10" class="st5" refX="-34.5" orient="auto" markerUnits="strokeWidth" overflow="visible">
			<use xlink:href="#lend13" transform="scale(-11.5,-11.5) "/>
		</marker>
		<g id="lend4">
			<path d="M 2 1 L 0 0 L 2 -1 L 2 1 " style="stroke:none"/>
		</g>
		<marker id="mrkr4-41" class="st7" refX="-12.08" orient="auto" markerUnits="strokeWidth" overflow="visible">
			<use xlink:href="#lend4" transform="scale(-6.04,-6.04) "/>
		</marker>
		<marker id="mrkr4-50" class="st9" refX="-12.08" orient="auto" markerUnits="strokeWidth" overflow="visible">
			<use xlink:href="#lend4" transform="scale(-6.04,-6.04) "/>
		</marker>
	</defs>
	<g>
		<title>Page-1</title>
		<g id="shape227-1" transform="translate(95.7529,-342.12)">
			<title>Process.245</title>
			<desc>Timer0 CC[0] = 200ms</desc>
			<rect x="0" y="416.24" width="110" height="54" class="st1"/>
			<text x="36.33" y="439.64" class="st2">Timer0 <tspan x="14.82" dy="1.2em" class="st3">CC</tspan>[0] = 200ms</text>		</g>
		<g id="shape228-5" transform="translate(620.993,128.12) rotate(90)">
			<title>Flowline1</title>
			<desc>Timer0_Event</desc>
			<path d="M0 470.24 L51.72 470.24" class="st4"/>
			<rect x="-509.257" y="12.8002" width="74.6963" height="14.4001" transform="rotate(-90)" class="st6"/>
			<text x="-509.26" y="23.6" transform="rotate(-90)" class="st2">Timer0_Event</text>		</g>
		<g id="shape229-13" transform="translate(75.7529,-228.12)">
			<title>Process.229</title>
			<desc>EEP | PPI Channel 0 | TEP</desc>
			<rect x="0" y="416.24" width="150" height="54" class="st1"/>
			<text x="2.85" y="446.84" class="st2">EEP | PPI Channel 0 | TEP</text>		</g>
		<g id="shape230-16" transform="translate(620.993,242.12) rotate(90)">
			<title>Flowline1.230</title>
			<desc>TASK</desc>
			<path d="M0 470.24 L51.72 470.24" class="st4"/>
			<rect x="-487.58" y="12.8002" width="31.3423" height="14.4001" transform="rotate(-90)" class="st6"/>
			<text x="-487.58" y="23.6" transform="rotate(-90)" class="st2">TASK</text>		</g>
		<g id="shape231-23" transform="translate(95.7529,-114.12)">
			<title>Process.231</title>
			<desc>GPIO_TE</desc>
			<rect x="0" y="416.24" width="110" height="54" class="st1"/>
			<text x="28.99" y="446.84" class="st2">GPIO_TE</text>		</g>
		<g id="shape232-26" transform="translate(620.993,356.12) rotate(90)">
			<title>Flowline1.232</title>
			<desc>Toggled_Output</desc>
			<path d="M0 470.24 L51.72 470.24" class="st4"/>
			<rect x="-514.941" y="12.8002" width="86.0636" height="14.4001" transform="rotate(-90)" class="st6"/>
			<text x="-514.94" y="23.6" transform="rotate(-90)" class="st2">Toggled_Output</text>		</g>
		<g id="shape233-33" transform="translate(95.7529,-0.12)">
			<title>Process.233</title>
			<desc>LED toggling every 200ms</desc>
			<rect x="0" y="416.24" width="110" height="54" class="st1"/>
			<text x="4.3" y="439.64" class="st2">LED toggling every <tspan x="36.99" dy="1.2em" class="st3">200</tspan>ms</text>		</g>
		<g id="group234-37" transform="translate(108.253,-27.12)">
			<title>Flowline2</title>
			<g id="shape235-38" transform="translate(-12.5,-332.998)">
				<title>Straight Edge.28</title>
				<desc>N</desc>
			</g>
			<g id="shape236-42" transform="translate(5.50363,931.478) rotate(180)">
				<title>Straight Edge.29</title>
				<desc>N</desc>
			</g>
			<g id="shape234-45">
				<path d="M-12.5 470.24 L-83.5 470.24 A18 18 0 0 1 -101.5 452.24 L-101.5 146.24 A18 18 0 0 1 -83.5 128.24 L-18.54
							 128.24" class="st8"/>
			</g>
		</g>
		<g id="shape238-51" transform="translate(114.753,-443.12)">
			<title>Start/End-point</title>
			<desc>Start</desc>
			<path d="M13.5 470.24 L58.5 470.24 A13.5 13.5 -180 0 0 58.5 443.24 L13.5 443.24 A13.5 13.5 -180 1 0 13.5 470.24 Z"
					class="st1"/>
			<text x="23.33" y="460.34" class="st2">Start</text>		</g>
		<g id="shape239-54" transform="translate(620.993,27.12) rotate(90)">
			<title>Flowline1.239</title>
			<path d="M0 470.24 L38.72 470.24" class="st4"/>
		</g>
	</g>
</svg>
