<?xml version="1.0" encoding="UTF-8" standalone="no"?>
<!DOCTYPE svg PUBLIC "-//W3C//DTD SVG 1.1//EN" "http://www.w3.org/Graphics/SVG/1.1/DTD/svg11.dtd">
<!-- Generated by Microsoft Visio, SVG Export NEW_gzll_fig4_device_channel_switch.svg Page-1 -->
<svg xmlns="http://www.w3.org/2000/svg" xmlns:xlink="http://www.w3.org/1999/xlink" xmlns:ev="http://www.w3.org/2001/xml-events"
		width="11.7544in" height="3.82402in" viewBox="0 0 846.317 275.329" xml:space="preserve" color-interpolation-filters="sRGB"
		class="st17">
	<style type="text/css">
	<![CDATA[
		.st1 {stroke:#000000;stroke-dasharray:1,2;stroke-linecap:round;stroke-linejoin:round;stroke-width:1}
		.st2 {stroke:#000000;stroke-linecap:round;stroke-linejoin:round;stroke-width:0.75}
		.st3 {fill:none;stroke:none;stroke-linecap:round;stroke-linejoin:round;stroke-width:0.72}
		.st4 {fill:#000000;font-family:Arial;font-size:1.00001em}
		.st5 {font-size:1em}
		.st6 {marker-end:url(#mrkr13-28);marker-start:url(#mrkr13-26);stroke:#000000;stroke-linecap:round;stroke-linejoin:round;stroke-width:1}
		.st7 {fill:#000000;fill-opacity:1;stroke:#000000;stroke-opacity:1;stroke-width:0.28409090909091}
		.st8 {fill:#ffffff;stroke:none;stroke-linecap:butt;stroke-width:7.2}
		.st9 {marker-end:url(#mrkr13-76);stroke:#000000;stroke-dasharray:1.68,1.2;stroke-linecap:round;stroke-linejoin:round;stroke-width:0.24}
		.st10 {fill:#000000;fill-opacity:1;stroke:#000000;stroke-opacity:1;stroke-width:0.08695652173913}
		.st11 {fill:#c4dbf2;stroke:none;stroke-linecap:round;stroke-linejoin:round;stroke-width:0.24;visibility:hidden}
		.st12 {fill:#c4dbf2;stroke:#000000;stroke-linecap:round;stroke-linejoin:round;stroke-width:0.24}
		.st13 {fill:#ffffff;fill-opacity:0.85;stroke:#000000;stroke-linecap:round;stroke-linejoin:round;stroke-width:0.72}
		.st14 {fill:#000000;stroke:#000000;stroke-linecap:round;stroke-linejoin:round;stroke-width:0.24}
		.st15 {fill:#009cde;fill-opacity:0.85;stroke:#000000;stroke-linecap:round;stroke-linejoin:round;stroke-width:0.72}
		.st16 {fill:#dc582a;fill-opacity:0.85;stroke:#000000;stroke-linecap:round;stroke-linejoin:round;stroke-width:0.72}
		.st17 {fill:none;fill-rule:evenodd;font-size:12px;overflow:visible;stroke-linecap:square;stroke-miterlimit:3}
	]]>
	</style>

	<defs id="Markers">
		<g id="lend13">
			<path d="M 3 1 L 0 0 L 3 -1 L 3 1 " style="stroke:none"/>
		</g>
		<marker id="mrkr13-26" class="st7" refX="10.2" orient="auto" markerUnits="strokeWidth" overflow="visible">
			<use xlink:href="#lend13" transform="scale(3.52) "/>
		</marker>
		<marker id="mrkr13-28" class="st7" refX="-10.56" orient="auto" markerUnits="strokeWidth" overflow="visible">
			<use xlink:href="#lend13" transform="scale(-3.52,-3.52) "/>
		</marker>
		<marker id="mrkr13-76" class="st10" refX="-34.5" orient="auto" markerUnits="strokeWidth" overflow="visible">
			<use xlink:href="#lend13" transform="scale(-11.5,-11.5) "/>
		</marker>
	</defs>
	<g>
		<title>Page-1</title>
		<g id="shape415-1" transform="translate(13.3437,274.829) rotate(-90)">
			<title>Sheet.415</title>
			<path d="M0 275.33 L208.3 275.33" class="st1"/>
		</g>
		<g id="shape421-4" transform="translate(425.403,274.829) rotate(-90)">
			<title>Sheet.421</title>
			<path d="M0 275.33 L208.3 275.33" class="st1"/>
		</g>
		<g id="shape227-7" transform="translate(1.77732,-90.6575)">
			<title>Sheet.227</title>
			<path d="M0 275.33 L844.16 275.33" class="st2"/>
		</g>
		<g id="shape228-10" transform="translate(0.36,-97.7441)">
			<title>Sheet.228</title>
			<desc>Device operation</desc>
			<rect x="0" y="262.574" width="82.2835" height="12.7559" class="st3"/>
			<text x="4" y="265.35" class="st4">Device <tspan x="4" dy="1.2em" class="st5">operation</tspan></text>		</g>
		<g id="shape408-14" transform="translate(1.77732,-177.152)">
			<title>Sheet.408</title>
			<path d="M0 275.33 L834.16 275.33" class="st2"/>
		</g>
		<g id="shape409-17" transform="translate(0.36,-184.239)">
			<title>Sheet.409</title>
			<desc>Heartbeat</desc>
			<rect x="0" y="262.574" width="82.2835" height="12.7559" class="st3"/>
			<text x="4" y="272.55" class="st4">Heartbeat</text>		</g>
		<g id="shape413-20" transform="translate(82.6435,-193.868)">
			<title>Sheet.413</title>
			<desc>Timeslot</desc>
			<path d="M10.2 275.33 L10.56 275.33 L195.47 275.33" class="st6"/>
			<rect x="80.3447" y="268.13" width="45.3406" height="14.4001" class="st8"/>
			<text x="80.34" y="278.93" class="st4">Timeslot</text>		</g>
		<g id="shape414-31" transform="translate(-192.686,274.829) rotate(-90)">
			<title>Sheet.414</title>
			<path d="M0 275.33 L210 275.33" class="st1"/>
		</g>
		<g id="shape416-34" transform="translate(288.673,-193.868)">
			<title>Sheet.416</title>
			<desc>Timeslot</desc>
			<path d="M10.2 275.33 L10.56 275.33 L195.47 275.33" class="st6"/>
			<rect x="80.3447" y="268.13" width="45.3406" height="14.4001" class="st8"/>
			<text x="80.34" y="278.93" class="st4">Timeslot</text>		</g>
		<g id="shape418-43" transform="translate(218.846,274.829) rotate(-90)">
			<title>Sheet.418</title>
			<path d="M0 275.33 L260 275.33" class="st1"/>
		</g>
		<g id="shape419-46" transform="translate(494.703,-193.868)">
			<title>Sheet.419</title>
			<desc>Timeslot</desc>
			<path d="M10.2 275.33 L10.56 275.33 L195.47 275.33" class="st6"/>
			<rect x="80.3447" y="268.13" width="45.3406" height="14.4001" class="st8"/>
			<text x="80.34" y="278.93" class="st4">Timeslot</text>		</g>
		<g id="shape468-55" transform="translate(1.77732,-10.5)">
			<title>Sheet.468</title>
			<path d="M0 275.33 L844.16 275.33" class="st2"/>
		</g>
		<g id="shape469-58" transform="translate(0.36,-10.5)">
			<title>Sheet.469</title>
			<desc>Channel table index</desc>
			<rect x="0" y="245.329" width="66.7868" height="30" class="st3"/>
			<text x="4" y="256.73" class="st4">Channel <tspan x="4" dy="1.2em" class="st5">table index</tspan></text>		</g>
		<g id="group470-62" transform="translate(335.941,275.449) rotate(180)">
			<title>Annotation/Comment.470</title>
			<g id="shape471-63" transform="translate(98.6342,-24.7095)">
				<title>Sheet.471</title>
			</g>
			<g id="shape472-64" transform="translate(98.6342,-24.7095)">
				<title>Sheet.472</title>
			</g>
			<g id="shape473-65" transform="translate(98.6342,-24.7095)">
				<title>Sheet.473</title>
			</g>
			<g id="shape474-66" transform="translate(98.6342,-24.7095)">
				<title>Sheet.474</title>
			</g>
			<g id="shape475-67" transform="translate(98.6342,-24.7095)">
				<title>Sheet.475</title>
			</g>
			<g id="shape476-68" transform="translate(98.6342,-24.7095)">
				<title>Sheet.476</title>
			</g>
			<g id="shape477-69" transform="translate(98.6342,-24.7095)">
				<title>Sheet.477</title>
			</g>
			<g id="shape478-70" transform="translate(98.6342,-24.7095)">
				<title>Sheet.478</title>
			</g>
			<g id="shape479-71" transform="translate(-120.284,417.596) rotate(-127.334)">
				<title>Sheet.479</title>
				<path d="M0 275.33 L136.16 275.33" class="st9"/>
			</g>
			<g id="shape480-77" transform="translate(-93.0316,52.9573) rotate(-44.1175)">
				<title>Sheet.480</title>
				<path d="M0 275.33 L156.69 275.33" class="st9"/>
			</g>
			<g id="shape481-82" transform="translate(195.015,501.24) rotate(180)">
				<title>Sheet.481</title>
				<rect x="0" y="225.911" width="192.761" height="49.4189" class="st11"/>
			</g>
			<g id="shape482-84">
				<title>Sheet.482</title>
				<desc>These two packets are sent on RF channel given by channel_tab...</desc>
				<path d="M0 266.33 L9 275.33 L9 266.33 L0 266.33 ZM0 266.33 L9 266.33 L9 275.33 L197.27 275.33 L197.27 225.91 L0
							 225.91 L0 266.33 Z" class="st12"/>
				<text x="-193.27" y="-254.22" transform="rotate(180)" class="st4">These two packets are sent on RF <tspan
							x="-193.27" dy="1.2em" class="st5">channel given by channel</tspan>_table[0]</text>			</g>
		</g>
		<g id="shape483-88" transform="translate(494.147,-10.5)">
			<title>s.483</title>
			<desc>1</desc>
			<rect x="0" y="230.329" width="341.239" height="45" class="st13"/>
			<text x="167.28" y="256.43" class="st4">1</text>		</g>
		<g id="shape485-91" transform="translate(82.9497,-10.5)">
			<title>s.485</title>
			<desc>0</desc>
			<rect x="0" y="230.329" width="410.642" height="45" class="st13"/>
			<text x="201.98" y="256.43" class="st4">0</text>		</g>
		<g id="shape513-94" transform="translate(357.768,-90.6575)">
			<title>Rectangle.391</title>
			<rect x="0" y="230.329" width="2.83465" height="45" class="st14"/>
		</g>
		<g id="shape514-96" transform="translate(288.673,-90.6575)">
			<title>Rectangle.392</title>
			<rect x="0" y="230.329" width="2.83465" height="45" class="st14"/>
		</g>
		<g id="shape515-98" transform="translate(361.129,-90.6575)">
			<title>s.393</title>
			<desc>Wait for ACK</desc>
			<rect x="0" y="230.329" width="66.2598" height="45" class="st15"/>
			<text x="12.46" y="249.23" class="st4">Wait for <tspan x="20.79" dy="1.2em" class="st5">ACK</tspan></text>		</g>
		<g id="shape516-102" transform="translate(291.508,-90.6575)">
			<title>s.394</title>
			<desc>Send packet</desc>
			<rect x="0" y="230.329" width="66.7868" height="45" class="st16"/>
			<text x="19.38" y="249.23" class="st4">Send <tspan x="15.72" dy="1.2em" class="st5">packet</tspan></text>		</g>
		<g id="shape517-106" transform="translate(563.797,-90.6575)">
			<title>Rectangle.395</title>
			<rect x="0" y="230.329" width="2.83465" height="45" class="st14"/>
		</g>
		<g id="shape518-108" transform="translate(494.703,-90.6575)">
			<title>Rectangle.396</title>
			<rect x="0" y="230.329" width="2.83465" height="45" class="st14"/>
		</g>
		<g id="shape519-110" transform="translate(567.159,-90.6575)">
			<title>s.397</title>
			<desc>Wait for ACK</desc>
			<rect x="0" y="230.329" width="66.2598" height="45" class="st15"/>
			<text x="12.46" y="249.23" class="st4">Wait for <tspan x="20.79" dy="1.2em" class="st5">ACK</tspan></text>		</g>
		<g id="shape520-114" transform="translate(498.064,-90.6575)">
			<title>s.398</title>
			<desc>Send packet</desc>
			<rect x="0" y="230.329" width="66.2598" height="45" class="st16"/>
			<text x="19.12" y="249.23" class="st4">Send <tspan x="15.45" dy="1.2em" class="st5">packet</tspan></text>		</g>
		<g id="shape521-118" transform="translate(151.738,-90.6575)">
			<title>Rectangle.399</title>
			<rect x="0" y="230.329" width="2.83465" height="45" class="st14"/>
		</g>
		<g id="shape522-120" transform="translate(82.6435,-90.6575)">
			<title>Rectangle.400</title>
			<rect x="0" y="230.329" width="2.83465" height="45" class="st14"/>
		</g>
		<g id="shape523-122" transform="translate(155.1,-90.6575)">
			<title>s.401</title>
			<desc>Wait for ACK</desc>
			<rect x="0" y="230.329" width="66.2598" height="45" class="st15"/>
			<text x="12.46" y="249.23" class="st4">Wait for <tspan x="20.79" dy="1.2em" class="st5">ACK</tspan></text>		</g>
		<g id="shape524-126" transform="translate(85.4781,-90.6575)">
			<title>s.402</title>
			<desc>Send packet</desc>
			<rect x="0" y="230.329" width="66.7868" height="45" class="st16"/>
			<text x="19.38" y="249.23" class="st4">Send <tspan x="15.72" dy="1.2em" class="st5">packet</tspan></text>		</g>
		<g id="shape525-130" transform="translate(769.847,-90.6575)">
			<title>Rectangle.403</title>
			<rect x="0" y="230.329" width="2.83465" height="45" class="st14"/>
		</g>
		<g id="shape526-132" transform="translate(700.752,-90.6575)">
			<title>Rectangle.404</title>
			<rect x="0" y="230.329" width="2.83465" height="45" class="st14"/>
		</g>
		<g id="shape527-134" transform="translate(773.208,-90.6575)">
			<title>s.405</title>
			<desc>Wait for ACK</desc>
			<rect x="0" y="230.329" width="66.2598" height="45" class="st15"/>
			<text x="12.46" y="249.23" class="st4">Wait for <tspan x="20.79" dy="1.2em" class="st5">ACK</tspan></text>		</g>
		<g id="shape528-138" transform="translate(703.587,-90.6575)">
			<title>s.406</title>
			<desc>Send packet</desc>
			<rect x="0" y="230.329" width="66.7868" height="45" class="st16"/>
			<text x="19.38" y="249.23" class="st4">Send <tspan x="15.72" dy="1.2em" class="st5">packet</tspan></text>		</g>
		<g id="group529-142" transform="translate(733.21,275.449) rotate(180)">
			<title>Annotation/Comment.529</title>
			<g id="shape530-143" transform="translate(98.6342,-24.7095)">
				<title>Sheet.530</title>
			</g>
			<g id="shape531-144" transform="translate(98.6342,-24.7095)">
				<title>Sheet.531</title>
			</g>
			<g id="shape532-145" transform="translate(98.6342,-24.7095)">
				<title>Sheet.532</title>
			</g>
			<g id="shape533-146" transform="translate(98.6342,-24.7095)">
				<title>Sheet.533</title>
			</g>
			<g id="shape534-147" transform="translate(98.6342,-24.7095)">
				<title>Sheet.534</title>
			</g>
			<g id="shape535-148" transform="translate(98.6342,-24.7095)">
				<title>Sheet.535</title>
			</g>
			<g id="shape536-149" transform="translate(98.6342,-24.7095)">
				<title>Sheet.536</title>
			</g>
			<g id="shape537-150" transform="translate(98.6342,-24.7095)">
				<title>Sheet.537</title>
			</g>
			<g id="shape538-151" transform="translate(-106.863,433.861) rotate(-131.723)">
				<title>Sheet.538</title>
				<path d="M0 275.33 L145.59 275.33" class="st9"/>
			</g>
			<g id="shape539-156" transform="translate(-105.996,66.4116) rotate(-48.0064)">
				<title>Sheet.539</title>
				<path d="M0 275.33 L146.24 275.33" class="st9"/>
			</g>
			<g id="shape540-161" transform="translate(195.015,501.24) rotate(180)">
				<title>Sheet.540</title>
				<rect x="0" y="225.911" width="192.761" height="49.4189" class="st11"/>
			</g>
			<g id="shape541-163">
				<title>Sheet.541</title>
				<desc>These two packets are sent on RF channel given by channel_tab...</desc>
				<path d="M0 266.33 L9 275.33 L9 266.33 L0 266.33 ZM0 266.33 L9 266.33 L9 275.33 L197.27 275.33 L197.27 225.91 L0
							 225.91 L0 266.33 Z" class="st12"/>
				<text x="-193.27" y="-254.22" transform="rotate(180)" class="st4">These two packets are sent on RF <tspan
							x="-193.27" dy="1.2em" class="st5">channel given by channel</tspan>_table[1]</text>			</g>
		</g>
	</g>
</svg>
