<?xml version="1.0" encoding="UTF-8" standalone="no"?>
<!DOCTYPE svg PUBLIC "-//W3C//DTD SVG 1.1//EN" "http://www.w3.org/Graphics/SVG/1.1/DTD/svg11.dtd">
<!-- Generated by Microsoft Visio, SVG Export NEW_gzll_fig2_device_heartbeat.svg Page-1 -->
<svg xmlns="http://www.w3.org/2000/svg" xmlns:xlink="http://www.w3.org/1999/xlink" xmlns:ev="http://www.w3.org/2001/xml-events"
		width="11.7544in" height="3.61165in" viewBox="0 0 846.317 260.039" xml:space="preserve" color-interpolation-filters="sRGB"
		class="st17">
	<style type="text/css">
	<![CDATA[
		.st1 {stroke:#000000;stroke-linecap:round;stroke-linejoin:round;stroke-width:0.75}
		.st2 {fill:none;stroke:none;stroke-linecap:round;stroke-linejoin:round;stroke-width:0.72}
		.st3 {fill:#000000;font-family:Arial;font-size:1.00001em}
		.st4 {font-size:1em}
		.st5 {marker-end:url(#mrkr13-22);stroke:#000000;stroke-dasharray:1.68,1.2;stroke-linecap:round;stroke-linejoin:round;stroke-width:0.24}
		.st6 {fill:#000000;fill-opacity:1;stroke:#000000;stroke-opacity:1;stroke-width:0.08695652173913}
		.st7 {fill:#c4dbf2;stroke:none;stroke-linecap:round;stroke-linejoin:round;stroke-width:0.24;visibility:hidden}
		.st8 {fill:#c4dbf2;stroke:#000000;stroke-linecap:round;stroke-linejoin:round;stroke-width:0.24}
		.st9 {fill:#000000;stroke:#000000;stroke-linecap:round;stroke-linejoin:round;stroke-width:0.24}
		.st10 {fill:#009cde;fill-opacity:0.85;stroke:#000000;stroke-linecap:round;stroke-linejoin:round;stroke-width:0.72}
		.st11 {fill:#dc582a;fill-opacity:0.85;stroke:#000000;stroke-linecap:round;stroke-linejoin:round;stroke-width:0.72}
		.st12 {marker-end:url(#mrkr13-106);marker-start:url(#mrkr13-104);stroke:#000000;stroke-linecap:round;stroke-linejoin:round;stroke-width:1}
		.st13 {fill:#000000;fill-opacity:1;stroke:#000000;stroke-opacity:1;stroke-width:0.28409090909091}
		.st14 {fill:#ffffff;stroke:none;stroke-linecap:butt;stroke-width:7.2}
		.st15 {fill:#000000;font-family:Arial;font-size:1.16666em}
		.st16 {stroke:#000000;stroke-dasharray:1,2;stroke-linecap:round;stroke-linejoin:round;stroke-width:1}
		.st17 {fill:none;fill-rule:evenodd;font-size:12px;overflow:visible;stroke-linecap:square;stroke-miterlimit:3}
	]]>
	</style>

	<defs id="Markers">
		<g id="lend13">
			<path d="M 3 1 L 0 0 L 3 -1 L 3 1 " style="stroke:none"/>
		</g>
		<marker id="mrkr13-22" class="st6" refX="-34.5" orient="auto" markerUnits="strokeWidth" overflow="visible">
			<use xlink:href="#lend13" transform="scale(-11.5,-11.5) "/>
		</marker>
		<marker id="mrkr13-104" class="st13" refX="10.2" orient="auto" markerUnits="strokeWidth" overflow="visible">
			<use xlink:href="#lend13" transform="scale(3.52) "/>
		</marker>
		<marker id="mrkr13-106" class="st13" refX="-10.56" orient="auto" markerUnits="strokeWidth" overflow="visible">
			<use xlink:href="#lend13" transform="scale(-3.52,-3.52) "/>
		</marker>
	</defs>
	<g>
		<title>Page-1</title>
		<g id="shape227-1" transform="translate(1.77732,-139.696)">
			<title>Sheet.227</title>
			<path d="M0 260.04 L844.16 260.04" class="st1"/>
		</g>
		<g id="shape228-4" transform="translate(0.36,-146.783)">
			<title>Sheet.228</title>
			<desc>Device operation</desc>
			<rect x="0" y="247.283" width="82.2835" height="12.7559" class="st2"/>
			<text x="4" y="250.06" class="st3">Device <tspan x="4" dy="1.2em" class="st4">operation</tspan></text>		</g>
		<g id="group265-8" transform="translate(485.941,470.539) rotate(180)">
			<title>Annotation/Comment.321</title>
			<g id="shape266-9" transform="translate(98.6342,-24.7095)">
				<title>Sheet.266</title>
			</g>
			<g id="shape267-10" transform="translate(98.6342,-24.7095)">
				<title>Sheet.267</title>
			</g>
			<g id="shape268-11" transform="translate(98.6342,-24.7095)">
				<title>Sheet.268</title>
			</g>
			<g id="shape269-12" transform="translate(98.6342,-24.7095)">
				<title>Sheet.269</title>
			</g>
			<g id="shape270-13" transform="translate(98.6342,-24.7095)">
				<title>Sheet.270</title>
			</g>
			<g id="shape271-14" transform="translate(98.6342,-24.7095)">
				<title>Sheet.271</title>
			</g>
			<g id="shape272-15" transform="translate(98.6342,-24.7095)">
				<title>Sheet.272</title>
			</g>
			<g id="shape273-16" transform="translate(98.6342,-24.7095)">
				<title>Sheet.273</title>
			</g>
			<g id="shape274-17" transform="translate(287.919,57.0274) rotate(46.7113)">
				<title>Sheet.274</title>
				<path d="M0 260.04 L135.57 260.04" class="st5"/>
			</g>
			<g id="shape275-23" transform="translate(280.166,421.518) rotate(135.726)">
				<title>Sheet.275</title>
				<path d="M0 260.04 L141.71 260.04" class="st5"/>
			</g>
			<g id="shape276-28" transform="translate(181.032,481.969) rotate(161.526)">
				<title>Sheet.276</title>
				<path d="M0 260.04 L322.17 260.04" class="st5"/>
			</g>
			<g id="shape277-33" transform="translate(183.154,-10.5905) rotate(18.9673)">
				<title>Sheet.277</title>
				<path d="M0 260.04 L313.88 260.04" class="st5"/>
			</g>
			<g id="shape278-38" transform="translate(195.015,470.659) rotate(180)">
				<title>Sheet.278</title>
				<rect x="0" y="210.62" width="192.761" height="49.4189" class="st7"/>
			</g>
			<g id="shape279-40">
				<title>Sheet.279</title>
				<desc>Device packets are always sent synchronously to heartbeat</desc>
				<path d="M0 251.04 L9 260.04 L9 251.04 L0 251.04 ZM0 251.04 L9 251.04 L9 260.04 L197.27 260.04 L197.27 210.62 L0
							 210.62 L0 251.04 Z" class="st8"/>
				<text x="-193.27" y="-238.93" transform="rotate(180)" class="st3">Device packets are always sent <tspan x="-193.27"
							dy="1.2em" class="st4">synchronously to heartbeat</tspan></text>			</g>
		</g>
		<g id="shape391-44" transform="translate(357.768,-139.696)">
			<title>Rectangle.391</title>
			<rect x="0" y="215.039" width="2.83465" height="45" class="st9"/>
		</g>
		<g id="shape392-46" transform="translate(288.673,-139.696)">
			<title>Rectangle.392</title>
			<rect x="0" y="215.039" width="2.83465" height="45" class="st9"/>
		</g>
		<g id="shape393-48" transform="translate(361.129,-139.696)">
			<title>s.393</title>
			<desc>Wait for ACK</desc>
			<rect x="0" y="215.039" width="66.2598" height="45" class="st10"/>
			<text x="12.46" y="233.94" class="st3">Wait for <tspan x="20.79" dy="1.2em" class="st4">ACK</tspan></text>		</g>
		<g id="shape394-52" transform="translate(291.508,-139.696)">
			<title>s.394</title>
			<desc>Send packet</desc>
			<rect x="0" y="215.039" width="66.7868" height="45" class="st11"/>
			<text x="19.38" y="233.94" class="st3">Send <tspan x="15.72" dy="1.2em" class="st4">packet</tspan></text>		</g>
		<g id="shape395-56" transform="translate(563.797,-139.696)">
			<title>Rectangle.395</title>
			<rect x="0" y="215.039" width="2.83465" height="45" class="st9"/>
		</g>
		<g id="shape396-58" transform="translate(494.703,-139.696)">
			<title>Rectangle.396</title>
			<rect x="0" y="215.039" width="2.83465" height="45" class="st9"/>
		</g>
		<g id="shape397-60" transform="translate(567.159,-139.696)">
			<title>s.397</title>
			<desc>Wait for ACK</desc>
			<rect x="0" y="215.039" width="66.2598" height="45" class="st10"/>
			<text x="12.46" y="233.94" class="st3">Wait for <tspan x="20.79" dy="1.2em" class="st4">ACK</tspan></text>		</g>
		<g id="shape398-64" transform="translate(498.064,-139.696)">
			<title>s.398</title>
			<desc>Send packet</desc>
			<rect x="0" y="215.039" width="66.2598" height="45" class="st11"/>
			<text x="19.12" y="233.94" class="st3">Send <tspan x="15.45" dy="1.2em" class="st4">packet</tspan></text>		</g>
		<g id="shape399-68" transform="translate(151.738,-139.696)">
			<title>Rectangle.399</title>
			<rect x="0" y="215.039" width="2.83465" height="45" class="st9"/>
		</g>
		<g id="shape400-70" transform="translate(82.6435,-139.696)">
			<title>Rectangle.400</title>
			<rect x="0" y="215.039" width="2.83465" height="45" class="st9"/>
		</g>
		<g id="shape401-72" transform="translate(155.1,-139.696)">
			<title>s.401</title>
			<desc>Wait for ACK</desc>
			<rect x="0" y="215.039" width="66.2598" height="45" class="st10"/>
			<text x="12.46" y="233.94" class="st3">Wait for <tspan x="20.79" dy="1.2em" class="st4">ACK</tspan></text>		</g>
		<g id="shape402-76" transform="translate(85.4781,-139.696)">
			<title>s.402</title>
			<desc>Send packet</desc>
			<rect x="0" y="215.039" width="66.7868" height="45" class="st11"/>
			<text x="19.38" y="233.94" class="st3">Send <tspan x="15.72" dy="1.2em" class="st4">packet</tspan></text>		</g>
		<g id="shape403-80" transform="translate(769.847,-139.696)">
			<title>Rectangle.403</title>
			<rect x="0" y="215.039" width="2.83465" height="45" class="st9"/>
		</g>
		<g id="shape404-82" transform="translate(700.752,-139.696)">
			<title>Rectangle.404</title>
			<rect x="0" y="215.039" width="2.83465" height="45" class="st9"/>
		</g>
		<g id="shape405-84" transform="translate(773.208,-139.696)">
			<title>s.405</title>
			<desc>Wait for ACK</desc>
			<rect x="0" y="215.039" width="66.2598" height="45" class="st10"/>
			<text x="12.46" y="233.94" class="st3">Wait for <tspan x="20.79" dy="1.2em" class="st4">ACK</tspan></text>		</g>
		<g id="shape406-88" transform="translate(703.587,-139.696)">
			<title>s.406</title>
			<desc>Send packet</desc>
			<rect x="0" y="215.039" width="66.7868" height="45" class="st11"/>
			<text x="19.38" y="233.94" class="st3">Send <tspan x="15.72" dy="1.2em" class="st4">packet</tspan></text>		</g>
		<g id="shape408-92" transform="translate(1.77732,-226.191)">
			<title>Sheet.408</title>
			<path d="M0 260.04 L834.16 260.04" class="st1"/>
		</g>
		<g id="shape409-95" transform="translate(0.36,-233.278)">
			<title>Sheet.409</title>
			<desc>Heartbeat</desc>
			<rect x="0" y="247.283" width="82.2835" height="12.7559" class="st2"/>
			<text x="4" y="257.26" class="st3">Heartbeat</text>		</g>
		<g id="shape413-98" transform="translate(82.6435,-242.907)">
			<title>Sheet.413</title>
			<desc>Timeslot</desc>
			<path d="M10.2 260.04 L10.56 260.04 L195.47 260.04" class="st12"/>
			<rect x="76.567" y="251.639" width="52.8959" height="16.8" class="st14"/>
			<text x="76.57" y="264.24" class="st15">Timeslot</text>		</g>
		<g id="shape414-109" transform="translate(-177.395,130.5) rotate(-90)">
			<title>Sheet.414</title>
			<path d="M0 260.04 L130 260.04" class="st16"/>
		</g>
		<g id="shape415-112" transform="translate(28.6342,130.5) rotate(-90)">
			<title>Sheet.415</title>
			<path d="M0 260.04 L128.3 260.04" class="st16"/>
		</g>
		<g id="shape416-115" transform="translate(288.673,-242.907)">
			<title>Sheet.416</title>
			<desc>Timeslot</desc>
			<path d="M10.2 260.04 L10.56 260.04 L195.47 260.04" class="st12"/>
			<rect x="76.567" y="251.639" width="52.8959" height="16.8" class="st14"/>
			<text x="76.57" y="264.24" class="st15">Timeslot</text>		</g>
		<g id="shape418-124" transform="translate(234.664,130.5) rotate(-90)">
			<title>Sheet.418</title>
			<path d="M0 260.04 L128.3 260.04" class="st16"/>
		</g>
		<g id="shape419-127" transform="translate(494.703,-242.907)">
			<title>Sheet.419</title>
			<desc>Timeslot</desc>
			<path d="M10.2 260.04 L10.56 260.04 L195.47 260.04" class="st12"/>
			<rect x="76.567" y="251.639" width="52.8959" height="16.8" class="st14"/>
			<text x="76.57" y="264.24" class="st15">Timeslot</text>		</g>
		<g id="shape421-136" transform="translate(440.694,130.5) rotate(-90)">
			<title>Sheet.421</title>
			<path d="M0 260.04 L128.3 260.04" class="st16"/>
		</g>
	</g>
</svg>
