<?xml version="1.0" encoding="UTF-8" standalone="no"?>
<!DOCTYPE svg PUBLIC "-//W3C//DTD SVG 1.1//EN" "http://www.w3.org/Graphics/SVG/1.1/DTD/svg11.dtd">
<!-- Generated by Microsoft Visio, SVG Export NEW_gzll_fig3_host_heartbeat.svg Page-1 -->
<svg xmlns="http://www.w3.org/2000/svg" xmlns:xlink="http://www.w3.org/1999/xlink" xmlns:ev="http://www.w3.org/2001/xml-events"
		width="11.7544in" height="3.12933in" viewBox="0 0 846.317 225.312" xml:space="preserve" color-interpolation-filters="sRGB"
		class="st16">
	<style type="text/css">
	<![CDATA[
		.st1 {stroke:#000000;stroke-dasharray:1,2;stroke-linecap:round;stroke-linejoin:round;stroke-width:1}
		.st2 {stroke:#000000;stroke-linecap:round;stroke-linejoin:round;stroke-width:0.75}
		.st3 {fill:none;stroke:none;stroke-linecap:round;stroke-linejoin:round;stroke-width:0.72}
		.st4 {fill:#000000;font-family:Arial;font-size:1.00001em}
		.st5 {font-size:1em}
		.st6 {marker-end:url(#mrkr13-28);stroke:#000000;stroke-dasharray:1.68,1.2;stroke-linecap:round;stroke-linejoin:round;stroke-width:0.24}
		.st7 {fill:#000000;fill-opacity:1;stroke:#000000;stroke-opacity:1;stroke-width:0.08695652173913}
		.st8 {fill:#c4dbf2;stroke:none;stroke-linecap:round;stroke-linejoin:round;stroke-width:0.24;visibility:hidden}
		.st9 {fill:#c4dbf2;stroke:#000000;stroke-linecap:round;stroke-linejoin:round;stroke-width:0.24}
		.st10 {fill:#dc582a;fill-opacity:0.85;stroke:#000000;stroke-linecap:round;stroke-linejoin:round;stroke-width:0.72}
		.st11 {fill:#000000;stroke:#000000;stroke-linecap:round;stroke-linejoin:round;stroke-width:0.24}
		.st12 {marker-end:url(#mrkr13-62);marker-start:url(#mrkr13-60);stroke:#000000;stroke-linecap:round;stroke-linejoin:round;stroke-width:1}
		.st13 {fill:#000000;fill-opacity:1;stroke:#000000;stroke-opacity:1;stroke-width:0.28409090909091}
		.st14 {fill:#ffffff;stroke:none;stroke-linecap:butt;stroke-width:7.2}
		.st15 {marker-end:url(#mrkr13-110);stroke:#000000;stroke-dasharray:1.68,1.2;stroke-linecap:round;stroke-linejoin:round;stroke-width:0.24}
		.st16 {fill:none;fill-rule:evenodd;font-size:12px;overflow:visible;stroke-linecap:square;stroke-miterlimit:3}
	]]>
	</style>

	<defs id="Markers">
		<g id="lend13">
			<path d="M 3 1 L 0 0 L 3 -1 L 3 1 " style="stroke:none"/>
		</g>
		<marker id="mrkr13-28" class="st7" refX="-34.5" orient="auto" markerUnits="strokeWidth" overflow="visible">
			<use xlink:href="#lend13" transform="scale(-11.5,-11.5) "/>
		</marker>
		<marker id="mrkr13-60" class="st13" refX="10.2" orient="auto" markerUnits="strokeWidth" overflow="visible">
			<use xlink:href="#lend13" transform="scale(3.52) "/>
		</marker>
		<marker id="mrkr13-62" class="st13" refX="-10.56" orient="auto" markerUnits="strokeWidth" overflow="visible">
			<use xlink:href="#lend13" transform="scale(-3.52,-3.52) "/>
		</marker>
		<marker id="mrkr13-110" class="st7" refX="-0" orient="auto" markerUnits="strokeWidth" overflow="visible">
			<use xlink:href="#lend13" transform="scale(-11.5,-11.5) "/>
		</marker>
	</defs>
	<g>
		<title>Page-1</title>
		<g id="shape415-1" transform="translate(63.3614,130.5) rotate(-90)">
			<title>Sheet.415</title>
			<path d="M0 225.31 L128.3 225.31" class="st1"/>
		</g>
		<g id="shape421-4" transform="translate(475.421,130.5) rotate(-90)">
			<title>Sheet.421</title>
			<path d="M0 225.31 L128.3 225.31" class="st1"/>
		</g>
		<g id="shape227-7" transform="translate(1.77732,-104.969)">
			<title>Sheet.227</title>
			<path d="M0 225.31 L844.16 225.31" class="st2"/>
		</g>
		<g id="shape228-10" transform="translate(0.36,-112.056)">
			<title>Sheet.228</title>
			<desc>Device operation</desc>
			<rect x="0" y="212.556" width="82.2835" height="12.7559" class="st3"/>
			<text x="4" y="215.33" class="st4">Device <tspan x="4" dy="1.2em" class="st5">operation</tspan></text>		</g>
		<g id="group265-14" transform="translate(383.21,401.084) rotate(180)">
			<title>Annotation/Comment.321</title>
			<g id="shape266-15" transform="translate(98.6342,-24.7095)">
				<title>Sheet.266</title>
			</g>
			<g id="shape267-16" transform="translate(98.6342,-24.7095)">
				<title>Sheet.267</title>
			</g>
			<g id="shape268-17" transform="translate(98.6342,-24.7095)">
				<title>Sheet.268</title>
			</g>
			<g id="shape269-18" transform="translate(98.6342,-24.7095)">
				<title>Sheet.269</title>
			</g>
			<g id="shape270-19" transform="translate(98.6342,-24.7095)">
				<title>Sheet.270</title>
			</g>
			<g id="shape271-20" transform="translate(98.6342,-24.7095)">
				<title>Sheet.271</title>
			</g>
			<g id="shape272-21" transform="translate(98.6342,-24.7095)">
				<title>Sheet.272</title>
			</g>
			<g id="shape273-22" transform="translate(98.6342,-24.7095)">
				<title>Sheet.273</title>
			</g>
			<g id="shape275-23" transform="translate(176.018,412.208) rotate(159.913)">
				<title>Sheet.275</title>
				<path d="M0 225.31 L195.48 225.31" class="st6"/>
			</g>
			<g id="shape277-29" transform="translate(180.821,-9.185) rotate(21.3934)">
				<title>Sheet.277</title>
				<path d="M0 225.31 L183.57 225.31" class="st6"/>
			</g>
			<g id="shape278-34" transform="translate(195.015,401.204) rotate(180)">
				<title>Sheet.278</title>
				<rect x="0" y="175.893" width="192.761" height="49.4189" class="st8"/>
			</g>
			<g id="shape279-36">
				<title>Sheet.279</title>
				<desc>Host channel can only be changed synchronously to heartbeat</desc>
				<path d="M0 216.31 L9 225.31 L9 216.31 L0 216.31 ZM0 216.31 L9 216.31 L9 225.31 L197.27 225.31 L197.27 175.89 L0
							 175.89 L0 216.31 Z" class="st9"/>
				<text x="-193.27" y="-204.2" transform="rotate(180)" class="st4">Host channel can only be changed <tspan
							x="-193.27" dy="1.2em" class="st5">synchronously to heartbeat </tspan></text>			</g>
		</g>
		<g id="shape398-40" transform="translate(518.001,-104.969)">
			<title>s.398</title>
			<desc>Listen on channel n + 1</desc>
			<rect x="0" y="180.312" width="317.941" height="45" class="st10"/>
			<text x="96.75" y="206.41" class="st4">Listen on channel n + 1</text>		</g>
		<g id="shape400-43" transform="translate(82.6435,-104.969)">
			<title>Rectangle.400</title>
			<rect x="0" y="180.312" width="23.298" height="45" class="st11"/>
		</g>
		<g id="shape402-45" transform="translate(105.941,-104.969)">
			<title>s.402</title>
			<desc>Listen on channel n</desc>
			<rect x="0" y="180.312" width="388.761" height="45" class="st10"/>
			<text x="142.34" y="206.41" class="st4">Listen on channel n</text>		</g>
		<g id="shape408-48" transform="translate(1.77732,-191.464)">
			<title>Sheet.408</title>
			<path d="M0 225.31 L834.16 225.31" class="st2"/>
		</g>
		<g id="shape409-51" transform="translate(0.36,-198.551)">
			<title>Sheet.409</title>
			<desc>Heartbeat</desc>
			<rect x="0" y="212.556" width="82.2835" height="12.7559" class="st3"/>
			<text x="4" y="222.53" class="st4">Heartbeat</text>		</g>
		<g id="shape413-54" transform="translate(82.6435,-208.18)">
			<title>Sheet.413</title>
			<desc>Timeslot</desc>
			<path d="M10.2 225.31 L10.56 225.31 L195.47 225.31" class="st12"/>
			<rect x="80.3447" y="218.112" width="45.3406" height="14.4001" class="st14"/>
			<text x="80.34" y="228.91" class="st4">Timeslot</text>		</g>
		<g id="shape414-65" transform="translate(-142.668,130.5) rotate(-90)">
			<title>Sheet.414</title>
			<path d="M0 225.31 L130 225.31" class="st1"/>
		</g>
		<g id="shape416-68" transform="translate(288.673,-208.18)">
			<title>Sheet.416</title>
			<desc>Timeslot</desc>
			<path d="M10.2 225.31 L10.56 225.31 L195.47 225.31" class="st12"/>
			<rect x="80.3447" y="218.112" width="45.3406" height="14.4001" class="st14"/>
			<text x="80.34" y="228.91" class="st4">Timeslot</text>		</g>
		<g id="shape418-77" transform="translate(269.391,130.5) rotate(-90)">
			<title>Sheet.418</title>
			<path d="M0 225.31 L128.3 225.31" class="st1"/>
		</g>
		<g id="shape419-80" transform="translate(494.703,-208.18)">
			<title>Sheet.419</title>
			<desc>Timeslot</desc>
			<path d="M10.2 225.31 L10.56 225.31 L195.47 225.31" class="st12"/>
			<rect x="80.3447" y="218.112" width="45.3406" height="14.4001" class="st14"/>
			<text x="80.34" y="228.91" class="st4">Timeslot</text>		</g>
		<g id="shape422-89" transform="translate(494.703,-104.969)">
			<title>Rectangle.422</title>
			<rect x="0" y="180.312" width="23.298" height="45" class="st11"/>
		</g>
		<g id="group424-91" transform="translate(553.401,390.654) rotate(180)">
			<title>Annotation/Comment.424</title>
			<g id="shape425-92" transform="translate(47.0487,-29.9246)">
				<title>Sheet.425</title>
			</g>
			<g id="shape426-93" transform="translate(47.0487,-29.9246)">
				<title>Sheet.426</title>
			</g>
			<g id="shape427-94" transform="translate(47.0487,-29.9246)">
				<title>Sheet.427</title>
			</g>
			<g id="shape428-95" transform="translate(47.0487,-29.9246)">
				<title>Sheet.428</title>
			</g>
			<g id="shape429-96" transform="translate(47.0487,-29.9246)">
				<title>Sheet.429</title>
			</g>
			<g id="shape430-97" transform="translate(47.0487,-29.9246)">
				<title>Sheet.430</title>
			</g>
			<g id="shape431-98" transform="translate(47.0487,-29.9246)">
				<title>Sheet.431</title>
			</g>
			<g id="shape432-99" transform="translate(47.0487,-29.9246)">
				<title>Sheet.432</title>
			</g>
			<g id="shape433-100" transform="translate(272.318,190.992) rotate(88.8822)">
				<title>Sheet.433</title>
				<path d="M0 225.31 L61.73 225.31" class="st6"/>
			</g>
			<g id="shape434-105" transform="translate(47.0487,-29.9246)">
				<title>Sheet.434</title>
				<path d="M0 225.31 L1.37 225.31" class="st15"/>
			</g>
			<g id="shape435-111" transform="translate(91.8439,390.774) rotate(180)">
				<title>Sheet.435</title>
				<rect x="0" y="165.463" width="89.5903" height="59.8492" class="st8"/>
			</g>
			<g id="shape436-113">
				<title>Sheet.436</title>
				<desc>Channel switch and RX startup</desc>
				<path d="M0 216.31 L9 225.31 L9 216.31 L0 216.31 ZM0 216.31 L9 216.31 L9 225.31 L94.1 225.31 L94.1 165.46 L0 165.46
							 L0 216.31 Z" class="st9"/>
				<text x="-90.1" y="-198.99" transform="rotate(180)" class="st4">Channel switch <tspan x="-90.1" dy="1.2em"
							class="st5">and RX startup</tspan></text>			</g>
		</g>
		<g id="group453-117" transform="translate(141.341,390.654) rotate(180)">
			<title>Annotation/Comment.453</title>
			<g id="shape454-118" transform="translate(47.0487,-29.9246)">
				<title>Sheet.454</title>
			</g>
			<g id="shape455-119" transform="translate(47.0487,-29.9246)">
				<title>Sheet.455</title>
			</g>
			<g id="shape456-120" transform="translate(47.0487,-29.9246)">
				<title>Sheet.456</title>
			</g>
			<g id="shape457-121" transform="translate(47.0487,-29.9246)">
				<title>Sheet.457</title>
			</g>
			<g id="shape458-122" transform="translate(47.0487,-29.9246)">
				<title>Sheet.458</title>
			</g>
			<g id="shape459-123" transform="translate(47.0487,-29.9246)">
				<title>Sheet.459</title>
			</g>
			<g id="shape460-124" transform="translate(47.0487,-29.9246)">
				<title>Sheet.460</title>
			</g>
			<g id="shape461-125" transform="translate(47.0487,-29.9246)">
				<title>Sheet.461</title>
			</g>
			<g id="shape462-126" transform="translate(272.318,190.992) rotate(88.8822)">
				<title>Sheet.462</title>
				<path d="M0 225.31 L61.73 225.31" class="st6"/>
			</g>
			<g id="shape463-131" transform="translate(47.0487,-29.9246)">
				<title>Sheet.463</title>
				<path d="M0 225.31 L1.37 225.31" class="st15"/>
			</g>
			<g id="shape464-136" transform="translate(91.8439,390.774) rotate(180)">
				<title>Sheet.464</title>
				<rect x="0" y="165.463" width="89.5903" height="59.8492" class="st8"/>
			</g>
			<g id="shape465-138">
				<title>Sheet.465</title>
				<desc>Channel switch and RX startup</desc>
				<path d="M0 216.31 L9 225.31 L9 216.31 L0 216.31 ZM0 216.31 L9 216.31 L9 225.31 L94.1 225.31 L94.1 165.46 L0 165.46
							 L0 216.31 Z" class="st9"/>
				<text x="-90.1" y="-198.99" transform="rotate(180)" class="st4">Channel switch <tspan x="-90.1" dy="1.2em"
							class="st5">and RX startup</tspan></text>			</g>
		</g>
	</g>
</svg>
