<?xml version="1.0" encoding="UTF-8" standalone="no"?>
<!DOCTYPE svg PUBLIC "-//W3C//DTD SVG 1.1//EN" "http://www.w3.org/Graphics/SVG/1.1/DTD/svg11.dtd">
<!-- Generated by Microsoft Visio, SVG Export gzp_host_id_exchange.svg Page-1 -->
<svg xmlns="http://www.w3.org/2000/svg" xmlns:xlink="http://www.w3.org/1999/xlink" xmlns:ev="http://www.w3.org/2001/xml-events"
		width="10.1736in" height="4.07463in" viewBox="0 0 732.5 293.374" xml:space="preserve" color-interpolation-filters="sRGB"
		class="st17">
	<style type="text/css">
	<![CDATA[
		.st1 {stroke:#000000;stroke-linecap:round;stroke-linejoin:round;stroke-width:0.72}
		.st2 {fill:#c4dbf2;stroke:#000000;stroke-linecap:round;stroke-linejoin:round;stroke-width:0.72}
		.st3 {fill:#000000;font-family:Arial;font-size:1.00001em}
		.st4 {fill:#6dcff6;stroke:#000000;stroke-linecap:round;stroke-linejoin:round;stroke-width:0.24}
		.st5 {fill:#009cde;stroke:#000000;stroke-linecap:round;stroke-linejoin:round;stroke-width:0.24}
		.st6 {fill:#0081b7;stroke:#000000;stroke-linecap:round;stroke-linejoin:round;stroke-width:0.24}
		.st7 {fill:#c4dbf2;stroke:#000000;stroke-linecap:round;stroke-linejoin:round;stroke-width:0.24}
		.st8 {font-size:1em}
		.st9 {marker-end:url(#mrkr4-54);stroke:#000000;stroke-linecap:round;stroke-linejoin:round;stroke-width:0.24}
		.st10 {fill:#000000;fill-opacity:1;stroke:#000000;stroke-opacity:1;stroke-width:0.08695652173913}
		.st11 {fill:#c4dbf2}
		.st12 {stroke:#000000;stroke-linecap:round;stroke-linejoin:round;stroke-width:0.24}
		.st13 {marker-end:url(#mrkr13-80);stroke:#000000;stroke-linecap:round;stroke-linejoin:round;stroke-width:0.24}
		.st14 {marker-end:url(#mrkr20-126);stroke:#000000;stroke-dasharray:1.68,1.2;stroke-linecap:round;stroke-linejoin:round;stroke-width:0.24}
		.st15 {fill:#c4dbf2;stroke:none;stroke-linecap:round;stroke-linejoin:round;stroke-width:0.24;visibility:hidden}
		.st16 {stroke:#000000;stroke-dasharray:17.5,12.5;stroke-linecap:round;stroke-linejoin:round;stroke-width:2.5}
		.st17 {fill:none;fill-rule:evenodd;font-size:12px;overflow:visible;stroke-linecap:square;stroke-miterlimit:3}
	]]>
	</style>

	<defs id="Markers">
		<g id="lend4">
			<path d="M 2 1 L 0 0 L 2 -1 L 2 1 " style="stroke:none"/>
		</g>
		<marker id="mrkr4-54" class="st10" refX="-23" orient="auto" markerUnits="strokeWidth" overflow="visible">
			<use xlink:href="#lend4" transform="scale(-11.5,-11.5) "/>
		</marker>
		<g id="lend13">
			<path d="M 3 1 L 0 0 L 3 -1 L 3 1 " style="stroke:none"/>
		</g>
		<marker id="mrkr13-80" class="st10" refX="-34.5" orient="auto" markerUnits="strokeWidth" overflow="visible">
			<use xlink:href="#lend13" transform="scale(-11.5,-11.5) "/>
		</marker>
		<g id="lend20">
			<path
					d="M 0 0.75 C -0.414214 0.75 -0.75 0.414214 -0.75 0 -0.75 -0.414214 -0.414214 -0.75 0 -0.75 0.414214 -0.75 0.75 -0.414214 0.75 0 0.75 0.414214 0.414214 0.75 0 0.75 Z "
					style="stroke-linecap:round;stroke-linejoin:round;fill:none"/>
		</g>
		<marker id="mrkr20-126" class="st10" refX="-8.6250000000001" orient="auto" markerUnits="strokeWidth" overflow="visible">
			<use xlink:href="#lend20" transform="scale(-11.5,-11.5) "/>
		</marker>
	</defs>
	<g>
		<title>Page-1</title>
		<g id="group227-1" transform="translate(21.25,-33.0135)">
			<title>Sheet.227</title>
			<g id="shape228-2">
				<title>Sheet.228</title>
				<path d="M0 55.78 L0 270.97 A22.4037 22.4037 -180 0 0 22.4 293.37 L294.48 293.37 A22.4037 22.4037 -180 0 0 316.88
							 270.97 L316.88 55.78 L0 55.78" class="st1"/>
			</g>
			<g id="shape229-5" transform="translate(0,-237.596)">
				<title>Sheet.229</title>
				<desc>Device</desc>
				<path d="M316.88 293.37 L0 293.37 A22.4037 22.4037 0 0 1 22.4 270.97 L294.48 270.97 A22.4037 22.4037 0 0 1 316.88
							 293.37 Z" class="st2"/>
				<text x="140.1" y="285.77" class="st3">Device</text>			</g>
		</g>
		<g id="group230-8" transform="translate(404.371,-33.0135)">
			<title>Sheet.230</title>
			<g id="shape231-9">
				<title>Sheet.231</title>
				<path d="M0 55.78 L0 270.97 A22.4037 22.4037 -180 0 0 22.4 293.37 L294.48 293.37 A22.4037 22.4037 -180 0 0 316.88
							 270.97 L316.88 55.78 L0 55.78" class="st1"/>
			</g>
			<g id="shape232-12" transform="translate(0,-237.596)">
				<title>Sheet.232</title>
				<desc>Host</desc>
				<path d="M316.88 293.37 L0 293.37 A22.4037 22.4037 0 0 1 22.4 270.97 L294.48 270.97 A22.4037 22.4037 0 0 1 316.88
							 293.37 Z" class="st2"/>
				<text x="146.1" y="285.77" class="st3">Host</text>			</g>
		</g>
		<g id="shape237-15" transform="translate(575.044,-205.12)">
			<title>Sheet.237</title>
			<desc>Secret key</desc>
			<rect x="0" y="270.48" width="132.411" height="22.8935" class="st4"/>
			<text x="37.86" y="285.53" class="st3">Secret key</text>		</g>
		<g id="shape251-18" transform="translate(575.044,-233.014)">
			<title>Sheet.251</title>
			<desc>System address</desc>
			<rect x="0" y="270.48" width="132.411" height="22.8935" class="st5"/>
			<text x="23.19" y="285.53" class="st3">System address</text>		</g>
		<g id="shape252-21" transform="translate(575.044,-177.226)">
			<title>Sheet.252</title>
			<desc>Host ID</desc>
			<rect x="0" y="270.48" width="132.411" height="22.8935" class="st6"/>
			<text x="46.2" y="285.53" class="st3">Host ID</text>		</g>
		<g id="shape254-24" transform="translate(38.8387,-205.12)">
			<title>Sheet.254</title>
			<desc>Secret key</desc>
			<rect x="0" y="270.48" width="132.411" height="22.8935" class="st4"/>
			<text x="37.86" y="285.53" class="st3">Secret key</text>		</g>
		<g id="shape258-27" transform="translate(38.8387,-233.014)">
			<title>Sheet.258</title>
			<desc>System address</desc>
			<rect x="0" y="270.48" width="132.411" height="22.8935" class="st5"/>
			<text x="23.19" y="285.53" class="st3">System address</text>		</g>
		<g id="shape259-30" transform="translate(195.044,-158.63)">
			<title>Sheet.259</title>
			<desc>True random generator</desc>
			<rect x="0" y="261.714" width="96.2056" height="31.6597" class="st7"/>
			<text x="13.75" y="273.94" class="st3">True random <tspan x="22.42" dy="1.2em" class="st8">generator</tspan></text>		</g>
		<g id="shape284-34" transform="translate(195.044,-111.833)">
			<title>Sheet.284</title>
			<desc>AES cipher</desc>
			<rect x="0" y="270.48" width="96.2056" height="22.8935" class="st7"/>
			<text x="18.09" y="285.53" class="st3">AES cipher</text>		</g>
		<g id="shape285-37" transform="translate(451.25,-111.833)">
			<title>Sheet.285</title>
			<desc>AES cipher</desc>
			<rect x="0" y="270.48" width="96.2056" height="22.8935" class="st7"/>
			<text x="18.09" y="285.53" class="st3">AES cipher</text>		</g>
		<g id="shape286-40" transform="translate(38.8387,-63.2797)">
			<title>Sheet.286</title>
			<desc>Host ID</desc>
			<rect x="0" y="270.48" width="132.411" height="22.8935" class="st6"/>
			<text x="46.2" y="285.53" class="st3">Host ID</text>		</g>
		<g id="shape287-43" transform="translate(305.044,-63.2797)">
			<title>Sheet.287</title>
			<desc>Host ID</desc>
			<rect x="0" y="270.48" width="132.411" height="22.8935" class="st7"/>
			<text x="46.2" y="285.53" class="st3">Host ID</text>		</g>
		<g id="shape288-46" transform="translate(305.044,-163.014)">
			<title>Sheet.288</title>
			<desc>Session token</desc>
			<rect x="0" y="270.48" width="132.411" height="22.8935" class="st7"/>
			<text x="28.51" y="285.53" class="st3">Session token</text>		</g>
		<g id="shape289-49" transform="translate(170.647,-216.567)">
			<title>Sheet.289</title>
			<path d="M0.6 293.37 L9.22 293.37 L9.22 386.66 L18.88 386.66" class="st9"/>
		</g>
		<g id="shape290-55" transform="translate(575.044,-216.567)">
			<title>Sheet.290</title>
			<path d="M0 293.37 L-20.18 293.37 L-20.18 386.66 L-22.07 386.66" class="st9"/>
		</g>
		<g id="shape291-60" transform="translate(575.044,-188.673)">
			<title>Sheet.291</title>
			<path d="M0 293.37 L-10.12 293.37 L-10.12 407.32 L-55.17 407.32" class="st9"/>
		</g>
		<g id="shape292-65" transform="translate(484.353,-59.7265)">
			<title>Or</title>
			<path d="M0 278.37 A15 15 0 0 1 30 278.37 A15 15 0 1 1 0 278.37 Z" class="st11"/>
			<path d="M15 263.37 L15 293.37" class="st12"/>
			<path d="M0 278.37 L30 278.37" class="st12"/>
			<path d="M0 278.37 A15 15 0 0 1 30 278.37 A15 15 0 1 1 0 278.37" class="st12"/>
		</g>
		<g id="shape293-70" transform="translate(228.147,-59.7265)">
			<title>Or.293</title>
			<path d="M0 278.37 A15 15 0 0 1 30 278.37 A15 15 0 1 1 0 278.37 Z" class="st11"/>
			<path d="M15 263.37 L15 293.37" class="st12"/>
			<path d="M0 278.37 L30 278.37" class="st12"/>
			<path d="M0 278.37 A15 15 0 0 1 30 278.37 A15 15 0 1 1 0 278.37" class="st12"/>
		</g>
		<g id="shape294-75" transform="translate(536.521,134.743) rotate(90)">
			<title>Flowline1</title>
			<path d="M0 293.37 L15.62 293.37" class="st13"/>
		</g>
		<g id="shape295-81" transform="translate(536.521,181.541) rotate(90)">
			<title>Flowline1.295</title>
			<path d="M0 293.37 L22.11 293.37" class="st12"/>
		</g>
		<g id="shape296-84" transform="translate(792.726,181.541) rotate(90)">
			<title>Flowline1.296</title>
			<path d="M0 293.37 L22.11 293.37" class="st12"/>
		</g>
		<g id="shape297-87" transform="translate(305.044,512.021) rotate(180)">
			<title>Flowline1.297</title>
			<path d="M0 293.37 L38.62 293.37" class="st13"/>
		</g>
		<g id="shape298-92" transform="translate(228.147,512.021) rotate(180)">
			<title>Flowline1.298</title>
			<path d="M0 293.37 L48.62 293.37" class="st13"/>
		</g>
		<g id="shape299-97" transform="translate(484.353,512.021) rotate(180)">
			<title>Flowline1.299</title>
			<path d="M0 293.37 L38.62 293.37" class="st13"/>
		</g>
		<g id="shape300-102" transform="translate(291.25,-174.46)">
			<title>Flowline1.300</title>
			<path d="M0 293.37 L5.51 293.37" class="st13"/>
		</g>
		<g id="shape301-107" transform="translate(437.456,-174.46)">
			<title>Sheet.301</title>
			<path d="M0 293.37 L61.9 293.37 L61.9 327.59" class="st9"/>
		</g>
		<g id="group302-112" transform="translate(91.25,400.84) rotate(180)">
			<title>Annotation/Comment</title>
			<g id="shape303-113" transform="translate(45,-12.2766)">
				<title>Sheet.303</title>
			</g>
			<g id="shape304-114" transform="translate(45,-12.2766)">
				<title>Sheet.304</title>
			</g>
			<g id="shape305-115" transform="translate(45,-12.2766)">
				<title>Sheet.305</title>
			</g>
			<g id="shape306-116" transform="translate(45,-12.2766)">
				<title>Sheet.306</title>
			</g>
			<g id="shape307-117" transform="translate(45,-12.2766)">
				<title>Sheet.307</title>
			</g>
			<g id="shape308-118" transform="translate(45,-12.2766)">
				<title>Sheet.308</title>
			</g>
			<g id="shape309-119" transform="translate(45,-12.2766)">
				<title>Sheet.309</title>
			</g>
			<g id="shape310-120" transform="translate(45,-12.2766)">
				<title>Sheet.310</title>
			</g>
			<g id="shape311-121" transform="translate(-12.3887,568.803) rotate(-168.719)">
				<title>Sheet.311</title>
				<path d="M0 293.37 L1.71 293.37" class="st14"/>
			</g>
			<g id="shape312-127" transform="translate(45,-12.2766)">
				<title>Sheet.312</title>
			</g>
			<g id="shape313-128" transform="translate(45,-12.2766)">
				<title>Sheet.313</title>
			</g>
			<g id="shape314-129" transform="translate(-197.035,446.889) rotate(-124.411)">
				<title>Sheet.314</title>
				<path d="M0 293.37 L29.93 293.37" class="st14"/>
			</g>
			<g id="shape315-134" transform="translate(87.7464,560.068) rotate(180)">
				<title>Sheet.315</title>
				<rect x="0" y="264.57" width="85.4928" height="28.8038" class="st15"/>
			</g>
			<g id="shape316-136" transform="translate(0,2.12529)">
				<title>Sheet.316</title>
				<desc>Optional: User validation</desc>
				<path d="M0 284.37 L9 293.37 L9 284.37 L0 284.37 ZM0 284.37 L9 284.37 L9 293.37 L90 293.37 L90 264.57 L0 264.57 L0
							 284.37 Z" class="st7"/>
				<text x="-86" y="-282.57" transform="rotate(180)" class="st3">Optional: <tspan x="-86" dy="1.2em" class="st8">User validation</tspan></text>			</g>
		</g>
		<g id="shape317-140" transform="translate(1.25,-147.226)">
			<title>Zoom.inn1</title>
			<path d="M0 293.37 L730 293.37" class="st16"/>
		</g>
		<g id="shape318-143" transform="translate(305.044,-0.12)">
			<title>Sheet.318</title>
			<desc>Using: System address</desc>
			<rect x="0" y="270.48" width="132.411" height="22.8935" class="st5"/>
			<text x="4.51" y="285.53" class="st3">Using: System address</text>		</g>
	</g>
</svg>
