<?xml version="1.0" encoding="UTF-8" standalone="no"?>
<!DOCTYPE svg PUBLIC "-//W3C//DTD SVG 1.1//EN" "http://www.w3.org/Graphics/SVG/1.1/DTD/svg11.dtd">
<!-- Generated by Microsoft Visio, SVG Export gzp_address_exchange.svg Page-1 -->
<svg xmlns="http://www.w3.org/2000/svg" xmlns:xlink="http://www.w3.org/1999/xlink" xmlns:ev="http://www.w3.org/2001/xml-events"
		width="9.73222in" height="1.84065in" viewBox="0 0 700.72 132.527" xml:space="preserve" color-interpolation-filters="sRGB"
		class="st9">
	<style type="text/css">
	<![CDATA[
		.st1 {stroke:#000000;stroke-linecap:round;stroke-linejoin:round;stroke-width:0.72}
		.st2 {fill:#c4dbf2;stroke:#000000;stroke-linecap:round;stroke-linejoin:round;stroke-width:0.72}
		.st3 {fill:#000000;font-family:Arial;font-size:1.00001em}
		.st4 {fill:#dc582a;stroke:#000000;stroke-linecap:round;stroke-linejoin:round;stroke-width:0.24}
		.st5 {fill:#009cde;stroke:#000000;stroke-linecap:round;stroke-linejoin:round;stroke-width:0.24}
		.st6 {fill:#e7f0fa;stroke:#000000;stroke-linecap:round;stroke-linejoin:round;stroke-width:0.24}
		.st7 {marker-end:url(#mrkr13-38);stroke:#000000;stroke-linecap:round;stroke-linejoin:round;stroke-width:0.24}
		.st8 {fill:#000000;fill-opacity:1;stroke:#000000;stroke-opacity:1;stroke-width:0.08695652173913}
		.st9 {fill:none;fill-rule:evenodd;font-size:12px;overflow:visible;stroke-linecap:square;stroke-miterlimit:3}
	]]>
	</style>

	<defs id="Markers">
		<g id="lend13">
			<path d="M 3 1 L 0 0 L 3 -1 L 3 1 " style="stroke:none"/>
		</g>
		<marker id="mrkr13-38" class="st8" refX="-34.5" orient="auto" markerUnits="strokeWidth" overflow="visible">
			<use xlink:href="#lend13" transform="scale(-11.5,-11.5) "/>
		</marker>
	</defs>
	<g>
		<title>Page-1</title>
		<g id="group227-1" transform="translate(0.36,-32.1668)">
			<title>Sheet.227</title>
			<g id="shape228-2">
				<title>Sheet.228</title>
				<path d="M0 54.93 L0 110.12 A22.4037 22.4037 -180 0 0 22.4 132.53 L294.48 132.53 A22.4037 22.4037 -180 0 0 316.88
							 110.12 L316.88 54.93 L0 54.93" class="st1"/>
			</g>
			<g id="shape229-5" transform="translate(0,-77.5963)">
				<title>Sheet.229</title>
				<desc>Device</desc>
				<path d="M316.88 132.53 L0 132.53 A22.4037 22.4037 0 0 1 22.4 110.12 L294.48 110.12 A22.4037 22.4037 0 0 1 316.88
							 132.53 Z" class="st2"/>
				<text x="140.1" y="124.93" class="st3">Device</text>			</g>
		</g>
		<g id="group230-8" transform="translate(383.481,-32.1668)">
			<title>Sheet.230</title>
			<g id="shape231-9">
				<title>Sheet.231</title>
				<path d="M0 54.93 L0 110.12 A22.4037 22.4037 -180 0 0 22.4 132.53 L294.48 132.53 A22.4037 22.4037 -180 0 0 316.88
							 110.12 L316.88 54.93 L0 54.93" class="st1"/>
			</g>
			<g id="shape232-12" transform="translate(0,-77.5963)">
				<title>Sheet.232</title>
				<desc>Host</desc>
				<path d="M316.88 132.53 L0 132.53 A22.4037 22.4037 0 0 1 22.4 110.12 L294.48 110.12 A22.4037 22.4037 0 0 1 316.88
							 132.53 Z" class="st2"/>
				<text x="146.1" y="124.93" class="st3">Host</text>			</g>
		</g>
		<g id="shape233-15" transform="translate(17.9487,-72.1668)">
			<title>Sheet.233</title>
			<desc>Pairing address</desc>
			<rect x="0" y="109.633" width="132.411" height="22.8935" class="st4"/>
			<text x="24.52" y="124.68" class="st3">Pairing address</text>		</g>
		<g id="shape234-18" transform="translate(17.9487,-44.2733)">
			<title>Sheet.234</title>
			<desc>System address</desc>
			<rect x="0" y="109.633" width="132.411" height="22.8935" class="st5"/>
			<text x="23.19" y="124.68" class="st3">System address</text>		</g>
		<g id="shape236-21" transform="translate(554.154,-72.1668)">
			<title>Sheet.236</title>
			<desc>Pairing address</desc>
			<rect x="0" y="109.633" width="132.411" height="22.8935" class="st4"/>
			<text x="24.52" y="124.68" class="st3">Pairing address</text>		</g>
		<g id="shape237-24" transform="translate(554.154,-44.2733)">
			<title>Sheet.237</title>
			<desc>System address</desc>
			<rect x="0" y="109.633" width="132.411" height="22.8935" class="st5"/>
			<text x="23.19" y="124.68" class="st3">System address</text>		</g>
		<g id="shape238-27" transform="translate(284.154,-44.2733)">
			<title>Sheet.238</title>
			<desc>System address</desc>
			<rect x="0" y="109.633" width="132.411" height="22.8935" class="st6"/>
			<text x="23.19" y="124.68" class="st3">System address</text>		</g>
		<g id="shape239-30" transform="translate(284.154,-0.12)">
			<title>Sheet.239</title>
			<desc>Using: Pairing address</desc>
			<rect x="0" y="109.633" width="132.411" height="22.8935" class="st4"/>
			<text x="5.84" y="124.68" class="st3">Using: Pairing address</text>		</g>
		<g id="shape240-33" transform="translate(284.154,209.334) rotate(180)">
			<title>Sheet.240</title>
			<path d="M0 132.53 L125.51 132.53" class="st7"/>
		</g>
		<g id="shape241-39" transform="translate(554.154,209.334) rotate(180)">
			<title>Sheet.241</title>
			<path d="M0 132.53 L129.31 132.53" class="st7"/>
		</g>
	</g>
</svg>
