<?xml version="1.0" encoding="UTF-8" standalone="no"?>
<!DOCTYPE svg PUBLIC "-//W3C//DTD SVG 1.1//EN" "http://www.w3.org/Graphics/SVG/1.1/DTD/svg11.dtd">
<!-- Generated by Microsoft Visio, SVG Export gzp_factory_defaults.svg Page-1 -->
<svg xmlns="http://www.w3.org/2000/svg" xmlns:xlink="http://www.w3.org/1999/xlink" xmlns:ev="http://www.w3.org/2001/xml-events"
		width="9.73222in" height="2.78778in" viewBox="0 0 700.72 200.72" xml:space="preserve" color-interpolation-filters="sRGB"
		class="st9">
	<style type="text/css">
	<![CDATA[
		.st1 {stroke:#000000;stroke-linecap:round;stroke-linejoin:round;stroke-width:0.72}
		.st2 {fill:#c4dbf2;stroke:#000000;stroke-linecap:round;stroke-linejoin:round;stroke-width:0.72}
		.st3 {fill:#000000;font-family:Arial;font-size:1.00001em}
		.st4 {fill:#dc582a;stroke:#000000;stroke-linecap:round;stroke-linejoin:round;stroke-width:0.24}
		.st5 {fill:#6dcff6;stroke:#000000;stroke-linecap:round;stroke-linejoin:round;stroke-width:0.24}
		.st6 {fill:#e7f0fa;stroke:#000000;stroke-linecap:round;stroke-linejoin:round;stroke-width:0.24}
		.st7 {fill:#009cde;stroke:#000000;stroke-linecap:round;stroke-linejoin:round;stroke-width:0.24}
		.st8 {fill:#0081b7;stroke:#000000;stroke-linecap:round;stroke-linejoin:round;stroke-width:0.24}
		.st9 {fill:none;fill-rule:evenodd;font-size:12px;overflow:visible;stroke-linecap:square;stroke-miterlimit:3}
	]]>
	</style>

	<g>
		<title>Page-1</title>
		<g id="group227-1" transform="translate(0.36,-70.36)">
			<title>Sheet.227</title>
			<g id="shape228-2">
				<title>Sheet.228</title>
				<path d="M0 93.12 L0 178.32 A22.4037 22.4037 -180 0 0 22.4 200.72 L294.48 200.72 A22.4037 22.4037 -180 0 0 316.88
							 178.32 L316.88 93.12 L0 93.12" class="st1"/>
			</g>
			<g id="shape229-5" transform="translate(0,-107.596)">
				<title>Sheet.229</title>
				<desc>Device</desc>
				<path d="M316.88 200.72 L0 200.72 A22.4037 22.4037 0 0 1 22.4 178.32 L294.48 178.32 A22.4037 22.4037 0 0 1 316.88
							 200.72 Z" class="st2"/>
				<text x="140.1" y="193.12" class="st3">Device</text>			</g>
		</g>
		<g id="group230-8" transform="translate(383.481,-0.36)">
			<title>Sheet.230</title>
			<g id="shape231-9">
				<title>Sheet.231</title>
				<path d="M0 23.12 L0 178.32 A22.4037 22.4037 -180 0 0 22.4 200.72 L294.48 200.72 A22.4037 22.4037 -180 0 0 316.88
							 178.32 L316.88 23.12 L0 23.12" class="st1"/>
			</g>
			<g id="shape232-12" transform="translate(0,-177.596)">
				<title>Sheet.232</title>
				<desc>Host</desc>
				<path d="M316.88 200.72 L0 200.72 A22.4037 22.4037 0 0 1 22.4 178.32 L294.48 178.32 A22.4037 22.4037 0 0 1 316.88
							 200.72 Z" class="st2"/>
				<text x="146.1" y="193.12" class="st3">Host</text>			</g>
		</g>
		<g id="shape233-15" transform="translate(17.9487,-112.466)">
			<title>Sheet.233</title>
			<desc>Pairing address</desc>
			<rect x="0" y="177.826" width="132.411" height="22.8935" class="st4"/>
			<text x="24.52" y="192.87" class="st3">Pairing address</text>		</g>
		<g id="shape236-18" transform="translate(554.154,-112.466)">
			<title>Sheet.236</title>
			<desc>Pairing address</desc>
			<rect x="0" y="177.826" width="132.411" height="22.8935" class="st4"/>
			<text x="24.52" y="192.87" class="st3">Pairing address</text>		</g>
		<g id="shape237-21" transform="translate(554.154,-140.36)">
			<title>Sheet.237</title>
			<desc>Secret key</desc>
			<rect x="0" y="177.826" width="132.411" height="22.8935" class="st5"/>
			<text x="37.86" y="192.87" class="st3">Secret key</text>		</g>
		<g id="shape250-24" transform="translate(554.154,-84.573)">
			<title>Sheet.250</title>
			<desc>Packet validation ID</desc>
			<rect x="0" y="177.826" width="132.411" height="22.8935" class="st6"/>
			<text x="13.18" y="192.87" class="st3">Packet validation ID</text>		</g>
		<g id="shape251-27" transform="translate(554.154,-56.6795)">
			<title>Sheet.251</title>
			<desc>System address</desc>
			<rect x="0" y="177.826" width="132.411" height="22.8935" class="st7"/>
			<text x="23.19" y="192.87" class="st3">System address</text>		</g>
		<g id="shape252-30" transform="translate(554.154,-28.786)">
			<title>Sheet.252</title>
			<desc>Host ID</desc>
			<rect x="0" y="177.826" width="132.411" height="22.8935" class="st8"/>
			<text x="46.2" y="192.87" class="st3">Host ID</text>		</g>
		<g id="shape253-33" transform="translate(17.9487,-84.573)">
			<title>Sheet.253</title>
			<desc>Packet validation ID</desc>
			<rect x="0" y="177.826" width="132.411" height="22.8935" class="st6"/>
			<text x="13.18" y="192.87" class="st3">Packet validation ID</text>		</g>
		<g id="shape254-36" transform="translate(17.9487,-140.36)">
			<title>Sheet.254</title>
			<desc>Secret key</desc>
			<rect x="0" y="177.826" width="132.411" height="22.8935" class="st5"/>
			<text x="37.86" y="192.87" class="st3">Secret key</text>		</g>
	</g>
</svg>
