<?xml version="1.0" encoding="UTF-8" standalone="no"?>
<!DOCTYPE svg PUBLIC "-//W3C//DTD SVG 1.1//EN" "http://www.w3.org/Graphics/SVG/1.1/DTD/svg11.dtd">
<!-- Generated by Microsoft Visio, SVG Export gzp_key_exchange.svg Page-1 -->
<svg xmlns="http://www.w3.org/2000/svg" xmlns:xlink="http://www.w3.org/1999/xlink" xmlns:ev="http://www.w3.org/2001/xml-events"
		width="9.73222in" height="4.90797in" viewBox="0 0 700.72 353.374" xml:space="preserve" color-interpolation-filters="sRGB"
		class="st18">
	<style type="text/css">
	<![CDATA[
		.st1 {stroke:#000000;stroke-linecap:round;stroke-linejoin:round;stroke-width:0.72}
		.st2 {fill:#c4dbf2;stroke:#000000;stroke-linecap:round;stroke-linejoin:round;stroke-width:0.72}
		.st3 {fill:#000000;font-family:Arial;font-size:1.00001em}
		.st4 {fill:#009cde;stroke:#000000;stroke-linecap:round;stroke-linejoin:round;stroke-width:0.24}
		.st5 {fill:#0081b7;stroke:#000000;stroke-linecap:round;stroke-linejoin:round;stroke-width:0.24}
		.st6 {fill:#c4dbf2;stroke:#000000;stroke-linecap:round;stroke-linejoin:round;stroke-width:0.24}
		.st7 {font-size:1em}
		.st8 {fill:#c4dbf2}
		.st9 {stroke:#000000;stroke-linecap:round;stroke-linejoin:round;stroke-width:0.24}
		.st10 {marker-end:url(#mrkr13-60);stroke:#000000;stroke-linecap:round;stroke-linejoin:round;stroke-width:0.24}
		.st11 {fill:#000000;fill-opacity:1;stroke:#000000;stroke-opacity:1;stroke-width:0.08695652173913}
		.st12 {fill:#e7f0fa;stroke:#000000;stroke-linecap:round;stroke-linejoin:round;stroke-width:0.24}
		.st13 {fill:#adafaf;stroke:#000000;stroke-linecap:round;stroke-linejoin:round;stroke-width:0.24}
		.st14 {fill:#53cbff;stroke:#000000;stroke-linecap:round;stroke-linejoin:round;stroke-width:0.24}
		.st15 {fill:#ffffff;stroke:none;stroke-linecap:butt;stroke-width:7.2}
		.st16 {marker-end:url(#mrkr2-164);stroke:#000000;stroke-linecap:round;stroke-linejoin:round;stroke-width:2.75}
		.st17 {fill:#000000;fill-opacity:1;stroke:#000000;stroke-opacity:1;stroke-width:0.52182163187856}
		.st18 {fill:none;fill-rule:evenodd;font-size:12px;overflow:visible;stroke-linecap:square;stroke-miterlimit:3}
	]]>
	</style>

	<defs id="Markers">
		<g id="lend13">
			<path d="M 3 1 L 0 0 L 3 -1 L 3 1 " style="stroke:none"/>
		</g>
		<marker id="mrkr13-60" class="st11" refX="-34.5" orient="auto" markerUnits="strokeWidth" overflow="visible">
			<use xlink:href="#lend13" transform="scale(-11.5,-11.5) "/>
		</marker>
		<g id="lend2">
			<path d="M 1 1 L 0 0 L 1 -1 L 1 1 " style="stroke:none"/>
		</g>
		<marker id="mrkr2-164" class="st17" refX="-1.9163636363636" orient="auto" markerUnits="strokeWidth" overflow="visible">
			<use xlink:href="#lend2" transform="scale(-1.9163636363636,-1.9163636363636) "/>
		</marker>
	</defs>
	<g>
		<title>Page-1</title>
		<g id="group227-1" transform="translate(0.36,-38.0135)">
			<title>Sheet.227</title>
			<g id="shape228-2">
				<title>Sheet.228</title>
				<path d="M0 60.78 L0 330.97 A22.4037 22.4037 -180 0 0 22.4 353.37 L294.48 353.37 A22.4037 22.4037 -180 0 0 316.88
							 330.97 L316.88 60.78 L0 60.78" class="st1"/>
			</g>
			<g id="shape229-5" transform="translate(0,-292.596)">
				<title>Sheet.229</title>
				<desc>Device</desc>
				<path d="M316.88 353.37 L0 353.37 A22.4037 22.4037 0 0 1 22.4 330.97 L294.48 330.97 A22.4037 22.4037 0 0 1 316.88
							 353.37 Z" class="st2"/>
				<text x="140.1" y="345.77" class="st3">Device</text>			</g>
		</g>
		<g id="group230-8" transform="translate(383.481,-38.0135)">
			<title>Sheet.230</title>
			<g id="shape231-9">
				<title>Sheet.231</title>
				<path d="M0 60.78 L0 330.97 A22.4037 22.4037 -180 0 0 22.4 353.37 L294.48 353.37 A22.4037 22.4037 -180 0 0 316.88
							 330.97 L316.88 60.78 L0 60.78" class="st1"/>
			</g>
			<g id="shape232-12" transform="translate(0,-292.596)">
				<title>Sheet.232</title>
				<desc>Host</desc>
				<path d="M316.88 353.37 L0 353.37 A22.4037 22.4037 0 0 1 22.4 330.97 L294.48 330.97 A22.4037 22.4037 0 0 1 316.88
							 353.37 Z" class="st2"/>
				<text x="146.1" y="345.77" class="st3">Host</text>			</g>
		</g>
		<g id="shape251-15" transform="translate(554.154,-293.014)">
			<title>Sheet.251</title>
			<desc>System address</desc>
			<rect x="0" y="330.48" width="132.411" height="22.8935" class="st4"/>
			<text x="23.19" y="345.53" class="st3">System address</text>		</g>
		<g id="shape252-18" transform="translate(554.154,-214.556)">
			<title>Sheet.252</title>
			<desc>Host ID</desc>
			<rect x="0" y="330.48" width="132.411" height="22.8935" class="st5"/>
			<text x="46.2" y="345.53" class="st3">Host ID</text>		</g>
		<g id="shape258-21" transform="translate(17.9487,-293.014)">
			<title>Sheet.258</title>
			<desc>System address</desc>
			<rect x="0" y="330.48" width="132.411" height="22.8935" class="st4"/>
			<text x="23.19" y="345.53" class="st3">System address</text>		</g>
		<g id="shape259-24" transform="translate(430.36,-261.354)">
			<title>Sheet.259</title>
			<desc>Pseudo random generator</desc>
			<rect x="0" y="321.714" width="96.2056" height="31.6597" class="st6"/>
			<text x="5.74" y="333.94" class="st3">Pseudo random <tspan x="22.42" dy="1.2em" class="st7">generator</tspan></text>		</g>
		<g id="shape284-28" transform="translate(174.154,-214.556)">
			<title>Sheet.284</title>
			<desc>AES cipher</desc>
			<rect x="0" y="330.48" width="96.2056" height="22.8935" class="st6"/>
			<text x="18.09" y="345.53" class="st3">AES cipher</text>		</g>
		<g id="shape285-31" transform="translate(430.36,-214.556)">
			<title>Sheet.285</title>
			<desc>AES cipher</desc>
			<rect x="0" y="330.48" width="96.2056" height="22.8935" class="st6"/>
			<text x="18.09" y="345.53" class="st3">AES cipher</text>		</g>
		<g id="shape286-34" transform="translate(17.9487,-214.556)">
			<title>Sheet.286</title>
			<desc>Host ID</desc>
			<rect x="0" y="330.48" width="132.411" height="22.8935" class="st5"/>
			<text x="46.2" y="345.53" class="st3">Host ID</text>		</g>
		<g id="shape287-37" transform="translate(284.154,-155.7)">
			<title>Sheet.287</title>
			<desc>Packet validation ID + Dynamic key</desc>
			<rect x="0" y="309.874" width="132.411" height="43.5" class="st6"/>
			<text x="13.18" y="320.82" class="st3">Packet validation ID <tspan x="62.7" dy="1.2em" class="st7">+ </tspan><tspan
						x="31.86" dy="1.2em" class="st7">Dynamic key</tspan></text>		</g>
		<g id="shape288-42" transform="translate(284.154,-265.737)">
			<title>Sheet.288</title>
			<desc>Session token</desc>
			<rect x="0" y="330.48" width="132.411" height="22.8935" class="st6"/>
			<text x="28.51" y="345.53" class="st3">Session token</text>		</g>
		<g id="shape292-45" transform="translate(463.463,-162.45)">
			<title>Or</title>
			<path d="M0 338.37 A15 15 0 0 1 30 338.37 A15 15 0 1 1 0 338.37 Z" class="st8"/>
			<path d="M15 323.37 L15 353.37" class="st9"/>
			<path d="M0 338.37 L30 338.37" class="st9"/>
			<path d="M0 338.37 A15 15 0 0 1 30 338.37 A15 15 0 1 1 0 338.37" class="st9"/>
		</g>
		<g id="shape293-50" transform="translate(207.257,-162.45)">
			<title>Or.293</title>
			<path d="M0 338.37 A15 15 0 0 1 30 338.37 A15 15 0 1 1 0 338.37 Z" class="st8"/>
			<path d="M15 323.37 L15 353.37" class="st9"/>
			<path d="M0 338.37 L30 338.37" class="st9"/>
			<path d="M0 338.37 A15 15 0 0 1 30 338.37 A15 15 0 1 1 0 338.37" class="st9"/>
		</g>
		<g id="shape294-55" transform="translate(430.36,429.563) rotate(180)">
			<title>Flowline1</title>
			<path d="M0 353.37 L5.51 353.37" class="st10"/>
		</g>
		<g id="shape295-61" transform="translate(575.631,138.817) rotate(90)">
			<title>Flowline1.295</title>
			<path d="M0 353.37 L13.83 353.37" class="st10"/>
		</g>
		<g id="shape296-66" transform="translate(831.836,138.817) rotate(90)">
			<title>Flowline1.296</title>
			<path d="M0 353.37 L13.83 353.37" class="st10"/>
		</g>
		<g id="shape300-71" transform="translate(831.836,92.0197) rotate(90)">
			<title>Flowline1.300</title>
			<path d="M0 353.37 L15.62 353.37" class="st10"/>
		</g>
		<g id="shape301-76" transform="translate(284.154,-277.184)">
			<title>Sheet.301</title>
			<path d="M0 353.37 L-61.9 353.37 L-61.9 384.83" class="st10"/>
		</g>
		<g id="shape302-81" transform="translate(150.36,-226.003)">
			<title>Flowline1.302</title>
			<path d="M0 353.37 L15.51 353.37" class="st10"/>
		</g>
		<g id="shape303-86" transform="translate(17.9487,-166.003)">
			<title>Sheet.303</title>
			<desc>Packet validation ID</desc>
			<rect x="0" y="330.48" width="132.411" height="22.8935" class="st12"/>
			<text x="13.18" y="345.53" class="st3">Packet validation ID</text>		</g>
		<g id="shape304-89" transform="translate(575.36,-127.205)">
			<title>Sheet.304</title>
			<desc>Packet validation ID</desc>
			<rect x="0" y="330.48" width="111.206" height="22.8935" class="st12"/>
			<text x="2.57" y="345.53" class="st3">Packet validation ID</text>		</g>
		<g id="shape305-92" transform="translate(504.448,-162.45)">
			<title>Sheet.305</title>
			<desc>Packet validation ID</desc>
			<rect x="0" y="323.374" width="75" height="30" class="st13"/>
			<text x="19.16" y="334.77" class="st3">Packet <tspan x="4.48" dy="1.2em" class="st7">validation ID</tspan></text>		</g>
		<g id="shape306-96" transform="translate(150.36,-177.45)">
			<title>Sheet.306</title>
			<path d="M0 353.37 L48.62 353.37" class="st10"/>
		</g>
		<g id="shape307-101" transform="translate(416.566,-177.45)">
			<title>Sheet.307</title>
			<path d="M0 353.37 L38.62 353.37" class="st10"/>
		</g>
		<g id="shape348-106" transform="translate(237.257,-177.45)">
			<title>Sheet.348</title>
			<path d="M0 353.37 L38.62 353.37" class="st10"/>
		</g>
		<g id="shape349-111" transform="translate(526.948,-127.205)">
			<title>Decision.259</title>
			<desc>=</desc>
			<path d="M0 341.93 L15 330.48 L30 341.93 L15 353.37 L0 341.93 Z" class="st6"/>
			<text x="11.5" y="345.53" class="st3">=</text>		</g>
		<g id="shape351-114" transform="translate(284.154,-0.12)">
			<title>Sheet.351</title>
			<desc>Using: System address</desc>
			<rect x="0" y="330.48" width="132.411" height="22.8935" class="st4"/>
			<text x="4.51" y="345.53" class="st3">Using: System address</text>		</g>
		<g id="shape352-117" transform="translate(831.836,190.924) rotate(90)">
			<title>Sheet.352</title>
			<path d="M0 353.37 L63.9 353.37" class="st10"/>
		</g>
		<g id="shape353-122" transform="translate(895.322,190.924) rotate(90)">
			<title>Sheet.353</title>
			<path d="M0 353.37 L12.35 353.37" class="st9"/>
		</g>
		<g id="shape354-125" transform="translate(575.36,568.095) rotate(180)">
			<title>Sheet.354</title>
			<path d="M0 353.37 L10.13 353.37" class="st10"/>
		</g>
		<g id="shape355-130" transform="translate(493.463,-177.45)">
			<title>Sheet.355</title>
			<path d="M0 353.37 L10.99 353.37" class="st9"/>
		</g>
		<g id="shape356-133" transform="translate(150.36,-78.8219)">
			<title>Sheet.356</title>
			<path d="M0 353.37 L30 353.37 L30 254.75" class="st9"/>
		</g>
		<g id="shape357-136" transform="translate(17.9487,-67.3752)">
			<title>Sheet.357</title>
			<desc>Dynamic key</desc>
			<rect x="0" y="330.48" width="132.411" height="22.8935" class="st14"/>
			<text x="31.86" y="345.53" class="st3">Dynamic key</text>		</g>
		<g id="shape358-139" transform="translate(554.154,-67.3752)">
			<title>Sheet.358</title>
			<desc>Dynamic key</desc>
			<rect x="0" y="330.48" width="132.411" height="22.8935" class="st14"/>
			<text x="31.86" y="345.53" class="st3">Dynamic key</text>		</g>
		<g id="shape359-142" transform="translate(437.528,241.845) rotate(90)">
			<title>Flowline1.359</title>
			<path d="M0 353.37 L12.98 353.37" class="st10"/>
		</g>
		<g id="shape360-147" transform="translate(39.5002,-111.529)">
			<title>Sheet.360</title>
			<desc>True random key generator</desc>
			<rect x="0" y="323.374" width="89.3084" height="30" class="st6"/>
			<text x="10.31" y="334.77" class="st3">True random <tspan x="7.97" dy="1.2em" class="st7">key generator</tspan></text>		</g>
		<g id="shape361-151" transform="translate(430.36,-67.3752)">
			<title>Sheet.361</title>
			<desc>Dynamic key</desc>
			<rect x="0" y="330.48" width="96.2056" height="22.8935" class="st13"/>
			<text x="13.76" y="345.53" class="st3">Dynamic key</text>		</g>
		<g id="shape362-154" transform="translate(895.322,226.168) rotate(90)">
			<title>Sheet.362</title>
			<desc>Yes</desc>
			<path d="M0 353.37 L48.38 353.37" class="st9"/>
			<rect x="-362.881" y="7.63006" width="20.6782" height="14.4001" transform="rotate(-90)" class="st15"/>
			<text x="-362.88" y="18.43" transform="rotate(-90)" class="st3">Yes</text>		</g>
		<g id="shape363-159" transform="translate(526.566,-78.8219)">
			<title>Sheet.363</title>
			<path d="M0 353.37 L22.32 353.37" class="st16"/>
		</g>
		<g id="shape364-165" transform="translate(554.154,480.744) rotate(180)">
			<title>Sheet.364</title>
			<path d="M0 353.37 L19.31 353.37" class="st10"/>
		</g>
	</g>
</svg>
