<?xml version="1.0" encoding="UTF-8" standalone="no"?>
<!DOCTYPE svg PUBLIC "-//W3C//DTD SVG 1.1//EN" "http://www.w3.org/Graphics/SVG/1.1/DTD/svg11.dtd">
<!-- Generated by Microsoft Visio, SVG Export hci_packet.svg Page-1 -->
<svg xmlns="http://www.w3.org/2000/svg" xmlns:xlink="http://www.w3.org/1999/xlink" xmlns:ev="http://www.w3.org/2001/xml-events"
		width="5.29432in" height="1.47526in" viewBox="0 0 381.191 106.218" xml:space="preserve" color-interpolation-filters="sRGB"
		class="st5">
	<style type="text/css">
	<![CDATA[
		.st1 {fill:#c4dbf2;stroke:#000000;stroke-linecap:round;stroke-linejoin:round;stroke-width:0.24}
		.st2 {fill:#000000;font-family:Arial;font-size:1.00001em}
		.st3 {fill:none;stroke:none;stroke-linecap:round;stroke-linejoin:round;stroke-width:0.75}
		.st4 {fill:#000000;font-family:Calibri;font-size:1.00001em}
		.st5 {fill:none;fill-rule:evenodd;font-size:12px;overflow:visible;stroke-linecap:square;stroke-miterlimit:3}
	]]>
	</style>

	<g>
		<title>Page-1</title>
		<g id="shape228-1" transform="translate(7.875,-54.3966)">
			<title>Sheet.228</title>
			<desc>HEADER</desc>
			<rect x="0" y="74.7716" width="105" height="31.4468" class="st1"/>
			<text x="27.49" y="94.1" class="st2">HEADER</text>		</g>
		<g id="shape231-4" transform="translate(112.875,-54.3966)">
			<title>Sheet.231</title>
			<desc>PAYLOAD</desc>
			<rect x="0" y="74.7716" width="209.468" height="31.4468" class="st1"/>
			<text x="76.39" y="94.1" class="st2">PAYLOAD</text>		</g>
		<g id="shape232-7" transform="translate(322.343,-54.3966)">
			<title>Sheet.232</title>
			<desc>CRC</desc>
			<rect x="0" y="74.7716" width="55" height="31.4468" class="st1"/>
			<text x="14.5" y="94.1" class="st2">CRC</text>		</g>
		<g id="shape233-10" transform="translate(7.875,-0.12)">
			<title>Sheet.233</title>
			<desc>SEQ</desc>
			<rect x="0" y="74.7716" width="50" height="31.4468" class="st1"/>
			<text x="12.33" y="94.1" class="st2">SEQ</text>		</g>
		<g id="shape234-13" transform="translate(57.875,-0.12)">
			<title>Sheet.234</title>
			<desc>ACK</desc>
			<rect x="0" y="74.7716" width="50" height="31.4468" class="st1"/>
			<text x="12.66" y="94.1" class="st2">ACK</text>		</g>
		<g id="shape235-16" transform="translate(307.875,-0.12)">
			<title>Sheet.235</title>
			<desc>HCS</desc>
			<rect x="0" y="74.7716" width="69.4675" height="31.4468" class="st1"/>
			<text x="22.07" y="94.1" class="st2">HCS</text>		</g>
		<g id="shape236-19" transform="translate(107.875,-0.12)">
			<title>Sheet.236</title>
			<desc>DIP</desc>
			<rect x="0" y="74.7716" width="32.5" height="31.4468" class="st1"/>
			<text x="6.25" y="94.1" class="st2">DIP</text>		</g>
		<g id="shape237-22" transform="translate(140.375,-0.12)">
			<title>Sheet.237</title>
			<desc>RP</desc>
			<rect x="0" y="74.7716" width="32.5" height="31.4468" class="st1"/>
			<text x="7.91" y="94.1" class="st2">RP</text>		</g>
		<g id="shape238-25" transform="translate(172.875,-0.12)">
			<title>Sheet.238</title>
			<desc>TYPE</desc>
			<rect x="0" y="74.7716" width="55" height="31.4468" class="st1"/>
			<text x="11.83" y="94.1" class="st2">TYPE</text>		</g>
		<g id="shape239-28" transform="translate(227.875,-0.12)">
			<title>Sheet.239</title>
			<desc>LEN</desc>
			<rect x="0" y="74.7716" width="80" height="31.4468" class="st1"/>
			<text x="28.33" y="94.1" class="st2">LEN</text>		</g>
		<g id="shape240-31" transform="translate(0.375,-85.8434)">
			<title>Sheet.240</title>
			<desc>4 Bytes</desc>
			<rect x="0" y="91.2184" width="52.5" height="15" class="st3"/>
			<text x="8.53" y="102.32" class="st4">4 Bytes</text>		</g>
		<g id="shape241-34" transform="translate(107.875,-85.8434)">
			<title>Sheet.241</title>
			<desc>0 … 384 Bytes</desc>
			<rect x="0" y="86.2184" width="80" height="20" class="st3"/>
			<text x="6.3" y="99.82" class="st4">0 … 384 Bytes</text>		</g>
		<g id="shape242-37" transform="translate(322.343,-85.8434)">
			<title>Sheet.242</title>
			<desc>2 Bytes</desc>
			<rect x="0" y="86.2184" width="44.1494" height="20" class="st3"/>
			<text x="4.36" y="99.82" class="st4">2 Bytes</text>		</g>
		<g id="shape244-40" transform="translate(5.375,-31.5668)">
			<title>Sheet.244</title>
			<desc>LSB 3 Bits</desc>
			<rect x="0" y="91.2184" width="55" height="15" class="st3"/>
			<text x="4.21" y="102.32" class="st4">LSB 3 Bits</text>		</g>
		<g id="shape245-43" transform="translate(60.375,-31.5668)">
			<title>Sheet.245</title>
			<desc>3 Bits</desc>
			<rect x="0" y="91.2184" width="37.5" height="15" class="st3"/>
			<text x="5.36" y="102.32" class="st4">3 Bits</text>		</g>
		<g id="shape246-46" transform="translate(107.875,-31.5668)">
			<title>Sheet.246</title>
			<desc>1 Bit</desc>
			<rect x="0" y="91.2184" width="32.5" height="15" class="st3"/>
			<text x="5.2" y="102.32" class="st4">1 Bit</text>		</g>
		<g id="shape247-49" transform="translate(140.375,-31.5668)">
			<title>Sheet.247</title>
			<desc>1 Bit</desc>
			<rect x="0" y="91.2184" width="32.5" height="15" class="st3"/>
			<text x="5.2" y="102.32" class="st4">1 Bit</text>		</g>
		<g id="shape248-52" transform="translate(172.875,-31.5668)">
			<title>Sheet.248</title>
			<desc>4 Bits</desc>
			<rect x="0" y="91.2184" width="37.5" height="15" class="st3"/>
			<text x="5.36" y="102.32" class="st4">4 Bits</text>		</g>
		<g id="shape249-55" transform="translate(227.875,-31.5668)">
			<title>Sheet.249</title>
			<desc>12 Bits</desc>
			<rect x="0" y="91.2184" width="44.1494" height="15" class="st3"/>
			<text x="5.64" y="102.32" class="st4">12 Bits</text>		</g>
		<g id="shape250-58" transform="translate(307.875,-31.5668)">
			<title>Sheet.250</title>
			<desc>8 Bits</desc>
			<rect x="0" y="91.2184" width="60.7987" height="15" class="st3"/>
			<text x="4" y="102.32" class="st4">8 Bits </text>		</g>
		<g id="shape251-61" transform="translate(320.017,-31.5668)">
			<title>Sheet.251</title>
			<desc>MSB</desc>
			<rect x="0" y="91.2184" width="60.7987" height="15" class="st3"/>
			<text x="34.5" y="102.32" class="st4">MSB</text>		</g>
	</g>
</svg>
