<?xml version="1.0" encoding="UTF-8" standalone="no"?>
<!DOCTYPE svg PUBLIC "-//W3C//DTD SVG 1.1//EN" "http://www.w3.org/Graphics/SVG/1.1/DTD/svg11.dtd">
<!-- Generated by Microsoft Visio, SVG Export hci_flow2.svg Page-1 -->
<svg xmlns="http://www.w3.org/2000/svg" xmlns:xlink="http://www.w3.org/1999/xlink" xmlns:ev="http://www.w3.org/2001/xml-events"
		width="8.23723in" height="5.49096in" viewBox="0 0 593.081 395.349" xml:space="preserve" color-interpolation-filters="sRGB"
		class="st11">
	<style type="text/css">
	<![CDATA[
		.st1 {fill:#c4dbf2;stroke:#000000;stroke-linecap:round;stroke-linejoin:round;stroke-width:0.24}
		.st2 {fill:#000000;font-family:Arial;font-size:1.00001em}
		.st3 {marker-end:url(#mrkr13-78);stroke:#000000;stroke-linecap:round;stroke-linejoin:round;stroke-width:0.24}
		.st4 {fill:#000000;fill-opacity:1;stroke:#000000;stroke-opacity:1;stroke-width:0.08695652173913}
		.st5 {fill:#ffffff}
		.st6 {stroke:#000000;stroke-linecap:round;stroke-linejoin:round;stroke-width:0.24}
		.st7 {marker-end:url(#mrkr5-170);marker-start:url(#mrkr5-168);stroke:#dc582a;stroke-dasharray:5.25,3.75;stroke-linecap:round;stroke-linejoin:round;stroke-width:0.75}
		.st8 {fill:#dc582a;fill-opacity:1;stroke:#dc582a;stroke-opacity:1;stroke-width:0.22935779816514}
		.st9 {fill:none;stroke:none;stroke-linecap:round;stroke-linejoin:round;stroke-width:0.75}
		.st10 {fill:#dc582a;font-family:Arial;font-size:1.00001em}
		.st11 {fill:none;fill-rule:evenodd;font-size:12px;overflow:visible;stroke-linecap:square;stroke-miterlimit:3}
	]]>
	</style>

	<defs id="Markers">
		<g id="lend13">
			<path d="M 3 1 L 0 0 L 3 -1 L 3 1 " style="stroke:none"/>
		</g>
		<marker id="mrkr13-78" class="st4" refX="-34.5" orient="auto" markerUnits="strokeWidth" overflow="visible">
			<use xlink:href="#lend13" transform="scale(-11.5,-11.5) "/>
		</marker>
		<g id="lend5">
			<path d="M 2 1 L 0 0 L 1.98117 -0.993387 C 1.67173 -0.364515 1.67301 0.372641 1.98465 1.00043 " style="stroke:none"/>
		</g>
		<marker id="mrkr5-168" class="st8" refX="7.15" orient="auto" markerUnits="strokeWidth" overflow="visible">
			<use xlink:href="#lend5" transform="scale(4.36) "/>
		</marker>
		<marker id="mrkr5-170" class="st8" refX="-7.63" orient="auto" markerUnits="strokeWidth" overflow="visible">
			<use xlink:href="#lend5" transform="scale(-4.36,-4.36) "/>
		</marker>
	</defs>
	<g>
		<title>Page-1</title>
		<g id="shape228-1" transform="translate(76.5806,-355.175)">
			<title>Sheet.228</title>
			<desc>SEQ:1</desc>
			<rect x="0" y="363.903" width="55" height="31.4468" class="st1"/>
			<text x="9.82" y="383.23" class="st2">SEQ:1</text>		</g>
		<g id="shape229-4" transform="translate(131.581,-355.175)">
			<title>Sheet.229</title>
			<desc>ACK:1</desc>
			<rect x="0" y="363.903" width="50" height="31.4468" class="st1"/>
			<text x="7.66" y="383.23" class="st2">ACK:1</text>		</g>
		<g id="shape231-7" transform="translate(181.581,-355.175)">
			<title>Sheet.231</title>
			<desc>PAYLOAD</desc>
			<rect x="0" y="363.903" width="209.468" height="31.4468" class="st1"/>
			<text x="76.39" y="383.23" class="st2">PAYLOAD</text>		</g>
		<g id="shape232-10" transform="translate(391.048,-355.175)">
			<title>Sheet.232</title>
			<desc>CRC</desc>
			<rect x="0" y="363.903" width="55" height="31.4468" class="st1"/>
			<text x="14.5" y="383.23" class="st2">CRC</text>		</g>
		<g id="shape237-13" transform="translate(76.5806,-292.281)">
			<title>Sheet.237</title>
			<desc>SEQ:2</desc>
			<rect x="0" y="363.903" width="55" height="31.4468" class="st1"/>
			<text x="9.82" y="383.23" class="st2">SEQ:2</text>		</g>
		<g id="shape238-16" transform="translate(131.581,-292.281)">
			<title>Sheet.238</title>
			<desc>ACK:1</desc>
			<rect x="0" y="363.903" width="50" height="31.4468" class="st1"/>
			<text x="7.66" y="383.23" class="st2">ACK:1</text>		</g>
		<g id="shape239-19" transform="translate(181.581,-292.281)">
			<title>Sheet.239</title>
			<desc>PAYLOAD</desc>
			<rect x="0" y="363.903" width="209.468" height="31.4468" class="st1"/>
			<text x="76.39" y="383.23" class="st2">PAYLOAD</text>		</g>
		<g id="shape240-22" transform="translate(391.048,-292.281)">
			<title>Sheet.240</title>
			<desc>CRC</desc>
			<rect x="0" y="363.903" width="55" height="31.4468" class="st1"/>
			<text x="14.5" y="383.23" class="st2">CRC</text>		</g>
		<g id="shape241-25" transform="translate(76.5806,-229.388)">
			<title>Sheet.241</title>
			<desc>SEQ:3</desc>
			<rect x="0" y="363.903" width="55" height="31.4468" class="st1"/>
			<text x="9.82" y="383.23" class="st2">SEQ:3</text>		</g>
		<g id="shape242-28" transform="translate(131.581,-229.388)">
			<title>Sheet.242</title>
			<desc>ACK:1</desc>
			<rect x="0" y="363.903" width="50" height="31.4468" class="st1"/>
			<text x="7.66" y="383.23" class="st2">ACK:1</text>		</g>
		<g id="shape243-31" transform="translate(181.581,-229.388)">
			<title>Sheet.243</title>
			<desc>PAYLOAD</desc>
			<rect x="0" y="363.903" width="209.468" height="31.4468" class="st1"/>
			<text x="76.39" y="383.23" class="st2">PAYLOAD</text>		</g>
		<g id="shape244-34" transform="translate(391.048,-229.388)">
			<title>Sheet.244</title>
			<desc>CRC</desc>
			<rect x="0" y="363.903" width="55" height="31.4468" class="st1"/>
			<text x="14.5" y="383.23" class="st2">CRC</text>		</g>
		<g id="shape249-37" transform="translate(76.5806,-166.494)">
			<title>Sheet.249</title>
			<desc>SEQ:3</desc>
			<rect x="0" y="363.903" width="55" height="31.4468" class="st1"/>
			<text x="9.82" y="383.23" class="st2">SEQ:3</text>		</g>
		<g id="shape250-40" transform="translate(131.581,-166.494)">
			<title>Sheet.250</title>
			<desc>ACK:1</desc>
			<rect x="0" y="363.903" width="50" height="31.4468" class="st1"/>
			<text x="7.66" y="383.23" class="st2">ACK:1</text>		</g>
		<g id="shape251-43" transform="translate(181.581,-166.494)">
			<title>Sheet.251</title>
			<desc>PAYLOAD</desc>
			<rect x="0" y="363.903" width="209.468" height="31.4468" class="st1"/>
			<text x="76.39" y="383.23" class="st2">PAYLOAD</text>		</g>
		<g id="shape252-46" transform="translate(391.048,-166.494)">
			<title>Sheet.252</title>
			<desc>CRC</desc>
			<rect x="0" y="363.903" width="55" height="31.4468" class="st1"/>
			<text x="14.5" y="383.23" class="st2">CRC</text>		</g>
		<g id="shape265-49" transform="translate(76.5806,-103.601)">
			<title>Sheet.265</title>
			<desc>SEQ:3</desc>
			<rect x="0" y="363.903" width="55" height="31.4468" class="st1"/>
			<text x="9.82" y="383.23" class="st2">SEQ:3</text>		</g>
		<g id="shape266-52" transform="translate(131.581,-103.601)">
			<title>Sheet.266</title>
			<desc>ACK:1</desc>
			<rect x="0" y="363.903" width="50" height="31.4468" class="st1"/>
			<text x="7.66" y="383.23" class="st2">ACK:1</text>		</g>
		<g id="shape267-55" transform="translate(181.581,-103.601)">
			<title>Sheet.267</title>
			<desc>PAYLOAD</desc>
			<rect x="0" y="363.903" width="209.468" height="31.4468" class="st1"/>
			<text x="76.39" y="383.23" class="st2">PAYLOAD</text>		</g>
		<g id="shape268-58" transform="translate(391.048,-103.601)">
			<title>Sheet.268</title>
			<desc>CRC</desc>
			<rect x="0" y="363.903" width="55" height="31.4468" class="st1"/>
			<text x="14.5" y="383.23" class="st2">CRC</text>		</g>
		<g id="shape273-61" transform="translate(76.5806,-40.7071)">
			<title>Sheet.273</title>
			<desc>SEQ:4</desc>
			<rect x="0" y="363.903" width="55" height="31.4468" class="st1"/>
			<text x="9.82" y="383.23" class="st2">SEQ:4</text>		</g>
		<g id="shape274-64" transform="translate(131.581,-40.7071)">
			<title>Sheet.274</title>
			<desc>ACK:1</desc>
			<rect x="0" y="363.903" width="50" height="31.4468" class="st1"/>
			<text x="7.66" y="383.23" class="st2">ACK:1</text>		</g>
		<g id="shape275-67" transform="translate(181.581,-40.7071)">
			<title>Sheet.275</title>
			<desc>PAYLOAD</desc>
			<rect x="0" y="363.903" width="209.468" height="31.4468" class="st1"/>
			<text x="76.39" y="383.23" class="st2">PAYLOAD</text>		</g>
		<g id="shape276-70" transform="translate(391.048,-40.7071)">
			<title>Sheet.276</title>
			<desc>CRC</desc>
			<rect x="0" y="363.903" width="55" height="31.4468" class="st1"/>
			<text x="14.5" y="383.23" class="st2">CRC</text>		</g>
		<g id="shape283-73" transform="translate(445.724,8.72789) rotate(90)">
			<title>Sheet.283</title>
			<path d="M0 395.35 L369.08 395.35" class="st3"/>
		</g>
		<g id="shape290-79" transform="translate(979.43,8.72789) rotate(90)">
			<title>Sheet.290</title>
			<path d="M0 395.35 L369.61 395.35" class="st3"/>
		</g>
		<g id="shape292-84" transform="translate(496.048,-323.728)">
			<title>Sheet.292</title>
			<desc>ACK:2</desc>
			<rect x="0" y="363.903" width="50" height="31.4468" class="st1"/>
			<text x="7.66" y="383.23" class="st2">ACK:2</text>		</g>
		<g id="shape293-87" transform="translate(496.048,-260.834)">
			<title>Sheet.293</title>
			<desc>ACK:3</desc>
			<rect x="0" y="363.903" width="50" height="31.4468" class="st1"/>
			<text x="7.66" y="383.23" class="st2">ACK:3</text>		</g>
		<g id="shape294-90" transform="translate(496.048,-135.047)">
			<title>Sheet.294</title>
			<desc>ACK:4</desc>
			<rect x="0" y="363.903" width="50" height="31.4468" class="st1"/>
			<text x="7.66" y="383.23" class="st2">ACK:4</text>		</g>
		<g id="shape295-93" transform="translate(496.048,-72.1539)">
			<title>Sheet.295</title>
			<desc>ACK:4</desc>
			<rect x="0" y="363.903" width="50" height="31.4468" class="st1"/>
			<text x="7.66" y="383.23" class="st2">ACK:4</text>		</g>
		<g id="shape298-96" transform="translate(496.048,-9.26038)">
			<title>Sheet.298</title>
			<desc>ACK:5</desc>
			<rect x="0" y="363.903" width="50" height="31.4468" class="st1"/>
			<text x="7.66" y="383.23" class="st2">ACK:5</text>		</g>
		<g id="shape299-99" transform="translate(446.048,-370.898)">
			<title>Sheet.299</title>
			<path d="M0 395.35 L129.75 395.35" class="st3"/>
		</g>
		<g id="shape300-104" transform="translate(446.048,-308.005)">
			<title>Sheet.300</title>
			<path d="M0 395.35 L129.75 395.35" class="st3"/>
		</g>
		<g id="shape301-109" transform="translate(446.048,-245.111)">
			<title>Sheet.301</title>
			<path d="M0 395.35 L82.25 395.35" class="st3"/>
		</g>
		<g id="shape302-114" transform="translate(446.048,-182.218)">
			<title>Sheet.302</title>
			<path d="M0 395.35 L129.75 395.35" class="st3"/>
		</g>
		<g id="shape303-119" transform="translate(446.048,-119.324)">
			<title>Sheet.303</title>
			<path d="M0 395.35 L129.75 395.35" class="st3"/>
		</g>
		<g id="shape304-124" transform="translate(446.048,-56.4305)">
			<title>Sheet.304</title>
			<path d="M0 395.35 L129.75 395.35" class="st3"/>
		</g>
		<g id="shape305-129" transform="translate(495.803,451.247) rotate(-179.964)">
			<title>Sheet.305</title>
			<path d="M0 395.35 L437.39 395.35" class="st3"/>
		</g>
		<g id="shape307-134" transform="translate(496.048,514.141) rotate(180)">
			<title>Sheet.307</title>
			<path d="M0 395.35 L437.39 395.35" class="st3"/>
		</g>
		<g id="shape308-139" transform="translate(496.048,639.928) rotate(180)">
			<title>Sheet.308</title>
			<path d="M0 395.35 L401.19 395.35" class="st3"/>
		</g>
		<g id="shape309-144" transform="translate(496.048,702.821) rotate(180)">
			<title>Sheet.309</title>
			<path d="M0 395.35 L437.39 395.35" class="st3"/>
		</g>
		<g id="shape310-149" transform="translate(496.048,765.715) rotate(180)">
			<title>Sheet.310</title>
			<path d="M0 395.35 L437.39 395.35" class="st3"/>
		</g>
		<g id="group315-154" transform="translate(554.168,-251.315)">
			<title>Deletion</title>
			<g id="shape316-155" transform="translate(-14.2873,11.8273)">
				<title>Sheet.316</title>
				<path d="M0 395.35 L9 384.1 L0 395.35 ZM9 395.35 L0 384.1 L9 395.35 Z" class="st5"/>
				<path d="M0 395.35 L9 384.1M9 395.35 L0 384.1" class="st6"/>
			</g>
		</g>
		<g id="group317-158" transform="translate(86.5806,-158.728)">
			<title>Deletion.317</title>
			<g id="shape318-159" transform="translate(-12.3,13.5803)">
				<title>Sheet.318</title>
				<path d="M0 395.35 L9 384.1 L0 395.35 ZM9 395.35 L0 384.1 L9 395.35 Z" class="st5"/>
				<path d="M0 395.35 L9 384.1M9 395.35 L0 384.1" class="st6"/>
			</g>
		</g>
		<g id="shape321-162" transform="translate(445.724,165.962) rotate(90)">
			<title>Sheet.321</title>
			<path d="M5.36 395.35 L5.72 395.35 L25.72 395.35" class="st7"/>
		</g>
		<g id="shape323-171" transform="translate(445.724,228.855) rotate(90)">
			<title>Sheet.323</title>
			<path d="M5.36 395.35 L5.72 395.35 L25.72 395.35" class="st7"/>
		</g>
		<g id="shape327-178" transform="translate(0.375,-203.728)">
			<title>Sheet.327</title>
			<desc>timeout</desc>
			<rect x="0" y="375.349" width="50" height="20" class="st9"/>
			<text x="5.32" y="388.95" class="st10">timeout</text>		</g>
		<g id="shape391-181" transform="translate(0.375,-141.228)">
			<title>Sheet.391</title>
			<desc>timeout</desc>
			<rect x="0" y="375.349" width="50" height="20" class="st9"/>
			<text x="5.32" y="388.95" class="st10">timeout</text>		</g>
	</g>
</svg>
