<?xml version="1.0" encoding="UTF-8" standalone="no"?>
<!DOCTYPE svg PUBLIC "-//W3C//DTD SVG 1.1//EN" "http://www.w3.org/Graphics/SVG/1.1/DTD/svg11.dtd">
<!-- Generated by Microsoft Visio, SVG Export hci_rx_fsm2.svg Page-1 -->
<svg xmlns="http://www.w3.org/2000/svg" xmlns:xlink="http://www.w3.org/1999/xlink" xmlns:ev="http://www.w3.org/2001/xml-events"
		width="5.35101in" height="8.24706in" viewBox="0 0 385.273 593.789" xml:space="preserve" color-interpolation-filters="sRGB"
		class="st11">
	<style type="text/css">
	<![CDATA[
		.st1 {fill:#c4dbf2;stroke:#000000;stroke-linecap:round;stroke-linejoin:round;stroke-width:0.24}
		.st2 {fill:#000000;font-family:Arial;font-size:1.00001em}
		.st3 {marker-end:url(#mrkr13-9);stroke:#000000;stroke-linecap:round;stroke-linejoin:round;stroke-width:0.24}
		.st4 {fill:#000000;fill-opacity:1;stroke:#000000;stroke-opacity:1;stroke-width:0.08695652173913}
		.st5 {fill:#ffffff;stroke:none;stroke-linecap:butt;stroke-width:7.2}
		.st6 {font-size:1em}
		.st7 {fill:#4677bf;fill-opacity:1;stroke:#4677bf;stroke-opacity:1;stroke-width:0.16556291390728}
		.st8 {marker-end:url(#mrkr4-71);stroke:#000000;stroke-linecap:round;stroke-linejoin:round;stroke-width:0.5}
		.st9 {fill:#000000;fill-opacity:1;stroke:#000000;stroke-opacity:1;stroke-width:0.16556291390728}
		.st10 {marker-end:url(#mrkr13-87);stroke:#000000;stroke-linecap:round;stroke-linejoin:round;stroke-width:0.5}
		.st11 {fill:none;fill-rule:evenodd;font-size:12px;overflow:visible;stroke-linecap:square;stroke-miterlimit:3}
	]]>
	</style>

	<defs id="Markers">
		<g id="lend13">
			<path d="M 3 1 L 0 0 L 3 -1 L 3 1 " style="stroke:none"/>
		</g>
		<marker id="mrkr13-9" class="st4" refX="-34.5" orient="auto" markerUnits="strokeWidth" overflow="visible">
			<use xlink:href="#lend13" transform="scale(-11.5,-11.5) "/>
		</marker>
		<g id="lend4">
			<path d="M 2 1 L 0 0 L 2 -1 L 2 1 " style="stroke:none"/>
		</g>
		<marker id="mrkr4-62" class="st7" refX="-12.08" orient="auto" markerUnits="strokeWidth" overflow="visible">
			<use xlink:href="#lend4" transform="scale(-6.04,-6.04) "/>
		</marker>
		<marker id="mrkr4-71" class="st9" refX="-12.08" orient="auto" markerUnits="strokeWidth" overflow="visible">
			<use xlink:href="#lend4" transform="scale(-6.04,-6.04) "/>
		</marker>
		<marker id="mrkr13-78" class="st7" refX="-18.12" orient="auto" markerUnits="strokeWidth" overflow="visible">
			<use xlink:href="#lend13" transform="scale(-6.04,-6.04) "/>
		</marker>
		<marker id="mrkr13-87" class="st9" refX="-18.12" orient="auto" markerUnits="strokeWidth" overflow="visible">
			<use xlink:href="#lend13" transform="scale(-6.04,-6.04) "/>
		</marker>
	</defs>
	<g>
		<title>Page-1</title>
		<g id="shape227-1" transform="translate(91.4045,-566.669)">
			<title>Start/End-point</title>
			<desc>Start</desc>
			<path d="M13.5 593.79 L58.5 593.79 A13.5 13.5 -180 0 0 58.5 566.79 L13.5 566.79 A13.5 13.5 -180 1 0 13.5 593.79 Z"
					class="st1"/>
			<text x="23.33" y="583.89" class="st2">Start</text>		</g>
		<g id="shape228-4" transform="translate(721.193,27.12) rotate(90)">
			<title>Flowline1</title>
			<path d="M0 593.79 L14.72 593.79" class="st3"/>
		</g>
		<g id="shape229-10" transform="translate(91.4045,-499.669)">
			<title>Process.245</title>
			<desc>DISABLE</desc>
			<rect x="0" y="539.789" width="72" height="54" class="st1"/>
			<text x="10.65" y="570.39" class="st2">DISABLE</text>		</g>
		<g id="shape230-13" transform="translate(721.193,94.12) rotate(90)">
			<title>Flowline1.230</title>
			<desc>ser_phy_open()/;</desc>
			<path d="M0 593.79 L24.72 593.79" class="st3"/>
			<rect x="-639.818" y="5.80019" width="90.7218" height="14.4001" transform="rotate(-90)" class="st5"/>
			<text x="-639.82" y="16.6" transform="rotate(-90)" class="st2">ser_phy_open()/;</text>		</g>
		<g id="shape231-20" transform="translate(104.405,-344.669)">
			<title>Decision.254</title>
			<path d="M0 576.54 L23 559.29 L46 576.54 L23 593.79 L0 576.54 Z" class="st1"/>
		</g>
		<g id="shape232-22" transform="translate(721.193,249.12) rotate(90)">
			<title>Flowline1.232</title>
			<desc>[SEQ(packet) == expected()]/ memory_request()</desc>
			<path d="M0 593.79 L39.72 593.79" class="st3"/>
			<rect x="-673.494" y="5.60013" width="157.741" height="28.8001" transform="rotate(-90)" class="st5"/>
			<text x="-671.82" y="16.4" transform="rotate(-90)" class="st2">[SEQ(packet) == expected()]/ <tspan x="-673.49"
						dy="1.2em" class="st6">memory</tspan>_request()</text>		</g>
		<g id="shape233-30" transform="translate(76.4045,-242.669)">
			<title>Process.233</title>
			<desc>WAIT_FOR_MEM</desc>
			<rect x="0" y="539.789" width="102" height="54" class="st1"/>
			<text x="2.67" y="570.39" class="st2">WAIT_FOR_MEM</text>		</g>
		<g id="shape234-33" transform="translate(721.193,351.12) rotate(90)">
			<title>Flowline1.234</title>
			<desc>Evt == BUF_GRANTED/ memcpy(); rx_buff_free(); ACK++; send_ack...</desc>
			<path d="M0 593.79 L63.72 593.79" class="st3"/>
			<rect x="-661.14" y="9.40008" width="137.034" height="43.2002" transform="rotate(-90)" class="st5"/>
			<text x="-657.14" y="20.2" transform="rotate(-90)" class="st2">Evt == BUF_GRANTED/ <tspan x="-659.47" dy="1.2em"
						class="st6">memcpy</tspan>(); rx_buff_free(); <tspan x="-661.14" dy="1.2em" class="st6">ACK</tspan>++; send_ack();</text>		</g>
		<g id="shape235-42" transform="translate(55.4045,-116.669)">
			<title>Process.235</title>
			<desc>WAIT_FOR_ACK_TXED</desc>
			<rect x="0" y="539.789" width="144" height="54" class="st1"/>
			<text x="5.99" y="570.39" class="st2">WAIT_FOR_ACK_TXED</text>		</g>
		<g id="shape236-45" transform="translate(223.405,-116.669)">
			<title>Process.236</title>
			<desc>WAIT_FOR_NACK_TXED</desc>
			<rect x="0" y="539.789" width="152" height="54" class="st1"/>
			<text x="5.65" y="570.39" class="st2">WAIT_FOR_NACK_TXED</text>		</g>
		<g id="shape239-48" transform="translate(91.4045,-412.669)">
			<title>Process.239</title>
			<desc>RECEIVE</desc>
			<rect x="0" y="539.789" width="72" height="54" class="st1"/>
			<text x="9.66" y="570.39" class="st2">RECEIVE</text>		</g>
		<g id="shape241-51" transform="translate(721.193,181.12) rotate(90)">
			<title>Flowline1.241</title>
			<desc>Evt==PKT_RECEIVED</desc>
			<path d="M0 593.79 L25.22 593.79" class="st3"/>
			<rect x="-657.815" y="3.80019" width="122.715" height="14.4001" transform="rotate(-90)" class="st5"/>
			<text x="-657.81" y="14.6" transform="rotate(-90)" class="st2">Evt==PKT_RECEIVED</text>		</g>
		<g id="group247-58" transform="translate(127.405,-116.669)">
			<title>Flowline2</title>
			<desc>Evt=ACK_SENT/packet_received_callback();</desc>
			<g id="shape248-59" transform="translate(-36,-313.998)">
				<title>Straight Edge.28</title>
				<desc>N</desc>
			</g>
			<g id="shape249-63" transform="translate(584.787,575.785) rotate(90)">
				<title>Straight Edge.29</title>
				<desc>N</desc>
			</g>
			<g id="shape247-66">
				<path d="M0 593.79 L0 625.79 A18 18 0 0 1 -18 643.79 L-99.85 643.79 A18 18 0 0 1 -117.85 625.79 L-117.85 288.79 A18
							 18 0 0 1 -99.85 270.79 L-42.04 270.79" class="st8"/>
				<rect x="-103.888" y="606.589" width="239.776" height="14.4001" class="st5"/>
				<text x="-103.89" y="617.39" class="st2">Evt=ACK_SENT/packet_received_callback();</text>			</g>
		</g>
		<g id="group250-74" transform="translate(299.405,-116.669)">
			<title>Flowline2.250</title>
			<desc>Evt==ACK_SENT</desc>
			<g id="shape251-75" transform="translate(-874.641,623.789) rotate(-90)">
				<title>Straight Edge.28</title>
				<desc>N</desc>
			</g>
			<g id="shape252-79" transform="translate(584.787,575.785) rotate(90)">
				<title>Straight Edge.29</title>
				<desc>N</desc>
			</g>
			<g id="shape250-82">
				<path d="M0 593.79 L0 681.26 A18 18 0 0 1 -18 699.26 L-271.85 699.26 A18 18 0 0 1 -289.85 681.26 L-289.85 632.85"
						class="st10"/>
				<rect x="-177.28" y="692.055" width="94.7065" height="14.4001" class="st5"/>
				<text x="-177.28" y="702.86" class="st2">Evt==ACK_SENT</text>			</g>
		</g>
		<g id="group253-90" transform="translate(150.405,-361.919)">
			<title>Flowline2.253</title>
			<desc>[SEQ(packet) != expected()]/ rx_buff_free(); send_ack();</desc>
			<g id="shape254-91" transform="translate(689.138,785.039) rotate(90)">
				<title>Straight Edge.28</title>
				<desc>N</desc>
			</g>
			<g id="shape255-94" transform="translate(-107.302,53.6508)">
				<title>Straight Edge.29</title>
				<desc>N</desc>
			</g>
			<g id="shape253-97">
				<path d="M0 593.79 L131 593.79 A18 18 0 0 1 149 611.79 L149 775.98" class="st10"/>
				<rect x="76.8007" y="627.439" width="152.399" height="43.2002" class="st5"/>
				<text x="76.8" y="638.24" class="st2">[SEQ(packet) != expected()]/ <tspan x="115.32" dy="1.2em" class="st6">rx</tspan>_buff_free(); <tspan
							x="121.65" dy="1.2em" class="st6">send</tspan>_ack();</text>			</g>
		</g>
	</g>
</svg>
