<?xml version="1.0" encoding="UTF-8" standalone="no"?>
<!DOCTYPE svg PUBLIC "-//W3C//DTD SVG 1.1//EN" "http://www.w3.org/Graphics/SVG/1.1/DTD/svg11.dtd">
<!-- Generated by Microsoft Visio, SVG Export hci_transport_tx_sm.svg Page-1 -->
<svg xmlns="http://www.w3.org/2000/svg" xmlns:xlink="http://www.w3.org/1999/xlink" xmlns:ev="http://www.w3.org/2001/xml-events"
		width="10.367in" height="5.26079in" viewBox="0 0 746.421 378.777" xml:space="preserve" color-interpolation-filters="sRGB"
		class="st11">
	<style type="text/css">
	<![CDATA[
		.st1 {fill:#c4dbf2;stroke:#000000;stroke-linecap:round;stroke-linejoin:round;stroke-width:0.24}
		.st2 {fill:#000000;font-family:Arial;font-size:1.00001em}
		.st3 {fill:#4677bf;fill-opacity:1;stroke:#4677bf;stroke-opacity:1;stroke-width:0.16556291390728}
		.st4 {marker-end:url(#mrkr4-26);stroke:#000000;stroke-linecap:round;stroke-linejoin:round;stroke-width:0.5}
		.st5 {fill:#000000;fill-opacity:1;stroke:#000000;stroke-opacity:1;stroke-width:0.16556291390728}
		.st6 {fill:#ffffff;stroke:none;stroke-linecap:butt;stroke-width:7.2}
		.st7 {font-size:1em}
		.st8 {marker-end:url(#mrkr13-65);stroke:#000000;stroke-linecap:round;stroke-linejoin:round;stroke-width:0.24}
		.st9 {fill:#000000;fill-opacity:1;stroke:#000000;stroke-opacity:1;stroke-width:0.08695652173913}
		.st10 {fill:none;stroke:none;stroke-linecap:round;stroke-linejoin:round;stroke-width:0.75}
		.st11 {fill:none;fill-rule:evenodd;font-size:12px;overflow:visible;stroke-linecap:square;stroke-miterlimit:3}
	]]>
	</style>

	<defs id="Markers">
		<g id="lend4">
			<path d="M 2 1 L 0 0 L 2 -1 L 2 1 " style="stroke:none"/>
		</g>
		<marker id="mrkr4-17" class="st3" refX="-12.08" orient="auto" markerUnits="strokeWidth" overflow="visible">
			<use xlink:href="#lend4" transform="scale(-6.04,-6.04) "/>
		</marker>
		<marker id="mrkr4-26" class="st5" refX="-12.08" orient="auto" markerUnits="strokeWidth" overflow="visible">
			<use xlink:href="#lend4" transform="scale(-6.04,-6.04) "/>
		</marker>
		<g id="lend13">
			<path d="M 3 1 L 0 0 L 3 -1 L 3 1 " style="stroke:none"/>
		</g>
		<marker id="mrkr13-65" class="st9" refX="-34.5" orient="auto" markerUnits="strokeWidth" overflow="visible">
			<use xlink:href="#lend13" transform="scale(-11.5,-11.5) "/>
		</marker>
	</defs>
	<g>
		<title>Page-1</title>
		<g id="shape289-1" transform="translate(10.0464,-58.4019)">
			<title>Start/End-point</title>
			<desc>Start</desc>
			<path d="M13.5 378.78 L58.5 378.78 A13.5 13.5 -180 0 0 58.5 351.78 L13.5 351.78 A13.5 13.5 -180 1 0 13.5 378.78 Z"
					class="st1"/>
			<text x="23.33" y="368.88" class="st2">Start</text>		</g>
		<g id="shape290-4" transform="translate(186.046,-58.4019)">
			<title>Process.245</title>
			<desc>TX_STATE_IDLE</desc>
			<rect x="0" y="324.777" width="130" height="54" class="st1"/>
			<text x="17.98" y="355.38" class="st2">TX_STATE_IDLE</text>		</g>
		<g id="shape291-7" transform="translate(186.046,-204.402)">
			<title>Process.291</title>
			<desc>TX_STATE_ACTIVE</desc>
			<rect x="0" y="324.777" width="130" height="54" class="st1"/>
			<text x="9.65" y="355.38" class="st2">TX_STATE_ACTIVE</text>		</g>
		<g id="shape292-10" transform="translate(481.046,-58.4019)">
			<title>Process.292</title>
			<desc>TX_STATE_PENDING</desc>
			<rect x="0" y="324.777" width="130" height="54" class="st1"/>
			<text x="3.99" y="355.38" class="st2">TX_STATE_PENDING</text>		</g>
		<g id="group293-13" transform="translate(251.046,-45.9019)">
			<title>Flowline2</title>
			<desc>hci_transport_pkt_write [hci_slip_write(...) == NRF_ERROR_NO_...</desc>
			<g id="shape294-14" transform="translate(22.4445,366.277) rotate(-90)">
				<title>Straight Edge.28</title>
				<desc>N</desc>
			</g>
			<g id="shape295-18" transform="translate(272.555,153.834) rotate(90)">
				<title>Straight Edge.29</title>
				<desc>N</desc>
			</g>
			<g id="shape293-21">
				<path d="M0 366.28 L0 388.28 A18 18 -180 0 0 18 406.28 L277 406.28 A18 18 -180 0 0 295 388.28 L295 372.32"
						class="st4"/>
				<rect x="64.1224" y="391.877" width="220.755" height="28.8001" class="st6"/>
				<text x="64.12" y="402.68" class="st2">hci_transport_pkt_write [hci_slip_write(...)  <tspan x="97.15" dy="1.2em"
							class="st7">== </tspan>NRF_ERROR_NO_MEM]</text>			</g>
		</g>
		<g id="group296-30" transform="translate(303.546,-218.402)">
			<title>Flowline2.296</title>
			<desc>app_timer_timeout_handle [m_tx_retry_counter == MAX_RETRY_COU...</desc>
			<g id="shape297-31" transform="translate(381.236,539.474) rotate(94.2956)">
				<title>Straight Edge.28</title>
				<desc>N</desc>
			</g>
			<g id="shape298-34" transform="translate(-5.50363,9.00182)">
				<title>Straight Edge.29</title>
				<desc>N</desc>
			</g>
			<g id="shape296-37">
				<path d="M12.5 378.78 L94.5 378.78 A18 18 0 0 1 112.5 396.78 L112.5 493.78 A18 18 0 0 1 94.5 511.78 L18.54 511.78"
						class="st4"/>
				<rect x="-18.5721" y="404.377" width="252.144" height="28.8001" class="st6"/>
				<text x="-18.57" y="415.18" class="st2">app_timer_timeout_handle [m_tx_retry_counter  <tspan x="35.82" dy="1.2em"
							class="st7">== </tspan>MAX_RETRY_COUNT]</text>			</g>
		</g>
		<g id="group299-45" transform="translate(173.546,-85.4019)">
			<title>Flowline2.299</title>
			<desc>hci_transport_pkt_write [hci_slip_write(...) == NRF_SUCCESS]</desc>
			<g id="shape300-46" transform="translate(12.5,-136.998)">
				<title>Straight Edge.28</title>
				<desc>N</desc>
			</g>
			<g id="shape301-49" transform="translate(30.5036,748.552) rotate(180)">
				<title>Straight Edge.29</title>
				<desc>N</desc>
			</g>
			<g id="shape299-52">
				<path d="M12.5 378.78 L-38.6 378.78 A18 18 0 0 1 -56.6 360.78 L-56.6 250.78 A18 18 0 0 1 -38.6 232.78 L6.46 232.78"
						class="st4"/>
				<rect x="-167.877" y="261.377" width="220.755" height="28.8001" class="st6"/>
				<text x="-167.88" y="272.18" class="st2">hci_transport_pkt_write [hci_slip_write(...) <tspan x="-112.52" dy="1.2em"
							class="st7">== </tspan>NRF_SUCCESS]</text>			</g>
		</g>
		<g id="shape302-60" transform="translate(629.823,174.375) rotate(90)">
			<title>Flowline1</title>
			<desc>evt-HCI_SLIP_RX_RDY [valid ACK for Tx packet] / packet_number...</desc>
			<path d="M0 378.78 L83.72 378.78" class="st8"/>
			<rect x="-500.826" y="51.6001" width="264.098" height="28.8001" transform="rotate(-90)" class="st6"/>
			<text x="-500.83" y="62.4" transform="rotate(-90)" class="st2">evt-HCI_SLIP_RX_RDY [valid ACK for Tx packet] <tspan
						x="-436.48" dy="1.2em" class="st7">/ </tspan>packet_number_tx_inc()</text>		</g>
		<g id="group303-69" transform="translate(546.046,-112.402)">
			<title>Flowline2.303</title>
			<desc>evt-HCI_SLIP_TX_DONE / hci_slip_write(...)</desc>
			<g id="shape304-70" transform="translate(-230,629.552) rotate(180)">
				<title>Straight Edge.28</title>
				<desc>N</desc>
			</g>
			<g id="shape305-73" transform="translate(-369.775,396.781) rotate(-90)">
				<title>Straight Edge.29</title>
				<desc>N</desc>
			</g>
			<g id="shape303-76">
				<path d="M0 378.78 L0 277.78 A18 18 -180 0 0 -18 259.78 L-223.96 259.78" class="st4"/>
				<rect x="-173.87" y="252.577" width="236.739" height="14.4001" class="st6"/>
				<text x="-173.87" y="263.38" class="st2">evt-HCI_SLIP_TX_DONE / hci_slip_write(...)</text>			</g>
		</g>
		<g id="shape306-83" transform="translate(83.8674,-71.8975) rotate(0.275458)">
			<title>Flowline1.306</title>
			<path d="M0 378.78 L95.72 378.78" class="st8"/>
		</g>
		<g id="shape307-88" transform="translate(546.046,-112.402)">
			<title>Sheet.307</title>
			<desc>hci_transport_pkt_write(...) / return NRF_ERROR_NO_MEM</desc>
			<rect x="0" y="348.777" width="200" height="30" class="st10"/>
			<text x="4" y="360.18" class="st2">hci_transport_pkt_write(...)  <tspan x="4" dy="1.2em" class="st7">/ </tspan>return NRF_ERROR_NO_MEM</text>		</g>
		<g id="shape309-92" transform="translate(106.046,-4.40191)">
			<title>Sheet.309</title>
			<desc>entry / STOP retransmit timer send: evt-tx_done(result)</desc>
			<rect x="0" y="324.777" width="150" height="54" class="st10"/>
			<text x="4" y="340.79" class="st2">entry / <tspan x="4" dy="1.2em" class="st7">STOP retransmit timer </tspan><tspan
						x="4" dy="1.223em" class="st7">send</tspan>: evt-tx_done(result)</text>		</g>
		<g id="shape311-97" transform="translate(276.046,-268.402)">
			<title>Sheet.311</title>
			<desc>entry / START retransmit timer (continuous mode) m_tx_retry_c...</desc>
			<rect x="0" y="268.777" width="440" height="110" class="st10"/>
			<text x="4" y="283.58" class="st2">entry / <tspan x="4" dy="1.2em" class="st7">START retransmit timer </tspan>(continuous mode) <tspan
						x="4" dy="1.2em" class="st7">m</tspan>_tx_retry_counter = 0  <tspan x="4" dy="2.4em" class="st7">app</tspan>_timer_timeout_handle [m_tx_retry_counter == MAX_RETRY_COUNT] <tspan
						x="4" dy="1.2em" class="st7">/ </tspan>transmit last application packet <tspan x="4" dy="1.2em" class="st7">hci</tspan>_transport_pkt_write(...) / return NRF_ERROR_NO_MEM</text>		</g>
	</g>
</svg>
