<?xml version="1.0" encoding="UTF-8" standalone="no"?>
<!DOCTYPE svg PUBLIC "-//W3C//DTD SVG 1.1//EN" "http://www.w3.org/Graphics/SVG/1.1/DTD/svg11.dtd">
<!-- Generated by Microsoft Visio, SVG Export hci_tx_fsm2.svg Page-1 -->
<svg xmlns="http://www.w3.org/2000/svg" xmlns:xlink="http://www.w3.org/1999/xlink" xmlns:ev="http://www.w3.org/2001/xml-events"
		width="10.6735in" height="8.91016in" viewBox="0 0 768.495 641.532" xml:space="preserve" color-interpolation-filters="sRGB"
		class="st12">
	<style type="text/css">
	<![CDATA[
		.st1 {fill:#c4dbf2;stroke:#000000;stroke-linecap:round;stroke-linejoin:round;stroke-width:0.24}
		.st2 {fill:#000000;font-family:Arial;font-size:1.00001em}
		.st3 {marker-end:url(#mrkr13-9);stroke:#000000;stroke-linecap:round;stroke-linejoin:round;stroke-width:0.24}
		.st4 {fill:#000000;fill-opacity:1;stroke:#000000;stroke-opacity:1;stroke-width:0.08695652173913}
		.st5 {fill:#ffffff;stroke:none;stroke-linecap:butt;stroke-width:7.2}
		.st6 {baseline-shift:32.4941%;font-size:0.649882em}
		.st7 {font-size:1em}
		.st8 {fill:#4677bf;fill-opacity:1;stroke:#4677bf;stroke-opacity:1;stroke-width:0.16556291390728}
		.st9 {marker-end:url(#mrkr13-111);stroke:#000000;stroke-linecap:round;stroke-linejoin:round;stroke-width:0.5}
		.st10 {fill:#000000;fill-opacity:1;stroke:#000000;stroke-opacity:1;stroke-width:0.16556291390728}
		.st11 {marker-end:url(#mrkr13-129);stroke:#000000;stroke-linecap:round;stroke-linejoin:round;stroke-width:0.5}
		.st12 {fill:none;fill-rule:evenodd;font-size:12px;overflow:visible;stroke-linecap:square;stroke-miterlimit:3}
	]]>
	</style>

	<defs id="Markers">
		<g id="lend13">
			<path d="M 3 1 L 0 0 L 3 -1 L 3 1 " style="stroke:none"/>
		</g>
		<marker id="mrkr13-9" class="st4" refX="-34.5" orient="auto" markerUnits="strokeWidth" overflow="visible">
			<use xlink:href="#lend13" transform="scale(-11.5,-11.5) "/>
		</marker>
		<marker id="mrkr13-102" class="st8" refX="-18.12" orient="auto" markerUnits="strokeWidth" overflow="visible">
			<use xlink:href="#lend13" transform="scale(-6.04,-6.04) "/>
		</marker>
		<marker id="mrkr13-111" class="st10" refX="-18.12" orient="auto" markerUnits="strokeWidth" overflow="visible">
			<use xlink:href="#lend13" transform="scale(-6.04,-6.04) "/>
		</marker>
		<marker id="mrkr13-129" class="st10" refX="-0" orient="auto" markerUnits="strokeWidth" overflow="visible">
			<use xlink:href="#lend13" transform="scale(-6.04,-6.04) "/>
		</marker>
	</defs>
	<g>
		<title>Page-1</title>
		<g id="shape227-1" transform="translate(170.375,-614.412)">
			<title>Start/End-point</title>
			<desc>Start</desc>
			<path d="M13.5 641.53 L58.5 641.53 A13.5 13.5 -180 0 0 58.5 614.53 L13.5 614.53 A13.5 13.5 -180 1 0 13.5 641.53 Z"
					class="st1"/>
			<text x="23.33" y="631.63" class="st2">Start</text>		</g>
		<g id="shape228-4" transform="translate(847.906,27.12) rotate(90)">
			<title>Flowline1</title>
			<path d="M0 641.53 L24.22 641.53" class="st3"/>
		</g>
		<g id="shape229-10" transform="translate(170.375,-547.412)">
			<title>Process.245</title>
			<desc>DISABLE</desc>
			<rect x="0" y="607.032" width="72" height="34.5" class="st1"/>
			<text x="10.65" y="627.88" class="st2">DISABLE</text>		</g>
		<g id="shape230-13" transform="translate(847.906,94.12) rotate(90)">
			<title>Flowline1.230</title>
			<desc>ser_phy_open()/;</desc>
			<path d="M0 641.53 L24.72 641.53" class="st3"/>
			<rect x="-687.561" y="5.80019" width="90.7218" height="14.4001" transform="rotate(-90)" class="st5"/>
			<text x="-687.56" y="16.6" transform="rotate(-90)" class="st2">ser_phy_open()/;</text>		</g>
		<g id="shape231-20" transform="translate(183.375,-158.632)">
			<title>Decision.231</title>
			<path d="M0 624.28 L23 607.03 L46 624.28 L23 641.53 L0 624.28 Z" class="st1"/>
		</g>
		<g id="shape233-22" transform="translate(134.375,-363.902)">
			<title>Process.233</title>
			<desc>WAIT_FOR_1ST_TX_END</desc>
			<rect x="0" y="607.032" width="144" height="34.5" class="st1"/>
			<text x="2.33" y="627.88" class="st2">WAIT_FOR_1<tspan dy="-0.235em" class="st6">ST</tspan><tspan dy="0.153em"
						class="st7">_</tspan>TX_END</text>		</g>
		<g id="shape235-27" transform="translate(134.375,-249.716)">
			<title>Process.235</title>
			<desc>WAIT_FOR_ACK</desc>
			<rect x="0" y="607.032" width="144" height="34.5" class="st1"/>
			<text x="25.33" y="627.88" class="st2">WAIT_FOR_ACK</text>		</g>
		<g id="shape236-30" transform="translate(591.375,-251.632)">
			<title>Process.236</title>
			<desc>WAIT_FOR_ACK_OR_TX_END</desc>
			<rect x="0" y="607.032" width="177" height="34.5" class="st1"/>
			<text x="2.48" y="627.88" class="st2">WAIT_FOR_ACK_OR_TX_END</text>		</g>
		<g id="shape239-33" transform="translate(170.375,-460.412)">
			<title>Process.239</title>
			<desc>SEND</desc>
			<rect x="0" y="587.532" width="72" height="54" class="st1"/>
			<text x="19.33" y="618.13" class="st2">SEND</text>		</g>
		<g id="shape253-36" transform="translate(409.875,-260.577)">
			<title>Decision.253</title>
			<path d="M0 624.28 L23 607.03 L46 624.28 L23 641.53 L0 624.28 Z" class="st1"/>
		</g>
		<g id="shape254-38" transform="translate(656.875,-158.632)">
			<title>Decision.254.254</title>
			<path d="M0 624.28 L23 607.03 L46 624.28 L23 641.53 L0 624.28 Z" class="st1"/>
		</g>
		<g id="shape255-40" transform="translate(617.375,-56.8625)">
			<title>Process.255</title>
			<desc>WAIT_FOR_TX_END</desc>
			<rect x="0" y="607.032" width="125" height="34.5" class="st1"/>
			<text x="4.49" y="627.88" class="st2">WAIT_FOR_TX_END</text>		</g>
		<g id="shape263-43" transform="translate(278.375,-277.827)">
			<title>Flowline1.263</title>
			<desc>Evt == TIMEOUT / tx_retry_count--;</desc>
			<path d="M0 641.53 L123.22 641.53" class="st3"/>
			<rect x="15.4888" y="626.557" width="100.354" height="28.8001" class="st5"/>
			<text x="17.16" y="637.36" class="st2">Evt == TIMEOUT / <tspan x="15.49" dy="1.2em" class="st7">tx</tspan>_retry_count--;</text>		</g>
		<g id="shape264-51" transform="translate(455.875,-277.827)">
			<title>Flowline1.264</title>
			<desc>[tx_retry_count!=0]/ pkt_send();</desc>
			<path d="M0 641.53 L127.22 641.53" class="st3"/>
			<rect x="11.8047" y="627.476" width="104.725" height="28.8001" class="st5"/>
			<text x="13.47" y="638.28" class="st2">[tx_retry_count!=0]/ <tspan x="11.8" dy="1.2em" class="st7">pkt</tspan>_send();</text>		</g>
		<g id="shape265-59" transform="translate(1321.41,389.9) rotate(90)">
			<title>Flowline1.265</title>
			<desc>Evt==ACK_RXED</desc>
			<path d="M0 641.53 L50.22 641.53" class="st3"/>
			<rect x="-691.222" y="18.2305" width="96.0425" height="14.4001" transform="rotate(-90)" class="st5"/>
			<text x="-691.22" y="29.03" transform="rotate(-90)" class="st2">Evt==ACK_RXED</text>		</g>
		<g id="shape266-66" transform="translate(1321.41,482.9) rotate(90)">
			<title>Flowline1.266</title>
			<desc>[valid(ACK)== TRUE]/ release_ack_buffer();</desc>
			<path d="M0 641.53 L58.99 641.53" class="st3"/>
			<rect x="-701.883" y="15.8305" width="119.034" height="28.8001" transform="rotate(-90)" class="st5"/>
			<text x="-700.21" y="26.63" transform="rotate(-90)" class="st2">[valid(ACK)== TRUE]/ <tspan x="-701.88" dy="1.2em"
						class="st7">release</tspan>_ack_buffer();</text>		</g>
		<g id="shape267-74" transform="translate(847.906,391.816) rotate(90)">
			<title>Flowline1.267</title>
			<desc>Evt == ACK_RXED</desc>
			<path d="M0 641.53 L48.3 641.53" class="st3"/>
			<rect x="-694.556" y="12.8002" width="102.711" height="14.4001" transform="rotate(-90)" class="st5"/>
			<text x="-694.56" y="23.6" transform="rotate(-90)" class="st2">Evt == ACK_RXED</text>		</g>
		<g id="shape268-81" transform="translate(813.906,277.63) rotate(90)">
			<title>Flowline1.268</title>
			<desc>Evt == PKT_SENT/ timeout_setup(1);</desc>
			<path d="M0 641.53 L71.41 641.53" class="st3"/>
			<rect x="-696.887" y="26.1001" width="105.042" height="28.8001" transform="rotate(-90)" class="st5"/>
			<text x="-695.22" y="36.9" transform="rotate(-90)" class="st2">Evt == PKT_SENT/ <tspan x="-696.89" dy="1.2em"
						class="st7">timeout</tspan>_setup(1);</text>		</g>
		<g id="shape269-89" transform="translate(847.906,181.12) rotate(90)">
			<title>Flowline1.269</title>
			<desc>Evt == TX_REQUEST/ pkt_send(); timeout_setup(0); tx_retry_cou...</desc>
			<path d="M0 641.53 L53.73 641.53" class="st3"/>
			<rect x="-748.233" y="5.40992" width="209.065" height="43.2002" transform="rotate(-90)" class="st5"/>
			<text x="-702.72" y="16.21" transform="rotate(-90)" class="st2">Evt == TX_REQUEST/ <tspan x="-720.4" dy="1.2em"
						class="st7">pkt</tspan>_send(); timeout_setup(0); <tspan x="-748.23" dy="1.2em" class="st7">tx</tspan>_retry_count=MAX_RETRY_COUNT;</text>		</g>
		<g id="group270-98" transform="translate(189.375,-175.882)">
			<title>Flowline2</title>
			<desc>[valid(ACK) == TRUE] / timeout_setup(0); pkt_sent_upcall(); r...</desc>
			<g id="shape271-99" transform="translate(-19,-289.528)">
				<title>Straight Edge.28</title>
				<desc>N</desc>
			</g>
			<g id="shape272-103" transform="translate(12.0036,1274.06) rotate(180)">
				<title>Straight Edge.29</title>
				<desc>N</desc>
			</g>
			<g id="shape270-106">
				<path d="M-6 641.53 L-90.5 641.53 A18 18 0 0 1 -108.5 623.53 L-108.5 361 A18 18 0 0 1 -90.5 343 L-28.06 343"
						class="st9"/>
				<rect x="-145.516" y="621.472" width="124.033" height="57.6002" class="st5"/>
				<text x="-145.52" y="632.27" class="st2">[valid(ACK) == TRUE] / <tspan x="-130.19" dy="1.2em" class="st7">timeout</tspan>_setup(0); <tspan
							x="-130.86" dy="1.2em" class="st7">pkt</tspan>_sent_upcall(); <tspan x="-140.2" dy="1.2em" class="st7">release</tspan>_ack_buffer();</text>			</g>
		</g>
		<g id="group273-117" transform="translate(229.375,-175.882)">
			<title>Flowline2.273</title>
			<desc>[valid(ACK) != TRUE]/ release_ack_buffer();</desc>
			<g id="shape274-118" transform="translate(49,1194.49) rotate(180)">
				<title>Straight Edge.28</title>
				<desc>N</desc>
			</g>
			<g id="shape275-121" transform="translate(-18.0036,9.00182)">
				<title>Straight Edge.29</title>
				<desc>N</desc>
			</g>
			<g id="shape273-124">
				<path d="M0 641.53 L47 641.53 A18 18 -180 0 0 65 623.53 L65 569.96 A8 8 -180 0 0 57 561.96 L49 561.96" class="st11"/>
				<rect x="8.98761" y="604.837" width="117.025" height="28.8001" class="st5"/>
				<text x="8.99" y="615.64" class="st2">[valid(ACK) != TRUE]/ <tspan x="10.8" dy="1.2em" class="st7">release</tspan>_ack_buffer();</text>			</g>
		</g>
		<g id="group276-133" transform="translate(679.875,-297.674)">
			<title>Flowline2.276</title>
			<desc>Evt==PKT_SENT/ timeout_setup(1);</desc>
			<g id="shape277-134" transform="translate(196.03,654.99) rotate(90)">
				<title>Straight Edge.28</title>
				<desc>N</desc>
			</g>
			<g id="shape278-137" transform="translate(-632.53,671.077) rotate(-90)">
				<title>Straight Edge.29</title>
				<desc>N</desc>
			</g>
			<g id="shape276-140">
				<path d="M0 653.07 L0 621.32 A18 18 -180 0 0 -18 603.32 L-418.5 603.32 A18 18 -180 0 0 -436.5 621.32 L-436.5 645.93"
						class="st9"/>
				<rect x="-267.852" y="599.632" width="96.7047" height="28.8001" class="st5"/>
				<text x="-267.85" y="610.43" class="st2">Evt==PKT_SENT/ <tspan x="-266.19" dy="1.2em" class="st7">timeout</tspan>_setup(1);</text>			</g>
		</g>
		<g id="group279-148" transform="translate(656.875,-175.882)">
			<title>Flowline2.279</title>
			<desc>[valid(ACK) != TRUE]/ release_ack_buffer();</desc>
			<g id="shape280-149" transform="translate(-65.5,-75.6926)">
				<title>Straight Edge.28</title>
				<desc>N</desc>
			</g>
			<g id="shape281-152" transform="translate(18.0036,1274.06) rotate(180)">
				<title>Straight Edge.29</title>
				<desc>N</desc>
			</g>
			<g id="shape279-155">
				<path d="M0 641.53 L-97.76 641.53 A18 18 0 0 1 -115.76 623.53 L-115.76 574.84 A18 18 0 0 1 -97.76 556.84 L-74.56
							 556.84" class="st9"/>
				<rect x="-174.512" y="599.612" width="117.025" height="28.8001" class="st5"/>
				<text x="-174.51" y="610.41" class="st2">[valid(ACK) != TRUE]/ <tspan x="-172.7" dy="1.2em" class="st7">release</tspan>_ack_buffer();</text>			</g>
		</g>
		<g id="group282-163" transform="translate(679.875,-56.8625)">
			<title>Flowline2.282</title>
			<desc>Evt==PKT_SENT/ pkt_sent_upcall();</desc>
			<g id="shape283-164" transform="translate(-509.5,-434.538)">
				<title>Straight Edge.28</title>
				<desc>N</desc>
			</g>
			<g id="shape284-167" transform="translate(632.576,657.838) rotate(93.107)">
				<title>Straight Edge.29</title>
				<desc>N</desc>
			</g>
			<g id="shape282-170">
				<path d="M0 641.53 L0 661.99 A18 18 0 0 1 -18 679.99 L-652.32 679.99 A18 18 0 0 1 -670.32 661.99 L-670.32 215.99
							 A18 18 0 0 1 -652.32 197.99 L-518.56 197.99" class="st9"/>
				<rect x="-382.352" y="665.593" width="96.7047" height="28.8001" class="st5"/>
				<text x="-382.35" y="676.39" class="st2">Evt==PKT_SENT/ <tspan x="-381.36" dy="1.2em" class="st7">pkt</tspan>_sent_upcall();</text>			</g>
		</g>
		<g id="group285-178" transform="translate(432.875,-260.577)">
			<title>Flowline2.285</title>
			<desc>[tx_retry_count==0]/ tx_error_callback();</desc>
			<g id="shape286-179" transform="translate(-262.5,-217.833)">
				<title>Straight Edge.28</title>
				<desc>N</desc>
			</g>
			<g id="shape287-182" transform="translate(632.53,623.528) rotate(90)">
				<title>Straight Edge.29</title>
				<desc>N</desc>
			</g>
			<g id="shape285-185">
				<path d="M0 641.53 L0 781.17 A18 18 0 0 1 -18 799.17 L-384.21 799.17 A18 18 0 0 1 -402.21 781.17 L-402.21 432.7 A18
							 18 0 0 1 -384.21 414.7 L-271.56 414.7" class="st9"/>
				<rect x="-255.365" y="784.307" width="106.73" height="28.8001" class="st5"/>
				<text x="-255.37" y="795.11" class="st2">[tx_retry_count==0]/ <tspan x="-253.35" dy="1.2em" class="st7">tx</tspan>_error_callback();</text>			</g>
		</g>
		<g id="group288-193" transform="translate(229.875,-465.392)">
			<title>Flowline2.288</title>
			<desc>Evt==ACK_RXED/release_ack_buffer();</desc>
			<g id="shape289-194" transform="translate(12.5,1234.06) rotate(180)">
				<title>Straight Edge.28</title>
				<desc>N</desc>
			</g>
			<g id="shape290-197" transform="translate(-5.50363,9.00182)">
				<title>Straight Edge.29</title>
				<desc>N</desc>
			</g>
			<g id="shape288-200">
				<path d="M12.5 641.53 L113 641.53 A18 18 -180 0 0 131 623.53 L131 619.53 A18 18 -180 0 0 113 601.53 L21.56 601.53"
						class="st9"/>
				<rect x="24.6158" y="612.312" width="212.769" height="14.4001" class="st5"/>
				<text x="24.62" y="623.11" class="st2">Evt==ACK_RXED/release_ack_buffer();</text>			</g>
		</g>
		<g id="group291-207" transform="translate(265.875,-368.639)">
			<title>Flowline2.291</title>
			<desc>Evt==ACK_RXED/release_ack_buffer();</desc>
			<g id="shape292-208" transform="translate(12.5,1251.98) rotate(180)">
				<title>Straight Edge.28</title>
				<desc>N</desc>
			</g>
			<g id="shape293-211" transform="translate(-5.50363,6.08515)">
				<title>Straight Edge.29</title>
				<desc>N</desc>
			</g>
			<g id="shape291-214">
				<path d="M12.5 638.62 L125.42 638.62 A9.58333 9.58333 -180 0 0 135 629.03 L135 629.03 A9.58333 9.58333 -180 0 0 125.42
							 619.45 L21.56 619.45" class="st9"/>
				<rect x="28.6158" y="621.832" width="212.769" height="14.4001" class="st5"/>
				<text x="28.62" y="632.63" class="st2">Evt==ACK_RXED/release_ack_buffer();</text>			</g>
		</g>
		<g id="group294-221" transform="translate(604.875,-61.3057)">
			<title>Flowline2.294</title>
			<desc>Evt==ACK_RXED/release_ack_buffer();</desc>
			<g id="shape295-222" transform="translate(12.5,-14.6787)">
				<title>Straight Edge.28</title>
				<desc>N</desc>
			</g>
			<g id="shape296-225" transform="translate(30.5036,1272.74) rotate(180)">
				<title>Straight Edge.29</title>
				<desc>N</desc>
			</g>
			<g id="shape294-228">
				<path d="M12.5 640.21 L-107.58 640.21 A11.1806 11.1806 0 0 1 -118.76 629.03 L-118.76 629.03 A11.1806 11.1806 0 0
							 1 -107.58 617.85 L3.44 617.85" class="st9"/>
				<rect x="-225.144" y="621.832" width="212.769" height="14.4001" class="st5"/>
				<text x="-225.14" y="632.63" class="st2">Evt==ACK_RXED/release_ack_buffer();</text>			</g>
		</g>
	</g>
</svg>
