<?xml version="1.0" encoding="UTF-8" standalone="no"?>
<!DOCTYPE svg PUBLIC "-//W3C//DTD SVG 1.1//EN" "http://www.w3.org/Graphics/SVG/1.1/DTD/svg11.dtd">
<!-- Generated by Microsoft Visio, SVG Export memory_manager_allocation_algorithm.svg Page-1 -->
<svg xmlns="http://www.w3.org/2000/svg" xmlns:xlink="http://www.w3.org/1999/xlink" xmlns:ev="http://www.w3.org/2001/xml-events"
		width="5.61718in" height="7.87262in" viewBox="0 0 404.437 566.829" xml:space="preserve" color-interpolation-filters="sRGB"
		class="st11">
	<style type="text/css">
	<![CDATA[
		.st1 {fill:#c4dbf2;stroke:#000000;stroke-linecap:round;stroke-linejoin:round;stroke-width:0.24}
		.st2 {fill:#000000;font-family:Arial;font-size:1.00001em}
		.st3 {fill:#000000;font-family:Arial;font-size:0.75em}
		.st4 {font-size:1em}
		.st5 {marker-end:url(#mrkr13-20);stroke:#000000;stroke-linecap:round;stroke-linejoin:round;stroke-width:0.24}
		.st6 {fill:#000000;fill-opacity:1;stroke:#000000;stroke-opacity:1;stroke-width:0.08695652173913}
		.st7 {fill:#ffffff;stroke:none;stroke-linecap:butt;stroke-width:7.2}
		.st8 {fill:#4677bf;fill-opacity:1;stroke:#4677bf;stroke-opacity:1;stroke-width:0.16556291390728}
		.st9 {marker-end:url(#mrkr4-80);stroke:#000000;stroke-linecap:round;stroke-linejoin:round;stroke-width:0.5}
		.st10 {fill:#000000;fill-opacity:1;stroke:#000000;stroke-opacity:1;stroke-width:0.16556291390728}
		.st11 {fill:none;fill-rule:evenodd;font-size:12px;overflow:visible;stroke-linecap:square;stroke-miterlimit:3}
	]]>
	</style>

	<defs id="Markers">
		<g id="lend13">
			<path d="M 3 1 L 0 0 L 3 -1 L 3 1 " style="stroke:none"/>
		</g>
		<marker id="mrkr13-20" class="st6" refX="-34.5" orient="auto" markerUnits="strokeWidth" overflow="visible">
			<use xlink:href="#lend13" transform="scale(-11.5,-11.5) "/>
		</marker>
		<g id="lend4">
			<path d="M 2 1 L 0 0 L 2 -1 L 2 1 " style="stroke:none"/>
		</g>
		<marker id="mrkr4-71" class="st8" refX="-12.08" orient="auto" markerUnits="strokeWidth" overflow="visible">
			<use xlink:href="#lend4" transform="scale(-6.04,-6.04) "/>
		</marker>
		<marker id="mrkr4-80" class="st10" refX="-12.08" orient="auto" markerUnits="strokeWidth" overflow="visible">
			<use xlink:href="#lend4" transform="scale(-6.04,-6.04) "/>
		</marker>
	</defs>
	<g>
		<title>Page-1</title>
		<g id="shape254-1" transform="translate(47.807,-539.709)">
			<title>Start/End-point</title>
			<desc>buffer = nrf_malloc(size)</desc>
			<path d="M13.5 566.83 L132 566.83 A13.5 13.5 -180 0 0 132 539.83 L13.5 539.83 A13.5 13.5 -180 1 0 13.5 566.83 Z"
					class="st1"/>
			<text x="8.23" y="556.93" class="st2">buffer = nrf_malloc(size)</text>		</g>
		<g id="shape255-4" transform="translate(72.557,-361.009)">
			<title>Process.245</title>
			<desc>Identify size &#60;= which of the small, medium, or large blocks ...</desc>
			<rect x="0" y="512.829" width="96" height="54" class="st1"/>
			<text x="4.98" y="531.73" class="st3">Identify size &#60;= which <tspan x="5.23" dy="1.2em" class="st4">of the small</tspan>, medium, <tspan
						x="5.48" dy="1.2em" class="st4">or large blocks pools</tspan>.</text>		</g>
		<g id="shape256-9" transform="translate(47.807,-448.209)">
			<title>Decision.256</title>
			<desc>Is size valid? (Not 0 and not larger than largest block size?)</desc>
			<path d="M0 531.16 L72.78 495.49 L145.55 531.16 L72.78 566.83 L0 531.16 Z" class="st1"/>
			<text x="47.02" y="517.66" class="st3">Is size valid? <tspan x="21.49" dy="1.2em" class="st4">(</tspan>Not 0 and not larger than  <tspan
						x="47.51" dy="1.2em" class="st4">largest block  </tspan><tspan x="60.77" dy="1.2em" class="st4">size</tspan>?)</text>		</g>
		<g id="shape257-15" transform="translate(687.385,26.3799) rotate(89.9252)">
			<title>Flowline1</title>
			<path d="M0 566.83 L11.88 566.83" class="st5"/>
		</g>
		<g id="shape258-21" transform="translate(687.412,119.07) rotate(90.0454)">
			<title>Flowline1.258</title>
			<desc>Yes</desc>
			<path d="M0 566.83 L24.92 566.83" class="st5"/>
			<rect x="-578.844" y="2.35067" width="20.6782" height="14.4001" transform="rotate(-90.0454)" class="st7"/>
			<text x="-578.84" y="13.15" transform="rotate(-90.0454)" class="st2">Yes</text>		</g>
		<g id="shape259-28" transform="translate(75.557,-275.009)">
			<title>Decision.259</title>
			<desc>Is a block available in this pool?</desc>
			<path d="M0 539.83 L45 512.83 L90 539.83 L45 566.83 L0 539.83 Z" class="st1"/>
			<text x="25.99" y="531.73" class="st3">Is a block <tspan x="14.23" dy="1.2em" class="st4">available in this </tspan><tspan
						x="33.99" dy="1.2em" class="st4">pool</tspan>?</text>		</g>
		<g id="shape260-33" transform="translate(687.386,205.82) rotate(90)">
			<title>Flowline1.260</title>
			<path d="M0 566.83 L23.72 566.83" class="st5"/>
		</g>
		<g id="shape261-38" transform="translate(687.386,291.82) rotate(90)">
			<title>Flowline1.261</title>
			<desc>No</desc>
			<path d="M0 566.83 L29.72 566.83" class="st5"/>
			<rect x="-576.167" y="5.80019" width="15.3399" height="14.4001" transform="rotate(-90)" class="st7"/>
			<text x="-576.17" y="16.6" transform="rotate(-90)" class="st2">No</text>		</g>
		<g id="shape262-45" transform="translate(66.182,-165.009)">
			<title>Decision.262</title>
			<desc>Is there a pool with block larger than identified pool?</desc>
			<path d="M0 530.83 L54.37 494.83 L108.75 530.83 L54.37 566.83 L0 530.83 Z" class="st1"/>
			<text x="39.37" y="517.33" class="st3">Is there <tspan x="21.11" dy="1.2em" class="st4">a pool with block </tspan><tspan
						x="13.6" dy="1.2em" class="st4">larger than identified </tspan><tspan x="43.36" dy="1.2em" class="st4">pool</tspan>?</text>		</g>
		<g id="shape263-51" transform="translate(40.057,-63.2085)">
			<title>Start/End-point.263</title>
			<desc>Memory allocation failed. Buffer is NULL.</desc>
			<path d="M18.9 566.83 L142.1 566.83 A18.9 18.9 -180 0 0 142.1 529.03 L18.9 529.03 A18.9 18.9 -180 1 0 18.9 566.83 Z"
					class="st1"/>
			<text x="14.14" y="544.33" class="st2">Memory allocation failed. <tspan x="39.82" dy="1.2em" class="st4">Buffer is NULL</tspan>.</text>		</g>
		<g id="shape264-55" transform="translate(687.386,401.82) rotate(90)">
			<title>Flowline1.264</title>
			<desc>No</desc>
			<path d="M0 566.83 L55.72 566.83" class="st5"/>
			<rect x="-576.167" y="12.8002" width="15.3399" height="14.4001" transform="rotate(-90)" class="st7"/>
			<text x="-576.17" y="23.6" transform="rotate(-90)" class="st2">No</text>		</g>
		<g id="shape265-62" transform="translate(222.317,-57.8085)">
			<title>Start/End-point.265</title>
			<desc>Memory allocation succeeded. Buffer points to one of the bloc...</desc>
			<path d="M24.3 566.83 L157.7 566.83 A24.3 24.3 -180 0 0 157.7 518.23 L24.3 518.23 A24.3 24.3 -180 1 0 24.3 566.83 Z"
					class="st1"/>
			<text x="9.96" y="531.73" class="st2">Memory allocation succeeded. <tspan x="3.61" dy="1.2em" class="st4">Buffer points to one of the blocks </tspan><tspan
						x="14.96" dy="1.2em" class="st4">on one of the memory pools</tspan>.</text>		</g>
		<g id="group266-67" transform="translate(165.557,-302.009)">
			<title>Flowline2</title>
			<desc>Yes</desc>
			<g id="shape267-68" transform="translate(661.384,762.429) rotate(90)">
				<title>Straight Edge.28</title>
				<desc>N</desc>
			</g>
			<g id="shape268-72" transform="translate(-106.409,53.2043)">
				<title>Straight Edge.29</title>
				<desc>N</desc>
			</g>
			<g id="shape266-75">
				<path d="M0 566.83 L129.76 566.83 A18 18 0 0 1 147.76 584.83 L147.76 756.39" class="st9"/>
				<rect x="13.4209" y="561.129" width="20.6782" height="14.4001" class="st7"/>
				<text x="13.42" y="571.93" class="st2">Yes</text>			</g>
		</g>
		<g id="group269-83" transform="translate(58.3695,-201.009)">
			<title>Flowline2.269</title>
			<desc>Yes</desc>
			<g id="shape270-84" transform="translate(17.1875,-91.9982)">
				<title>Straight Edge.28</title>
				<desc>N</desc>
			</g>
			<g id="shape271-87" transform="translate(25.8161,1124.66) rotate(180)">
				<title>Straight Edge.29</title>
				<desc>N</desc>
			</g>
			<g id="shape269-90">
				<path d="M7.81 566.83 L-6.93 566.83 A14.7397 14.7397 0 0 1 -21.67 552.09 L-21.67 483.83 A18 18 0 0 1 -3.67 465.83
							 L11.15 465.83" class="st9"/>
				<rect x="-14.464" y="557.429" width="20.6782" height="14.4001" class="st7"/>
				<text x="-14.46" y="568.23" class="st2">Yes</text>			</g>
		</g>
		<g id="group272-97" transform="translate(47.807,-483.876)">
			<title>Flowline2.272</title>
			<desc>No</desc>
			<g id="shape273-98" transform="translate(600.827,743.959) rotate(71.2033)">
				<title>Straight Edge.28</title>
				<desc>N</desc>
			</g>
			<g id="shape274-101" transform="translate(46.2062,1110.55) rotate(180)">
				<title>Straight Edge.29</title>
				<desc>N</desc>
			</g>
			<g id="shape272-104">
				<path d="M0 566.83 L-23.05 566.83 A18 18 -180 0 0 -41.05 584.83 L-41.05 905.7 A18 18 -180 0 0 -23.05 923.7 L66.71
							 923.7" class="st9"/>
				<rect x="-21.16" y="560.297" width="15.3399" height="14.4001" class="st7"/>
				<text x="-21.16" y="571.1" class="st2">No</text>			</g>
		</g>
	</g>
</svg>
