<?xml version="1.0" encoding="UTF-8" standalone="no"?>
<!DOCTYPE svg PUBLIC "-//W3C//DTD SVG 1.1//EN" "http://www.w3.org/Graphics/SVG/1.1/DTD/svg11.dtd">
<!-- Generated by Microsoft Visio, SVG Export memory_pool.svg Page-1 -->
<svg xmlns="http://www.w3.org/2000/svg" xmlns:xlink="http://www.w3.org/1999/xlink" xmlns:ev="http://www.w3.org/2001/xml-events"
		width="5.35355in" height="1.77402in" viewBox="0 0 385.456 127.73" xml:space="preserve" color-interpolation-filters="sRGB"
		class="st10">
	<style type="text/css">
	<![CDATA[
		.st1 {marker-end:url(#mrkr13-6);stroke:#000000;stroke-linecap:round;stroke-linejoin:round;stroke-width:0.24}
		.st2 {fill:#000000;fill-opacity:1;stroke:#000000;stroke-opacity:1;stroke-width:0.08695652173913}
		.st3 {fill:#ffffff;stroke:none;stroke-linecap:butt;stroke-width:7.2}
		.st4 {fill:#000000;font-family:Arial;font-size:1.00001em}
		.st5 {fill:#c4dbf2;stroke:#000000;stroke-linecap:round;stroke-linejoin:round;stroke-width:0.25}
		.st6 {fill:none;stroke:none;stroke-linecap:round;stroke-linejoin:round;stroke-width:0.75}
		.st7 {fill:#000000;font-family:Calibri;font-size:1.00001em}
		.st8 {font-size:1em}
		.st9 {stroke:#000000;stroke-dasharray:5.25,3.75;stroke-linecap:round;stroke-linejoin:round;stroke-width:0.75}
		.st10 {fill:none;fill-rule:evenodd;font-size:12px;overflow:visible;stroke-linecap:square;stroke-miterlimit:3}
	]]>
	</style>

	<defs id="Markers">
		<g id="lend13">
			<path d="M 3 1 L 0 0 L 3 -1 L 3 1 " style="stroke:none"/>
		</g>
		<marker id="mrkr13-6" class="st2" refX="-34.5" orient="auto" markerUnits="strokeWidth" overflow="visible">
			<use xlink:href="#lend13" transform="scale(-11.5,-11.5) "/>
		</marker>
	</defs>
	<g>
		<title>Page-1</title>
		<g id="shape265-1" transform="translate(226.458,8.72789) rotate(90)">
			<title>Flowline1</title>
			<desc>free(consume)</desc>
			<path d="M0 127.73 L22.52 127.73" class="st1"/>
			<rect x="-162.58" y="-1.89981" width="77.3622" height="14.4001" transform="rotate(-90)" class="st3"/>
			<text x="-162.58" y="8.9" transform="rotate(-90)" class="st4">free(consume)</text>		</g>
		<g id="shape266-9" transform="translate(320.458,16.5279) rotate(90)">
			<title>Flowline1.266</title>
			<desc>read(extract)</desc>
			<path d="M0 127.73 L14.72 127.73" class="st1"/>
			<rect x="-161.41" y="-10.1998" width="68.0221" height="14.4001" transform="rotate(-90)" class="st3"/>
			<text x="-161.41" y="0.6" transform="rotate(-90)" class="st4">read(extract)</text>		</g>
		<g id="shape267-16" transform="translate(411.458,16.5279) rotate(90)">
			<title>Flowline1.267</title>
			<desc>write(produce)</desc>
			<path d="M0 127.73 L14.72 127.73" class="st1"/>
			<rect x="-167.745" y="-10.1998" width="76.6939" height="14.4001" transform="rotate(-90)" class="st3"/>
			<text x="-167.75" y="0.6" transform="rotate(-90)" class="st4">write(produce)</text>		</g>
		<g id="shape268-23" transform="translate(128.728,244.258) rotate(180)">
			<title>Flowline1.268</title>
			<desc>Older data</desc>
			<path d="M0 127.73 L111.72 127.73" class="st1"/>
			<rect x="-29.6856" y="-134.93" width="56.0338" height="14.4001" transform="rotate(180)" class="st3"/>
			<text x="-29.69" y="-124.13" transform="rotate(180)" class="st4">Older data</text>		</g>
		<g id="shape269-30" transform="translate(252.241,-11.2019)">
			<title>Flowline1.269</title>
			<desc>Newer data</desc>
			<path d="M0 127.73 L116.21 127.73" class="st1"/>
			<rect x="-31.8646" y="120.53" width="61.3658" height="14.4001" class="st3"/>
			<text x="-31.86" y="131.33" class="st4">Newer data</text>		</g>
		<g id="shape277-37" transform="translate(8.72788,-34.2019)">
			<title>Process.277</title>
			<rect x="0" y="73.7297" width="368" height="54" class="st5"/>
		</g>
		<g id="shape278-39" transform="translate(8.72788,-34.2019)">
			<title>Sheet.278</title>
			<desc>unused space</desc>
			<rect x="0" y="73.7297" width="95" height="54" class="st6"/>
			<text x="14.31" y="104.33" class="st7">unused space</text>		</g>
		<g id="shape281-42" transform="translate(283.728,-34.2019)">
			<title>Sheet.281</title>
			<desc>unused space</desc>
			<rect x="0" y="73.7297" width="93" height="54" class="st6"/>
			<text x="13.31" y="104.33" class="st7">unused space</text>		</g>
		<g id="shape282-45" transform="translate(192.728,-34.2019)">
			<title>Sheet.282</title>
			<desc>Data being used by transport</desc>
			<rect x="0" y="73.7297" width="91" height="54" class="st6"/>
			<text x="6.21" y="97.13" class="st7">Data being used <tspan x="15.38" dy="1.2em" class="st8">by transport</tspan></text>		</g>
		<g id="shape285-49" transform="translate(103.728,-34.2019)">
			<title>Sheet.285</title>
			<desc>Data being used by application</desc>
			<rect x="0" y="73.7297" width="89" height="54" class="st6"/>
			<text x="5.21" y="97.13" class="st7">Data being used <tspan x="10.23" dy="1.2em" class="st8">by application</tspan></text>		</g>
		<g id="shape286-53" transform="translate(320.458,39.5279) rotate(90)">
			<title>Sheet.286</title>
			<path d="M0 127.73 L54 127.73" class="st9"/>
		</g>
		<g id="shape287-56" transform="translate(411.458,39.5279) rotate(90)">
			<title>Sheet.287</title>
			<path d="M0 127.73 L54 127.73" class="st9"/>
		</g>
		<g id="shape288-59" transform="translate(226.458,39.5279) rotate(90)">
			<title>Sheet.288</title>
			<path d="M0 127.73 L54 127.73" class="st9"/>
		</g>
	</g>
</svg>
