<?xml version="1.0" encoding="UTF-8" standalone="no"?>
<!DOCTYPE svg PUBLIC "-//W3C//DTD SVG 1.1//EN" "http://www.w3.org/Graphics/SVG/1.1/DTD/svg11.dtd">
<!-- Generated by Microsoft Visio, SVG Export nrf52810_voltage_divider.svg Page-1 -->
<svg xmlns="http://www.w3.org/2000/svg" xmlns:xlink="http://www.w3.org/1999/xlink" xmlns:ev="http://www.w3.org/2001/xml-events"
		width="2.75588in" height="4.15605in" viewBox="0 0 198.423 299.236" xml:space="preserve" color-interpolation-filters="sRGB"
		class="st7">
	<style type="text/css">
	<![CDATA[
		.st1 {stroke:#000000;stroke-linecap:round;stroke-linejoin:round;stroke-width:0.75}
		.st2 {fill:#ffffff;stroke:#000000;stroke-linecap:round;stroke-linejoin:round;stroke-width:0.24}
		.st3 {fill:#000000;stroke:#000000;stroke-linecap:round;stroke-linejoin:round;stroke-width:0.24}
		.st4 {fill:none;stroke:none;stroke-linecap:round;stroke-linejoin:round;stroke-width:0.75}
		.st5 {fill:#000000;font-family:Calibri;font-size:1.08334em}
		.st6 {fill:#000000;font-family:Calibri;font-size:1.00001em}
		.st7 {fill:none;fill-rule:evenodd;font-size:12px;overflow:visible;stroke-linecap:square;stroke-miterlimit:3}
	]]>
	</style>

	<g>
		<title>Page-1</title>
		<g id="shape1-1" transform="translate(-261.263,282.383) rotate(-90)">
			<title>Ground</title>
			<path d="M0 283 L0 291.12" class="st1"/>
			<path d="M4.06 278.94 L4.06 295.18" class="st1"/>
			<path d="M8.12 274.88 L8.12 299.24" class="st1"/>
			<path d="M60.88 287.06 L8.12 287.06" class="st1"/>
		</g>
		<g id="shape14-7" transform="translate(117.121,-152.457)">
			<title>Circle</title>
			<path d="M0 295.08 A4.15116 4.15116 0 0 1 8.3 295.08 A4.15116 4.15116 0 0 1 -0 295.08 Z" class="st2"/>
		</g>
		<g id="shape15-9" transform="translate(21.6445,-152.457)">
			<title>Circle.15</title>
			<path d="M0 295.08 A4.15116 4.15116 0 0 1 8.3 295.08 A4.15116 4.15116 0 0 1 -0 295.08 Z" class="st3"/>
		</g>
		<g id="shape17-11" transform="translate(18.709,-160.76)">
			<title>Dynamic connector.17</title>
			<path d="M7.09 299.24 L7.09 282.63" class="st1"/>
		</g>
		<g id="shape18-14" transform="translate(29.9468,-149.522)">
			<title>Dynamic connector.18</title>
			<path d="M0 292.15 L87.17 292.15" class="st1"/>
		</g>
		<g id="shape26-17" transform="translate(8.12032,-287.191)">
			<title>Sheet.26</title>
			<desc>VDD</desc>
			<rect x="0" y="290.746" width="35.3742" height="8.48982" class="st4"/>
			<text x="6" y="298.89" class="st5">VDD</text>		</g>
		<g id="shape29-20" transform="translate(8.10853,-3.55532)">
			<title>Sheet.29</title>
			<desc>GND</desc>
			<rect x="0" y="290.746" width="35.3742" height="8.48982" class="st4"/>
			<text x="5.39" y="298.89" class="st5">GND</text>		</g>
		<g id="shape30-23" transform="translate(37.9724,-102.55)">
			<title>Sheet.30</title>
			<desc>R = 450 k立</desc>
			<rect x="0" y="290.746" width="65.2446" height="8.48982" class="st4"/>
			<text x="6.47" y="298.59" class="st6">R = 450 k立</text>		</g>
		<g id="shape33-26" transform="translate(37.9724,-201.77)">
			<title>Sheet.33</title>
			<desc>R = 450 k立</desc>
			<rect x="0" y="290.746" width="65.2446" height="8.48982" class="st4"/>
			<text x="6.47" y="298.59" class="st6">R = 450 k立</text>		</g>
		<g id="shape36-29" transform="translate(126.065,-152.363)">
			<title>Sheet.36</title>
			<desc>P0.31 (AIN7)</desc>
			<rect x="0" y="290.746" width="71.9831" height="8.48982" class="st4"/>
			<text x="5.36" y="298.59" class="st6">P0.31 (AIN7)</text>		</g>
		<g id="group40-32" transform="translate(313.45,163.594) rotate(90)">
			<title>Resistor</title>
			<g id="shape41-33">
				<title>Sheet.41</title>
				<path d="M0 287.65 L4.83 276.07 L14.48 299.24 L24.13 276.07 L33.78 299.24 L43.43 276.07 L53.08 299.24 L57.91 287.65"
						class="st1"/>
			</g>
			<g id="shape42-36" transform="translate(-205.978,101.859) rotate(-45)">
				<title>Sheet.42</title>
			</g>
		</g>
		<g id="group43-38" transform="translate(313.45,63.8606) rotate(90)">
			<title>Resistor.43</title>
			<g id="shape44-39">
				<title>Sheet.44</title>
				<path d="M0 287.65 L4.83 276.07 L14.48 299.24 L24.13 276.07 L33.78 299.24 L43.43 276.07 L53.08 299.24 L57.91 287.65"
						class="st1"/>
			</g>
			<g id="shape45-42" transform="translate(-205.978,101.859) rotate(-45)">
				<title>Sheet.45</title>
			</g>
		</g>
		<g id="shape46-44" transform="translate(26.8825,-235.375)">
			<title>Dynamic connector</title>
			<path d="M-1.09 299.24 L-1.09 249.23 L-13.09 249.23" class="st1"/>
		</g>
		<g id="shape48-47" transform="translate(18.709,-135.642)">
			<title>Dynamic connector.48</title>
			<path d="M7.09 299.24 L7.09 282.42" class="st1"/>
		</g>
		<g id="shape55-50" transform="translate(38.9706,-278.298)">
			<title>Dynamic connector.55</title>
			<path d="M-1 292.15 L-13.17 292.15" class="st1"/>
		</g>
	</g>
</svg>
