<?xml version="1.0" encoding="UTF-8" standalone="no"?>
<!DOCTYPE svg PUBLIC "-//W3C//DTD SVG 1.1//EN" "http://www.w3.org/Graphics/SVG/1.1/DTD/svg11.dtd">
<!-- Generated by Microsoft Visio, SVG Export peer_manager_architecture.svg Page-1 -->
<svg xmlns="http://www.w3.org/2000/svg" xmlns:xlink="http://www.w3.org/1999/xlink" xmlns:ev="http://www.w3.org/2001/xml-events"
		width="5.67734in" height="5.33876in" viewBox="0 0 408.769 384.39" xml:space="preserve" color-interpolation-filters="sRGB"
		class="st8">
	<style type="text/css">
	<![CDATA[
		.st1 {stroke:#000000;stroke-linecap:round;stroke-linejoin:round;stroke-width:0.72}
		.st2 {fill:#c4dbf2;stroke:#000000;stroke-linecap:round;stroke-linejoin:round;stroke-width:0.72}
		.st3 {fill:#000000;font-family:Arial;font-size:1.00001em}
		.st4 {fill:#c4dbf2;stroke:#000000;stroke-linecap:round;stroke-linejoin:round;stroke-width:0.24}
		.st5 {font-size:1em}
		.st6 {marker-end:url(#mrkr13-55);stroke:#000000;stroke-linecap:round;stroke-linejoin:round;stroke-width:0.24}
		.st7 {fill:#000000;fill-opacity:1;stroke:#000000;stroke-opacity:1;stroke-width:0.08695652173913}
		.st8 {fill:none;fill-rule:evenodd;font-size:12px;overflow:visible;stroke-linecap:square;stroke-miterlimit:3}
	]]>
	</style>

	<defs id="Markers">
		<g id="lend13">
			<path d="M 3 1 L 0 0 L 3 -1 L 3 1 " style="stroke:none"/>
		</g>
		<marker id="mrkr13-55" class="st7" refX="-34.5" orient="auto" markerUnits="strokeWidth" overflow="visible">
			<use xlink:href="#lend13" transform="scale(-11.5,-11.5) "/>
		</marker>
	</defs>
	<g>
		<title>Page-1</title>
		<g id="group278-1" transform="translate(4.96922,-140.36)">
			<title>Sheet.278</title>
			<g id="shape279-2">
				<title>Sheet.279</title>
				<path d="M0 163.12 L0 361.99 A22.4037 22.4037 -180 0 0 22.4 384.39 L381.04 384.39 A22.4037 22.4037 -180 0 0 403.44
							 361.99 L403.44 163.12 L0 163.12" class="st1"/>
			</g>
			<g id="shape280-5" transform="translate(0,-221.267)">
				<title>Sheet.280</title>
				<desc>BLE Peer Manager</desc>
				<path d="M403.44 384.39 L0 384.39 A22.4037 22.4037 0 0 1 22.4 361.99 L381.04 361.99 A22.4037 22.4037 0 0 1 403.44
							 384.39 Z" class="st2"/>
				<text x="150.69" y="376.79" class="st3">BLE Peer Manager</text>			</g>
		</g>
		<g id="group284-8" transform="translate(0.36,-0.36)">
			<title>Sheet.284</title>
			<g id="shape285-9">
				<title>Sheet.285</title>
				<path d="M0 301.01 L0 361.99 A22.4037 22.4037 -180 0 0 22.4 384.39 L381.04 384.39 A22.4037 22.4037 -180 0 0 403.44
							 361.99 L403.44 301.01 L0 301.01" class="st1"/>
			</g>
			<g id="shape286-12" transform="translate(0,-83.3833)">
				<title>Sheet.286</title>
				<desc>Flash Data Storage</desc>
				<path d="M403.44 384.39 L0 384.39 A22.4037 22.4037 0 0 1 22.4 361.99 L381.04 361.99 A22.4037 22.4037 0 0 1 403.44
							 384.39 Z" class="st2"/>
				<text x="150.02" y="376.79" class="st3">Flash Data Storage</text>			</g>
		</g>
		<g id="shape287-15" transform="translate(23.5861,-290.36)">
			<title>Sheet.287</title>
			<desc>Security Manager</desc>
			<rect x="0" y="331.497" width="104.823" height="52.8935" class="st4"/>
			<text x="5.39" y="361.54" class="st3">Security Manager</text>		</g>
		<g id="shape288-18" transform="translate(23.5861,-237.466)">
			<title>Sheet.288</title>
			<desc>Security Dispatcher</desc>
			<rect x="0" y="331.497" width="104.823" height="52.8935" class="st4"/>
			<text x="30.74" y="354.34" class="st3">Security <tspan x="23.73" dy="1.2em" class="st5">Dispatcher</tspan></text>		</g>
		<g id="shape289-22" transform="translate(149.668,-237.466)">
			<title>Sheet.289</title>
			<desc>ID Manager</desc>
			<rect x="0" y="278.603" width="104.823" height="105.787" class="st4"/>
			<text x="21.06" y="335.1" class="st3">ID Manager</text>		</g>
		<g id="shape290-25" transform="translate(275.751,-300.36)">
			<title>Sheet.290</title>
			<desc>GATT Cache Manager</desc>
			<rect x="0" y="341.497" width="104.823" height="42.8935" class="st4"/>
			<text x="17.4" y="359.34" class="st3">GATT Cache <tspan x="28.73" dy="1.2em" class="st5">Manager</tspan></text>		</g>
		<g id="shape291-29" transform="translate(275.751,-237.466)">
			<title>Sheet.291</title>
			<desc>GATT Server Cache Manager</desc>
			<rect x="0" y="321.497" width="52.4113" height="62.8935" class="st4"/>
			<text x="10.21" y="334.94" class="st3">GATT <tspan x="8.53" dy="1.2em" class="st5">Server </tspan><tspan x="8.86"
						dy="1.2em" class="st5">Cache </tspan><tspan x="2.52" dy="1.2em" class="st5">Manager</tspan></text>		</g>
		<g id="shape317-35" transform="translate(328.162,-237.466)">
			<title>Sheet.317</title>
			<desc>GATT Client Cache Manager</desc>
			<rect x="0" y="321.497" width="52.4113" height="62.8935" class="st4"/>
			<text x="10.21" y="334.94" class="st3">GATT <tspan x="10.87" dy="1.2em" class="st5">Client </tspan><tspan x="8.86"
						dy="1.2em" class="st5">Cache </tspan><tspan x="2.52" dy="1.2em" class="st5">Manager</tspan></text>		</g>
		<g id="shape318-41" transform="translate(23.5861,-190.36)">
			<title>Sheet.318</title>
			<desc>Peer Database</desc>
			<rect x="0" y="358.544" width="356.987" height="25.8467" class="st4"/>
			<text x="138.47" y="375.07" class="st3">Peer Database</text>		</g>
		<g id="shape346-44" transform="translate(23.5861,-159.867)">
			<title>Sheet.346</title>
			<desc>Peer Data Storage</desc>
			<rect x="0" y="358.544" width="356.987" height="25.8467" class="st4"/>
			<text x="128.8" y="375.07" class="st3">Peer Data Storage</text>		</g>
		<g id="shape347-47" transform="translate(23.5861,-9.58305)">
			<title>Sheet.347</title>
			<desc>fstorage</desc>
			<rect x="0" y="321.497" width="356.987" height="62.8935" class="st4"/>
			<text x="156.81" y="356.54" class="st3">fstorage</text>		</g>
		<g id="shape348-50" transform="translate(586.47,224.524) rotate(90)">
			<title>Sheet.348</title>
			<path d="M0 384.39 L46.23 384.39" class="st6"/>
		</g>
		<g id="shape349-56" transform="translate(492.799,224.524) rotate(90)">
			<title>Sheet.349</title>
			<path d="M0 384.39 L46.23 384.39" class="st6"/>
		</g>
		<g id="shape350-61" transform="translate(682.799,224.524) rotate(90)">
			<title>Sheet.350</title>
			<path d="M0 384.39 L46.23 384.39" class="st6"/>
		</g>
	</g>
</svg>
