<?xml version="1.0" encoding="UTF-8" standalone="no"?>
<!DOCTYPE svg PUBLIC "-//W3C//DTD SVG 1.1//EN" "http://www.w3.org/Graphics/SVG/1.1/DTD/svg11.dtd">
<!-- Generated by Microsoft Visio, SVG Export ppi_example.svg Page-1 -->
<svg xmlns="http://www.w3.org/2000/svg" xmlns:xlink="http://www.w3.org/1999/xlink" xmlns:ev="http://www.w3.org/2001/xml-events"
		width="7.91253in" height="3.27416in" viewBox="0 0 569.702 235.74" xml:space="preserve" color-interpolation-filters="sRGB"
		class="st8">
	<style type="text/css">
	<![CDATA[
		.st1 {fill:#c4dbf2;stroke:#000000;stroke-linecap:round;stroke-linejoin:round;stroke-width:0.24}
		.st2 {fill:#000000;font-family:Arial;font-size:1.00001em}
		.st3 {font-size:1em;font-style:italic}
		.st4 {font-size:1em}
		.st5 {marker-end:url(#mrkr13-28);stroke:#000000;stroke-linecap:round;stroke-linejoin:round;stroke-width:0.24}
		.st6 {fill:#000000;fill-opacity:1;stroke:#000000;stroke-opacity:1;stroke-width:0.08695652173913}
		.st7 {fill:#ffffff;stroke:none;stroke-linecap:butt;stroke-width:7.2}
		.st8 {fill:none;fill-rule:evenodd;font-size:12px;overflow:visible;stroke-linecap:square;stroke-miterlimit:3}
	]]>
	</style>

	<defs id="Markers">
		<g id="lend13">
			<path d="M 3 1 L 0 0 L 3 -1 L 3 1 " style="stroke:none"/>
		</g>
		<marker id="mrkr13-28" class="st6" refX="-34.5" orient="auto" markerUnits="strokeWidth" overflow="visible">
			<use xlink:href="#lend13" transform="scale(-11.5,-11.5) "/>
		</marker>
	</defs>
	<g>
		<title>Page-1</title>
		<g id="shape351-1" transform="translate(0.12,-128.673)">
			<title>Sheet.351</title>
			<desc>Timer 1</desc>
			<rect x="0" y="204.293" width="64.8225" height="31.4468" class="st1"/>
			<text x="12.08" y="223.62" class="st2">Timer 1</text>		</g>
		<g id="shape352-4" transform="translate(0.12,-75.9667)">
			<title>Sheet.352</title>
			<desc>Timer 2</desc>
			<rect x="0" y="204.293" width="64.8225" height="31.4468" class="st1"/>
			<text x="12.08" y="223.62" class="st2">Timer 2</text>		</g>
		<g id="shape353-7" transform="translate(272.531,-128.673)">
			<title>Sheet.353</title>
			<desc>PPI CH0</desc>
			<rect x="0" y="204.293" width="64.8225" height="31.4468" class="st1"/>
			<text x="9.07" y="223.62" class="st2">PPI CH0</text>		</g>
		<g id="shape354-10" transform="translate(272.531,-75.9667)">
			<title>Sheet.354</title>
			<desc>PPI CH1</desc>
			<rect x="0" y="204.293" width="64.8225" height="31.4468" class="st1"/>
			<text x="9.07" y="223.62" class="st2">PPI CH1</text>		</g>
		<g id="shape355-13" transform="translate(442.176,-75.9667)">
			<title>Sheet.355</title>
			<desc>Timer 0</desc>
			<rect x="0" y="151.586" width="84.8225" height="84.1533" class="st1"/>
			<text x="22.08" y="197.26" class="st2">Timer 0</text>		</g>
		<g id="shape356-16" transform="translate(442.176,-0.12)">
			<title>Sheet.356</title>
			<desc>Print m_counter on value change</desc>
			<rect x="0" y="181.153" width="84.8225" height="54.5868" class="st1"/>
			<text x="30.07" y="197.63" class="st2">Print <tspan x="5.72" dy="1.202em" class="st3">m</tspan><tspan class="st3">_</tspan><tspan
						class="st3">counter</tspan> on <tspan x="6.72" dy="1.201em" class="st4">value change</tspan></text>		</g>
		<g id="shape358-23" transform="translate(64.9425,-144.397)">
			<title>Sheet.358</title>
			<desc>CC[0] event at 2,4,6,… seconds</desc>
			<path d="M0 235.74 L199.31 235.74" class="st5"/>
			<rect x="20.8727" y="227.093" width="170.095" height="14.4001" class="st7"/>
			<text x="20.87" y="237.89" class="st2">CC[0] event at 2,4,6,… seconds</text>		</g>
		<g id="shape359-31" transform="translate(64.9425,-91.69)">
			<title>Sheet.359</title>
			<desc>CC[0] event at 3,5,7,… seconds</desc>
			<path d="M0 235.74 L199.31 235.74" class="st5"/>
			<rect x="18.4614" y="230.11" width="170.095" height="14.4001" class="st7"/>
			<text x="18.46" y="240.91" class="st2">CC[0] event at 3,5,7,… seconds</text>		</g>
		<g id="shape360-38" transform="translate(342.465,-144.341) rotate(1.24237)">
			<title>Sheet.360</title>
			<desc>STOP TASK</desc>
			<path d="M0 235.74 L96.57 235.74" class="st5"/>
			<rect x="10.7426" y="228.148" width="67.3487" height="14.4001" transform="rotate(-1.24237)" class="st7"/>
			<text x="10.74" y="238.95" transform="rotate(-1.24237)" class="st2">STOP TASK</text>		</g>
		<g id="shape361-45" transform="translate(332.243,-91.6346) rotate(-1.24237)">
			<title>Sheet.361</title>
			<desc>START TASK</desc>
			<path d="M0 235.74 L96.57 235.74" class="st5"/>
			<rect x="16.5898" y="226.796" width="74.0108" height="14.4001" transform="rotate(1.24237)" class="st7"/>
			<text x="16.59" y="237.6" transform="rotate(1.24237)" class="st2">START TASK</text>		</g>
		<g id="shape362-52" transform="translate(720.327,159.773) rotate(90)">
			<title>Sheet.362</title>
			<path d="M0 235.74 L12.98 235.74" class="st5"/>
		</g>
		<g id="shape366-57" transform="translate(720.327,31.0863) rotate(90)">
			<title>Sheet.366</title>
			<desc>Increment the m_counter variable every 100 ms (unless the tim...</desc>
			<path d="M0 235.74 L36.25 235.74" class="st5"/>
			<rect x="-308.696" y="-27.0842" width="150.735" height="43.2353" transform="rotate(-90)" class="st7"/>
			<text x="-300.03" y="-16.26" transform="rotate(-90)" class="st2">Increment the <tspan class="st3">m</tspan><tspan
						class="st3">_</tspan><tspan class="st3">counter</tspan> <tspan x="-292.02" dy="1.201em" class="st4">variable every </tspan>100 ms<tspan
						x="-308.7" dy="1.2em" class="st4">(</tspan>unless the timer is stopped) </text>		</g>
	</g>
</svg>
