<?xml version="1.0" encoding="UTF-8" standalone="no"?>
<!DOCTYPE svg PUBLIC "-//W3C//DTD SVG 1.1//EN" "http://www.w3.org/Graphics/SVG/1.1/DTD/svg11.dtd">
<!-- Generated by Microsoft Visio, SVG Export ram_retention_example.svg Page-1 -->
<svg xmlns="http://www.w3.org/2000/svg" xmlns:xlink="http://www.w3.org/1999/xlink" xmlns:ev="http://www.w3.org/2001/xml-events"
		width="9.49026in" height="6.63916in" viewBox="0 0 683.299 478.02" xml:space="preserve" color-interpolation-filters="sRGB"
		class="st10">
	<style type="text/css">
	<![CDATA[
		.st1 {fill:#c4dbf2;stroke:#000000;stroke-linecap:round;stroke-linejoin:round;stroke-width:0.24}
		.st2 {fill:#000000;font-family:Arial;font-size:1.00001em}
		.st3 {marker-end:url(#mrkr13-9);stroke:#000000;stroke-linecap:round;stroke-linejoin:round;stroke-width:0.24}
		.st4 {fill:#000000;fill-opacity:1;stroke:#000000;stroke-opacity:1;stroke-width:0.08695652173913}
		.st5 {fill:#ffffff;stroke:none;stroke-linecap:butt;stroke-width:7.2}
		.st6 {font-size:1em}
		.st7 {fill:#4677bf;fill-opacity:1;stroke:#4677bf;stroke-opacity:1;stroke-width:0.16556291390728}
		.st8 {marker-end:url(#mrkr4-37);stroke:#000000;stroke-linecap:round;stroke-linejoin:round;stroke-width:0.5}
		.st9 {fill:#000000;fill-opacity:1;stroke:#000000;stroke-opacity:1;stroke-width:0.16556291390728}
		.st10 {fill:none;fill-rule:evenodd;font-size:12px;overflow:visible;stroke-linecap:square;stroke-miterlimit:3}
	]]>
	</style>

	<defs id="Markers">
		<g id="lend13">
			<path d="M 3 1 L 0 0 L 3 -1 L 3 1 " style="stroke:none"/>
		</g>
		<marker id="mrkr13-9" class="st4" refX="-34.5" orient="auto" markerUnits="strokeWidth" overflow="visible">
			<use xlink:href="#lend13" transform="scale(-11.5,-11.5) "/>
		</marker>
		<g id="lend4">
			<path d="M 2 1 L 0 0 L 2 -1 L 2 1 " style="stroke:none"/>
		</g>
		<marker id="mrkr4-28" class="st7" refX="-12.08" orient="auto" markerUnits="strokeWidth" overflow="visible">
			<use xlink:href="#lend4" transform="scale(-6.04,-6.04) "/>
		</marker>
		<marker id="mrkr4-37" class="st9" refX="-12.08" orient="auto" markerUnits="strokeWidth" overflow="visible">
			<use xlink:href="#lend4" transform="scale(-6.04,-6.04) "/>
		</marker>
	</defs>
	<g>
		<title>Page-1</title>
		<g id="shape240-1" transform="translate(204.12,-440.9)">
			<title>Process.245</title>
			<desc>RESET</desc>
			<rect x="0" y="441.02" width="72" height="37" class="st1"/>
			<text x="16" y="463.12" class="st2">RESET</text>		</g>
		<g id="shape250-4" transform="translate(718.14,37.12) rotate(90)">
			<title>Flowline1</title>
			<path d="M0 478.02 L19.72 478.02" class="st3"/>
		</g>
		<g id="shape251-10" transform="translate(178.12,-375.9)">
			<title>Process.251</title>
			<desc>Configure BSP</desc>
			<rect x="0" y="441.02" width="124" height="37" class="st1"/>
			<text x="22.31" y="463.12" class="st2">Configure BSP</text>		</g>
		<g id="shape252-13" transform="translate(718.14,102.12) rotate(90)">
			<title>Flowline1.252</title>
			<desc>READ GPREGRET Register</desc>
			<path d="M0 478.02 L49.72 478.02" class="st3"/>
			<rect x="-555.706" y="20.8002" width="152.035" height="14.4001" transform="rotate(-90)" class="st5"/>
			<text x="-555.71" y="31.6" transform="rotate(-90)" class="st2">READ GPREGRET Register</text>		</g>
		<g id="shape254-20" transform="translate(0.12,-195.9)">
			<title>Process.254</title>
			<desc>Write to GPREGRET test word + loop_count</desc>
			<rect x="0" y="441.02" width="175" height="37" class="st1"/>
			<text x="31.49" y="455.92" class="st2">Write to GPREGRET  <tspan x="26.96" dy="1.2em" class="st6">test word </tspan>+ loop_count</text>		</g>
		<g id="group256-24" transform="translate(318.87,-280.4)">
			<title>Flowline2</title>
			<desc>YES</desc>
			<g id="shape257-25" transform="translate(485.268,517.399) rotate(90)">
				<title>Straight Edge.28</title>
				<desc>N</desc>
			</g>
			<g id="shape258-29" transform="translate(-9.25363,9.00182)">
				<title>Straight Edge.29</title>
				<desc>N</desc>
			</g>
			<g id="shape256-32">
				<path d="M8.75 478.02 L12.5 478.02 A3.75 3.75 0 0 1 16.25 481.77 L16.25 511.36" class="st8"/>
				<rect x="4.24397" y="486.76" width="24.0123" height="14.4001" class="st5"/>
				<text x="4.24" y="497.56" class="st2">YES</text>			</g>
		</g>
		<g id="group259-40" transform="translate(152.62,-280.4)">
			<title>Flowline2.259</title>
			<desc>NO</desc>
			<g id="shape260-41" transform="translate(404.018,525.52) rotate(90)">
				<title>Straight Edge.28</title>
				<desc>N</desc>
			</g>
			<g id="shape261-44" transform="translate(18.0036,947.037) rotate(180)">
				<title>Straight Edge.29</title>
				<desc>N</desc>
			</g>
			<g id="shape259-47">
				<path d="M0 478.02 L-47 478.02 A18 18 -180 0 0 -65 496.02 L-65 519.48" class="st8"/>
				<rect x="-65.2499" y="470.82" width="18" height="14.4001" class="st5"/>
				<text x="-65.25" y="481.62" class="st2">NO</text>			</g>
		</g>
		<g id="group262-54" transform="translate(402.62,-206.02)">
			<title>Flowline2.262</title>
			<desc>NO</desc>
			<g id="shape263-55" transform="translate(498.518,504.899) rotate(90)">
				<title>Straight Edge.28</title>
				<desc>N</desc>
			</g>
			<g id="shape264-58" transform="translate(-18.0036,9.00182)">
				<title>Straight Edge.29</title>
				<desc>N</desc>
			</g>
			<g id="shape262-61">
				<path d="M0 478.02 L16.06 478.02 A13.44 13.44 0 0 1 29.5 491.46 L29.5 498.86" class="st8"/>
				<rect x="19.1901" y="470.82" width="18" height="14.4001" class="st5"/>
				<text x="19.19" y="481.62" class="st2">NO</text>			</g>
		</g>
		<g id="group265-68" transform="translate(275.505,-206.02)">
			<title>Flowline2.265</title>
			<desc>YES</desc>
			<g id="shape266-69" transform="translate(451.902,526.399) rotate(90)">
				<title>Straight Edge.28</title>
				<desc>N</desc>
			</g>
			<g id="shape267-72" transform="translate(10.119,947.037) rotate(180)">
				<title>Straight Edge.29</title>
				<desc>N</desc>
			</g>
			<g id="shape265-75">
				<path d="M-7.88 478.02 L-12.5 478.02 A4.61538 4.61538 -180 0 0 -17.12 482.63 L-17.12 520.36" class="st8"/>
				<rect x="-29.1214" y="490.394" width="24.0123" height="14.4001" class="st5"/>
				<text x="-29.12" y="501.19" class="st2">YES</text>			</g>
		</g>
		<g id="shape268-82" transform="translate(222.389,-130.64)">
			<title>Start/End-point</title>
			<desc>STOP</desc>
			<path d="M13.5 478.02 L58.5 478.02 A13.5 13.5 -180 0 0 58.5 451.02 L13.5 451.02 A13.5 13.5 -180 1 0 13.5 478.02 Z"
					class="st1"/>
			<text x="19.66" y="468.12" class="st2">STOP</text>		</g>
		<g id="shape270-85" transform="translate(494.12,-144.14)">
			<title>Flowline1.270</title>
			<desc>FAILURE</desc>
			<path d="M0 478.02 L52.72 478.02" class="st3"/>
			<rect x="6.49214" y="479.56" width="50.6783" height="14.4001" class="st5"/>
			<text x="6.49" y="490.36" class="st2">FAILURE</text>		</g>
		<g id="shape271-92" transform="translate(555.12,-125.64)">
			<title>Process.271</title>
			<desc>Loop forever</desc>
			<rect x="0" y="441.02" width="72" height="37" class="st1"/>
			<text x="2.31" y="463.12" class="st2">Loop forever</text>		</g>
		<g id="group273-95" transform="translate(432.12,-109.14)">
			<title>Flowline2.273</title>
			<desc>SUCCESS</desc>
			<g id="shape274-96" transform="translate(-47,981.277) rotate(180)">
				<title>Straight Edge.28</title>
				<desc>N</desc>
			</g>
			<g id="shape275-99" transform="translate(469.018,460.016) rotate(90)">
				<title>Straight Edge.29</title>
				<desc>N</desc>
			</g>
			<g id="shape273-102">
				<path d="M0 478.02 L0 495.14 A17.1201 17.1201 0 0 1 -17.12 512.26 L-40.96 512.26" class="st8"/>
				<rect x="-26.0071" y="487.06" width="58.0144" height="14.4001" class="st5"/>
				<text x="-26.01" y="497.86" class="st2">SUCCESS</text>			</g>
		</g>
		<g id="group276-109" transform="translate(335.12,-47.8995)">
			<title>Flowline2.276</title>
			<desc>False</desc>
			<g id="shape277-110" transform="translate(-129.841,400.279) rotate(-90)">
				<title>Straight Edge.28</title>
				<desc>N</desc>
			</g>
			<g id="shape278-113" transform="translate(385.841,293.662) rotate(90)">
				<title>Straight Edge.29</title>
				<desc>N</desc>
			</g>
			<g id="shape276-116">
				<path d="M0 478.02 L0 493.02 A15 15 -180 0 0 15 508.02 L238 508.02 A18 18 -180 0 0 256 490.02 L256 406.32"
						class="st8"/>
				<rect x="152.198" y="500.82" width="29.3442" height="14.4001" class="st5"/>
				<text x="152.2" y="511.62" class="st2">False</text>			</g>
		</g>
		<g id="shape281-123" transform="translate(565.64,282.12) rotate(90)">
			<title>Flowline1.281</title>
			<path d="M0 478.02 L19.98 478.02" class="st3"/>
		</g>
		<g id="shape282-128" transform="translate(0.12,-130.64)">
			<title>Process.282</title>
			<desc>Enable RAM RENTENTION</desc>
			<rect x="0" y="441.02" width="175" height="37" class="st1"/>
			<text x="13.15" y="463.12" class="st2">Enable RAM RENTENTION</text>		</g>
		<g id="shape283-131" transform="translate(565.64,347.38) rotate(90)">
			<title>Flowline1.283</title>
			<path d="M0 478.02 L19.98 478.02" class="st3"/>
		</g>
		<g id="shape284-136" transform="translate(0.12,-65.3798)">
			<title>Process.284</title>
			<desc>WRITE_TEST_BYTE_TO_RAM</desc>
			<rect x="0" y="441.02" width="175" height="37" class="st1"/>
			<text x="2.15" y="463.12" class="st2">WRITE_TEST_BYTE_TO_RAM</text>		</g>
		<g id="shape285-139" transform="translate(565.64,412.64) rotate(90)">
			<title>Flowline1.285</title>
			<path d="M0 478.02 L19.98 478.02" class="st3"/>
		</g>
		<g id="shape286-144" transform="translate(20.12,-0.12)">
			<title>Process.286</title>
			<desc>Trigger Sysytem OFF</desc>
			<rect x="0" y="441.02" width="135" height="37" class="st1"/>
			<text x="10.16" y="463.12" class="st2">Trigger Sysytem OFF</text>		</g>
		<g id="group287-147" transform="translate(285.12,-74.8995)">
			<title>Flowline2.287</title>
			<desc>True</desc>
			<g id="shape288-148" transform="translate(-110,807.537) rotate(180)">
				<title>Straight Edge.28</title>
				<desc>N</desc>
			</g>
			<g id="shape289-151" transform="translate(18.0036,947.037) rotate(180)">
				<title>Straight Edge.29</title>
				<desc>N</desc>
			</g>
			<g id="shape287-154">
				<path d="M0 478.02 L-52 478.02 A18 18 0 0 1 -70 460.02 L-70 356.52 A18 18 -180 0 0 -88 338.52 L-103.96 338.52"
						class="st8"/>
				<rect x="-82.3369" y="437.82" width="24.6739" height="14.4001" class="st5"/>
				<text x="-82.34" y="448.62" class="st2">True</text>			</g>
		</g>
		<g id="shape290-161" transform="translate(152.62,-232.9)">
			<title>Decision.251</title>
			<desc>SYSTEM_OFF_RESET?</desc>
			<path d="M0 430.52 L87.5 383.02 L175 430.52 L87.5 478.02 L0 430.52 Z" class="st1"/>
			<text x="20.82" y="434.12" class="st2">SYSTEM_OFF_RESET?</text>		</g>
		<g id="shape292-164" transform="translate(267.62,-171.02)">
			<title>Decision.292</title>
			<desc>Read loop count/MAX reached?</desc>
			<path d="M0 443.02 L67.5 408.02 L135 443.02 L67.5 478.02 L0 443.02 Z" class="st1"/>
			<text x="22.13" y="439.42" class="st2">Read loop count/<tspan x="27.81" dy="1.2em" class="st6">MAX reached</tspan>?</text>		</g>
		<g id="shape295-168" transform="translate(370.12,-109.14)">
			<title>Decision.295</title>
			<desc>Verify RAM retention?</desc>
			<path d="M0 443.02 L62 408.02 L124 443.02 L62 478.02 L0 443.02 Z" class="st1"/>
			<text x="31.66" y="439.42" class="st2">Verify RAM <tspan x="35.31" dy="1.2em" class="st6">retention</tspan>?</text>		</g>
		<g id="shape455-172" transform="translate(285.12,-47.8995)">
			<title>Decision.455</title>
			<desc>++ Loop &#60; 6?</desc>
			<path d="M0 451.02 L50 424.02 L100 451.02 L50 478.02 L0 451.02 Z" class="st1"/>
			<text x="14.47" y="454.62" class="st2">++ Loop &#60; 6?</text>		</g>
	</g>
</svg>
