<?xml version="1.0" encoding="UTF-8" standalone="no"?>
<!DOCTYPE svg PUBLIC "-//W3C//DTD SVG 1.1//EN" "http://www.w3.org/Graphics/SVG/1.1/DTD/svg11.dtd">
<!-- Generated by Microsoft Visio, SVG Export relay_example.svg Page-1 -->
<svg xmlns="http://www.w3.org/2000/svg" xmlns:xlink="http://www.w3.org/1999/xlink" xmlns:ev="http://www.w3.org/2001/xml-events"
		width="6.54066in" height="2.00542in" viewBox="0 0 470.927 144.39" xml:space="preserve" color-interpolation-filters="sRGB"
		class="st9">
	<style type="text/css">
	<![CDATA[
		.st1 {fill:#c4dbf2;stroke:#000000;stroke-linecap:round;stroke-linejoin:round;stroke-width:0.24}
		.st2 {fill:#000000;font-family:Arial;font-size:1.00001em}
		.st3 {font-size:1em}
		.st4 {stroke:#000000;stroke-linecap:round;stroke-linejoin:round;stroke-width:0.72}
		.st5 {fill:#c4dbf2;stroke:#000000;stroke-linecap:round;stroke-linejoin:round;stroke-width:0.72}
		.st6 {marker-end:url(#mrkr13-39);stroke:#000000;stroke-linecap:round;stroke-linejoin:round;stroke-width:0.24}
		.st7 {fill:#000000;fill-opacity:1;stroke:#000000;stroke-opacity:1;stroke-width:0.08695652173913}
		.st8 {fill:none;stroke:none;stroke-linecap:round;stroke-linejoin:round;stroke-width:0.75}
		.st9 {fill:none;fill-rule:evenodd;font-size:12px;overflow:visible;stroke-linecap:square;stroke-miterlimit:3}
	]]>
	</style>

	<defs id="Markers">
		<g id="lend13">
			<path d="M 3 1 L 0 0 L 3 -1 L 3 1 " style="stroke:none"/>
		</g>
		<marker id="mrkr13-39" class="st7" refX="-34.5" orient="auto" markerUnits="strokeWidth" overflow="visible">
			<use xlink:href="#lend13" transform="scale(-11.5,-11.5) "/>
		</marker>
	</defs>
	<g>
		<title>Page-1</title>
		<g id="shape367-1" transform="translate(2.96375,-80.36)">
			<title>Sheet.367</title>
			<desc>Heart Rate Sensor</desc>
			<rect x="0" y="112.944" width="104.823" height="31.4468" class="st1"/>
			<text x="2.72" y="132.27" class="st2">Heart Rate Sensor</text>		</g>
		<g id="shape368-4" transform="translate(2.96375,-21.1608)">
			<title>Sheet.368</title>
			<desc>Running Speed Sensor</desc>
			<rect x="0" y="112.944" width="104.823" height="31.4468" class="st1"/>
			<text x="11.04" y="125.07" class="st2">Running Speed <tspan x="33.4" dy="1.2em" class="st3">Sensor</tspan></text>		</g>
		<g id="shape369-8" transform="translate(160.552,-80.36)">
			<title>Sheet.369</title>
			<desc>Heart Rate Collector</desc>
			<rect x="0" y="112.944" width="90" height="31.4468" class="st1"/>
			<text x="15.99" y="125.07" class="st2">Heart Rate <tspan x="21.32" dy="1.2em" class="st3">Collector</tspan></text>		</g>
		<g id="shape370-12" transform="translate(160.552,-21.1608)">
			<title>Sheet.370</title>
			<desc>Running Speed Collector</desc>
			<rect x="0" y="112.944" width="90.355" height="31.4468" class="st1"/>
			<text x="3.81" y="125.07" class="st2">Running Speed <tspan x="21.5" dy="1.2em" class="st3">Collector</tspan></text>		</g>
		<g id="shape371-16" transform="translate(285.73,-21.1608)">
			<title>Sheet.371</title>
			<desc>Heart Rate Sensor and Running Speed Sensor</desc>
			<rect x="0" y="53.7445" width="74.8225" height="90.6459" class="st1"/>
			<text x="8.4" y="66.67" class="st2">Heart Rate <tspan x="18.4" dy="1.2em" class="st3">Sensor  </tspan><tspan x="27.4"
						dy="1.2em" class="st3">and  </tspan><tspan x="15.06" dy="1.2em" class="st3">Running </tspan><tspan
						x="20.06" dy="1.2em" class="st3">Speed </tspan><tspan x="18.4" dy="1.2em" class="st3">Sensor</tspan></text>		</g>
		<g id="shape372-24" transform="translate(395.73,-50.7604)">
			<title>Sheet.372</title>
			<desc>Collector</desc>
			<rect x="0" y="112.944" width="74.8225" height="31.4468" class="st1"/>
			<text x="13.74" y="132.27" class="st2">Collector</text>		</g>
		<g id="group373-27" transform="translate(150.552,-0.36)">
			<title>Sheet.373</title>
			<g id="shape374-28">
				<title>Sheet.374</title>
				<path d="M0 23.12 L0 121.99 A22.4037 22.4037 -180 0 0 22.4 144.39 L197.6 144.39 A22.4037 22.4037 -180 0 0 220 121.99
							 L220 23.12 L0 23.12" class="st4"/>
			</g>
			<g id="shape375-31" transform="translate(0,-121.267)">
				<title>Sheet.375</title>
				<desc>Relay</desc>
				<path d="M220 144.39 L0 144.39 A22.4037 22.4037 0 0 1 22.4 121.99 L197.6 121.99 A22.4037 22.4037 0 0 1 220 144.39
							 Z" class="st5"/>
				<text x="94.66" y="136.79" class="st2">Relay</text>			</g>
		</g>
		<g id="shape376-34" transform="translate(107.786,-96.0834)">
			<title>Sheet.376</title>
			<path d="M0 144.39 L44.49 144.39" class="st6"/>
		</g>
		<g id="shape377-40" transform="translate(107.786,-36.8842)">
			<title>Sheet.377</title>
			<path d="M0 144.39 L44.49 144.39" class="st6"/>
		</g>
		<g id="shape378-45" transform="translate(250.552,-96.0834)">
			<title>Sheet.378</title>
			<path d="M0 144.39 L26.9 144.39" class="st6"/>
		</g>
		<g id="shape379-50" transform="translate(250.907,-36.8842)">
			<title>Sheet.379</title>
			<path d="M0 144.39 L26.54 144.39" class="st6"/>
		</g>
		<g id="shape380-55" transform="translate(360.552,-66.4838)">
			<title>Sheet.380</title>
			<path d="M0 144.39 L26.9 144.39" class="st6"/>
		</g>
		<g id="shape381-60" transform="translate(0.375,-120.36)">
			<title>Sheet.381</title>
			<desc>Peripheral</desc>
			<rect x="0" y="121.39" width="110" height="23" class="st8"/>
			<text x="27.65" y="136.49" class="st2">Peripheral</text>		</g>
		<g id="shape382-63" transform="translate(395.552,-119.96)">
			<title>Sheet.382</title>
			<desc>Central</desc>
			<rect x="0" y="121.39" width="75" height="23" class="st8"/>
			<text x="18.16" y="136.49" class="st2">Central</text>		</g>
	</g>
</svg>
