<?xml version="1.0" encoding="UTF-8" standalone="no"?>
<!DOCTYPE svg PUBLIC "-//W3C//DTD SVG 1.1//EN" "http://www.w3.org/Graphics/SVG/1.1/DTD/svg11.dtd">
<!-- Generated by Microsoft Visio, SVG Export scheduler_working.svg Page-1 -->
<svg xmlns="http://www.w3.org/2000/svg" xmlns:xlink="http://www.w3.org/1999/xlink" xmlns:ev="http://www.w3.org/2001/xml-events"
		width="5.73095in" height="3.31453in" viewBox="0 0 412.629 238.646" xml:space="preserve" color-interpolation-filters="sRGB"
		class="st9">
	<style type="text/css">
	<![CDATA[
		.st1 {stroke:#000000;stroke-linecap:round;stroke-linejoin:round;stroke-width:0.72}
		.st2 {fill:#c4dbf2;stroke:#000000;stroke-linecap:round;stroke-linejoin:round;stroke-width:0.72}
		.st3 {fill:#000000;font-family:Arial;font-size:1.00001em}
		.st4 {fill:#c4dbf2;stroke:#000000;stroke-linecap:round;stroke-linejoin:round;stroke-width:0.24}
		.st5 {fill:none;stroke:#000000;stroke-linecap:round;stroke-linejoin:round;stroke-width:0.75}
		.st6 {font-size:1em}
		.st7 {marker-end:url(#mrkr13-37);stroke:#000000;stroke-linecap:round;stroke-linejoin:round;stroke-width:0.24}
		.st8 {fill:#000000;fill-opacity:1;stroke:#000000;stroke-opacity:1;stroke-width:0.08695652173913}
		.st9 {fill:none;fill-rule:evenodd;font-size:12px;overflow:visible;stroke-linecap:square;stroke-miterlimit:3}
	]]>
	</style>

	<defs id="Markers">
		<g id="lend13">
			<path d="M 3 1 L 0 0 L 3 -1 L 3 1 " style="stroke:none"/>
		</g>
		<marker id="mrkr13-37" class="st8" refX="-34.5" orient="auto" markerUnits="strokeWidth" overflow="visible">
			<use xlink:href="#lend13" transform="scale(-11.5,-11.5) "/>
		</marker>
	</defs>
	<g>
		<title>Page-1</title>
		<g id="group227-1" transform="translate(14.7538,-123.271)">
			<title>Sheet.227</title>
			<g id="shape228-2">
				<title>Sheet.228</title>
				<path d="M0 156.05 L0 216.24 A22.4037 22.4037 -180 0 0 22.4 238.65 L360.1 238.65 A22.4037 22.4037 -180 0 0 382.5
							 216.24 L382.5 156.05 L0 156.05" class="st1"/>
			</g>
			<g id="shape229-5" transform="translate(0,-82.5963)">
				<title>Sheet.229</title>
				<desc>Application handlers</desc>
				<path d="M382.5 238.65 L0 238.65 A22.4037 22.4037 0 0 1 22.4 216.24 L360.1 216.24 A22.4037 22.4037 0 0 1 382.5 238.65
							 Z" class="st2"/>
				<text x="137.21" y="231.04" class="st3">Application handlers</text>			</g>
		</g>
		<g id="shape230-8" transform="translate(27.4313,-135.461)">
			<title>Sheet.230</title>
			<desc>Handler 1</desc>
			<rect x="0" y="175.753" width="104.823" height="62.8935" class="st4"/>
			<text x="26.4" y="210.8" class="st3">Handler 1</text>		</g>
		<g id="shape231-11" transform="translate(153.514,-135.461)">
			<title>Sheet.231</title>
			<desc>Handler 2</desc>
			<rect x="0" y="175.753" width="104.823" height="62.8935" class="st4"/>
			<text x="26.4" y="210.8" class="st3">Handler 2</text>		</g>
		<g id="shape232-14" transform="translate(279.596,-135.461)">
			<title>Sheet.232</title>
			<desc>Handler 3</desc>
			<rect x="0" y="175.753" width="104.823" height="62.8935" class="st4"/>
			<text x="26.4" y="210.8" class="st3">Handler 3</text>		</g>
		<g id="shape236-17" transform="translate(0.375,-0.375)">
			<title>Sheet.236</title>
			<rect x="0" y="0.750002" width="411.879" height="237.896" rx="22.5" ry="22.5" class="st5"/>
		</g>
		<g id="shape237-19" transform="translate(25.862,-67.5284)">
			<title>Sheet.237</title>
			<desc>Timer</desc>
			<rect x="0" y="205.423" width="121.879" height="33.2234" class="st4"/>
			<text x="45.61" y="225.63" class="st3">Timer</text>		</g>
		<g id="shape238-22" transform="translate(169.001,-67.5284)">
			<title>Sheet.238</title>
			<desc>Scheduler</desc>
			<rect x="0" y="205.423" width="179.645" height="33.2234" class="st4"/>
			<text x="62.8" y="225.63" class="st3">Scheduler</text>		</g>
		<g id="shape239-25" transform="translate(25.862,-11.7857)">
			<title>Sheet.239</title>
			<desc>RTC</desc>
			<rect x="0" y="205.423" width="77.4113" height="33.2234" class="st4"/>
			<text x="26.37" y="225.63" class="st3">RTC</text>		</g>
		<g id="shape240-28" transform="translate(117.254,-11.7857)">
			<title>Sheet.240</title>
			<desc>Hardware drivers and interrupts (e.g. push buttons)</desc>
			<rect x="0" y="205.423" width="230.372" height="33.2234" class="st4"/>
			<text x="31.15" y="218.43" class="st3">Hardware drivers and interrupts  <tspan x="65.16" dy="1.2em" class="st6">(</tspan>e.g. push buttons)</text>		</g>
		<g id="shape241-32" transform="translate(325.447,115.375) rotate(90)">
			<title>Sheet.241</title>
			<path d="M0 238.65 L14.24 238.65" class="st7"/>
		</g>
		<g id="shape242-38" transform="translate(515.9,115.375) rotate(90)">
			<title>Sheet.242</title>
			<path d="M0 238.65 L14.24 238.65" class="st7"/>
		</g>
		<g id="shape243-43" transform="translate(3.60764,137.894) rotate(-90)">
			<title>Sheet.243</title>
			<path d="M0 238.65 L14.24 238.65" class="st7"/>
		</g>
		<g id="shape244-48" transform="translate(20.1769,193.637) rotate(-90)">
			<title>Sheet.244</title>
			<path d="M0 238.65 L14.24 238.65" class="st7"/>
		</g>
		<g id="shape245-53" transform="translate(-106.392,193.637) rotate(-90)">
			<title>Sheet.245</title>
			<path d="M0 238.65 L14.24 238.65" class="st7"/>
		</g>
		<g id="shape246-58" transform="translate(-174.079,193.637) rotate(-90)">
			<title>Sheet.246</title>
			<path d="M0 238.65 L14.24 238.65" class="st7"/>
		</g>
		<g id="shape247-63" transform="translate(147.741,-84.1401)">
			<title>Sheet.247</title>
			<path d="M0 238.65 L12.98 238.65" class="st7"/>
		</g>
		<g id="shape248-68" transform="translate(370.843,-123.271)">
			<title>Sheet.248</title>
			<path d="M-1.78 238.65 L-1.78 333.52 L-14.94 333.52" class="st7"/>
		</g>
	</g>
</svg>
