<?xml version="1.0" encoding="UTF-8" standalone="no"?>
<!DOCTYPE svg PUBLIC "-//W3C//DTD SVG 1.1//EN" "http://www.w3.org/Graphics/SVG/1.1/DTD/svg11.dtd">
<!-- Generated by Microsoft Visio, SVG Export ser_hal_transport_rx_state_machine.svg Page-1 -->
<svg xmlns="http://www.w3.org/2000/svg" xmlns:xlink="http://www.w3.org/1999/xlink" xmlns:ev="http://www.w3.org/2001/xml-events"
		width="11.4783in" height="11.3033in" viewBox="0 0 826.438 813.836" xml:space="preserve" color-interpolation-filters="sRGB"
		class="st24">
	<style type="text/css">
	<![CDATA[
		.st1 {fill:#c4dbf2;stroke:#000000;stroke-linecap:round;stroke-linejoin:round;stroke-width:0.24}
		.st2 {fill:#000000;font-family:Arial;font-size:1.00001em}
		.st3 {marker-end:url(#mrkr13-12);stroke:#000000;stroke-linecap:round;stroke-linejoin:round;stroke-width:0.24}
		.st4 {fill:#000000;fill-opacity:1;stroke:#000000;stroke-opacity:1;stroke-width:0.08695652173913}
		.st5 {fill:#ffffff;stroke:none;stroke-linecap:butt;stroke-width:7.2}
		.st6 {fill:#009cde;font-family:Arial;font-size:1.00001em}
		.st7 {fill:#000000;font-size:1em}
		.st8 {fill:#dc582a;font-family:Arial;font-size:1.00001em}
		.st9 {fill:#00b050;font-size:1em}
		.st10 {fill:#4677bf;fill-opacity:1;stroke:#4677bf;stroke-opacity:1;stroke-width:0.16556291390728}
		.st11 {marker-end:url(#mrkr13-85);stroke:#000000;stroke-linecap:round;stroke-linejoin:round;stroke-width:0.5}
		.st12 {fill:#000000;fill-opacity:1;stroke:#000000;stroke-opacity:1;stroke-width:0.16556291390728}
		.st13 {fill:none;stroke:none;stroke-linecap:round;stroke-linejoin:round;stroke-width:0.75}
		.st14 {marker-end:url(#mrkr20-113);stroke:#000000;stroke-dasharray:1.68,1.2;stroke-linecap:round;stroke-linejoin:round;stroke-width:0.24}
		.st15 {fill:#c4dbf2;stroke:none;stroke-linecap:round;stroke-linejoin:round;stroke-width:0.24;visibility:hidden}
		.st16 {fill:#dc582a;font-size:1em}
		.st17 {fill:#009cde;font-size:1em}
		.st18 {font-size:1em}
		.st19 {marker-end:url(#mrkr4-157);stroke:#000000;stroke-linecap:round;stroke-linejoin:round;stroke-width:0.5}
		.st20 {font-size:1em;font-weight:bold}
		.st21 {fill:#0000c0;font-size:1em}
		.st22 {stroke:#000000;stroke-linecap:round;stroke-linejoin:round;stroke-width:0.5}
		.st23 {marker-end:url(#);stroke:#000000;stroke-linecap:round;stroke-linejoin:round;stroke-width:0.5}
		.st24 {fill:none;fill-rule:evenodd;font-size:12px;overflow:visible;stroke-linecap:square;stroke-miterlimit:3}
	]]>
	</style>

	<defs id="Markers">
		<g id="lend13">
			<path d="M 3 1 L 0 0 L 3 -1 L 3 1 " style="stroke:none"/>
		</g>
		<marker id="mrkr13-12" class="st4" refX="-34.5" orient="auto" markerUnits="strokeWidth" overflow="visible">
			<use xlink:href="#lend13" transform="scale(-11.5,-11.5) "/>
		</marker>
		<marker id="mrkr13-76" class="st10" refX="-18.12" orient="auto" markerUnits="strokeWidth" overflow="visible">
			<use xlink:href="#lend13" transform="scale(-6.04,-6.04) "/>
		</marker>
		<marker id="mrkr13-85" class="st12" refX="-18.12" orient="auto" markerUnits="strokeWidth" overflow="visible">
			<use xlink:href="#lend13" transform="scale(-6.04,-6.04) "/>
		</marker>
		<g id="lend20">
			<path
					d="M 0 0.75 C -0.414214 0.75 -0.75 0.414214 -0.75 0 -0.75 -0.414214 -0.414214 -0.75 0 -0.75 0.414214 -0.75 0.75 -0.414214 0.75 0 0.75 0.414214 0.414214 0.75 0 0.75 Z "
					style="stroke-linecap:round;stroke-linejoin:round;fill:none"/>
		</g>
		<marker id="mrkr20-113" class="st4" refX="-8.6250000000001" orient="auto" markerUnits="strokeWidth" overflow="visible">
			<use xlink:href="#lend20" transform="scale(-11.5,-11.5) "/>
		</marker>
		<g id="lend4">
			<path d="M 2 1 L 0 0 L 2 -1 L 2 1 " style="stroke:none"/>
		</g>
		<marker id="mrkr4-148" class="st10" refX="-12.08" orient="auto" markerUnits="strokeWidth" overflow="visible">
			<use xlink:href="#lend4" transform="scale(-6.04,-6.04) "/>
		</marker>
		<marker id="mrkr4-157" class="st12" refX="-12.08" orient="auto" markerUnits="strokeWidth" overflow="visible">
			<use xlink:href="#lend4" transform="scale(-6.04,-6.04) "/>
		</marker>
	</defs>
	<g>
		<title>Page-1</title>
		<g id="shape227-1" transform="translate(378.412,-765.216)">
			<title>Start/End-point</title>
			<desc>Start</desc>
			<path d="M13.5 813.84 L58.5 813.84 A13.5 13.5 -180 0 0 58.5 786.84 L13.5 786.84 A13.5 13.5 -180 1 0 13.5 813.84 Z"
					class="st1"/>
			<text x="23.33" y="803.94" class="st2">Start</text>		</g>
		<g id="shape228-4" transform="translate(309.912,-689.716)">
			<title>Process.245</title>
			<desc>HAL_TRANSP_RX_STATE_CLOSED</desc>
			<rect x="0" y="776.836" width="209" height="37" class="st1"/>
			<text x="2.8" y="798.94" class="st2">HAL_TRANSP_RX_STATE_CLOSED</text>		</g>
		<g id="shape229-7" transform="translate(1228.25,48.62) rotate(90)">
			<title>Flowline1</title>
			<path d="M0 813.84 L30.22 813.84" class="st3"/>
		</g>
		<g id="shape230-13" transform="translate(316.037,-594.216)">
			<title>Process.230</title>
			<desc>HAL_TRANSP_RX_STATE_IDLE</desc>
			<rect x="0" y="776.836" width="196.75" height="37" class="st1"/>
			<text x="8.01" y="798.94" class="st2">HAL_TRANSP_RX_STATE_IDLE</text>		</g>
		<g id="shape232-16" transform="translate(458.63,-418.216)">
			<title>Process.232</title>
			<desc>HAL_TRANSP_RX_STATE_RECEIVING</desc>
			<rect x="0" y="776.836" width="258.75" height="37" class="st1"/>
			<text x="19.34" y="798.94" class="st2">HAL_TRANSP_RX_STATE_RECEIVING</text>		</g>
		<g id="shape233-19" transform="translate(291.412,-286.716)">
			<title>Process.233</title>
			<desc>HAL_TRANSP_RX_STATE_RECEIVED</desc>
			<rect x="0" y="776.836" width="246" height="37" class="st1"/>
			<text x="15.3" y="798.94" class="st2">HAL_TRANSP_RX_STATE_RECEIVED</text>		</g>
		<g id="shape234-22" transform="translate(1228.25,124.12) rotate(90)">
			<title>Flowline1.234</title>
			<desc>ser_hal_transport_open(transport_events_handler) / ser_phy_op...</desc>
			<path d="M0 813.84 L50.22 813.84" class="st3"/>
			<rect x="-952.947" y="11.6001" width="277.509" height="28.8001" transform="rotate(-90)" class="st5"/>
			<text x="-952.95" y="22.4" transform="rotate(-90)" class="st6">ser_hal_transport_open(transport_events_handler)<tspan
						class="st7"> </tspan><tspan class="st7">/ </tspan><tspan x="-952.95" dy="1.2em" class="st7">ser</tspan><tspan
						class="st7">_</tspan><tspan class="st7">phy</tspan><tspan class="st7">_</tspan><tspan class="st7">open</tspan><tspan
						class="st7">(</tspan><tspan class="st7">phy</tspan><tspan class="st7">_</tspan><tspan class="st7">events</tspan><tspan
						class="st7">_</tspan><tspan class="st7">handler</tspan><tspan class="st7">)</tspan></text>		</g>
		<g id="shape236-43" transform="translate(1228.25,219.62) rotate(90)">
			<title>Flowline1.236</title>
			<desc>SER_PHY_EVT_RX_BUF_REQUEST / transport_events_handler( SER_HA...</desc>
			<path d="M0 813.84 L97.22 813.84" class="st3"/>
			<rect x="-949.238" y="3.90008" width="270.091" height="43.2002" transform="rotate(-90)" class="st5"/>
			<text x="-918.23" y="14.7" transform="rotate(-90)" class="st8">SER_PHY_EVT_RX_BUF_REQUEST<tspan class="st9"> </tspan><tspan
						class="st7">/ </tspan><tspan x="-882.57" dy="1.2em" class="st7">transport</tspan><tspan class="st7">_</tspan><tspan
						class="st7">events</tspan><tspan class="st7">_</tspan><tspan class="st7">handler</tspan><tspan class="st7">( </tspan><tspan
						x="-949.24" dy="1.2em" class="st7">SER</tspan><tspan class="st7">_</tspan><tspan class="st7">HAL</tspan><tspan
						class="st7">_</tspan><tspan class="st7">TRANSP</tspan><tspan class="st7">_</tspan><tspan class="st7">EVT</tspan><tspan
						class="st7">_</tspan><tspan class="st7">RX</tspan><tspan class="st7">_</tspan><tspan class="st7">PKT</tspan><tspan
						class="st7">_</tspan><tspan class="st7">RECEIVING</tspan><tspan class="st7">)</tspan></text>		</g>
		<g id="group244-72" transform="translate(717.38,-686.466)">
			<title>Flowline2</title>
			<desc>ser_hal_transport_close() / ser_phy_close()</desc>
			<g id="shape245-73" transform="translate(-198.469,1595.86) rotate(180)">
				<title>Straight Edge.28</title>
				<desc>N</desc>
			</g>
			<g id="shape246-77" transform="translate(-803.834,830.59) rotate(-90)">
				<title>Straight Edge.29</title>
				<desc>N</desc>
			</g>
			<g id="shape244-80">
				<path d="M0 810.59 L0 801.34 A9.25 9.25 -180 0 0 -9.25 792.09 L-189.41 792.09" class="st11"/>
				<rect x="-169.721" y="769.386" width="231.443" height="14.4001" class="st5"/>
				<text x="-169.72" y="780.19" class="st6">ser_hal_transport_close()<tspan class="st7"> </tspan><tspan class="st7">/ </tspan><tspan
							class="st7">ser</tspan><tspan class="st7">_</tspan><tspan class="st7">phy</tspan><tspan class="st7">_</tspan><tspan
							class="st7">close</tspan><tspan class="st7">()</tspan></text>			</g>
		</g>
		<g id="shape261-96" transform="translate(662.987,-669.716)">
			<title>Sheet.261</title>
			<desc>from any state</desc>
			<rect x="0" y="793.836" width="108.787" height="20" class="st13"/>
			<text x="16.38" y="807.44" class="st2">from any state</text>		</g>
		<g id="group263-99" transform="translate(251.38,813.956) rotate(180)">
			<title>Annotation/Comment</title>
			<g id="shape264-100" transform="translate(120.844,-35)">
				<title>Sheet.264</title>
			</g>
			<g id="shape265-101" transform="translate(120.844,-35)">
				<title>Sheet.265</title>
			</g>
			<g id="shape266-102" transform="translate(120.844,-35)">
				<title>Sheet.266</title>
			</g>
			<g id="shape267-103" transform="translate(120.844,-35)">
				<title>Sheet.267</title>
			</g>
			<g id="shape268-104" transform="translate(120.844,-35)">
				<title>Sheet.268</title>
			</g>
			<g id="shape269-105" transform="translate(120.844,-35)">
				<title>Sheet.269</title>
			</g>
			<g id="shape270-106" transform="translate(120.844,-35)">
				<title>Sheet.270</title>
			</g>
			<g id="shape271-107" transform="translate(120.844,-35)">
				<title>Sheet.271</title>
			</g>
			<g id="shape272-108" transform="translate(-38.356,1576.95) rotate(-168.719)">
				<title>Sheet.272</title>
				<path d="M0 813.84 L1.71 813.84" class="st14"/>
			</g>
			<g id="shape273-114" transform="translate(120.844,-35)">
				<title>Sheet.273</title>
			</g>
			<g id="shape274-115" transform="translate(120.844,-35)">
				<title>Sheet.274</title>
			</g>
			<g id="shape275-116" transform="translate(-660.472,1006.6) rotate(-106.252)">
				<title>Sheet.275</title>
				<path d="M0 813.84 L31.93 813.84" class="st14"/>
			</g>
			<g id="shape276-121" transform="translate(239.434,1557.67) rotate(180)">
				<title>Sheet.276</title>
				<rect x="0" y="743.836" width="237.18" height="70" class="st15"/>
			</g>
			<g id="shape277-123">
				<title>Sheet.277</title>
				<desc>Legend: trigger from PHY layer / actions trigger from layer a...</desc>
				<path d="M0 804.84 L9 813.84 L9 804.84 L0 804.84 ZM0 804.84 L9 804.84 L9 813.84 L241.69 813.84 L241.69 743.84 L0
							 743.84 L0 804.84 Z" class="st1"/>
				<text x="-237.69" y="-796.84" transform="rotate(180)" class="st2">Legend: <tspan x="-237.69" dy="1.2em"
							class="st16">trigger from PHY layer</tspan> / actions <tspan x="-237.69" dy="1.2em" class="st17">trigger from layer above transport </tspan>/ actions <tspan
							x="-237.69" dy="1.2em" class="st18">[</tspan>guard] / actions</text>			</g>
		</g>
		<g id="shape278-129" transform="translate(391.412,-454.216)">
			<title>Decision.254</title>
			<path d="M0 796.59 L23 779.34 L46 796.59 L23 813.84 L0 796.59 Z" class="st1"/>
		</g>
		<g id="shape280-131" transform="translate(391.412,-89.2162)">
			<title>Decision.280</title>
			<path d="M0 796.59 L23 779.34 L46 796.59 L23 813.84 L0 796.59 Z" class="st1"/>
		</g>
		<g id="shape281-133" transform="translate(457.38,-30.7162)">
			<title>Process.281</title>
			<desc>HAL_TRANSP_RX_STATE_RECEIVED_PENDING_BUF_REQ</desc>
			<rect x="0" y="776.836" width="246" height="37" class="st1"/>
			<text x="3.96" y="791.74" class="st2">HAL_TRANSP_RX_STATE_RECEIVED_PE<tspan x="71.99" dy="1.2em" class="st18">NDING</tspan>_BUF_REQ</text>		</g>
		<g id="shape282-137" transform="translate(111.443,-418.216)">
			<title>Process.282</title>
			<desc>HAL_TRANSP_RX_STATE_DROPPING</desc>
			<rect x="0" y="776.836" width="258.75" height="37" class="st1"/>
			<text x="20.34" y="798.94" class="st2">HAL_TRANSP_RX_STATE_DROPPING</text>		</g>
		<g id="shape283-140" transform="translate(131.38,-30.7162)">
			<title>Process.283</title>
			<desc>HAL_TRANSP_RX_STATE_RECEIVED_DROPPING</desc>
			<rect x="0" y="776.836" width="246" height="37" class="st1"/>
			<text x="3.29" y="791.74" class="st2">HAL_TRANSP_RX_STATE_RECEIVED_DR<tspan x="99.66" dy="1.2em" class="st18">OPPING</tspan></text>		</g>
		<g id="group295-144" transform="translate(391.412,-475.841)">
			<title>Flowline2.295</title>
			<desc>[rx_buf_request.num_of_bytes &#62; sizeof (m_rx_buffer)] / ser_ph...</desc>
			<g id="shape296-145" transform="translate(653.241,834.461) rotate(90)">
				<title>Straight Edge.28</title>
				<desc>N</desc>
			</g>
			<g id="shape297-149" transform="translate(20.0037,1622.05) rotate(180)">
				<title>Straight Edge.29</title>
				<desc>N</desc>
			</g>
			<g id="shape295-152">
				<path d="M0 818.21 L-142.47 818.21 A8.125 8.125 -180 0 0 -150.59 826.34 L-150.59 828.42" class="st19"/>
				<rect x="-180.253" y="769.361" width="172.444" height="43.2002" class="st5"/>
				<text x="-180.25" y="780.16" class="st2">[rx_buf_request.num_of_bytes &#62; <tspan x="-153.71" dy="1.2em"
							class="st20">sizeof</tspan> (m_rx_buffer)] /  <tspan x="-166.07" dy="1.2em" class="st18">ser</tspan>_phy_rx_buf_set(NULL)</text>			</g>
		</g>
		<g id="group298-162" transform="translate(437.412,-475.841)">
			<title>Flowline2.298</title>
			<desc>[rx_buf_request.num_of_bytes &#60;= sizeof (m_rx_buffer)] / ser_p...</desc>
			<g id="shape299-163" transform="translate(910.205,834.461) rotate(90)">
				<title>Straight Edge.28</title>
				<desc>N</desc>
			</g>
			<g id="shape300-166" transform="translate(-108.449,58.5997)">
				<title>Straight Edge.29</title>
				<desc>N</desc>
			</g>
			<g id="shape298-169">
				<path d="M0 818.21 L142.47 818.21 A8.125 8.125 0 0 1 150.59 826.34 L150.59 828.42" class="st19"/>
				<rect x="26.2427" y="764.361" width="179.452" height="43.2002" class="st5"/>
				<text x="26.24" y="775.16" class="st2">[rx_buf_request.num_of_bytes &#60;=  <tspan x="56.29" dy="1.2em"
							class="st20">sizeof</tspan> (m_rx_buffer)] /  <tspan x="27.26" dy="1.2em" class="st18">ser</tspan>_phy_rx_buf_set(m_rx_buffer)</text>			</g>
		</g>
		<g id="group301-178" transform="translate(588.005,-418.216)">
			<title>Flowline2.301</title>
			<desc>SER_PHY_EVT_RX_PKT_RECEIVED / transport_events_handler( HAL_T...</desc>
			<g id="shape302-179" transform="translate(630.241,908.336) rotate(90)">
				<title>Straight Edge.28</title>
				<desc>N</desc>
			</g>
			<g id="shape303-182" transform="translate(803.834,793.832) rotate(90)">
				<title>Straight Edge.29</title>
				<desc>N</desc>
			</g>
			<g id="shape301-185">
				<path d="M0 813.84 L0 855.8 A18 18 0 0 1 -18 873.8 L-156.33 873.8 A17.2667 17.2667 -180 0 0 -173.59 891.07 L-173.59
							 902.3" class="st19"/>
				<rect x="-230.325" y="826.736" width="219.401" height="43.2002" class="st5"/>
				<text x="-227.67" y="837.54" class="st8">SER_PHY_EVT_RX_PKT_RECEIVED<tspan class="st9"> </tspan><tspan class="st7">/ </tspan><tspan
							x="-190.67" dy="1.2em" class="st7">transport</tspan><tspan class="st7">_</tspan><tspan class="st7">events</tspan><tspan
							class="st7">_</tspan><tspan class="st7">handler</tspan><tspan class="st7">( </tspan><tspan x="-230.33"
							dy="1.2em" class="st7">HAL</tspan><tspan class="st7">_</tspan><tspan class="st7">TRANSP</tspan><tspan
							class="st7">_</tspan><tspan class="st7">RX</tspan><tspan class="st7">_</tspan><tspan class="st7">STATE</tspan><tspan
							class="st7">_</tspan><tspan class="st7">RECEIVED</tspan><tspan class="st7">)</tspan></text>			</g>
		</g>
		<g id="shape304-210" transform="translate(1228.25,527.12) rotate(90)">
			<title>Flowline1.304</title>
			<desc>SER_PHY_EVT_RX_BUF_REQUEST / transport_events_handler( SER_HA...</desc>
			<path d="M0 813.84 L154.72 813.84" class="st3"/>
			<rect x="-951.582" y="21.4001" width="270.091" height="43.2002" transform="rotate(-90)" class="st5"/>
			<text x="-920.57" y="32.2" transform="rotate(-90)" class="st8">SER_PHY_EVT_RX_BUF_REQUEST<tspan class="st9"> </tspan><tspan
						class="st7">/ </tspan><tspan x="-884.91" dy="1.2em" class="st7">transport</tspan><tspan class="st7">_</tspan><tspan
						class="st7">events</tspan><tspan class="st7">_</tspan><tspan class="st7">handler</tspan><tspan class="st7">( </tspan><tspan
						x="-951.58" dy="1.2em" class="st7">SER</tspan><tspan class="st7">_</tspan><tspan class="st7">HAL</tspan><tspan
						class="st7">_</tspan><tspan class="st7">TRANSP</tspan><tspan class="st7">_</tspan><tspan class="st7">EVT</tspan><tspan
						class="st7">_</tspan><tspan class="st7">RX</tspan><tspan class="st7">_</tspan><tspan class="st7">PKT</tspan><tspan
						class="st7">_</tspan><tspan class="st7">RECEIVING</tspan><tspan class="st7">)</tspan></text>		</g>
		<g id="group305-239" transform="translate(437.412,-106.466)">
			<title>Flowline2.305</title>
			<desc>[rx_buf_request.num_of_bytes &#60;= sizeof (m_rx_buffer)] / -</desc>
			<g id="shape306-240" transform="translate(946.803,852.586) rotate(90)">
				<title>Straight Edge.28</title>
				<desc>N</desc>
			</g>
			<g id="shape307-243" transform="translate(-20.0037,10.0018)">
				<title>Straight Edge.29</title>
				<desc>N</desc>
			</g>
			<g id="shape305-246">
				<path d="M0 813.84 L124.97 813.84 A18 18 0 0 1 142.97 831.84 L142.97 846.55" class="st19"/>
				<rect x="20.2427" y="782.186" width="179.452" height="28.8001" class="st5"/>
				<text x="20.24" y="792.99" class="st2">[rx_buf_request.num_of_bytes &#60;=  <tspan x="46.62" dy="1.2em"
							class="st20">sizeof</tspan> (m_rx_buffer)] / -</text>			</g>
		</g>
		<g id="group308-254" transform="translate(391.412,-106.466)">
			<title>Flowline2.308</title>
			<desc>[rx_buf_request.num_of_bytes &#62; sizeof (m_rx_buffer)] / ser_ph...</desc>
			<g id="shape309-255" transform="translate(713.803,852.586) rotate(90)">
				<title>Straight Edge.28</title>
				<desc>N</desc>
			</g>
			<g id="shape310-258" transform="translate(20.0037,1617.67) rotate(180)">
				<title>Straight Edge.29</title>
				<desc>N</desc>
			</g>
			<g id="shape308-261">
				<path d="M0 813.84 L-72.03 813.84 A18 18 -180 0 0 -90.03 831.84 L-90.03 846.55" class="st19"/>
				<rect x="-170.253" y="769.986" width="172.444" height="43.2002" class="st5"/>
				<text x="-170.25" y="780.79" class="st2">[rx_buf_request.num_of_bytes &#62; <tspan x="-143.71" dy="1.2em"
							class="st20">sizeof</tspan> (m_rx_buffer)] /  <tspan x="-156.07" dy="1.2em" class="st18">ser</tspan>_phy_rx_buf_set(NULL)</text>			</g>
		</g>
		<g id="group311-270" transform="translate(697.88,-49.2162)">
			<title>Flowline2.311</title>
			<desc>ser_hal_transport_rx_pkt_free(m_rx_buffer) / ser_phy_rx_buf_s...</desc>
			<g id="shape312-271" transform="translate(19.5,1230.17) rotate(180)">
				<title>Straight Edge.28</title>
				<desc>N</desc>
			</g>
			<g id="shape313-274" transform="translate(-14.5037,10.0018)">
				<title>Straight Edge.29</title>
				<desc>N</desc>
			</g>
			<g id="shape311-277">
				<path d="M5.5 813.84 L31.5 813.84 A18 18 -180 0 0 49.5 795.84 L49.5 441.34 A15 15 -180 0 0 34.5 426.34 L25.54 426.34"
						class="st19"/>
				<rect x="-115.889" y="654.936" width="238.778" height="28.8001" class="st5"/>
				<text x="-115.89" y="665.74" class="st6">ser_hal_transport_rx_pkt_free(m_rx_buffer)<tspan class="st7"> </tspan><tspan
							class="st7">/ </tspan><tspan x="-85.21" dy="1.2em" class="st7">ser</tspan><tspan class="st7">_</tspan><tspan
							class="st7">phy</tspan><tspan class="st7">_</tspan><tspan class="st7">rx</tspan><tspan class="st7">_</tspan><tspan
							class="st7">buf</tspan><tspan class="st7">_</tspan><tspan class="st7">set</tspan><tspan class="st7">(</tspan><tspan
							class="st7">m</tspan><tspan class="st7">_</tspan><tspan class="st7">rx</tspan><tspan class="st7">_</tspan><tspan
							class="st7">buffer</tspan><tspan class="st7">)</tspan></text>			</g>
		</g>
		<g id="group314-302" transform="translate(133.912,-49.2162)">
			<title>Flowline2.314</title>
			<desc>ser_hal_transport_rx_pkt_free(m_rx_buffer) / -</desc>
			<g id="shape315-303" transform="translate(-22.4687,-377.498)">
				<title>Straight Edge.28</title>
				<desc>N</desc>
			</g>
			<g id="shape316-306" transform="translate(17.4724,1617.67) rotate(180)">
				<title>Straight Edge.29</title>
				<desc>N</desc>
			</g>
			<g id="shape314-309">
				<path d="M-2.53 813.84 L-54.63 813.84 A18 18 0 0 1 -72.63 795.84 L-72.63 444.34 A18 18 0 0 1 -54.63 426.34 L-28.51
							 426.34" class="st19"/>
				<rect x="-124.585" y="467.636" width="246.108" height="14.4001" class="st5"/>
				<text x="-124.59" y="478.44" class="st6">ser_hal_transport_rx_pkt_free(m_rx_buffer)<tspan class="st7"> </tspan><tspan
							class="st7">/ </tspan><tspan class="st7">-</tspan></text>			</g>
		</g>
		<g id="group317-319" transform="translate(197.38,-67.7162)">
			<title>Flowline2.317</title>
			<desc>SER_PHY_EVT_RX_PKT_DROPPED / transport_events_handler( SER_HA...</desc>
			<g id="shape318-320" transform="translate(94.0313,-203.642)">
				<title>Straight Edge.28</title>
				<desc>N</desc>
			</g>
			<g id="shape319-323" transform="translate(-779.978,881.552) rotate(-90)">
				<title>Straight Edge.29</title>
				<desc>N</desc>
			</g>
			<g id="shape317-326">
				<path d="M0 813.84 L0 594.34 A18 18 0 0 1 18 576.34 L87.99 576.34" class="st19"/>
				<rect x="-131.711" y="676.236" width="263.423" height="43.2002" class="st5"/>
				<text x="-106.04" y="687.04" class="st8">SER_PHY_EVT_RX_PKT_DROPPED<tspan class="st21"> </tspan><tspan class="st7">/ </tspan><tspan
							x="-70.04" dy="1.2em" class="st7">transport</tspan><tspan class="st7">_</tspan><tspan class="st7">events</tspan><tspan
							class="st7">_</tspan><tspan class="st7">handler</tspan><tspan class="st7">( </tspan><tspan x="-131.71"
							dy="1.2em" class="st7">SER</tspan><tspan class="st7">_</tspan><tspan class="st7">HAL</tspan><tspan
							class="st7">_</tspan><tspan class="st7">TRANSP</tspan><tspan class="st7">_</tspan><tspan class="st7">EVT</tspan><tspan
							class="st7">_</tspan><tspan class="st7">RX</tspan><tspan class="st7">_</tspan><tspan class="st7">PKT</tspan><tspan
							class="st7">_</tspan><tspan class="st7">DROPPED</tspan><tspan class="st7">)</tspan></text>			</g>
		</g>
		<g id="group320-355" transform="translate(537.599,-305.216)">
			<title>Flowline2.320</title>
			<desc>ser_hal_transport_rx_pkt_free(m_rx_buffer) / -</desc>
			<g id="shape321-356" transform="translate(-24.8125,1310.17) rotate(180)">
				<title>Straight Edge.28</title>
				<desc>N</desc>
			</g>
			<g id="shape322-359" transform="translate(-20.1912,10.0018)">
				<title>Straight Edge.29</title>
				<desc>N</desc>
			</g>
			<g id="shape320-362">
				<path d="M-0.19 813.84 L207.42 813.84" class="st22"/>
				<path d="M212.14 813.84 L215.78 813.84 A18 18 -180 0 0 233.78 795.84 L233.78 524.34 A18 18 -180 0 0 215.78 506.34
							 L-18.77 506.34" class="st23"/>
				<rect x="26.7272" y="488.136" width="246.108" height="14.4001" class="st5"/>
				<text x="26.73" y="498.94" class="st6">ser_hal_transport_rx_pkt_free(m_rx_buffer)<tspan class="st7"> </tspan><tspan
							class="st7">/ </tspan><tspan class="st7">-</tspan></text>			</g>
		</g>
		<g id="group323-373" transform="translate(111.443,-445.216)">
			<title>Flowline2.323</title>
			<desc>SER_PHY_EVT_RX_PKT_DROPPED / transport_events_handler( SER_HA...</desc>
			<g id="shape324-374" transform="translate(204.594,-93.8314)">
				<title>Straight Edge.28</title>
				<desc>N</desc>
			</g>
			<g id="shape325-377" transform="translate(147.337,1554) rotate(180)">
				<title>Straight Edge.29</title>
				<desc>N</desc>
			</g>
			<g id="shape323-380">
				<path d="M0 813.84 L-12.03 813.84 A12.0313 12.0313 0 0 1 -24.06 801.8 L-24.06 664.34 A18 18 0 0 1 -6.06 646.34 L198.55
							 646.34" class="st19"/>
				<rect x="-105.774" y="593.736" width="263.423" height="43.2002" class="st5"/>
				<text x="-80.1" y="604.54" class="st8">SER_PHY_EVT_RX_PKT_DROPPED<tspan class="st7"> </tspan><tspan class="st7">/ </tspan><tspan
							x="-44.11" dy="1.2em" class="st7">transport</tspan><tspan class="st7">_</tspan><tspan class="st7">events</tspan><tspan
							class="st7">_</tspan><tspan class="st7">handler</tspan><tspan class="st7">( </tspan><tspan x="-105.77"
							dy="1.2em" class="st7">SER</tspan><tspan class="st7">_</tspan><tspan class="st7">HAL</tspan><tspan
							class="st7">_</tspan><tspan class="st7">TRANSP</tspan><tspan class="st7">_</tspan><tspan class="st7">EVT</tspan><tspan
							class="st7">_</tspan><tspan class="st7">RX</tspan><tspan class="st7">_</tspan><tspan class="st7">PKT</tspan><tspan
							class="st7">_</tspan><tspan class="st7">DROPPED</tspan><tspan class="st7">)</tspan></text>			</g>
		</g>
	</g>
</svg>
