<?xml version="1.0" encoding="UTF-8" standalone="no"?>
<!DOCTYPE svg PUBLIC "-//W3C//DTD SVG 1.1//EN" "http://www.w3.org/Graphics/SVG/1.1/DTD/svg11.dtd">
<!-- Generated by Microsoft Visio, SVG Export timer_example_sm.svg Page-1 -->
<svg xmlns="http://www.w3.org/2000/svg" xmlns:xlink="http://www.w3.org/1999/xlink" xmlns:ev="http://www.w3.org/2001/xml-events"
		width="11.3952in" height="6.50688in" viewBox="0 0 820.456 468.495" xml:space="preserve" color-interpolation-filters="sRGB"
		class="st13">
	<style type="text/css">
	<![CDATA[
		.st1 {fill:#c4dbf2;stroke:#000000;stroke-linecap:round;stroke-linejoin:round;stroke-width:0.24}
		.st2 {marker-end:url(#mrkr13-8);stroke:#000000;stroke-linecap:round;stroke-linejoin:round;stroke-width:0.24}
		.st3 {fill:#000000;fill-opacity:1;stroke:#000000;stroke-opacity:1;stroke-width:0.08695652173913}
		.st4 {fill:#000000;font-family:Arial;font-size:1.00001em}
		.st5 {fill:#ffffff;stroke:none;stroke-linecap:butt;stroke-width:7.2}
		.st6 {fill:#4677bf;fill-opacity:1;stroke:#4677bf;stroke-opacity:1;stroke-width:0.16556291390728}
		.st7 {marker-end:url(#mrkr4-35);stroke:#000000;stroke-linecap:round;stroke-linejoin:round;stroke-width:0.5}
		.st8 {fill:#000000;fill-opacity:1;stroke:#000000;stroke-opacity:1;stroke-width:0.16556291390728}
		.st9 {font-size:1em}
		.st10 {marker-end:url(#mrkr20-55);stroke:#000000;stroke-dasharray:1.68,1.2;stroke-linecap:round;stroke-linejoin:round;stroke-width:0.24}
		.st11 {fill:#c4dbf2;stroke:none;stroke-linecap:round;stroke-linejoin:round;stroke-width:0.24;visibility:hidden}
		.st12 {fill:none;stroke:none;stroke-linecap:round;stroke-linejoin:round;stroke-width:0.75}
		.st13 {fill:none;fill-rule:evenodd;font-size:12px;overflow:visible;stroke-linecap:square;stroke-miterlimit:3}
	]]>
	</style>

	<defs id="Markers">
		<g id="lend13">
			<path d="M 3 1 L 0 0 L 3 -1 L 3 1 " style="stroke:none"/>
		</g>
		<marker id="mrkr13-8" class="st3" refX="-34.5" orient="auto" markerUnits="strokeWidth" overflow="visible">
			<use xlink:href="#lend13" transform="scale(-11.5,-11.5) "/>
		</marker>
		<g id="lend4">
			<path d="M 2 1 L 0 0 L 2 -1 L 2 1 " style="stroke:none"/>
		</g>
		<marker id="mrkr4-26" class="st6" refX="-12.08" orient="auto" markerUnits="strokeWidth" overflow="visible">
			<use xlink:href="#lend4" transform="scale(-6.04,-6.04) "/>
		</marker>
		<marker id="mrkr4-35" class="st8" refX="-12.08" orient="auto" markerUnits="strokeWidth" overflow="visible">
			<use xlink:href="#lend4" transform="scale(-6.04,-6.04) "/>
		</marker>
		<g id="lend20">
			<path
					d="M 0 0.75 C -0.414214 0.75 -0.75 0.414214 -0.75 0 -0.75 -0.414214 -0.414214 -0.75 0 -0.75 0.414214 -0.75 0.75 -0.414214 0.75 0 0.75 0.414214 0.414214 0.75 0 0.75 Z "
					style="stroke-linecap:round;stroke-linejoin:round;fill:none"/>
		</g>
		<marker id="mrkr20-55" class="st3" refX="-8.6250000000001" orient="auto" markerUnits="strokeWidth" overflow="visible">
			<use xlink:href="#lend20" transform="scale(-11.5,-11.5) "/>
		</marker>
	</defs>
	<g>
		<title>Page-1</title>
		<g id="shape384-1" transform="translate(438.081,-425.375)">
			<title>Start/End-point</title>
			<path d="M3.5 468.49 L10.5 468.49 A3.5 6.25 -180 0 0 10.5 455.99 L3.5 455.99 A3.5 6.25 -180 1 0 3.5 468.49 Z"
					class="st1"/>
		</g>
		<g id="shape385-3" transform="translate(913.576,43.12) rotate(90)">
			<title>Flowline1</title>
			<path d="M0 468.49 L45.72 468.49" class="st2"/>
		</g>
		<g id="shape386-9" transform="translate(317.081,-344.375)">
			<title>Process.245</title>
			<desc>APP_STATE_SINGLE_SHOT</desc>
			<rect x="0" y="441.495" width="176" height="27" class="st1"/>
			<text x="7.97" y="458.6" class="st4">APP_STATE_SINGLE_SHOT</text>		</g>
		<g id="shape387-12" transform="translate(325.081,-104.375)">
			<title>Process.387</title>
			<desc>APP_STATE_REPEATED</desc>
			<rect x="0" y="441.495" width="160" height="27" class="st1"/>
			<text x="9.64" y="458.6" class="st4">APP_STATE_REPEATED</text>		</g>
		<g id="shape388-15" transform="translate(873.576,124.12) rotate(90)">
			<title>Flowline1.388</title>
			<desc>timeout_handler [m_state_transit_counter == 0]</desc>
			<path d="M0 468.49 L204.72 468.49" class="st2"/>
			<rect x="-596.242" y="91.8002" width="252.156" height="14.4001" transform="rotate(-90)" class="st5"/>
			<text x="-596.24" y="102.6" transform="rotate(-90)" class="st4">timeout_handler [m_state_transit_counter == 0]</text>		</g>
		<g id="group390-22" transform="translate(333.581,-117.875)">
			<title>Flowline2</title>
			<desc>timeout_handler [m_state_transit_counter == 0] / set(LED1 &#38;&#38; ...</desc>
			<g id="shape391-23" transform="translate(-16.5,-230.998)">
				<title>Straight Edge.28</title>
				<desc>N</desc>
			</g>
			<g id="shape392-27" transform="translate(9.50363,927.988) rotate(180)">
				<title>Straight Edge.29</title>
				<desc>N</desc>
			</g>
			<g id="shape390-30">
				<path d="M-8.5 468.49 L-180.5 468.49 A18 18 0 0 1 -198.5 450.49 L-198.5 246.49 A18 18 0 0 1 -180.5 228.49 L-22.54
							 228.49" class="st7"/>
				<rect x="-329.581" y="323.693" width="258.824" height="57.6002" class="st5"/>
				<text x="-329.58" y="334.49" class="st4">timeout_handler [m_state_transit_counter == 0] /  <tspan x="-287.06"
							dy="1.2em" class="st9">set</tspan>(LED1 &#38;&#38; LED2)   <tspan x="-287.06" dy="1.2em" class="st9">stop continuous mode timer  </tspan><tspan
							x="-287.06" dy="1.2em" class="st9">wait </tspan>1 second</text>			</g>
		</g>
		<g id="group393-41" transform="translate(286.081,796.615) rotate(180)">
			<title>Annotation/Comment</title>
			<g id="shape394-42" transform="translate(121,-18)">
				<title>Sheet.394</title>
			</g>
			<g id="shape395-43" transform="translate(121,-18)">
				<title>Sheet.395</title>
			</g>
			<g id="shape396-44" transform="translate(121,-18)">
				<title>Sheet.396</title>
			</g>
			<g id="shape397-45" transform="translate(121,-18)">
				<title>Sheet.397</title>
			</g>
			<g id="shape398-46" transform="translate(121,-18)">
				<title>Sheet.398</title>
			</g>
			<g id="shape399-47" transform="translate(121,-18)">
				<title>Sheet.399</title>
			</g>
			<g id="shape400-48" transform="translate(121,-18)">
				<title>Sheet.400</title>
			</g>
			<g id="shape401-49" transform="translate(121,-18)">
				<title>Sheet.401</title>
			</g>
			<g id="shape402-50" transform="translate(29.3547,909.939) rotate(-168.719)">
				<title>Sheet.402</title>
				<path d="M0 468.49 L1.71 468.49" class="st10"/>
			</g>
			<g id="shape403-56" transform="translate(121,-18)">
				<title>Sheet.403</title>
			</g>
			<g id="shape404-57" transform="translate(121,-18)">
				<title>Sheet.404</title>
			</g>
			<g id="shape405-58" transform="translate(126.856,918.953) rotate(179.284)">
				<title>Sheet.405</title>
				<path d="M0 468.49 L157.94 468.49" class="st10"/>
			</g>
			<g id="shape406-63" transform="translate(239.746,900.99) rotate(180)">
				<title>Sheet.406</title>
				<rect x="0" y="432.495" width="237.493" height="36" class="st11"/>
			</g>
			<g id="shape407-65">
				<title>Sheet.407</title>
				<desc>State where repeated timer mode is tested. LED2 blinking.</desc>
				<path d="M0 459.49 L9 468.49 L9 459.49 L0 459.49 ZM0 459.49 L9 459.49 L9 468.49 L242 468.49 L242 432.49 L0 432.49
							 L0 459.49 Z" class="st1"/>
				<text x="-238" y="-454.09" transform="rotate(180)" class="st4">State where repeated timer mode is tested. <tspan
							x="-238" dy="1.2em" class="st9">LED</tspan>2 blinking.</text>			</g>
		</g>
		<g id="group408-69" transform="translate(240.081,592.615) rotate(180)">
			<title>Annotation/Comment.408</title>
			<g id="shape409-70" transform="translate(105.5,-17.875)">
				<title>Sheet.409</title>
			</g>
			<g id="shape410-71" transform="translate(105.5,-17.875)">
				<title>Sheet.410</title>
			</g>
			<g id="shape411-72" transform="translate(105.5,-17.875)">
				<title>Sheet.411</title>
			</g>
			<g id="shape412-73" transform="translate(105.5,-17.875)">
				<title>Sheet.412</title>
			</g>
			<g id="shape413-74" transform="translate(105.5,-17.875)">
				<title>Sheet.413</title>
			</g>
			<g id="shape414-75" transform="translate(105.5,-17.875)">
				<title>Sheet.414</title>
			</g>
			<g id="shape415-76" transform="translate(105.5,-17.875)">
				<title>Sheet.415</title>
			</g>
			<g id="shape416-77" transform="translate(105.5,-17.875)">
				<title>Sheet.416</title>
			</g>
			<g id="shape417-78" transform="translate(13.8547,910.064) rotate(-168.719)">
				<title>Sheet.417</title>
				<path d="M0 468.49 L1.71 468.49" class="st10"/>
			</g>
			<g id="shape418-83" transform="translate(105.5,-17.875)">
				<title>Sheet.418</title>
			</g>
			<g id="shape419-84" transform="translate(105.5,-17.875)">
				<title>Sheet.419</title>
			</g>
			<g id="shape420-85" transform="translate(-362.958,456.544) rotate(-90.7245)">
				<title>Sheet.420</title>
				<path d="M0 468.49 L37.47 468.49" class="st10"/>
			</g>
			<g id="shape421-90" transform="translate(208.746,901.24) rotate(180)">
				<title>Sheet.421</title>
				<rect x="0" y="432.745" width="206.493" height="35.75" class="st11"/>
			</g>
			<g id="shape422-92">
				<title>Sheet.422</title>
				<desc>Both LED1 and LED2 turned on for 1 second.</desc>
				<path d="M0 459.49 L9 468.49 L9 459.49 L0 459.49 ZM0 459.49 L9 459.49 L9 468.49 L211 468.49 L211 432.75 L0 432.75
							 L0 459.49 Z" class="st1"/>
				<text x="-207" y="-454.22" transform="rotate(180)" class="st4">Both LED1 and LED2 turned on for 1 <tspan x="-207"
							dy="1.2em" class="st9">second</tspan>.</text>			</g>
		</g>
		<g id="group423-96" transform="translate(269.081,503.615) rotate(180)">
			<title>Annotation/Comment.423</title>
			<g id="shape424-97" transform="translate(124.5,-18)">
				<title>Sheet.424</title>
			</g>
			<g id="shape425-98" transform="translate(124.5,-18)">
				<title>Sheet.425</title>
			</g>
			<g id="shape426-99" transform="translate(124.5,-18)">
				<title>Sheet.426</title>
			</g>
			<g id="shape427-100" transform="translate(124.5,-18)">
				<title>Sheet.427</title>
			</g>
			<g id="shape428-101" transform="translate(124.5,-18)">
				<title>Sheet.428</title>
			</g>
			<g id="shape429-102" transform="translate(124.5,-18)">
				<title>Sheet.429</title>
			</g>
			<g id="shape430-103" transform="translate(124.5,-18)">
				<title>Sheet.430</title>
			</g>
			<g id="shape431-104" transform="translate(124.5,-18)">
				<title>Sheet.431</title>
			</g>
			<g id="shape432-105" transform="translate(32.8547,909.939) rotate(-168.719)">
				<title>Sheet.432</title>
				<path d="M0 468.49 L1.71 468.49" class="st10"/>
			</g>
			<g id="shape433-110" transform="translate(124.5,-18)">
				<title>Sheet.433</title>
			</g>
			<g id="shape434-111" transform="translate(124.5,-18)">
				<title>Sheet.434</title>
			</g>
			<g id="shape435-112" transform="translate(-8.32791,899.766) rotate(-163.53)">
				<title>Sheet.435</title>
				<path d="M0 468.49 L177.81 468.49" class="st10"/>
			</g>
			<g id="shape436-117" transform="translate(246.746,900.99) rotate(180)">
				<title>Sheet.436</title>
				<rect x="0" y="432.495" width="244.493" height="36" class="st11"/>
			</g>
			<g id="shape437-119">
				<title>Sheet.437</title>
				<desc>State where single shot timer mode is tested. LED1 blinking.</desc>
				<path d="M0 459.49 L9 468.49 L9 459.49 L0 459.49 ZM0 459.49 L9 459.49 L9 468.49 L249 468.49 L249 432.49 L0 432.49
							 L0 459.49 Z" class="st1"/>
				<text x="-245" y="-454.09" transform="rotate(180)" class="st4">State where single shot timer mode is tested. <tspan
							x="-245" dy="1.2em" class="st9">LED</tspan>1 blinking.</text>			</g>
		</g>
		<g id="group438-123" transform="translate(740.081,468.615) rotate(180)">
			<title>Annotation/Comment.438</title>
			<g id="shape439-124" transform="translate(105.5,-18)">
				<title>Sheet.439</title>
			</g>
			<g id="shape440-125" transform="translate(105.5,-18)">
				<title>Sheet.440</title>
			</g>
			<g id="shape441-126" transform="translate(105.5,-18)">
				<title>Sheet.441</title>
			</g>
			<g id="shape442-127" transform="translate(105.5,-18)">
				<title>Sheet.442</title>
			</g>
			<g id="shape443-128" transform="translate(105.5,-18)">
				<title>Sheet.443</title>
			</g>
			<g id="shape444-129" transform="translate(105.5,-18)">
				<title>Sheet.444</title>
			</g>
			<g id="shape445-130" transform="translate(105.5,-18)">
				<title>Sheet.445</title>
			</g>
			<g id="shape446-131" transform="translate(105.5,-18)">
				<title>Sheet.446</title>
			</g>
			<g id="shape447-132" transform="translate(13.8547,909.939) rotate(-168.719)">
				<title>Sheet.447</title>
				<path d="M0 468.49 L1.71 468.49" class="st10"/>
			</g>
			<g id="shape448-137" transform="translate(105.5,-18)">
				<title>Sheet.448</title>
			</g>
			<g id="shape449-138" transform="translate(105.5,-18)">
				<title>Sheet.449</title>
			</g>
			<g id="shape450-139" transform="translate(-29.5977,1.90144) rotate(-16.7601)">
				<title>Sheet.450</title>
				<path d="M0 468.49 L133.18 468.49" class="st10"/>
			</g>
			<g id="shape451-144" transform="translate(208.746,900.99) rotate(180)">
				<title>Sheet.451</title>
				<rect x="0" y="432.495" width="206.493" height="36" class="st11"/>
			</g>
			<g id="shape452-146">
				<title>Sheet.452</title>
				<desc>Both LED1 and LED2 turned on for 1 second during bootup.</desc>
				<path d="M0 459.49 L9 468.49 L9 459.49 L0 459.49 ZM0 459.49 L9 459.49 L9 468.49 L211 468.49 L211 432.49 L0 432.49
							 L0 459.49 Z" class="st1"/>
				<text x="-207" y="-454.09" transform="rotate(180)" class="st4">Both LED1 and LED2 turned on for 1 <tspan x="-207"
							dy="1.2em" class="st9">second during bootup</tspan>.</text>			</g>
		</g>
		<g id="shape453-150" transform="translate(445.081,-396.375)">
			<title>Sheet.453</title>
			<desc>set(LED1 &#38;&#38; LED2)</desc>
			<rect x="0" y="453.495" width="120" height="15" class="st12"/>
			<text x="6.64" y="464.6" class="st4">set(LED1 &#38;&#38; LED2)</text>		</g>
		<g id="shape454-153" transform="translate(525.081,-285.375)">
			<title>Sheet.454</title>
			<desc>timeout_handler [m_state_transit_counter != 0] / start single...</desc>
			<rect x="0" y="378.495" width="295" height="90" class="st12"/>
			<text x="4" y="393.3" class="st4">timeout_handler [m_state_transit_counter != 0] / <tspan x="4" dy="1.2em" class="st9">start single shot timer  </tspan><tspan
						x="4" dy="1.2em" class="st9">If </tspan>(m_toggle_led_counter == 0)  <tspan x="46.52" dy="1.2em"
						class="st9">toggle</tspan>(LED1)   <tspan x="83.72" dy="1.2em" class="st9">reset</tspan>: m_toggle_led_counter</text>		</g>
		<g id="shape457-160" transform="translate(276.081,-397.375)">
			<title>Sheet.457</title>
			<desc>entry / toggle(LED1) reset counters start single shot timer</desc>
			<rect x="0" y="405.995" width="176" height="62.5" class="st12"/>
			<text x="4" y="420.8" class="st4">entry /   <tspan x="46.52" dy="1.2em" class="st9">toggle</tspan>(LED1)   <tspan
						x="46.52" dy="1.2em" class="st9">reset counters  </tspan><tspan x="46.52" dy="1.2em" class="st9">start single shot timer</tspan></text>		</g>
		<g id="shape460-166" transform="translate(511.081,-75.375)">
			<title>Sheet.460</title>
			<desc>timeout_handler [m_state_transit_counter != 0] / If (m_toggle...</desc>
			<rect x="0" y="398.495" width="295" height="70" class="st12"/>
			<text x="4" y="413.3" class="st4">timeout_handler [m_state_transit_counter != 0] / <tspan x="4" dy="1.2em" class="st9">If </tspan>(m_toggle_led_counter == 0)  <tspan
						x="46.52" dy="1.2em" class="st9">toggle</tspan>(LED2)   <tspan x="46.52" dy="1.2em" class="st9">reset</tspan>: m_toggle_led_counter</text>		</g>
		<g id="shape462-172" transform="translate(325.081,-0.375)">
			<title>Sheet.462</title>
			<desc>entry / toggle(LED2) reset counters start repeated mode timer</desc>
			<rect x="0" y="398.495" width="204" height="70" class="st12"/>
			<text x="4" y="413.3" class="st4">entry /   <tspan x="46.52" dy="1.2em" class="st9">toggle</tspan>(LED2)   <tspan
						x="46.52" dy="1.2em" class="st9">reset counters  </tspan><tspan x="46.52" dy="1.2em" class="st9">start repeated mode timer</tspan></text>		</g>
	</g>
</svg>
