<?xml version="1.0" encoding="UTF-8" standalone="no"?>
<!DOCTYPE svg PUBLIC "-//W3C//DTD SVG 1.1//EN" "http://www.w3.org/Graphics/SVG/1.1/DTD/svg11.dtd">
<!-- Generated by Microsoft Visio, SVG Export usb_setup_ev_workflow.svg Page-1 -->
<svg xmlns="http://www.w3.org/2000/svg" xmlns:xlink="http://www.w3.org/1999/xlink" xmlns:ev="http://www.w3.org/2001/xml-events"
		width="11.158in" height="15.5044in" viewBox="0 0 803.374 1116.32" xml:space="preserve" color-interpolation-filters="sRGB"
		class="st15">
	<style type="text/css">
	<![CDATA[
		.st1 {fill:#c4dbf2;stroke:#000000;stroke-linecap:round;stroke-linejoin:round;stroke-width:0.24}
		.st2 {fill:#000000;font-family:Arial;font-size:1.00001em}
		.st3 {fill:#000000;font-family:Arial;font-size:0.958328em}
		.st4 {font-size:1em}
		.st5 {fill:#009cde;stroke:#000000;stroke-linecap:round;stroke-linejoin:round;stroke-width:0.24}
		.st6 {marker-end:url(#mrkr13-80);stroke:#000000;stroke-linecap:round;stroke-linejoin:round;stroke-width:1}
		.st7 {fill:#000000;fill-opacity:1;stroke:#000000;stroke-opacity:1;stroke-width:0.28409090909091}
		.st8 {stroke:#000000;stroke-linecap:round;stroke-linejoin:round;stroke-width:1}
		.st9 {fill:#ffffff;stroke:none;stroke-linecap:butt;stroke-width:7.2}
		.st10 {marker-end:url(#mrkr13-244);stroke:#9dbb61;stroke-linecap:round;stroke-linejoin:round;stroke-width:1}
		.st11 {fill:#9dbb61;fill-opacity:1;stroke:#9dbb61;stroke-opacity:1;stroke-width:0.28409090909091}
		.st12 {stroke:#c05046;stroke-linecap:round;stroke-linejoin:round;stroke-width:1}
		.st13 {marker-end:url(#mrkr13-277);stroke:#c05046;stroke-linecap:round;stroke-linejoin:round;stroke-width:1}
		.st14 {fill:#c05046;fill-opacity:1;stroke:#c05046;stroke-opacity:1;stroke-width:0.28409090909091}
		.st15 {fill:none;fill-rule:evenodd;font-size:12px;overflow:visible;stroke-linecap:square;stroke-miterlimit:3}
	]]>
	</style>

	<defs id="Markers">
		<g id="lend13">
			<path d="M 3 1 L 0 0 L 3 -1 L 3 1 " style="stroke:none"/>
		</g>
		<marker id="mrkr13-80" class="st7" refX="-10.56" orient="auto" markerUnits="strokeWidth" overflow="visible">
			<use xlink:href="#lend13" transform="scale(-3.52,-3.52) "/>
		</marker>
		<marker id="mrkr13-244" class="st11" refX="-10.56" orient="auto" markerUnits="strokeWidth" overflow="visible">
			<use xlink:href="#lend13" transform="scale(-3.52,-3.52) "/>
		</marker>
		<marker id="mrkr13-277" class="st14" refX="-10.56" orient="auto" markerUnits="strokeWidth" overflow="visible">
			<use xlink:href="#lend13" transform="scale(-3.52,-3.52) "/>
		</marker>
	</defs>
	<g>
		<title>Page-1</title>
		<g id="shape227-1" transform="translate(332.393,-1061.22)">
			<title>Start/End-point</title>
			<desc>SETUP</desc>
			<path d="M27.49 1116.32 L119.13 1116.32 A27.4906 27.4906 -180 0 0 119.13 1061.34 L27.49 1061.34 A27.4906 27.4906 -180
						 1 0 27.49 1116.32 Z" class="st1"/>
			<text x="53.3" y="1092.43" class="st2">SETUP</text>		</g>
		<g id="shape228-4" transform="translate(332.393,-922.6)">
			<title>Decision.228</title>
			<desc>What is the target?</desc>
			<path d="M0 1067.02 L73.31 1017.72 L146.62 1067.02 L73.31 1116.32 L0 1067.02 Z" class="st1"/>
			<text x="22.95" y="1070.62" class="st2">What is the target?</text>		</g>
		<g id="shape229-7" transform="translate(332.393,-831.228)">
			<title>Process.229</title>
			<desc>Search for the class that contains the target interface</desc>
			<rect x="0" y="1066.35" width="146.617" height="49.9718" class="st1"/>
			<text x="11.31" y="1087.88" class="st3">Search for the class that <tspan x="2.35" dy="1.2em" class="st4">contains the target interface</tspan></text>		</g>
		<g id="shape230-11" transform="translate(332.393,-702.6)">
			<title>Decision.230</title>
			<desc>Found?</desc>
			<path d="M0 1067.02 L73.31 1017.72 L146.62 1067.02 L73.31 1116.32 L0 1067.02 Z" class="st1"/>
			<text x="52.96" y="1070.62" class="st2">Found?</text>		</g>
		<g id="shape232-14" transform="translate(332.393,-601.228)">
			<title>Process.232</title>
			<desc>Call class handler</desc>
			<rect x="0" y="1066.35" width="146.617" height="49.9718" class="st5"/>
			<text x="25.95" y="1094.93" class="st2">Call class handler</text>		</g>
		<g id="shape233-17" transform="translate(332.393,-462.6)">
			<title>Decision.233</title>
			<desc>Ret == NOT_SUPPORTED?</desc>
			<path d="M0 1067.02 L73.31 1017.72 L146.62 1067.02 L73.31 1116.32 L0 1067.02 Z" class="st1"/>
			<text x="55.3" y="1063.42" class="st2">Ret == <tspan x="16.63" dy="1.2em" class="st4">NOT</tspan>_SUPPORTED?</text>		</g>
		<g id="shape234-21" transform="translate(332.393,-371.2)">
			<title>Process.234</title>
			<desc>Call standard interface handler</desc>
			<rect x="0" y="1066.35" width="146.617" height="49.9718" class="st1"/>
			<text x="13.28" y="1087.73" class="st2">Call standard interface <tspan x="53.29" dy="1.2em" class="st4">handler</tspan></text>		</g>
		<g id="shape235-25" transform="translate(332.393,-126.886)">
			<title>Decision.235</title>
			<desc>SUCCESS?</desc>
			<path d="M0 1067.02 L73.31 1017.72 L146.62 1067.02 L73.31 1116.32 L0 1067.02 Z" class="st1"/>
			<text x="40.96" y="1070.62" class="st2">SUCCESS?</text>		</g>
		<g id="shape237-28" transform="translate(332.393,-36.2188)">
			<title>Start/End-point.237</title>
			<desc>ACK</desc>
			<path d="M27.49 1116.32 L119.13 1116.32 A27.4906 27.4906 -180 0 0 119.13 1061.34 L27.49 1061.34 A27.4906 27.4906 -180
						 1 0 27.49 1116.32 Z" class="st1"/>
			<text x="60.97" y="1092.43" class="st2">ACK</text>		</g>
		<g id="shape239-31" transform="translate(163.834,-36.2188)">
			<title>Start/End-point.239</title>
			<desc>STALL</desc>
			<path d="M27.49 1116.32 L119.13 1116.32 A27.4906 27.4906 -180 0 0 119.13 1061.34 L27.49 1061.34 A27.4906 27.4906 -180
						 1 0 27.49 1116.32 Z" class="st1"/>
			<text x="54.97" y="1092.43" class="st2">STALL</text>		</g>
		<g id="shape241-34" transform="translate(612.243,-865.514)">
			<title>Process.241</title>
			<desc>Call standard device handler</desc>
			<rect x="0" y="1066.35" width="146.617" height="49.9718" class="st1"/>
			<text x="18.94" y="1087.73" class="st2">Call standard device <tspan x="53.29" dy="1.2em" class="st4">handler</tspan></text>		</g>
		<g id="shape242-38" transform="translate(612.243,-721.2)">
			<title>Decision.242</title>
			<desc>Ret == NOT_SUPPORTED?</desc>
			<path d="M0 1067.02 L73.31 1017.72 L146.62 1067.02 L73.31 1116.32 L0 1067.02 Z" class="st1"/>
			<text x="55.3" y="1063.42" class="st2">Ret == <tspan x="16.63" dy="1.2em" class="st4">NOT</tspan>_SUPPORTED?</text>		</g>
		<g id="shape243-42" transform="translate(612.243,-601.228)">
			<title>Process.243</title>
			<desc>p_inst = first_class</desc>
			<rect x="0" y="1066.35" width="146.617" height="49.9718" class="st1"/>
			<text x="23.79" y="1094.93" class="st2">p_inst = first_class</text>		</g>
		<g id="shape244-45" transform="translate(612.243,-462.6)">
			<title>Decision.244</title>
			<desc>p_inst == NULL?</desc>
			<path d="M0 1067.02 L73.31 1017.72 L146.62 1067.02 L73.31 1116.32 L0 1067.02 Z" class="st1"/>
			<text x="28.28" y="1070.62" class="st2">p_inst == NULL?</text>		</g>
		<g id="shape245-48" transform="translate(612.243,-371.228)">
			<title>Process.245.245</title>
			<desc>Call class handler</desc>
			<rect x="0" y="1066.35" width="146.617" height="49.9718" class="st5"/>
			<text x="25.95" y="1094.93" class="st2">Call class handler</text>		</g>
		<g id="shape246-51" transform="translate(612.243,-241.2)">
			<title>Decision.246</title>
			<desc>Ret == NOT_SUPPORTED?</desc>
			<path d="M0 1067.02 L73.31 1017.72 L146.62 1067.02 L73.31 1116.32 L0 1067.02 Z" class="st1"/>
			<text x="55.3" y="1063.42" class="st2">Ret == <tspan x="16.63" dy="1.2em" class="st4">NOT</tspan>_SUPPORTED?</text>		</g>
		<g id="shape247-55" transform="translate(612.243,-151.2)">
			<title>Process.247</title>
			<desc>p_inst = next_class(p_inst)</desc>
			<rect x="0" y="1066.35" width="146.617" height="49.9718" class="st1"/>
			<text x="2.1" y="1094.93" class="st2">p_inst = next_class(p_inst) </text>		</g>
		<g id="shape248-58" transform="translate(57.6643,-841.2)">
			<title>Decision.248</title>
			<desc>EP0?</desc>
			<path d="M0 1067.02 L73.31 1017.72 L146.62 1067.02 L73.31 1116.32 L0 1067.02 Z" class="st1"/>
			<text x="58.63" y="1070.62" class="st2">EP0?</text>		</g>
		<g id="shape251-61" transform="translate(57.6643,-702.6)">
			<title>Decision.251.251</title>
			<desc>EP class proc == NULL ?</desc>
			<path d="M0 1067.02 L73.31 1017.72 L146.62 1067.02 L73.31 1116.32 L0 1067.02 Z" class="st1"/>
			<text x="27.95" y="1063.42" class="st2">EP class proc == <tspan x="52.96" dy="1.2em" class="st4">NULL </tspan>?</text>		</g>
		<g id="shape252-65" transform="translate(57.6643,-601.228)">
			<title>Process.252</title>
			<desc>Call class handler</desc>
			<rect x="0" y="1066.35" width="146.617" height="49.9718" class="st5"/>
			<text x="25.95" y="1094.93" class="st2">Call class handler</text>		</g>
		<g id="shape253-68" transform="translate(57.6643,-462.6)">
			<title>Decision.253</title>
			<desc>Ret == NOT_SUPPORTED?</desc>
			<path d="M0 1067.02 L73.31 1017.72 L146.62 1067.02 L73.31 1116.32 L0 1067.02 Z" class="st1"/>
			<text x="55.3" y="1063.42" class="st2">Ret == <tspan x="16.63" dy="1.2em" class="st4">NOT</tspan>_SUPPORTED?</text>		</g>
		<g id="shape254-72" transform="translate(57.6643,-371.2)">
			<title>Process.254</title>
			<desc>Call standard EP handler</desc>
			<rect x="0" y="1066.35" width="146.617" height="49.9718" class="st1"/>
			<text x="6.6" y="1094.93" class="st2">Call standard EP handler</text>		</g>
		<g id="shape257-75" transform="translate(1522.02,55.1012) rotate(90)">
			<title>Flowline1</title>
			<path d="M0 1116.32 L29.46 1116.32" class="st6"/>
		</g>
		<g id="shape258-81" transform="translate(332.393,1260.74) rotate(180)">
			<title>Flowline1.258</title>
			<desc>Endpoint</desc>
			<path d="M0 1116.32 L201.42 1116.32" class="st8"/>
			<rect x="-55.506" y="-1123.52" width="47.3739" height="14.4001" transform="rotate(180)" class="st9"/>
			<text x="-55.51" y="-1112.72" transform="rotate(180)" class="st2">Endpoint</text>		</g>
		<g id="shape263-86" transform="translate(1247.29,144.42) rotate(90)">
			<title>Flowline1.263</title>
			<path d="M0 1116.32 L21.54 1116.32" class="st6"/>
		</g>
		<g id="shape266-91" transform="translate(57.6643,1342.14) rotate(180)">
			<title>Flowline1.266</title>
			<desc>Yes</desc>
			<path d="M0 1116.32 L30.42 1116.32" class="st8"/>
			<rect x="-27.4293" y="-1123.52" width="20.6782" height="14.4001" transform="rotate(180)" class="st9"/>
			<text x="-27.43" y="-1112.72" transform="rotate(180)" class="st2">Yes</text>		</g>
		<g id="shape269-96" transform="translate(1143.56,225.82) rotate(90)">
			<title>Flowline1.269</title>
			<path d="M0 1116.32 L494.3 1116.32" class="st8"/>
		</g>
		<g id="shape270-99" transform="translate(27.7602,-396.2) rotate(0.0265517)">
			<title>Flowline1.270</title>
			<path d="M0 1116.32 L19.86 1116.32" class="st6"/>
		</g>
		<g id="shape271-104" transform="translate(1247.29,275.12) rotate(90)">
			<title>Flowline1.271</title>
			<desc>No</desc>
			<path d="M0 1116.32 L29.44 1116.32" class="st6"/>
			<rect x="-1125.66" y="10.19" width="15.3399" height="14.4001" transform="rotate(-90)" class="st9"/>
			<text x="-1125.66" y="20.99" transform="rotate(-90)" class="st2">No</text>		</g>
		<g id="shape273-111" transform="translate(1247.29,413.72) rotate(90)">
			<title>Flowline1.273</title>
			<desc>No</desc>
			<path d="M0 1116.32 L40.84 1116.32" class="st6"/>
			<rect x="-1125.66" y="19.2006" width="15.3399" height="14.4001" transform="rotate(-90)" class="st9"/>
			<text x="-1125.66" y="30" transform="rotate(-90)" class="st2">No</text>		</g>
		<g id="shape274-118" transform="translate(1247.29,515.092) rotate(90)">
			<title>Flowline1.274</title>
			<path d="M0 1116.32 L29.47 1116.32" class="st6"/>
		</g>
		<g id="shape280-123" transform="translate(1522.02,193.72) rotate(90)">
			<title>Flowline1.280</title>
			<desc>Interface</desc>
			<path d="M0 1116.32 L30.84 1116.32" class="st6"/>
			<rect x="-1141.34" y="12.8002" width="46.6941" height="14.4001" transform="rotate(-90)" class="st9"/>
			<text x="-1141.34" y="23.6" transform="rotate(-90)" class="st2">Interface</text>		</g>
		<g id="shape281-130" transform="translate(1522.02,285.092) rotate(90)">
			<title>Flowline1.281</title>
			<path d="M0 1116.32 L19.47 1116.32" class="st6"/>
		</g>
		<g id="shape282-135" transform="translate(1522.02,413.72) rotate(90)">
			<title>Flowline1.282</title>
			<desc>Yes</desc>
			<path d="M0 1116.32 L40.84 1116.32" class="st6"/>
			<rect x="-1128.33" y="18.355" width="20.6782" height="14.4001" transform="rotate(-90)" class="st9"/>
			<text x="-1128.33" y="29.16" transform="rotate(-90)" class="st2">Yes</text>		</g>
		<g id="shape283-142" transform="translate(1522.02,515.092) rotate(90)">
			<title>Flowline1.283</title>
			<path d="M0 1116.32 L29.47 1116.32" class="st6"/>
		</g>
		<g id="shape284-147" transform="translate(1522.02,653.72) rotate(90)">
			<title>Flowline1.284</title>
			<desc>Yes</desc>
			<path d="M0 1116.32 L30.87 1116.32" class="st6"/>
			<rect x="-1128.33" y="9.20057" width="20.6782" height="14.4001" transform="rotate(-90)" class="st9"/>
			<text x="-1128.33" y="20" transform="rotate(-90)" class="st2">Yes</text>		</g>
		<g id="shape290-154" transform="translate(479.01,-971.9)">
			<title>Flowline1.290</title>
			<desc>Device</desc>
			<path d="M0 1116.32 L206.54 1116.32" class="st8"/>
			<rect x="8.2242" y="1109.12" width="36.6803" height="14.4001" class="st9"/>
			<text x="8.22" y="1119.92" class="st2">Device</text>		</g>
		<g id="shape291-159" transform="translate(1801.87,144.42) rotate(90)">
			<title>Flowline1.291</title>
			<path d="M0 1116.32 L45.85 1116.32" class="st6"/>
		</g>
		<g id="shape292-164" transform="translate(1801.87,250.806) rotate(90)">
			<title>Flowline1.292</title>
			<path d="M0 1116.32 L35.15 1116.32" class="st6"/>
		</g>
		<g id="shape293-169" transform="translate(1801.87,395.12) rotate(90)">
			<title>Flowline1.293</title>
			<desc>Yes</desc>
			<path d="M0 1116.32 L59.44 1116.32" class="st6"/>
			<rect x="-1128.33" y="6.95466" width="20.6782" height="14.4001" transform="rotate(-90)" class="st9"/>
			<text x="-1128.33" y="17.75" transform="rotate(-90)" class="st2">Yes</text>		</g>
		<g id="shape297-176" transform="translate(166.009,-963.503) rotate(-14.2356)">
			<title>Flowline1.297</title>
			<path d="M0 1116.32 L135.89 1116.32" class="st8"/>
		</g>
		<g id="shape298-179" transform="translate(572.243,-1031.2)">
			<title>Flowline1.298</title>
			<desc>Others</desc>
			<path d="M0 1116.32 L220 1116.32" class="st8"/>
			<rect x="0.325242" y="1109.12" width="36.0121" height="14.4001" class="st9"/>
			<text x="0.33" y="1119.92" class="st2">Others</text>		</g>
		<g id="shape299-184" transform="translate(1908.56,85.12) rotate(90)">
			<title>Flowline1.299</title>
			<path d="M0 1116.32 L334.98 1116.32" class="st8"/>
		</g>
		<g id="shape300-187" transform="translate(792.427,1536.42) rotate(179.991)">
			<title>Flowline1.300</title>
			<path d="M0 1116.32 L96.13 1116.32" class="st6"/>
		</g>
		<g id="shape304-192" transform="translate(1801.87,515.092) rotate(90)">
			<title>Flowline1.304</title>
			<path d="M0 1116.32 L29.47 1116.32" class="st6"/>
		</g>
		<g id="shape305-197" transform="translate(1801.87,653.72) rotate(90)">
			<title>Flowline1.305</title>
			<desc>No</desc>
			<path d="M0 1116.32 L30.84 1116.32" class="st6"/>
			<rect x="-1125.66" y="8.3593" width="15.3399" height="14.4001" transform="rotate(-90)" class="st9"/>
			<text x="-1125.66" y="19.16" transform="rotate(-90)" class="st2">No</text>		</g>
		<g id="shape306-204" transform="translate(1801.87,875.12) rotate(90)">
			<title>Flowline1.306</title>
			<desc>Yes</desc>
			<path d="M0 1116.32 L29.47 1116.32" class="st6"/>
			<rect x="-1128.33" y="7.80019" width="20.6782" height="14.4001" transform="rotate(-90)" class="st9"/>
			<text x="-1128.33" y="18.6" transform="rotate(-90)" class="st2">Yes</text>		</g>
		<g id="shape310-211" transform="translate(1247.29,745.12) rotate(90)">
			<title>Flowline1.310</title>
			<path d="M0 1116.32 L80 1116.32" class="st8"/>
		</g>
		<g id="shape311-214" transform="translate(132.597,-291.199) rotate(0.0833581)">
			<title>Flowline1.311</title>
			<desc>No</desc>
			<path d="M0 1116.32 L481.27 1116.32" class="st8"/>
			<rect x="455.911" y="1109.12" width="15.3399" height="14.4001" transform="rotate(-0.0833581)" class="st9"/>
			<text x="455.91" y="1119.92" transform="rotate(-0.0833581)" class="st2">No</text>		</g>
		<g id="shape313-219" transform="translate(204.281,-511.9)">
			<title>Flowline1.313</title>
			<desc>No</desc>
			<path d="M0 1116.32 L27.96 1116.32" class="st8"/>
			<rect x="8.62333" y="1109.12" width="15.3399" height="14.4001" class="st9"/>
			<text x="8.62" y="1119.92" class="st2">No</text>		</g>
		<g id="shape314-224" transform="translate(1348.56,604.42) rotate(90)">
			<title>Flowline1.314</title>
			<path d="M0 1116.32 L210.29 1116.32" class="st6"/>
		</g>
		<g id="shape315-229" transform="translate(1801.87,745.092) rotate(90)">
			<title>Flowline1.315</title>
			<path d="M0 1116.32 L20.87 1116.32" class="st6"/>
		</g>
		<g id="shape324-234" transform="translate(1522.02,745.12) rotate(90)">
			<title>Flowline1.324</title>
			<path d="M0 1116.32 L69.84 1116.32" class="st6"/>
		</g>
		<g id="shape325-239" transform="translate(1522.02,989.434) rotate(90)">
			<title>Flowline1.325</title>
			<desc>Yes</desc>
			<path d="M0 1116.32 L25.13 1116.32" class="st10"/>
			<rect x="-1128.33" y="8.48628" width="20.6782" height="14.4001" transform="rotate(-90)" class="st9"/>
			<text x="-1128.33" y="19.29" transform="rotate(-90)" class="st2">Yes</text>		</g>
		<g id="shape326-247" transform="translate(685.551,-111.2)">
			<title>Flowline1.326</title>
			<path d="M0 1116.32 L106.69 1116.32" class="st8"/>
		</g>
		<g id="shape327-250" transform="translate(1801.87,965.12) rotate(90)">
			<title>Flowline1.327</title>
			<path d="M0 1116.32 L40 1116.32" class="st8"/>
		</g>
		<g id="shape328-253" transform="translate(-324.077,1005.12) rotate(-90)">
			<title>Flowline1.328</title>
			<path d="M0 1116.32 L469.46 1116.32" class="st8"/>
		</g>
		<g id="shape329-256" transform="translate(792.243,1651.98) rotate(180)">
			<title>Flowline1.329</title>
			<path d="M0 1116.32 L96.13 1116.32" class="st6"/>
		</g>
		<g id="shape331-261" transform="translate(612.243,1720.74) rotate(180)">
			<title>Flowline1.331</title>
			<desc>Yes</desc>
			<path d="M0 1116.32 L40 1116.32" class="st12"/>
			<rect x="-32.0078" y="-1123.52" width="20.6782" height="14.4001" transform="rotate(180)" class="st9"/>
			<text x="-32.01" y="-1112.72" transform="rotate(180)" class="st2">Yes</text>		</g>
		<g id="shape332-266" transform="translate(1688.56,604.42) rotate(90)">
			<title>Flowline1.332</title>
			<path d="M0 1116.32 L500.7 1116.32" class="st12"/>
		</g>
		<g id="shape333-269" transform="translate(572.243,2221.44) rotate(180)">
			<title>Flowline1.333</title>
			<path d="M0 1116.32 L335.1 1116.32" class="st12"/>
		</g>
		<g id="shape334-272" transform="translate(-879.178,1105.12) rotate(-90)">
			<title>Flowline1.334</title>
			<path d="M0 1116.32 L14.46 1116.32" class="st13"/>
		</g>
		<g id="shape336-278" transform="translate(604.449,1462.11) rotate(-179.6)">
			<title>Flowline1.336</title>
			<desc>No</desc>
			<path d="M0 1116.32 L100.29 1116.32" class="st8"/>
			<rect x="-21.5442" y="-1123.63" width="15.3399" height="14.4001" transform="rotate(179.6)" class="st9"/>
			<text x="-21.54" y="-1112.83" transform="rotate(179.6)" class="st2">No</text>		</g>
		<g id="shape337-283" transform="translate(1628.28,345.12) rotate(90)">
			<title>Flowline1.337</title>
			<path d="M0 1116.32 L469.99 1116.32" class="st6"/>
		</g>
		<g id="shape338-288" transform="translate(332.393,1480.74) rotate(180)">
			<title>Flowline1.338</title>
			<desc>No</desc>
			<path d="M0 1116.32 L65.15 1116.32" class="st12"/>
			<rect x="-29.3387" y="-1123.52" width="15.3399" height="14.4001" transform="rotate(180)" class="st9"/>
			<text x="-29.34" y="-1112.72" transform="rotate(180)" class="st2">No</text>		</g>
		<g id="shape339-293" transform="translate(204.281,-751.9)">
			<title>Flowline1.339</title>
			<desc>Yes</desc>
			<path d="M0 1116.32 L62.96 1116.32" class="st12"/>
			<rect x="7.99219" y="1109.12" width="20.6782" height="14.4001" class="st9"/>
			<text x="7.99" y="1119.92" class="st2">Yes</text>		</g>
		<g id="shape340-298" transform="translate(1383.56,364.42) rotate(90)">
			<title>Flowline1.340</title>
			<path d="M0 1116.32 L650.14 1116.32" class="st13"/>
		</g>
		<g id="shape345-303" transform="translate(332.393,1720.74) rotate(180)">
			<title>Flowline1.345</title>
			<desc>No</desc>
			<path d="M0 1116.32 L30.15 1116.32" class="st8"/>
			<rect x="-19.4891" y="-1123.52" width="15.3399" height="14.4001" transform="rotate(180)" class="st9"/>
			<text x="-19.49" y="-1112.72" transform="rotate(180)" class="st2">No</text>		</g>
		<g id="shape346-308" transform="translate(1418.56,604.42) rotate(90)">
			<title>Flowline1.346</title>
			<path d="M0 1116.32 L210.39 1116.32" class="st6"/>
		</g>
		<g id="shape347-313" transform="translate(1247.29,653.72) rotate(90)">
			<title>Flowline1.347</title>
			<desc>Yes</desc>
			<path d="M0 1116.32 L30.87 1116.32" class="st6"/>
			<rect x="-1128.33" y="9.20057" width="20.6782" height="14.4001" transform="rotate(-90)" class="st9"/>
			<text x="-1128.33" y="20" transform="rotate(-90)" class="st2">Yes</text>		</g>
		<g id="shape349-320" transform="translate(332.393,2056.45) rotate(180)">
			<title>Flowline1.349</title>
			<desc>No</desc>
			<path d="M0 1116.32 L54.59 1116.32" class="st13"/>
			<rect x="-29.3387" y="-1123.52" width="15.3399" height="14.4001" transform="rotate(180)" class="st9"/>
			<text x="-29.34" y="-1112.72" transform="rotate(180)" class="st2">No</text>		</g>
		<g id="shape350-327" transform="translate(1522.02,825.52) rotate(90)">
			<title>Flowline1.350</title>
			<path d="M0 1116.32 L54.75 1116.32" class="st6"/>
		</g>
	</g>
</svg>
