<?xml version="1.0" encoding="UTF-8" standalone="no"?>
<!DOCTYPE svg PUBLIC "-//W3C//DTD SVG 1.1//EN" "http://www.w3.org/Graphics/SVG/1.1/DTD/svg11.dtd">
<!-- Generated by Microsoft Visio, SVG Export usb_msc_command.svg Page-1 -->
<svg xmlns="http://www.w3.org/2000/svg" xmlns:xlink="http://www.w3.org/1999/xlink" xmlns:ev="http://www.w3.org/2001/xml-events"
		width="6.24455in" height="4.80156in" viewBox="0 0 449.607 345.712" xml:space="preserve" color-interpolation-filters="sRGB"
		class="st6">
	<style type="text/css">
	<![CDATA[
		.st1 {fill:#c4dbf2;stroke:#000000;stroke-linecap:round;stroke-linejoin:round;stroke-width:0.75}
		.st2 {fill:#000000;font-family:Calibri;font-size:1.16666em}
		.st3 {font-size:1em}
		.st4 {marker-end:url(#mrkr13-26);stroke:#000000;stroke-linecap:round;stroke-linejoin:round;stroke-width:0.75}
		.st5 {fill:#000000;fill-opacity:1;stroke:#000000;stroke-opacity:1;stroke-width:0.22935779816514}
		.st6 {fill:none;fill-rule:evenodd;font-size:12px;overflow:visible;stroke-linecap:square;stroke-miterlimit:3}
	]]>
	</style>

	<defs id="Markers">
		<g id="lend13">
			<path d="M 3 1 L 0 0 L 3 -1 L 3 1 " style="stroke:none"/>
		</g>
		<marker id="mrkr13-26" class="st5" refX="-13.08" orient="auto" markerUnits="strokeWidth" overflow="visible">
			<use xlink:href="#lend13" transform="scale(-4.36,-4.36) "/>
		</marker>
	</defs>
	<g>
		<title>Page-1</title>
		<g id="group315-1" transform="translate(58.2471,-40.3406)">
			<title>Sheet.315</title>
			<g id="shape291-2" transform="translate(130.328,1.13687E-013)">
				<title>Block2.291</title>
				<desc>Status Transport (CSW)</desc>
				<rect x="0" y="295.712" width="130.328" height="50" class="st1"/>
				<text x="18.13" y="316.51" class="st2">Status Transport <tspan x="47.74" dy="1.2em" class="st3">(</tspan>CSW)</text>			</g>
			<g id="shape292-6" transform="translate(130.328,-254.997)">
				<title>Block2.292</title>
				<desc>Ready</desc>
				<rect x="0" y="295.712" width="130.328" height="50" class="st1"/>
				<text x="47.68" y="324.91" class="st2">Ready</text>			</g>
			<g id="shape293-9" transform="translate(260.657,-85)">
				<title>Block2.293</title>
				<desc>Data – in (to host)</desc>
				<rect x="0" y="295.712" width="130.328" height="50" class="st1"/>
				<text x="39.87" y="316.51" class="st2">Data – in  <tspan x="40.85" dy="1.2em" class="st3">(</tspan>to host)</text>			</g>
			<g id="shape294-13" transform="translate(130.328,-170)">
				<title>Block2.294</title>
				<desc>Command Transport (CBW)</desc>
				<rect x="0" y="295.712" width="130.328" height="50" class="st1"/>
				<text x="6.49" y="316.51" class="st2">Command Transport <tspan x="47.15" dy="1.2em" class="st3">(</tspan>CBW)</text>			</g>
			<g id="shape295-17" transform="translate(3.19744E-014,-85)">
				<title>Block2.295</title>
				<desc>Data – out (from host)</desc>
				<rect x="0" y="295.712" width="130.328" height="50" class="st1"/>
				<text x="35.44" y="316.51" class="st2">Data – out <tspan x="33.03" dy="1.2em" class="st3">(</tspan>from host)</text>			</g>
			<g id="shape301-21" transform="translate(195.493,-7.38964E-013)">
				<title>Line2</title>
				<path d="M0 345.71 L0 375.71 L-223.74 375.71 L-223.74 65.72 L-74.97 65.72" class="st4"/>
			</g>
			<g id="shape305-27" transform="translate(182.993,-254.997)">
				<title>Line1</title>
				<path d="M12.5 345.71 L12.5 370.9" class="st4"/>
			</g>
			<g id="shape306-32" transform="translate(130.328,-195)">
				<title>Line1.306</title>
				<path d="M0 345.71 L-65.16 345.71 L-65.16 395.9" class="st4"/>
			</g>
			<g id="shape311-37" transform="translate(260.657,-195)">
				<title>Line1.311</title>
				<path d="M0 345.71 L65.16 345.71 L65.16 395.9" class="st4"/>
			</g>
			<g id="shape312-42" transform="translate(325.821,-85)">
				<title>Line1.312</title>
				<path d="M0 345.71 L0 405.7 L-55.35 405.7" class="st4"/>
			</g>
			<g id="shape313-47" transform="translate(65.1642,-85)">
				<title>Line1.313</title>
				<path d="M0 345.71 L0 405.71 L55.35 405.71" class="st4"/>
			</g>
		</g>
	</g>
</svg>
