<?xml version="1.0" encoding="UTF-8" standalone="no"?>
<!DOCTYPE svg PUBLIC "-//W3C//DTD SVG 1.1//EN" "http://www.w3.org/Graphics/SVG/1.1/DTD/svg11.dtd">
<!-- Generated by Microsoft Visio, SVG Export usb_low_level.svg Page-1 -->
<svg xmlns="http://www.w3.org/2000/svg" xmlns:xlink="http://www.w3.org/1999/xlink" xmlns:ev="http://www.w3.org/2001/xml-events"
		width="11.6352in" height="9.66597in" viewBox="0 0 837.735 695.95" xml:space="preserve" color-interpolation-filters="sRGB"
		class="st18">
	<style type="text/css">
	<![CDATA[
		.st1 {fill:#f0f0f0}
		.st2 {stroke:#000000;stroke-linecap:round;stroke-linejoin:round;stroke-width:0.75}
		.st3 {stroke:#000000;stroke-linecap:round;stroke-linejoin:round;stroke-width:0.24}
		.st4 {fill:#f0f0f0;stroke:#f0f0f0;stroke-linecap:round;stroke-linejoin:round;stroke-width:0.75}
		.st5 {fill:none;stroke:none;stroke-linecap:round;stroke-linejoin:round;stroke-width:0.75}
		.st6 {fill:#000000;font-family:Calibri;font-size:0.725006em}
		.st7 {font-size:1em}
		.st8 {fill:#c4dbf2;stroke:#000000;stroke-linecap:round;stroke-linejoin:round;stroke-width:0.75}
		.st9 {fill:#000000;font-family:Calibri;font-size:1.5em}
		.st10 {fill:#f0f0f0;stroke:#000000;stroke-linecap:round;stroke-linejoin:round;stroke-width:0.5}
		.st11 {marker-end:url(#mrkr13-77);stroke:#000000;stroke-linecap:round;stroke-linejoin:round;stroke-width:0.75}
		.st12 {fill:#000000;fill-opacity:1;stroke:#000000;stroke-opacity:1;stroke-width:0.22935779816514}
		.st13 {fill:#ffffff;stroke:none;stroke-linecap:butt;stroke-width:7.2}
		.st14 {fill:#000000;font-family:Arial;font-size:1.5em}
		.st15 {fill:#000000;font-family:Arial;font-size:1.00001em}
		.st16 {fill:#000000;font-family:Calibri;font-size:0.75em}
		.st17 {fill:#000000;font-family:Calibri;font-size:0.833336em}
		.st18 {fill:none;fill-rule:evenodd;font-size:12px;overflow:visible;stroke-linecap:square;stroke-miterlimit:3}
	]]>
	</style>

	<defs id="Markers">
		<g id="lend13">
			<path d="M 3 1 L 0 0 L 3 -1 L 3 1 " style="stroke:none"/>
		</g>
		<marker id="mrkr13-77" class="st12" refX="-13.08" orient="auto" markerUnits="strokeWidth" overflow="visible">
			<use xlink:href="#lend13" transform="scale(-4.36,-4.36) "/>
		</marker>
	</defs>
	<g>
		<title>Page-1</title>
		<g id="group300-1" transform="translate(221.815,-515.375)">
			<title>Sheet.300</title>
			<g id="group293-2" transform="translate(695.95,666.266) rotate(90)">
				<title>1-D single.293</title>
				<g id="shape294-3">
					<title>Sheet.294</title>
					<path d="M-2.25 675.45 L19.79 675.45 L19.79 695.95 L29.68 654.95 L19.79 613.95 L19.79 634.45 L-2.25 634.45 L-2.25
								 675.45 Z" class="st1"/>
					<path d="M-2.25 675.45 L19.79 675.45 L19.79 695.95 L29.68 654.95 L19.79 613.95 L19.79 634.45 L-2.25 634.45"
							class="st2"/>
				</g>
				<g id="shape295-6">
					<title>Sheet.295</title>
					<path d="M0 675.45 L19.79 675.45 L19.79 695.95 L29.68 654.95 L19.79 613.95 L19.79 634.45 L0 634.45" class="st3"/>
				</g>
				<g id="shape296-9" transform="translate(-0.48,-20.74)">
					<title>Sheet.296</title>
					<rect x="0" y="655.43" width="0.48" height="40.52" class="st4"/>
				</g>
			</g>
			<g id="shape299-11" transform="translate(16.4607,-2)">
				<title>Sheet.299</title>
				<desc>To low level driver</desc>
				<rect x="0" y="671.95" width="49.0786" height="24" class="st5"/>
				<text x="12.74" y="681.34" class="st6">To low <tspan x="4.82" dy="1.2em" class="st7">level driver</tspan></text>			</g>
		</g>
		<g id="group301-15" transform="translate(461.394,-515.375)">
			<title>Sheet.301</title>
			<g id="group302-16" transform="translate(695.95,666.266) rotate(90)">
				<title>1-D single.293</title>
				<g id="shape303-17">
					<title>Sheet.303</title>
					<path d="M-2.25 675.45 L19.79 675.45 L19.79 695.95 L29.68 654.95 L19.79 613.95 L19.79 634.45 L-2.25 634.45 L-2.25
								 675.45 Z" class="st1"/>
					<path d="M-2.25 675.45 L19.79 675.45 L19.79 695.95 L29.68 654.95 L19.79 613.95 L19.79 634.45 L-2.25 634.45"
							class="st2"/>
				</g>
				<g id="shape304-20">
					<title>Sheet.304</title>
					<path d="M0 675.45 L19.79 675.45 L19.79 695.95 L29.68 654.95 L19.79 613.95 L19.79 634.45 L0 634.45" class="st3"/>
				</g>
				<g id="shape305-23" transform="translate(-0.48,-20.74)">
					<title>Sheet.305</title>
					<rect x="0" y="655.43" width="0.48" height="40.52" class="st4"/>
				</g>
			</g>
			<g id="shape306-25" transform="translate(16.4607,-2)">
				<title>Sheet.306</title>
				<desc>To low level driver</desc>
				<rect x="0" y="671.95" width="49.0786" height="24" class="st5"/>
				<text x="12.74" y="681.34" class="st6">To low <tspan x="4.82" dy="1.2em" class="st7">level driver</tspan></text>			</g>
		</g>
		<g id="group309-29" transform="translate(686.394,-515.375)">
			<title>Sheet.309</title>
			<g id="group310-30" transform="translate(695.95,666.266) rotate(90)">
				<title>1-D single.293</title>
				<g id="shape311-31">
					<title>Sheet.311</title>
					<path d="M-2.25 675.45 L19.79 675.45 L19.79 695.95 L29.68 654.95 L19.79 613.95 L19.79 634.45 L-2.25 634.45 L-2.25
								 675.45 Z" class="st1"/>
					<path d="M-2.25 675.45 L19.79 675.45 L19.79 695.95 L29.68 654.95 L19.79 613.95 L19.79 634.45 L-2.25 634.45"
							class="st2"/>
				</g>
				<g id="shape312-34">
					<title>Sheet.312</title>
					<path d="M0 675.45 L19.79 675.45 L19.79 695.95 L29.68 654.95 L19.79 613.95 L19.79 634.45 L0 634.45" class="st3"/>
				</g>
				<g id="shape313-37" transform="translate(-0.48,-20.74)">
					<title>Sheet.313</title>
					<rect x="0" y="655.43" width="0.48" height="40.52" class="st4"/>
				</g>
			</g>
			<g id="shape314-39" transform="translate(16.4607,-2)">
				<title>Sheet.314</title>
				<desc>To low level driver</desc>
				<rect x="0" y="671.95" width="49.0786" height="24" class="st5"/>
				<text x="12.74" y="681.34" class="st6">To low <tspan x="4.82" dy="1.2em" class="st7">level driver</tspan></text>			</g>
		</g>
		<g id="shape227-43" transform="translate(77.394,-0.375)">
			<title>Block2</title>
			<desc>USBD</desc>
			<rect x="0" y="643.45" width="575" height="52.5" class="st8"/>
			<text x="267.16" y="675.1" class="st9">USBD</text>		</g>
		<g id="shape228-46" transform="translate(77.394,-102.875)">
			<title>Block2.228</title>
			<desc>HAL</desc>
			<rect x="0" y="643.45" width="323.99" height="52.5" class="st8"/>
			<text x="147.4" y="675.1" class="st9">HAL</text>		</g>
		<g id="shape229-49" transform="translate(298.885,-205.375)">
			<title>Block2.229</title>
			<desc>Low level driver</desc>
			<rect x="0" y="593.45" width="205" height="102.5" class="st8"/>
			<text x="44.7" y="650.1" class="st9">Low level driver</text>		</g>
		<g id="shape230-52" transform="translate(502.394,-357.875)">
			<title>Block2.230</title>
			<desc>Controller</desc>
			<rect x="0" y="593.45" width="150" height="102.5" class="st8"/>
			<text x="38.08" y="650.1" class="st9">Controller</text>		</g>
		<g id="shape232-55" transform="translate(227.394,-357.875)">
			<title>Block2.232</title>
			<desc>Core</desc>
			<rect x="0" y="593.45" width="150" height="102.5" class="st8"/>
			<text x="57.84" y="650.1" class="st9">Core</text>		</g>
		<g id="shape233-58" transform="translate(0.375,-357.875)">
			<title>Block2.233</title>
			<desc>Strings</desc>
			<rect x="0" y="593.45" width="150" height="102.5" class="st8"/>
			<text x="50.16" y="650.1" class="st9">Strings</text>		</g>
		<g id="shape237-61" transform="translate(187.815,-545.059)">
			<title>Block2.237</title>
			<desc>Class</desc>
			<rect x="0" y="593.45" width="150" height="102.5" class="st8"/>
			<text x="56.78" y="650.1" class="st9">Class</text>		</g>
		<g id="shape238-64" transform="translate(427.394,-545.059)">
			<title>Block2.238</title>
			<desc>Class</desc>
			<rect x="0" y="593.45" width="150" height="102.5" class="st8"/>
			<text x="56.78" y="650.1" class="st9">Class</text>		</g>
		<g id="shape239-67" transform="translate(652.394,-545.059)">
			<title>Block2.239</title>
			<desc>Class</desc>
			<rect x="0" y="593.45" width="150" height="102.5" class="st8"/>
			<text x="56.78" y="650.1" class="st9">Class</text>		</g>
		<g id="shape242-70" transform="translate(-456.561,643.075) rotate(-90)">
			<title>Maste.vertical</title>
			<path d="M0 695.95 L10.5 671.95 L10.5 683.95 L39.5 683.95 L39.5 671.95 L50 695.95 L39.5 719.95 L39.5 707.95 L10.5 707.95
						 L10.5 719.95 L0 695.95 Z" class="st10"/>
		</g>
		<g id="shape244-72" transform="translate(444.894,-52.875)">
			<title>Line1</title>
			<desc>ISR</desc>
			<path d="M12.5 695.95 L12.5 553.26" class="st11"/>
			<rect x="-2.5138" y="580.82" width="30.0059" height="21.5999" class="st13"/>
			<text x="-2.51" y="597.02" class="st14">ISR</text>		</g>
		<g id="shape246-80" transform="translate(503.885,-269.134)">
			<title>Line1.246</title>
			<path d="M0 708.44 L73.51 708.46" class="st2"/>
		</g>
		<g id="shape248-83" transform="translate(589.894,-256.625)">
			<title>Line1.248</title>
			<desc>Event handler</desc>
			<path d="M-12.5 695.95 L-12.5 604.51" class="st11"/>
			<rect x="-51.2056" y="619.482" width="74.052" height="14.4001" class="st13"/>
			<text x="-51.21" y="630.28" class="st15">Event handler</text>		</g>
		<g id="shape253-90" transform="translate(-348.556,540.575) rotate(-90)">
			<title>Maste.vertical.253</title>
			<path d="M0 695.95 L10.5 671.95 L10.5 683.95 L39.5 683.95 L39.5 671.95 L50 695.95 L39.5 719.95 L39.5 707.95 L10.5 707.95
						 L10.5 719.95 L0 695.95 Z" class="st10"/>
		</g>
		<g id="shape254-92" transform="translate(377.394,-452.875)">
			<title>Line1.254</title>
			<path d="M0 708.45 L114.19 708.45" class="st11"/>
		</g>
		<g id="shape257-97" transform="translate(380.394,-443.375)">
			<title>Sheet.257</title>
			<desc>Send back to endpoint interface or all classes</desc>
			<rect x="0" y="679.95" width="105" height="16" class="st5"/>
			<text x="11.46" y="685.25" class="st16">Send back to endpoint <tspan x="12.29" dy="1.2em" class="st7">interface or all classes</tspan></text>		</g>
		<g id="shape261-101" transform="translate(502.692,-363.085)">
			<title>Line1.261</title>
			<path d="M0 683.45 L-115.49 683.45" class="st11"/>
		</g>
		<g id="shape262-106" transform="translate(385.394,-378.375)">
			<title>Sheet.262</title>
			<desc>System events</desc>
			<rect x="0" y="686.95" width="109" height="9" class="st5"/>
			<text x="28.14" y="694.15" class="st16">System events</text>		</g>
		<g id="shape264-109" transform="translate(227.394,-427.875)">
			<title>Line1.264</title>
			<path d="M0 683.45 L-67.21 683.45" class="st11"/>
		</g>
		<g id="shape265-114" transform="translate(157.394,-440.375)">
			<title>Sheet.265</title>
			<desc>Get descriptor</desc>
			<rect x="0" y="685.95" width="63" height="10" class="st5"/>
			<text x="5.22" y="693.65" class="st16">Get descriptor</text>		</g>
		<g id="shape267-117" transform="translate(150.375,-362.875)">
			<title>Line1.267</title>
			<path d="M0 683.45 L67.21 683.45" class="st11"/>
		</g>
		<g id="shape268-122" transform="translate(150.375,-375.585)">
			<title>Sheet.268</title>
			<desc>String descriptor</desc>
			<rect x="0" y="685.95" width="70" height="10" class="st5"/>
			<text x="4.64" y="693.65" class="st16">String descriptor</text>		</g>
		<g id="group270-125" transform="translate(1025.34,340.575) rotate(90)">
			<title>1-D single</title>
			<g id="shape271-126">
				<title>Sheet.271</title>
				<path d="M-2.25 686.95 L38.5 686.95 L38.5 695.95 L47.5 677.95 L38.5 659.95 L38.5 668.95 L-2.25 668.95 L-2.25 686.95
							 Z" class="st1"/>
				<path d="M-2.25 686.95 L38.5 686.95 L38.5 695.95 L47.5 677.95 L38.5 659.95 L38.5 668.95 L-2.25 668.95" class="st2"/>
			</g>
			<g id="shape272-129">
				<title>Sheet.272</title>
				<path d="M0 686.95 L38.5 686.95 L38.5 695.95 L47.5 677.95 L38.5 659.95 L38.5 668.95 L0 668.95" class="st3"/>
			</g>
			<g id="shape273-132" transform="translate(-0.48,-9.24)">
				<title>Sheet.273</title>
				<rect x="0" y="678.43" width="0.48" height="17.52" class="st4"/>
			</g>
		</g>
		<g id="shape275-134" transform="translate(547.394,-460.375)">
			<title>Line1.275</title>
			<path d="M0 695.95 L-220 640.95 L-220 621.08" class="st11"/>
		</g>
		<g id="shape276-139" transform="translate(584.894,-460.375)">
			<title>Line1.276</title>
			<path d="M-7.5 695.95 L-17.5 650.95 L-17.5 621.08" class="st11"/>
		</g>
		<g id="shape277-144" transform="translate(627.394,-460.375)">
			<title>Line1.277</title>
			<path d="M0 695.95 L160 640.95 L160 621.08" class="st11"/>
		</g>
		<g id="shape280-149" transform="translate(652.394,-440.375)">
			<title>Line4</title>
			<path d="M0 695.95 L175 695.95 L175 451.57 L-505 451.57 L-505 505.95 L-474.39 505.95" class="st11"/>
		</g>
		<g id="shape282-154" transform="translate(337.815,-617.875)">
			<title>Line1.282</title>
			<desc>next</desc>
			<path d="M0 683.45 L79.77 683.45" class="st11"/>
			<rect x="35.2838" y="676.239" width="22.6821" height="14.4001" class="st13"/>
			<text x="35.28" y="687.04" class="st15">next</text>		</g>
		<g id="shape283-161" transform="translate(577.394,-617.875)">
			<title>Line1.283</title>
			<desc>next</desc>
			<path d="M0 683.45 L65.19 683.45" class="st11"/>
			<rect x="25.3101" y="676.239" width="22.6821" height="14.4001" class="st13"/>
			<text x="25.31" y="687.04" class="st15">next</text>		</g>
		<g id="shape285-168" transform="translate(708.352,-475.375)">
			<title>Sheet.285</title>
			<desc>Class events</desc>
			<rect x="0" y="679.683" width="105" height="16.2667" class="st5"/>
			<text x="7.97" y="693.22" class="st9">Class events</text>		</g>
		<g id="shape287-171" transform="translate(187.815,-596.309)">
			<title>Line4.287</title>
			<path d="M0 695.95 L-60.42 695.95 L-60.42 806.88 L49.58 806.88 L49.58 822.07" class="st11"/>
		</g>
		<g id="shape288-176" transform="translate(112.894,-479.375)">
			<title>Sheet.288</title>
			<desc>Descriptor pointer</desc>
			<rect x="0" y="675.95" width="105" height="20" class="st5"/>
			<text x="15.22" y="688.95" class="st17">Descriptor pointer</text>		</g>
		<g id="shape290-179" transform="translate(302.394,-460.375)">
			<title>Line4.290</title>
			<path d="M0 695.95 L0 650.95 L-145 650.95 L-145 590.95 L-124.39 590.95" class="st11"/>
		</g>
		<g id="shape292-184" transform="translate(153.815,-502.524)">
			<title>Sheet.292</title>
			<desc>Get descriptor</desc>
			<rect x="0" y="675.95" width="68" height="20" class="st5"/>
			<text x="4.8" y="688.95" class="st17">Get descriptor</text>		</g>
	</g>
</svg>
