<?xml version="1.0" encoding="UTF-8" standalone="no"?>
<!DOCTYPE svg PUBLIC "-//W3C//DTD SVG 1.1//EN" "http://www.w3.org/Graphics/SVG/1.1/DTD/svg11.dtd">
<!-- Generated by Microsoft Visio, SVG Export usb_msc_flow.svg Page-1 -->
<svg xmlns="http://www.w3.org/2000/svg" xmlns:xlink="http://www.w3.org/1999/xlink" xmlns:ev="http://www.w3.org/2001/xml-events"
		width="11.9152in" height="2.76413in" viewBox="0 0 857.891 199.018" xml:space="preserve" color-interpolation-filters="sRGB"
		class="st11">
	<style type="text/css">
	<![CDATA[
		.st1 {fill:#c4dbf2;stroke:#000000;stroke-linecap:round;stroke-linejoin:round;stroke-width:0.24}
		.st2 {fill:#000000;font-family:Arial;font-size:1.16666em}
		.st3 {stroke:#000000;stroke-linecap:round;stroke-linejoin:round;stroke-width:0.72}
		.st4 {fill:#c4dbf2;stroke:#000000;stroke-linecap:round;stroke-linejoin:round;stroke-width:0.72}
		.st5 {fill:#000000;font-family:Arial;font-size:1.08334em}
		.st6 {fill:none;stroke:none;stroke-linecap:round;stroke-linejoin:round;stroke-width:0.75}
		.st7 {fill:#000000;font-family:Calibri;font-size:1.16666em}
		.st8 {font-size:1em}
		.st9 {marker-end:url(#mrkr13-31);stroke:#000000;stroke-linecap:round;stroke-linejoin:round;stroke-width:0.24}
		.st10 {fill:#000000;fill-opacity:1;stroke:#000000;stroke-opacity:1;stroke-width:0.08695652173913}
		.st11 {fill:none;fill-rule:evenodd;font-size:12px;overflow:visible;stroke-linecap:square;stroke-miterlimit:3}
	]]>
	</style>

	<defs id="Markers">
		<g id="lend13">
			<path d="M 3 1 L 0 0 L 3 -1 L 3 1 " style="stroke:none"/>
		</g>
		<marker id="mrkr13-31" class="st10" refX="-34.5" orient="auto" markerUnits="strokeWidth" overflow="visible">
			<use xlink:href="#lend13" transform="scale(-11.5,-11.5) "/>
		</marker>
	</defs>
	<g>
		<title>Page-1</title>
		<g id="shape227-1" transform="translate(0.12,-55.1526)">
			<title>Sheet.227</title>
			<desc>Mass Storage Class</desc>
			<rect x="0" y="118.124" width="134.823" height="80.8935" class="st1"/>
			<text x="4.78" y="162.77" class="st2">Mass Storage Class</text>		</g>
		<g id="group235-4" transform="translate(187.531,-12.628)">
			<title>Sheet.235</title>
			<g id="group228-5">
				<title>Sheet.228</title>
				<g id="shape229-6">
					<title>Sheet.229</title>
					<path d="M0 56.68 L0 175.41 A23.6037 23.6037 -180 0 0 23.6 199.02 L96.4 199.02 A23.6037 23.6037 -180 0 0 120
								 175.41 L120 56.68 L0 56.68" class="st3"/>
				</g>
				<g id="shape230-9" transform="translate(0,-142.339)">
					<title>Sheet.230</title>
					<desc>Block Device API</desc>
					<path d="M120 199.02 L0 199.02 A23.6037 23.6037 0 0 1 23.6 175.41 L96.4 175.41 A23.6037 23.6037 0 0 1 120 199.02
								 Z" class="st4"/>
					<text x="10.15" y="191.12" class="st5">Block Device API</text>				</g>
			</g>
			<g id="shape234-12" transform="translate(26.6476,-32.5332)">
				<title>Sheet.234</title>
				<desc>init uninit blk_read blk_write</desc>
				<rect x="0" y="100.836" width="66.7048" height="98.1811" class="st6"/>
				<text x="24.12" y="128.93" class="st7">init <tspan x="16.76" dy="1.2em" class="st8">uninit </tspan><tspan x="8.45"
							dy="1.2em" class="st8">blk</tspan>_read <tspan x="6.52" dy="1.2em" class="st8">blk</tspan>_write</text>			</g>
		</g>
		<g id="shape238-18" transform="translate(360.12,-55.1526)">
			<title>Sheet.238</title>
			<desc>Block Device</desc>
			<rect x="0" y="118.124" width="134.823" height="80.8935" class="st1"/>
			<text x="26.95" y="162.77" class="st2">Block Device</text>		</g>
		<g id="shape239-21" transform="translate(557.531,-55.1526)">
			<title>Sheet.239</title>
			<desc>Driver-specific API</desc>
			<rect x="0" y="118.124" width="134.823" height="80.8935" class="st1"/>
			<text x="9.85" y="162.77" class="st2">Driver-specific API</text>		</g>
		<g id="group244-24" transform="translate(703.614,0)">
			<title>Sheet.244</title>
		</g>
		<g id="group249-25" transform="translate(737.531,-12.628)">
			<title>Sheet.249</title>
		</g>
		<g id="shape250-26" transform="translate(187.531,302.436) rotate(180)">
			<title>Sheet.250</title>
			<path d="M0 199.02 L44.31 199.02" class="st9"/>
		</g>
		<g id="shape251-32" transform="translate(307.531,-95.5994)">
			<title>Sheet.251</title>
			<path d="M0 199.02 L44.31 199.02" class="st9"/>
		</g>
		<g id="shape253-37" transform="translate(557.531,302.436) rotate(180)">
			<title>Sheet.253</title>
			<path d="M0 199.02 L54.31 199.02" class="st9"/>
		</g>
		<g id="group255-42" transform="translate(737.531,-12.628)">
			<title>Sheet.255</title>
			<g id="group245-43">
				<title>Sheet.245</title>
				<g id="shape246-44">
					<title>Sheet.246</title>
					<path d="M0 57.88 L0 174.21 A24.8035 24.8035 -180 0 0 24.8 199.02 L95.2 199.02 A24.8035 24.8035 -180 0 0 120
								 174.21 L120 57.88 L0 57.88" class="st3"/>
				</g>
				<g id="shape247-47" transform="translate(0,-141.139)">
					<title>Sheet.247</title>
					<desc>Drivers</desc>
					<path d="M120 199.02 L0 199.02 A24.8035 24.8035 0 0 1 24.8 174.21 L95.2 174.21 A24.8035 24.8035 0 0 1 120 199.02
								 Z" class="st4"/>
					<text x="37.83" y="190.82" class="st2">Drivers</text>				</g>
			</g>
			<g id="shape248-50" transform="translate(14.5261,-32.5332)">
				<title>Sheet.248</title>
				<desc>SPI/QSPI Flash SD Card others</desc>
				<rect x="0" y="100.836" width="90.9479" height="98.1811" class="st6"/>
				<text x="4.69" y="137.33" class="st7">SPI/QSPI Flash <tspan x="23.17" dy="1.2em" class="st8">SD Card </tspan><tspan
							x="27.1" dy="1.2em" class="st8">others</tspan></text>			</g>
		</g>
		<g id="shape256-55" transform="translate(692.354,-95.5994)">
			<title>Sheet.256</title>
			<path d="M0 199.02 L36.9 199.02" class="st9"/>
		</g>
	</g>
</svg>
